<?xml version="1.0" encoding="utf-8"?>
<!-- Generator: Fusion 360, Shaper Origin Export Add-In, Version 1.7.0  -->
<svg xmlns="http://www.w3.org/2000/svg" xmlns:xlink="http://www.w3.org/1999/xlink" xmlns:shaper="http://www.shapertools.com/namespaces/shaper" shaper:fusionaddin="version:1.7.0" width="7.7150719cm" height="7.6200215cm" version="1.1" x="0cm" y="0cm" viewBox="0 0 7.7150719 7.6200215" enable-background="new 0 0 7.7150719 7.6200215" xml:space="preserve"><path d="M-3.8575359,3.8100108 L-3.8575359,-3.8100108 3.857536,-3.8100108 3.857536,3.8100108 -3.8575359,3.8100108z" transform="matrix(1,0,0,-1,3.8575359,3.8100108)" fill="rgb(0,0,0)" stroke-linecap="round" stroke-linejoin="round" /><path d="M-3.7482736,3.5941841 a0.04,0.04 0 1,1 0.08,0 a0.04,0.04 0 1,1 -0.08,0z" transform="matrix(1,0,0,-1,3.8575359,3.8100108)" fill="rgb(255,255,255)" stroke="rgb(0,0,0)" stroke-width="0.0010cm" stroke-linecap="round" stroke-linejoin="round" /><path d="M-2.6048941,2.1575992 L-2.604894,3.5575542 -1.204944,3.5575542 -1.204944,2.1575992 -2.6048941,2.1575992z" transform="matrix(1,0,0,-1,3.8575359,3.8100108)" fill="rgb(255,255,255)" stroke="rgb(0,0,0)" stroke-width="0.0010cm" stroke-linecap="round" stroke-linejoin="round" /><path d="M-2.6048941,0.2526192 L-2.604894,1.6525492 -1.204944,1.6525492 -1.204944,0.2526192 -2.6048941,0.2526192z" transform="matrix(1,0,0,-1,3.8575359,3.8100108)" fill="rgb(255,255,255)" stroke="rgb(0,0,0)" stroke-width="0.0010cm" stroke-linecap="round" stroke-linejoin="round" /><path d="M-2.6048941,-1.6523808 L-2.604894,-0.2524508 -1.204944,-0.2524508 -1.204944,-1.6523808 -2.6048941,-1.6523808z" transform="matrix(1,0,0,-1,3.8575359,3.8100108)" fill="rgb(255,255,255)" stroke="rgb(0,0,0)" stroke-width="0.0010cm" stroke-linecap="round" stroke-linejoin="round" /><path d="M-2.6048941,-3.5573808 L-2.604894,-2.1574508 -1.204944,-2.1574508 -1.204944,-3.5573808 -2.6048941,-3.5573808z" transform="matrix(1,0,0,-1,3.8575359,3.8100108)" fill="rgb(255,255,255)" stroke="rgb(0,0,0)" stroke-width="0.0010cm" stroke-linecap="round" stroke-linejoin="round" /><path d="M1.205106,2.1575992 L1.205106,3.5575542 2.605066,3.5575542 2.605066,2.1575992 1.205106,2.1575992z" transform="matrix(1,0,0,-1,3.8575359,3.8100108)" fill="rgb(255,255,255)" stroke="rgb(0,0,0)" stroke-width="0.0010cm" stroke-linecap="round" stroke-linejoin="round" /><path d="M-0.699894,-1.6523808 L-0.699894,-0.2524508 0.700066,-0.2524508 0.700066,-1.6523808 -0.699894,-1.6523808z" transform="matrix(1,0,0,-1,3.8575359,3.8100108)" fill="rgb(255,255,255)" stroke="rgb(0,0,0)" stroke-width="0.0010cm" stroke-linecap="round" stroke-linejoin="round" /><path d="M-0.699894,0.2526192 L-0.699894,1.6525492 0.700066,1.6525492 0.700066,0.2526192 -0.699894,0.2526192z" transform="matrix(1,0,0,-1,3.8575359,3.8100108)" fill="rgb(255,255,255)" stroke="rgb(0,0,0)" stroke-width="0.0010cm" stroke-linecap="round" stroke-linejoin="round" /><path d="M-0.699894,2.1575992 L-0.699894,3.5575542 0.700066,3.5575542 0.700066,2.1575992 -0.699894,2.1575992z" transform="matrix(1,0,0,-1,3.8575359,3.8100108)" fill="rgb(255,255,255)" stroke="rgb(0,0,0)" stroke-width="0.0010cm" stroke-linecap="round" stroke-linejoin="round" /><path d="M-3.6325359,3.5100108 a0.075,0.075 0 1,1 0.15,0 a0.075,0.075 0 1,1 -0.15,0z" transform="matrix(1,0,0,-1,3.8575359,3.8100108)" fill="rgb(255,255,255)" stroke="rgb(0,0,0)" stroke-width="0.0010cm" stroke-linecap="round" stroke-linejoin="round" /><path d="M3.4825359,3.5100108 a0.075,0.075 0 1,1 0.15,0 a0.075,0.075 0 1,1 -0.15,0z" transform="matrix(1,0,0,-1,3.8575359,3.8100108)" fill="rgb(255,255,255)" stroke="rgb(0,0,0)" stroke-width="0.0010cm" stroke-linecap="round" stroke-linejoin="round" /><path d="M1.205106,-1.6523808 L1.205106,-0.2524508 2.605066,-0.2524508 2.605066,-1.6523808 1.205106,-1.6523808z" transform="matrix(1,0,0,-1,3.8575359,3.8100108)" fill="rgb(255,255,255)" stroke="rgb(0,0,0)" stroke-width="0.0010cm" stroke-linecap="round" stroke-linejoin="round" /><path d="M-0.699894,-3.5573808 L-0.699894,-2.1574508 0.700066,-2.1574508 0.700066,-3.5573808 -0.699894,-3.5573808z" transform="matrix(1,0,0,-1,3.8575359,3.8100108)" fill="rgb(255,255,255)" stroke="rgb(0,0,0)" stroke-width="0.0010cm" stroke-linecap="round" stroke-linejoin="round" /><path d="M1.205106,0.2526192 L1.205106,1.6525492 2.605066,1.6525492 2.605066,0.2526192 1.205106,0.2526192z" transform="matrix(1,0,0,-1,3.8575359,3.8100108)" fill="rgb(255,255,255)" stroke="rgb(0,0,0)" stroke-width="0.0010cm" stroke-linecap="round" stroke-linejoin="round" /><path d="M1.205106,-3.5573808 L1.205106,-2.1574508 2.605066,-2.1574508 2.605066,-3.5573808 1.205106,-3.5573808z" transform="matrix(1,0,0,-1,3.8575359,3.8100108)" fill="rgb(255,255,255)" stroke="rgb(0,0,0)" stroke-width="0.0010cm" stroke-linecap="round" stroke-linejoin="round" /><path d="M3.482536,-3.5100108 a0.075,0.075 0 1,1 0.15,0 a0.075,0.075 0 1,1 -0.15,0z" transform="matrix(1,0,0,-1,3.8575359,3.8100108)" fill="rgb(255,255,255)" stroke="rgb(0,0,0)" stroke-width="0.0010cm" stroke-linecap="round" stroke-linejoin="round" /><path d="M-3.6325359,-3.5100108 a0.075,0.075 0 1,1 0.15,0 a0.075,0.075 0 1,1 -0.15,0z" transform="matrix(1,0,0,-1,3.8575359,3.8100108)" fill="rgb(255,255,255)" stroke="rgb(0,0,0)" stroke-width="0.0010cm" stroke-linecap="round" stroke-linejoin="round" /></svg>