<?xml version="1.0" encoding="utf-8"?>
<!-- Generator: Fusion 360, Shaper Origin Export Add-In, Version 1.7.0  -->
<svg xmlns="http://www.w3.org/2000/svg" xmlns:xlink="http://www.w3.org/1999/xlink" xmlns:shaper="http://www.shapertools.com/namespaces/shaper" shaper:fusionaddin="version:1.7.0" width="8.6214949cm" height="13.9808949cm" version="1.1" x="0cm" y="0cm" viewBox="0 0 8.6214949 13.9808949" enable-background="new 0 0 8.6214949 13.9808949" xml:space="preserve"><path d="M-9.1392455,-15.5569327 L-9.1090759,-15.5624619 -9.0784598,-15.5643144 -0.96677,-15.5643144 -0.9361539,-15.5624619 -0.9059843,-15.5569327 -0.8767011,-15.5478073 -0.8487313,-15.5352188 -0.8224827,-15.5193508 -0.7983382,-15.5004346 -0.7766498,-15.4787462 -0.7577336,-15.4546017 -0.7418656,-15.4283531 -0.7292771,-15.4003833 -0.7201517,-15.3711001 -0.7146225,-15.3409305 -0.71277,-15.3103144 -0.71277,-1.8392246 -0.7146225,-1.8086085 -0.7201517,-1.7784389 -0.7292771,-1.7491557 -0.7418656,-1.7211859 -0.7577336,-1.6949373 -0.7766498,-1.6707928 -0.7983382,-1.6491044 -0.8224827,-1.6301882 -0.8487313,-1.6143202 -0.8767011,-1.6017317 -0.9059843,-1.5926063 -0.9361539,-1.5870771 -0.96677,-1.5852246 -9.0802649,-1.5834195 -9.1108812,-1.5852714 -9.1410511,-1.5908003 -9.1703345,-1.5999254 -9.1983046,-1.6125137 -9.2245533,-1.6283816 -9.2486981,-1.6472978 -9.2703866,-1.6689863 -9.2893028,-1.6931311 -9.3051707,-1.7193798 -9.317759,-1.7473499 -9.3268841,-1.7766333 -9.332413,-1.8068032 -9.3342649,-1.8374195 -9.3324598,-15.3103144 -9.3306073,-15.3409305 -9.3250781,-15.3711001 -9.3159527,-15.4003833 -9.3033642,-15.4283531 -9.2874962,-15.4546017 -9.26858,-15.4787462 -9.2468916,-15.5004346 -9.2227471,-15.5193508 -9.1964985,-15.5352188 -9.1685287,-15.5478073 -9.1392455,-15.5569327z" transform="matrix(1,0,0,-1,9.3342649,-1.5834195)" stroke="rgb(100,100,100)" stroke-width="0.0010cm" stroke-linecap="round" stroke-linejoin="round" fill="none" /><path d="M-9.2453649,-1.8374195 a0.1524,0.1524 0 1,1 0.3048,0 a0.1524,0.1524 0 1,1 -0.3048,0z" transform="matrix(1,0,0,-1,9.3342649,-1.5834195)" stroke="rgb(100,100,100)" stroke-width="0.0010cm" stroke-linecap="round" stroke-linejoin="round" fill="none" /><path d="M-8.4540649,-6.8539195 a0.085,0.085 0 1,1 0.17,0 a0.085,0.085 0 1,1 -0.17,0z" transform="matrix(1,0,0,-1,9.3342649,-1.5834195)" stroke="rgb(100,100,100)" stroke-width="0.0010cm" stroke-linecap="round" stroke-linejoin="round" fill="none" /><path d="M-8.0610649,-6.8539195 a0.2,0.2 0 1,1 0.4,0 a0.2,0.2 0 1,1 -0.4,0z" transform="matrix(1,0,0,-1,9.3342649,-1.5834195)" stroke="rgb(100,100,100)" stroke-width="0.0010cm" stroke-linecap="round" stroke-linejoin="round" fill="none" /><path d="M-8.1900649,-7.3619195 a0.075,0.075 0 1,1 0.15,0 a0.075,0.075 0 1,1 -0.15,0z" transform="matrix(1,0,0,-1,9.3342649,-1.5834195)" stroke="rgb(100,100,100)" stroke-width="0.0010cm" stroke-linecap="round" stroke-linejoin="round" fill="none" /><path d="M-7.5550649,-7.1079195 a0.075,0.075 0 1,1 0.15,0 a0.075,0.075 0 1,1 -0.15,0z" transform="matrix(1,0,0,-1,9.3342649,-1.5834195)" stroke="rgb(100,100,100)" stroke-width="0.0010cm" stroke-linecap="round" stroke-linejoin="round" fill="none" /><path d="M-7.4380649,-6.8539195 a0.085,0.085 0 1,1 0.17,0 a0.085,0.085 0 1,1 -0.17,0z" transform="matrix(1,0,0,-1,9.3342649,-1.5834195)" stroke="rgb(100,100,100)" stroke-width="0.0010cm" stroke-linecap="round" stroke-linejoin="round" fill="none" /><path d="M-6.5490649,-6.8539195 a0.085,0.085 0 1,1 0.17,0 a0.085,0.085 0 1,1 -0.17,0z" transform="matrix(1,0,0,-1,9.3342649,-1.5834195)" stroke="rgb(100,100,100)" stroke-width="0.0010cm" stroke-linecap="round" stroke-linejoin="round" fill="none" /><path d="M-6.2850649,-7.3619195 a0.075,0.075 0 1,1 0.15,0 a0.075,0.075 0 1,1 -0.15,0z" transform="matrix(1,0,0,-1,9.3342649,-1.5834195)" stroke="rgb(100,100,100)" stroke-width="0.0010cm" stroke-linecap="round" stroke-linejoin="round" fill="none" /><path d="M-6.1560649,-6.8539195 a0.2,0.2 0 1,1 0.4,0 a0.2,0.2 0 1,1 -0.4,0z" transform="matrix(1,0,0,-1,9.3342649,-1.5834195)" stroke="rgb(100,100,100)" stroke-width="0.0010cm" stroke-linecap="round" stroke-linejoin="round" fill="none" /><path d="M-5.6500649,-7.1079195 a0.075,0.075 0 1,1 0.15,0 a0.075,0.075 0 1,1 -0.15,0z" transform="matrix(1,0,0,-1,9.3342649,-1.5834195)" stroke="rgb(100,100,100)" stroke-width="0.0010cm" stroke-linecap="round" stroke-linejoin="round" fill="none" /><path d="M-5.5330649,-6.8539195 a0.085,0.085 0 1,1 0.17,0 a0.085,0.085 0 1,1 -0.17,0z" transform="matrix(1,0,0,-1,9.3342649,-1.5834195)" stroke="rgb(100,100,100)" stroke-width="0.0010cm" stroke-linecap="round" stroke-linejoin="round" fill="none" /><path d="M-5.1733649,-3.9075195 a0.1825,0.1825 0 1,1 0.365,0 a0.1825,0.1825 0 1,1 -0.365,0z" transform="matrix(1,0,0,-1,9.3342649,-1.5834195)" stroke="rgb(100,100,100)" stroke-width="0.0010cm" stroke-linecap="round" stroke-linejoin="round" fill="none" /><path d="M-2.4333649,-3.2445195 a0.0585,0.0585 0 1,1 0.117,0 a0.0585,0.0585 0 1,1 -0.117,0z" transform="matrix(1,0,0,-1,9.3342649,-1.5834195)" stroke="rgb(100,100,100)" stroke-width="0.0010cm" stroke-linecap="round" stroke-linejoin="round" fill="none" /><path d="M-1.1209859,-1.8392247 a0.1542158,0.1542158 0 1,1 0.3084316,0 a0.1542158,0.1542158 0 1,1 -0.3084316,0z" transform="matrix(1,0,0,-1,9.3342649,-1.5834195)" stroke="rgb(100,100,100)" stroke-width="0.0010cm" stroke-linecap="round" stroke-linejoin="round" fill="none" /><path d="M-2.4333649,-4.6035195 a0.0585,0.0585 0 1,1 0.117,0 a0.0585,0.0585 0 1,1 -0.117,0z" transform="matrix(1,0,0,-1,9.3342649,-1.5834195)" stroke="rgb(100,100,100)" stroke-width="0.0010cm" stroke-linecap="round" stroke-linejoin="round" fill="none" /><path d="M-4.6440649,-6.8539195 a0.085,0.085 0 1,1 0.17,0 a0.085,0.085 0 1,1 -0.17,0z" transform="matrix(1,0,0,-1,9.3342649,-1.5834195)" stroke="rgb(100,100,100)" stroke-width="0.0010cm" stroke-linecap="round" stroke-linejoin="round" fill="none" /><path d="M-4.2510649,-6.8539195 a0.2,0.2 0 1,1 0.4,0 a0.2,0.2 0 1,1 -0.4,0z" transform="matrix(1,0,0,-1,9.3342649,-1.5834195)" stroke="rgb(100,100,100)" stroke-width="0.0010cm" stroke-linecap="round" stroke-linejoin="round" fill="none" /><path d="M-4.3800649,-7.3619195 a0.075,0.075 0 1,1 0.15,0 a0.075,0.075 0 1,1 -0.15,0z" transform="matrix(1,0,0,-1,9.3342649,-1.5834195)" stroke="rgb(100,100,100)" stroke-width="0.0010cm" stroke-linecap="round" stroke-linejoin="round" fill="none" /><path d="M-3.6280649,-6.8539195 a0.085,0.085 0 1,1 0.17,0 a0.085,0.085 0 1,1 -0.17,0z" transform="matrix(1,0,0,-1,9.3342649,-1.5834195)" stroke="rgb(100,100,100)" stroke-width="0.0010cm" stroke-linecap="round" stroke-linejoin="round" fill="none" /><path d="M-3.7450649,-7.1079195 a0.075,0.075 0 1,1 0.15,0 a0.075,0.075 0 1,1 -0.15,0z" transform="matrix(1,0,0,-1,9.3342649,-1.5834195)" stroke="rgb(100,100,100)" stroke-width="0.0010cm" stroke-linecap="round" stroke-linejoin="round" fill="none" /><path d="M-2.7390649,-6.8539195 a0.085,0.085 0 1,1 0.17,0 a0.085,0.085 0 1,1 -0.17,0z" transform="matrix(1,0,0,-1,9.3342649,-1.5834195)" stroke="rgb(100,100,100)" stroke-width="0.0010cm" stroke-linecap="round" stroke-linejoin="round" fill="none" /><path d="M-2.4750649,-7.3619195 a0.075,0.075 0 1,1 0.15,0 a0.075,0.075 0 1,1 -0.15,0z" transform="matrix(1,0,0,-1,9.3342649,-1.5834195)" stroke="rgb(100,100,100)" stroke-width="0.0010cm" stroke-linecap="round" stroke-linejoin="round" fill="none" /><path d="M-2.3460649,-6.8539195 a0.2,0.2 0 1,1 0.4,0 a0.2,0.2 0 1,1 -0.4,0z" transform="matrix(1,0,0,-1,9.3342649,-1.5834195)" stroke="rgb(100,100,100)" stroke-width="0.0010cm" stroke-linecap="round" stroke-linejoin="round" fill="none" /><path d="M-1.7230649,-6.8539195 a0.085,0.085 0 1,1 0.17,0 a0.085,0.085 0 1,1 -0.17,0z" transform="matrix(1,0,0,-1,9.3342649,-1.5834195)" stroke="rgb(100,100,100)" stroke-width="0.0010cm" stroke-linecap="round" stroke-linejoin="round" fill="none" /><path d="M-1.8400649,-7.1079195 a0.075,0.075 0 1,1 0.15,0 a0.075,0.075 0 1,1 -0.15,0z" transform="matrix(1,0,0,-1,9.3342649,-1.5834195)" stroke="rgb(100,100,100)" stroke-width="0.0010cm" stroke-linecap="round" stroke-linejoin="round" fill="none" /><path d="M-8.4540649,-8.7589195 a0.085,0.085 0 1,1 0.17,0 a0.085,0.085 0 1,1 -0.17,0z" transform="matrix(1,0,0,-1,9.3342649,-1.5834195)" stroke="rgb(100,100,100)" stroke-width="0.0010cm" stroke-linecap="round" stroke-linejoin="round" fill="none" /><path d="M-8.0610649,-8.7589195 a0.2,0.2 0 1,1 0.4,0 a0.2,0.2 0 1,1 -0.4,0z" transform="matrix(1,0,0,-1,9.3342649,-1.5834195)" stroke="rgb(100,100,100)" stroke-width="0.0010cm" stroke-linecap="round" stroke-linejoin="round" fill="none" /><path d="M-8.1900649,-9.2669195 a0.075,0.075 0 1,1 0.15,0 a0.075,0.075 0 1,1 -0.15,0z" transform="matrix(1,0,0,-1,9.3342649,-1.5834195)" stroke="rgb(100,100,100)" stroke-width="0.0010cm" stroke-linecap="round" stroke-linejoin="round" fill="none" /><path d="M-7.4380649,-8.7589195 a0.085,0.085 0 1,1 0.17,0 a0.085,0.085 0 1,1 -0.17,0z" transform="matrix(1,0,0,-1,9.3342649,-1.5834195)" stroke="rgb(100,100,100)" stroke-width="0.0010cm" stroke-linecap="round" stroke-linejoin="round" fill="none" /><path d="M-7.5550649,-9.0129195 a0.075,0.075 0 1,1 0.15,0 a0.075,0.075 0 1,1 -0.15,0z" transform="matrix(1,0,0,-1,9.3342649,-1.5834195)" stroke="rgb(100,100,100)" stroke-width="0.0010cm" stroke-linecap="round" stroke-linejoin="round" fill="none" /><path d="M-8.4540649,-10.6639195 a0.085,0.085 0 1,1 0.17,0 a0.085,0.085 0 1,1 -0.17,0z" transform="matrix(1,0,0,-1,9.3342649,-1.5834195)" stroke="rgb(100,100,100)" stroke-width="0.0010cm" stroke-linecap="round" stroke-linejoin="round" fill="none" /><path d="M-8.0610649,-10.6639195 a0.2,0.2 0 1,1 0.4,0 a0.2,0.2 0 1,1 -0.4,0z" transform="matrix(1,0,0,-1,9.3342649,-1.5834195)" stroke="rgb(100,100,100)" stroke-width="0.0010cm" stroke-linecap="round" stroke-linejoin="round" fill="none" /><path d="M-7.4380649,-10.6639195 a0.085,0.085 0 1,1 0.17,0 a0.085,0.085 0 1,1 -0.17,0z" transform="matrix(1,0,0,-1,9.3342649,-1.5834195)" stroke="rgb(100,100,100)" stroke-width="0.0010cm" stroke-linecap="round" stroke-linejoin="round" fill="none" /><path d="M-7.5550649,-10.9179195 a0.075,0.075 0 1,1 0.15,0 a0.075,0.075 0 1,1 -0.15,0z" transform="matrix(1,0,0,-1,9.3342649,-1.5834195)" stroke="rgb(100,100,100)" stroke-width="0.0010cm" stroke-linecap="round" stroke-linejoin="round" fill="none" /><path d="M-8.1900649,-11.1719195 a0.075,0.075 0 1,1 0.15,0 a0.075,0.075 0 1,1 -0.15,0z" transform="matrix(1,0,0,-1,9.3342649,-1.5834195)" stroke="rgb(100,100,100)" stroke-width="0.0010cm" stroke-linecap="round" stroke-linejoin="round" fill="none" /><path d="M-6.5490649,-8.7589195 a0.085,0.085 0 1,1 0.17,0 a0.085,0.085 0 1,1 -0.17,0z" transform="matrix(1,0,0,-1,9.3342649,-1.5834195)" stroke="rgb(100,100,100)" stroke-width="0.0010cm" stroke-linecap="round" stroke-linejoin="round" fill="none" /><path d="M-6.2850649,-9.2669195 a0.075,0.075 0 1,1 0.15,0 a0.075,0.075 0 1,1 -0.15,0z" transform="matrix(1,0,0,-1,9.3342649,-1.5834195)" stroke="rgb(100,100,100)" stroke-width="0.0010cm" stroke-linecap="round" stroke-linejoin="round" fill="none" /><path d="M-6.1560649,-8.7589195 a0.2,0.2 0 1,1 0.4,0 a0.2,0.2 0 1,1 -0.4,0z" transform="matrix(1,0,0,-1,9.3342649,-1.5834195)" stroke="rgb(100,100,100)" stroke-width="0.0010cm" stroke-linecap="round" stroke-linejoin="round" fill="none" /><path d="M-5.6500649,-9.0129195 a0.075,0.075 0 1,1 0.15,0 a0.075,0.075 0 1,1 -0.15,0z" transform="matrix(1,0,0,-1,9.3342649,-1.5834195)" stroke="rgb(100,100,100)" stroke-width="0.0010cm" stroke-linecap="round" stroke-linejoin="round" fill="none" /><path d="M-5.5330649,-8.7589195 a0.085,0.085 0 1,1 0.17,0 a0.085,0.085 0 1,1 -0.17,0z" transform="matrix(1,0,0,-1,9.3342649,-1.5834195)" stroke="rgb(100,100,100)" stroke-width="0.0010cm" stroke-linecap="round" stroke-linejoin="round" fill="none" /><path d="M-6.5490649,-10.6639195 a0.085,0.085 0 1,1 0.17,0 a0.085,0.085 0 1,1 -0.17,0z" transform="matrix(1,0,0,-1,9.3342649,-1.5834195)" stroke="rgb(100,100,100)" stroke-width="0.0010cm" stroke-linecap="round" stroke-linejoin="round" fill="none" /><path d="M-6.2850649,-11.1719195 a0.075,0.075 0 1,1 0.15,0 a0.075,0.075 0 1,1 -0.15,0z" transform="matrix(1,0,0,-1,9.3342649,-1.5834195)" stroke="rgb(100,100,100)" stroke-width="0.0010cm" stroke-linecap="round" stroke-linejoin="round" fill="none" /><path d="M-6.1560649,-10.6639195 a0.2,0.2 0 1,1 0.4,0 a0.2,0.2 0 1,1 -0.4,0z" transform="matrix(1,0,0,-1,9.3342649,-1.5834195)" stroke="rgb(100,100,100)" stroke-width="0.0010cm" stroke-linecap="round" stroke-linejoin="round" fill="none" /><path d="M-5.6500649,-10.9179195 a0.075,0.075 0 1,1 0.15,0 a0.075,0.075 0 1,1 -0.15,0z" transform="matrix(1,0,0,-1,9.3342649,-1.5834195)" stroke="rgb(100,100,100)" stroke-width="0.0010cm" stroke-linecap="round" stroke-linejoin="round" fill="none" /><path d="M-5.5330649,-10.6639195 a0.085,0.085 0 1,1 0.17,0 a0.085,0.085 0 1,1 -0.17,0z" transform="matrix(1,0,0,-1,9.3342649,-1.5834195)" stroke="rgb(100,100,100)" stroke-width="0.0010cm" stroke-linecap="round" stroke-linejoin="round" fill="none" /><path d="M-8.6376649,-12.4673195 a0.04,0.04 0 1,1 0.08,0 a0.04,0.04 0 1,1 -0.08,0z" transform="matrix(1,0,0,-1,9.3342649,-1.5834195)" stroke="rgb(100,100,100)" stroke-width="0.0010cm" stroke-linecap="round" stroke-linejoin="round" fill="none" /><path d="M-8.6376649,-13.7373195 a0.04,0.04 0 1,1 0.08,0 a0.04,0.04 0 1,1 -0.08,0z" transform="matrix(1,0,0,-1,9.3342649,-1.5834195)" stroke="rgb(100,100,100)" stroke-width="0.0010cm" stroke-linecap="round" stroke-linejoin="round" fill="none" /><path d="M-7.4811649,-12.8991195 a0.051,0.051 0 1,1 0.102,0 a0.051,0.051 0 1,1 -0.102,0z" transform="matrix(1,0,0,-1,9.3342649,-1.5834195)" stroke="rgb(100,100,100)" stroke-width="0.0010cm" stroke-linecap="round" stroke-linejoin="round" fill="none" /><path d="M-7.2271649,-12.8991195 a0.051,0.051 0 1,1 0.102,0 a0.051,0.051 0 1,1 -0.102,0z" transform="matrix(1,0,0,-1,9.3342649,-1.5834195)" stroke="rgb(100,100,100)" stroke-width="0.0010cm" stroke-linecap="round" stroke-linejoin="round" fill="none" /><path d="M-7.4581649,-13.5341195 a0.051,0.051 0 1,1 0.102,0 a0.051,0.051 0 1,1 -0.102,0z" transform="matrix(1,0,0,-1,9.3342649,-1.5834195)" stroke="rgb(100,100,100)" stroke-width="0.0010cm" stroke-linecap="round" stroke-linejoin="round" fill="none" /><path d="M-8.7111649,-14.3977195 a0.05,0.05 0 1,1 0.1,0 a0.05,0.05 0 1,1 -0.1,0z" transform="matrix(1,0,0,-1,9.3342649,-1.5834195)" stroke="rgb(100,100,100)" stroke-width="0.0010cm" stroke-linecap="round" stroke-linejoin="round" fill="none" /><path d="M-9.2453649,-15.3121195 a0.1524,0.1524 0 1,1 0.3048,0 a0.1524,0.1524 0 1,1 -0.3048,0z" transform="matrix(1,0,0,-1,9.3342649,-1.5834195)" stroke="rgb(100,100,100)" stroke-width="0.0010cm" stroke-linecap="round" stroke-linejoin="round" fill="none" /><path d="M-8.2031649,-14.3977195 a0.05,0.05 0 1,1 0.1,0 a0.05,0.05 0 1,1 -0.1,0z" transform="matrix(1,0,0,-1,9.3342649,-1.5834195)" stroke="rgb(100,100,100)" stroke-width="0.0010cm" stroke-linecap="round" stroke-linejoin="round" fill="none" /><path d="M-7.4581649,-13.7881195 a0.051,0.051 0 1,1 0.102,0 a0.051,0.051 0 1,1 -0.102,0z" transform="matrix(1,0,0,-1,9.3342649,-1.5834195)" stroke="rgb(100,100,100)" stroke-width="0.0010cm" stroke-linecap="round" stroke-linejoin="round" fill="none" /><path d="M-7.4581649,-14.0421195 a0.051,0.051 0 1,1 0.102,0 a0.051,0.051 0 1,1 -0.102,0z" transform="matrix(1,0,0,-1,9.3342649,-1.5834195)" stroke="rgb(100,100,100)" stroke-width="0.0010cm" stroke-linecap="round" stroke-linejoin="round" fill="none" /><path d="M-7.4811649,-14.6771195 a0.051,0.051 0 1,1 0.102,0 a0.051,0.051 0 1,1 -0.102,0z" transform="matrix(1,0,0,-1,9.3342649,-1.5834195)" stroke="rgb(100,100,100)" stroke-width="0.0010cm" stroke-linecap="round" stroke-linejoin="round" fill="none" /><path d="M-7.2271649,-14.6771195 a0.051,0.051 0 1,1 0.102,0 a0.051,0.051 0 1,1 -0.102,0z" transform="matrix(1,0,0,-1,9.3342649,-1.5834195)" stroke="rgb(100,100,100)" stroke-width="0.0010cm" stroke-linecap="round" stroke-linejoin="round" fill="none" /><path d="M-6.9731649,-12.8991195 a0.051,0.051 0 1,1 0.102,0 a0.051,0.051 0 1,1 -0.102,0z" transform="matrix(1,0,0,-1,9.3342649,-1.5834195)" stroke="rgb(100,100,100)" stroke-width="0.0010cm" stroke-linecap="round" stroke-linejoin="round" fill="none" /><path d="M-6.7191649,-12.8991195 a0.051,0.051 0 1,1 0.102,0 a0.051,0.051 0 1,1 -0.102,0z" transform="matrix(1,0,0,-1,9.3342649,-1.5834195)" stroke="rgb(100,100,100)" stroke-width="0.0010cm" stroke-linecap="round" stroke-linejoin="round" fill="none" /><path d="M-6.4651649,-12.8991195 a0.051,0.051 0 1,1 0.102,0 a0.051,0.051 0 1,1 -0.102,0z" transform="matrix(1,0,0,-1,9.3342649,-1.5834195)" stroke="rgb(100,100,100)" stroke-width="0.0010cm" stroke-linecap="round" stroke-linejoin="round" fill="none" /><path d="M-6.2111649,-12.8991195 a0.051,0.051 0 1,1 0.102,0 a0.051,0.051 0 1,1 -0.102,0z" transform="matrix(1,0,0,-1,9.3342649,-1.5834195)" stroke="rgb(100,100,100)" stroke-width="0.0010cm" stroke-linecap="round" stroke-linejoin="round" fill="none" /><path d="M-5.9571649,-12.8991195 a0.051,0.051 0 1,1 0.102,0 a0.051,0.051 0 1,1 -0.102,0z" transform="matrix(1,0,0,-1,9.3342649,-1.5834195)" stroke="rgb(100,100,100)" stroke-width="0.0010cm" stroke-linecap="round" stroke-linejoin="round" fill="none" /><path d="M-5.7031649,-12.8991195 a0.051,0.051 0 1,1 0.102,0 a0.051,0.051 0 1,1 -0.102,0z" transform="matrix(1,0,0,-1,9.3342649,-1.5834195)" stroke="rgb(100,100,100)" stroke-width="0.0010cm" stroke-linecap="round" stroke-linejoin="round" fill="none" /><path d="M-5.4491649,-12.8991195 a0.051,0.051 0 1,1 0.102,0 a0.051,0.051 0 1,1 -0.102,0z" transform="matrix(1,0,0,-1,9.3342649,-1.5834195)" stroke="rgb(100,100,100)" stroke-width="0.0010cm" stroke-linecap="round" stroke-linejoin="round" fill="none" /><path d="M-5.1951649,-12.8991195 a0.051,0.051 0 1,1 0.102,0 a0.051,0.051 0 1,1 -0.102,0z" transform="matrix(1,0,0,-1,9.3342649,-1.5834195)" stroke="rgb(100,100,100)" stroke-width="0.0010cm" stroke-linecap="round" stroke-linejoin="round" fill="none" /><path d="M-6.9731649,-14.6771195 a0.051,0.051 0 1,1 0.102,0 a0.051,0.051 0 1,1 -0.102,0z" transform="matrix(1,0,0,-1,9.3342649,-1.5834195)" stroke="rgb(100,100,100)" stroke-width="0.0010cm" stroke-linecap="round" stroke-linejoin="round" fill="none" /><path d="M-6.7191649,-14.6771195 a0.051,0.051 0 1,1 0.102,0 a0.051,0.051 0 1,1 -0.102,0z" transform="matrix(1,0,0,-1,9.3342649,-1.5834195)" stroke="rgb(100,100,100)" stroke-width="0.0010cm" stroke-linecap="round" stroke-linejoin="round" fill="none" /><path d="M-6.4651649,-14.6771195 a0.051,0.051 0 1,1 0.102,0 a0.051,0.051 0 1,1 -0.102,0z" transform="matrix(1,0,0,-1,9.3342649,-1.5834195)" stroke="rgb(100,100,100)" stroke-width="0.0010cm" stroke-linecap="round" stroke-linejoin="round" fill="none" /><path d="M-6.2111649,-14.6771195 a0.051,0.051 0 1,1 0.102,0 a0.051,0.051 0 1,1 -0.102,0z" transform="matrix(1,0,0,-1,9.3342649,-1.5834195)" stroke="rgb(100,100,100)" stroke-width="0.0010cm" stroke-linecap="round" stroke-linejoin="round" fill="none" /><path d="M-5.9571649,-14.6771195 a0.051,0.051 0 1,1 0.102,0 a0.051,0.051 0 1,1 -0.102,0z" transform="matrix(1,0,0,-1,9.3342649,-1.5834195)" stroke="rgb(100,100,100)" stroke-width="0.0010cm" stroke-linecap="round" stroke-linejoin="round" fill="none" /><path d="M-5.7031649,-14.6771195 a0.051,0.051 0 1,1 0.102,0 a0.051,0.051 0 1,1 -0.102,0z" transform="matrix(1,0,0,-1,9.3342649,-1.5834195)" stroke="rgb(100,100,100)" stroke-width="0.0010cm" stroke-linecap="round" stroke-linejoin="round" fill="none" /><path d="M-5.4491649,-14.6771195 a0.051,0.051 0 1,1 0.102,0 a0.051,0.051 0 1,1 -0.102,0z" transform="matrix(1,0,0,-1,9.3342649,-1.5834195)" stroke="rgb(100,100,100)" stroke-width="0.0010cm" stroke-linecap="round" stroke-linejoin="round" fill="none" /><path d="M-5.1951649,-14.6771195 a0.051,0.051 0 1,1 0.102,0 a0.051,0.051 0 1,1 -0.102,0z" transform="matrix(1,0,0,-1,9.3342649,-1.5834195)" stroke="rgb(100,100,100)" stroke-width="0.0010cm" stroke-linecap="round" stroke-linejoin="round" fill="none" /><path d="M-4.6440649,-8.7589195 a0.085,0.085 0 1,1 0.17,0 a0.085,0.085 0 1,1 -0.17,0z" transform="matrix(1,0,0,-1,9.3342649,-1.5834195)" stroke="rgb(100,100,100)" stroke-width="0.0010cm" stroke-linecap="round" stroke-linejoin="round" fill="none" /><path d="M-4.2510649,-8.7589195 a0.2,0.2 0 1,1 0.4,0 a0.2,0.2 0 1,1 -0.4,0z" transform="matrix(1,0,0,-1,9.3342649,-1.5834195)" stroke="rgb(100,100,100)" stroke-width="0.0010cm" stroke-linecap="round" stroke-linejoin="round" fill="none" /><path d="M-4.3800649,-9.2669195 a0.075,0.075 0 1,1 0.15,0 a0.075,0.075 0 1,1 -0.15,0z" transform="matrix(1,0,0,-1,9.3342649,-1.5834195)" stroke="rgb(100,100,100)" stroke-width="0.0010cm" stroke-linecap="round" stroke-linejoin="round" fill="none" /><path d="M-3.6280649,-8.7589195 a0.085,0.085 0 1,1 0.17,0 a0.085,0.085 0 1,1 -0.17,0z" transform="matrix(1,0,0,-1,9.3342649,-1.5834195)" stroke="rgb(100,100,100)" stroke-width="0.0010cm" stroke-linecap="round" stroke-linejoin="round" fill="none" /><path d="M-3.7450649,-9.0129195 a0.075,0.075 0 1,1 0.15,0 a0.075,0.075 0 1,1 -0.15,0z" transform="matrix(1,0,0,-1,9.3342649,-1.5834195)" stroke="rgb(100,100,100)" stroke-width="0.0010cm" stroke-linecap="round" stroke-linejoin="round" fill="none" /><path d="M-4.6440649,-10.6639195 a0.085,0.085 0 1,1 0.17,0 a0.085,0.085 0 1,1 -0.17,0z" transform="matrix(1,0,0,-1,9.3342649,-1.5834195)" stroke="rgb(100,100,100)" stroke-width="0.0010cm" stroke-linecap="round" stroke-linejoin="round" fill="none" /><path d="M-4.2510649,-10.6639195 a0.2,0.2 0 1,1 0.4,0 a0.2,0.2 0 1,1 -0.4,0z" transform="matrix(1,0,0,-1,9.3342649,-1.5834195)" stroke="rgb(100,100,100)" stroke-width="0.0010cm" stroke-linecap="round" stroke-linejoin="round" fill="none" /><path d="M-4.3800649,-11.1719195 a0.075,0.075 0 1,1 0.15,0 a0.075,0.075 0 1,1 -0.15,0z" transform="matrix(1,0,0,-1,9.3342649,-1.5834195)" stroke="rgb(100,100,100)" stroke-width="0.0010cm" stroke-linecap="round" stroke-linejoin="round" fill="none" /><path d="M-3.6280649,-10.6639195 a0.085,0.085 0 1,1 0.17,0 a0.085,0.085 0 1,1 -0.17,0z" transform="matrix(1,0,0,-1,9.3342649,-1.5834195)" stroke="rgb(100,100,100)" stroke-width="0.0010cm" stroke-linecap="round" stroke-linejoin="round" fill="none" /><path d="M-3.7450649,-10.9179195 a0.075,0.075 0 1,1 0.15,0 a0.075,0.075 0 1,1 -0.15,0z" transform="matrix(1,0,0,-1,9.3342649,-1.5834195)" stroke="rgb(100,100,100)" stroke-width="0.0010cm" stroke-linecap="round" stroke-linejoin="round" fill="none" /><path d="M-2.7390649,-8.7589195 a0.085,0.085 0 1,1 0.17,0 a0.085,0.085 0 1,1 -0.17,0z" transform="matrix(1,0,0,-1,9.3342649,-1.5834195)" stroke="rgb(100,100,100)" stroke-width="0.0010cm" stroke-linecap="round" stroke-linejoin="round" fill="none" /><path d="M-2.4750649,-9.2669195 a0.075,0.075 0 1,1 0.15,0 a0.075,0.075 0 1,1 -0.15,0z" transform="matrix(1,0,0,-1,9.3342649,-1.5834195)" stroke="rgb(100,100,100)" stroke-width="0.0010cm" stroke-linecap="round" stroke-linejoin="round" fill="none" /><path d="M-2.3460649,-8.7589195 a0.2,0.2 0 1,1 0.4,0 a0.2,0.2 0 1,1 -0.4,0z" transform="matrix(1,0,0,-1,9.3342649,-1.5834195)" stroke="rgb(100,100,100)" stroke-width="0.0010cm" stroke-linecap="round" stroke-linejoin="round" fill="none" /><path d="M-1.7230649,-8.7589195 a0.085,0.085 0 1,1 0.17,0 a0.085,0.085 0 1,1 -0.17,0z" transform="matrix(1,0,0,-1,9.3342649,-1.5834195)" stroke="rgb(100,100,100)" stroke-width="0.0010cm" stroke-linecap="round" stroke-linejoin="round" fill="none" /><path d="M-1.8400649,-9.0129195 a0.075,0.075 0 1,1 0.15,0 a0.075,0.075 0 1,1 -0.15,0z" transform="matrix(1,0,0,-1,9.3342649,-1.5834195)" stroke="rgb(100,100,100)" stroke-width="0.0010cm" stroke-linecap="round" stroke-linejoin="round" fill="none" /><path d="M-2.7390649,-10.6639195 a0.085,0.085 0 1,1 0.17,0 a0.085,0.085 0 1,1 -0.17,0z" transform="matrix(1,0,0,-1,9.3342649,-1.5834195)" stroke="rgb(100,100,100)" stroke-width="0.0010cm" stroke-linecap="round" stroke-linejoin="round" fill="none" /><path d="M-2.3460649,-10.6639195 a0.2,0.2 0 1,1 0.4,0 a0.2,0.2 0 1,1 -0.4,0z" transform="matrix(1,0,0,-1,9.3342649,-1.5834195)" stroke="rgb(100,100,100)" stroke-width="0.0010cm" stroke-linecap="round" stroke-linejoin="round" fill="none" /><path d="M-2.4750649,-11.1719195 a0.075,0.075 0 1,1 0.15,0 a0.075,0.075 0 1,1 -0.15,0z" transform="matrix(1,0,0,-1,9.3342649,-1.5834195)" stroke="rgb(100,100,100)" stroke-width="0.0010cm" stroke-linecap="round" stroke-linejoin="round" fill="none" /><path d="M-1.7230649,-10.6639195 a0.085,0.085 0 1,1 0.17,0 a0.085,0.085 0 1,1 -0.17,0z" transform="matrix(1,0,0,-1,9.3342649,-1.5834195)" stroke="rgb(100,100,100)" stroke-width="0.0010cm" stroke-linecap="round" stroke-linejoin="round" fill="none" /><path d="M-1.8400649,-10.9179195 a0.075,0.075 0 1,1 0.15,0 a0.075,0.075 0 1,1 -0.15,0z" transform="matrix(1,0,0,-1,9.3342649,-1.5834195)" stroke="rgb(100,100,100)" stroke-width="0.0010cm" stroke-linecap="round" stroke-linejoin="round" fill="none" /><path d="M-4.9411649,-12.8991195 a0.051,0.051 0 1,1 0.102,0 a0.051,0.051 0 1,1 -0.102,0z" transform="matrix(1,0,0,-1,9.3342649,-1.5834195)" stroke="rgb(100,100,100)" stroke-width="0.0010cm" stroke-linecap="round" stroke-linejoin="round" fill="none" /><path d="M-4.6871649,-12.8991195 a0.051,0.051 0 1,1 0.102,0 a0.051,0.051 0 1,1 -0.102,0z" transform="matrix(1,0,0,-1,9.3342649,-1.5834195)" stroke="rgb(100,100,100)" stroke-width="0.0010cm" stroke-linecap="round" stroke-linejoin="round" fill="none" /><path d="M-4.4331649,-12.8991195 a0.051,0.051 0 1,1 0.102,0 a0.051,0.051 0 1,1 -0.102,0z" transform="matrix(1,0,0,-1,9.3342649,-1.5834195)" stroke="rgb(100,100,100)" stroke-width="0.0010cm" stroke-linecap="round" stroke-linejoin="round" fill="none" /><path d="M-4.1791649,-12.8991195 a0.051,0.051 0 1,1 0.102,0 a0.051,0.051 0 1,1 -0.102,0z" transform="matrix(1,0,0,-1,9.3342649,-1.5834195)" stroke="rgb(100,100,100)" stroke-width="0.0010cm" stroke-linecap="round" stroke-linejoin="round" fill="none" /><path d="M-3.9251649,-12.8991195 a0.051,0.051 0 1,1 0.102,0 a0.051,0.051 0 1,1 -0.102,0z" transform="matrix(1,0,0,-1,9.3342649,-1.5834195)" stroke="rgb(100,100,100)" stroke-width="0.0010cm" stroke-linecap="round" stroke-linejoin="round" fill="none" /><path d="M-3.6711649,-12.8991195 a0.051,0.051 0 1,1 0.102,0 a0.051,0.051 0 1,1 -0.102,0z" transform="matrix(1,0,0,-1,9.3342649,-1.5834195)" stroke="rgb(100,100,100)" stroke-width="0.0010cm" stroke-linecap="round" stroke-linejoin="round" fill="none" /><path d="M-3.4171649,-12.8991195 a0.051,0.051 0 1,1 0.102,0 a0.051,0.051 0 1,1 -0.102,0z" transform="matrix(1,0,0,-1,9.3342649,-1.5834195)" stroke="rgb(100,100,100)" stroke-width="0.0010cm" stroke-linecap="round" stroke-linejoin="round" fill="none" /><path d="M-3.1631649,-12.8991195 a0.051,0.051 0 1,1 0.102,0 a0.051,0.051 0 1,1 -0.102,0z" transform="matrix(1,0,0,-1,9.3342649,-1.5834195)" stroke="rgb(100,100,100)" stroke-width="0.0010cm" stroke-linecap="round" stroke-linejoin="round" fill="none" /><path d="M-4.9411649,-14.6771195 a0.051,0.051 0 1,1 0.102,0 a0.051,0.051 0 1,1 -0.102,0z" transform="matrix(1,0,0,-1,9.3342649,-1.5834195)" stroke="rgb(100,100,100)" stroke-width="0.0010cm" stroke-linecap="round" stroke-linejoin="round" fill="none" /><path d="M-4.6871649,-14.6771195 a0.051,0.051 0 1,1 0.102,0 a0.051,0.051 0 1,1 -0.102,0z" transform="matrix(1,0,0,-1,9.3342649,-1.5834195)" stroke="rgb(100,100,100)" stroke-width="0.0010cm" stroke-linecap="round" stroke-linejoin="round" fill="none" /><path d="M-4.4331649,-14.6771195 a0.051,0.051 0 1,1 0.102,0 a0.051,0.051 0 1,1 -0.102,0z" transform="matrix(1,0,0,-1,9.3342649,-1.5834195)" stroke="rgb(100,100,100)" stroke-width="0.0010cm" stroke-linecap="round" stroke-linejoin="round" fill="none" /><path d="M-4.1791649,-14.6771195 a0.051,0.051 0 1,1 0.102,0 a0.051,0.051 0 1,1 -0.102,0z" transform="matrix(1,0,0,-1,9.3342649,-1.5834195)" stroke="rgb(100,100,100)" stroke-width="0.0010cm" stroke-linecap="round" stroke-linejoin="round" fill="none" /><path d="M-3.9251649,-14.6771195 a0.051,0.051 0 1,1 0.102,0 a0.051,0.051 0 1,1 -0.102,0z" transform="matrix(1,0,0,-1,9.3342649,-1.5834195)" stroke="rgb(100,100,100)" stroke-width="0.0010cm" stroke-linecap="round" stroke-linejoin="round" fill="none" /><path d="M-3.6711649,-14.6771195 a0.051,0.051 0 1,1 0.102,0 a0.051,0.051 0 1,1 -0.102,0z" transform="matrix(1,0,0,-1,9.3342649,-1.5834195)" stroke="rgb(100,100,100)" stroke-width="0.0010cm" stroke-linecap="round" stroke-linejoin="round" fill="none" /><path d="M-3.4171649,-14.6771195 a0.051,0.051 0 1,1 0.102,0 a0.051,0.051 0 1,1 -0.102,0z" transform="matrix(1,0,0,-1,9.3342649,-1.5834195)" stroke="rgb(100,100,100)" stroke-width="0.0010cm" stroke-linecap="round" stroke-linejoin="round" fill="none" /><path d="M-3.1631649,-14.6771195 a0.051,0.051 0 1,1 0.102,0 a0.051,0.051 0 1,1 -0.102,0z" transform="matrix(1,0,0,-1,9.3342649,-1.5834195)" stroke="rgb(100,100,100)" stroke-width="0.0010cm" stroke-linecap="round" stroke-linejoin="round" fill="none" /><path d="M-2.9091649,-12.8991195 a0.051,0.051 0 1,1 0.102,0 a0.051,0.051 0 1,1 -0.102,0z" transform="matrix(1,0,0,-1,9.3342649,-1.5834195)" stroke="rgb(100,100,100)" stroke-width="0.0010cm" stroke-linecap="round" stroke-linejoin="round" fill="none" /><path d="M-2.6551649,-12.8991195 a0.051,0.051 0 1,1 0.102,0 a0.051,0.051 0 1,1 -0.102,0z" transform="matrix(1,0,0,-1,9.3342649,-1.5834195)" stroke="rgb(100,100,100)" stroke-width="0.0010cm" stroke-linecap="round" stroke-linejoin="round" fill="none" /><path d="M-2.9951649,-13.5456195 a0.075,0.075 0 1,1 0.15,0 a0.075,0.075 0 1,1 -0.15,0z" transform="matrix(1,0,0,-1,9.3342649,-1.5834195)" stroke="rgb(100,100,100)" stroke-width="0.0010cm" stroke-linecap="round" stroke-linejoin="round" fill="none" /><path d="M-2.7071649,-13.5156195 a0.09,0.09 0 1,1 0.18,0 a0.09,0.09 0 1,1 -0.18,0z" transform="matrix(1,0,0,-1,9.3342649,-1.5834195)" stroke="rgb(100,100,100)" stroke-width="0.0010cm" stroke-linecap="round" stroke-linejoin="round" fill="none" /><path d="M-1.8658649,-13.5087195 a0.05,0.05 0 1,1 0.1,0 a0.05,0.05 0 1,1 -0.1,0z" transform="matrix(1,0,0,-1,9.3342649,-1.5834195)" stroke="rgb(100,100,100)" stroke-width="0.0010cm" stroke-linecap="round" stroke-linejoin="round" fill="none" /><path d="M-2.9951649,-14.0306195 a0.075,0.075 0 1,1 0.15,0 a0.075,0.075 0 1,1 -0.15,0z" transform="matrix(1,0,0,-1,9.3342649,-1.5834195)" stroke="rgb(100,100,100)" stroke-width="0.0010cm" stroke-linecap="round" stroke-linejoin="round" fill="none" /><path d="M-2.7071649,-14.0606195 a0.09,0.09 0 1,1 0.18,0 a0.09,0.09 0 1,1 -0.18,0z" transform="matrix(1,0,0,-1,9.3342649,-1.5834195)" stroke="rgb(100,100,100)" stroke-width="0.0010cm" stroke-linecap="round" stroke-linejoin="round" fill="none" /><path d="M-2.9091649,-14.6771195 a0.051,0.051 0 1,1 0.102,0 a0.051,0.051 0 1,1 -0.102,0z" transform="matrix(1,0,0,-1,9.3342649,-1.5834195)" stroke="rgb(100,100,100)" stroke-width="0.0010cm" stroke-linecap="round" stroke-linejoin="round" fill="none" /><path d="M-2.6551649,-14.6771195 a0.051,0.051 0 1,1 0.102,0 a0.051,0.051 0 1,1 -0.102,0z" transform="matrix(1,0,0,-1,9.3342649,-1.5834195)" stroke="rgb(100,100,100)" stroke-width="0.0010cm" stroke-linecap="round" stroke-linejoin="round" fill="none" /><path d="M-1.8658649,-14.0167195 a0.05,0.05 0 1,1 0.1,0 a0.05,0.05 0 1,1 -0.1,0z" transform="matrix(1,0,0,-1,9.3342649,-1.5834195)" stroke="rgb(100,100,100)" stroke-width="0.0010cm" stroke-linecap="round" stroke-linejoin="round" fill="none" /><path d="M-1.1209859,-15.3103143 a0.1542158,0.1542158 0 1,1 0.3084316,0 a0.1542158,0.1542158 0 1,1 -0.3084316,0z" transform="matrix(1,0,0,-1,9.3342649,-1.5834195)" stroke="rgb(100,100,100)" stroke-width="0.0010cm" stroke-linecap="round" stroke-linejoin="round" fill="none" /><path d="M-8.8134915,-4.90151 L-1.19347,-4.90151 -1.19347,-12.6165819 -8.8134915,-12.6165819 -8.8134915,-4.90151z" transform="matrix(1,0,0,-1,9.3342649,-1.5834195)" stroke="rgb(100,100,100)" stroke-width="0.0010cm" stroke-linecap="round" stroke-linejoin="round" fill="none" /><path d="M-8.561035,-9.96399 L-7.16108,-9.96399 -7.16108,-11.36394 -8.561035,-11.36394 -8.561035,-9.96399z" transform="matrix(1,0,0,-1,9.3342649,-1.5834195)" stroke="rgb(100,100,100)" stroke-width="0.0010cm" stroke-linecap="round" stroke-linejoin="round" fill="none" /><path d="M-6.65603,-9.96399 L-5.2561,-9.96399 -5.2561,-11.36394 -6.65603,-11.36394 -6.65603,-9.96399z" transform="matrix(1,0,0,-1,9.3342649,-1.5834195)" stroke="rgb(100,100,100)" stroke-width="0.0010cm" stroke-linecap="round" stroke-linejoin="round" fill="none" /><path d="M-4.75103,-9.96399 L-3.3511,-9.96399 -3.3511,-11.36394 -4.75103,-11.36394 -4.75103,-9.96399z" transform="matrix(1,0,0,-1,9.3342649,-1.5834195)" stroke="rgb(100,100,100)" stroke-width="0.0010cm" stroke-linecap="round" stroke-linejoin="round" fill="none" /><path d="M-2.84603,-9.96399 L-1.4461,-9.96399 -1.4461,-11.36394 -2.84603,-11.36394 -2.84603,-9.96399z" transform="matrix(1,0,0,-1,9.3342649,-1.5834195)" stroke="rgb(100,100,100)" stroke-width="0.0010cm" stroke-linecap="round" stroke-linejoin="round" fill="none" /><path d="M-8.561035,-8.05898 L-7.16108,-8.05898 -7.16108,-9.45894 -8.561035,-9.45894 -8.561035,-8.05898z" transform="matrix(1,0,0,-1,9.3342649,-1.5834195)" stroke="rgb(100,100,100)" stroke-width="0.0010cm" stroke-linecap="round" stroke-linejoin="round" fill="none" /><path d="M-6.65603,-8.05898 L-5.2561,-8.05898 -5.2561,-9.45894 -6.65603,-9.45894 -6.65603,-8.05898z" transform="matrix(1,0,0,-1,9.3342649,-1.5834195)" stroke="rgb(100,100,100)" stroke-width="0.0010cm" stroke-linecap="round" stroke-linejoin="round" fill="none" /><path d="M-4.75103,-8.05898 L-3.3511,-8.05898 -3.3511,-9.45894 -4.75103,-9.45894 -4.75103,-8.05898z" transform="matrix(1,0,0,-1,9.3342649,-1.5834195)" stroke="rgb(100,100,100)" stroke-width="0.0010cm" stroke-linecap="round" stroke-linejoin="round" fill="none" /><path d="M-2.84603,-8.05898 L-1.4461,-8.05898 -1.4461,-9.45894 -2.84603,-9.45894 -2.84603,-8.05898z" transform="matrix(1,0,0,-1,9.3342649,-1.5834195)" stroke="rgb(100,100,100)" stroke-width="0.0010cm" stroke-linecap="round" stroke-linejoin="round" fill="none" /><path d="M-8.561035,-6.15398 L-7.16108,-6.15398 -7.16108,-7.55394 -8.561035,-7.55394 -8.561035,-6.15398z" transform="matrix(1,0,0,-1,9.3342649,-1.5834195)" stroke="rgb(100,100,100)" stroke-width="0.0010cm" stroke-linecap="round" stroke-linejoin="round" fill="none" /><path d="M-6.65603,-6.15398 L-5.2561,-6.15398 -5.2561,-7.55394 -6.65603,-7.55394 -6.65603,-6.15398z" transform="matrix(1,0,0,-1,9.3342649,-1.5834195)" stroke="rgb(100,100,100)" stroke-width="0.0010cm" stroke-linecap="round" stroke-linejoin="round" fill="none" /><path d="M-4.75103,-6.15398 L-3.3511,-6.15398 -3.3511,-7.55394 -4.75103,-7.55394 -4.75103,-6.15398z" transform="matrix(1,0,0,-1,9.3342649,-1.5834195)" stroke="rgb(100,100,100)" stroke-width="0.0010cm" stroke-linecap="round" stroke-linejoin="round" fill="none" /><path d="M-2.84603,-6.15398 L-1.4461,-6.15398 -1.4461,-7.55394 -2.84603,-7.55394 -2.84603,-6.15398z" transform="matrix(1,0,0,-1,9.3342649,-1.5834195)" stroke="rgb(100,100,100)" stroke-width="0.0010cm" stroke-linecap="round" stroke-linejoin="round" fill="none" /><path d="M-1.56847,-5.20151 a0.075,0.075 0 1,1 0.15,0 a0.075,0.075 0 1,1 -0.15,0z" transform="matrix(1,0,0,-1,9.3342649,-1.5834195)" stroke="rgb(100,100,100)" stroke-width="0.0010cm" stroke-linecap="round" stroke-linejoin="round" fill="none" /><path d="M-8.5884915,-5.20151 a0.075,0.075 0 1,1 0.15,0 a0.075,0.075 0 1,1 -0.15,0z" transform="matrix(1,0,0,-1,9.3342649,-1.5834195)" stroke="rgb(100,100,100)" stroke-width="0.0010cm" stroke-linecap="round" stroke-linejoin="round" fill="none" /><path d="M-8.5884915,-12.3165819 a0.075,0.075 0 1,1 0.15,0 a0.075,0.075 0 1,1 -0.15,0z" transform="matrix(1,0,0,-1,9.3342649,-1.5834195)" stroke="rgb(100,100,100)" stroke-width="0.0010cm" stroke-linecap="round" stroke-linejoin="round" fill="none" /><path d="M-1.56847,-12.3165819 a0.075,0.075 0 1,1 0.15,0 a0.075,0.075 0 1,1 -0.15,0z" transform="matrix(1,0,0,-1,9.3342649,-1.5834195)" stroke="rgb(100,100,100)" stroke-width="0.0010cm" stroke-linecap="round" stroke-linejoin="round" fill="none" /></svg>