  0
SECTION
  2
HEADER
  9
$ACADVER
  1
AC1009
  9
$FILLMODE
 70
 0
  9
$SPLFRAME
 70
 1
  9
$EXTMIN
 10
0
 20
0
 30
0.0
  9
$EXTMAX
 10
1058.33
 20
1058.33
 30
0.0
  0
ENDSEC
  0
SECTION
  2
TABLES
  0
TABLE
  2
LAYER
 70
1
  0
LAYER
  2
0
 70
     0
 62
     7
  6
CONTINUOUS
  0
ENDTAB
  0
ENDSEC
  0
SECTION
  2
ENTITIES
  0
LINE
  8
0
 62
     0
 10
0.0950846
 20
77.5159
 30
0.0
 11
76.2953
 21
77.5159
 31
0.0
  0
LINE
  8
0
 62
     0
 10
76.2953
 20
77.5159
 30
0.0
 11
76.2953
 21
0.365181
 31
0.0
  0
LINE
  8
0
 62
     0
 10
76.2953
 20
0.365181
 30
0.0
 11
0.0950846
 21
0.365181
 31
0.0
  0
LINE
  8
0
 62
     0
 10
0.0950846
 20
0.365181
 30
0.0
 11
0.0950846
 21
77.5159
 31
0.0
  0
LINE
  8
0
 62
     0
 10
2.61965
 20
26.8911
 30
0.0
 11
16.6192
 21
26.8911
 31
0.0
  0
LINE
  8
0
 62
     0
 10
16.6192
 20
26.8911
 30
0.0
 11
16.6192
 21
12.8916
 31
0.0
  0
LINE
  8
0
 62
     0
 10
16.6192
 20
12.8916
 30
0.0
 11
2.61965
 21
12.8916
 31
0.0
  0
LINE
  8
0
 62
     0
 10
2.61965
 20
12.8916
 30
0.0
 11
2.61965
 21
26.8911
 31
0.0
  0
LINE
  8
0
 62
     0
 10
21.6697
 20
26.8911
 30
0.0
 11
35.669
 21
26.8911
 31
0.0
  0
LINE
  8
0
 62
     0
 10
35.669
 20
26.8911
 30
0.0
 11
35.669
 21
12.8916
 31
0.0
  0
LINE
  8
0
 62
     0
 10
35.669
 20
12.8916
 30
0.0
 11
21.6697
 21
12.8916
 31
0.0
  0
LINE
  8
0
 62
     0
 10
21.6697
 20
12.8916
 30
0.0
 11
21.6697
 21
26.8911
 31
0.0
  0
LINE
  8
0
 62
     0
 10
40.7197
 20
26.8911
 30
0.0
 11
54.719
 21
26.8911
 31
0.0
  0
LINE
  8
0
 62
     0
 10
54.719
 20
26.8911
 30
0.0
 11
54.719
 21
12.8916
 31
0.0
  0
LINE
  8
0
 62
     0
 10
54.719
 20
12.8916
 30
0.0
 11
40.7197
 21
12.8916
 31
0.0
  0
LINE
  8
0
 62
     0
 10
40.7197
 20
12.8916
 30
0.0
 11
40.7197
 21
26.8911
 31
0.0
  0
LINE
  8
0
 62
     0
 10
59.7697
 20
26.8911
 30
0.0
 11
73.769
 21
26.8911
 31
0.0
  0
LINE
  8
0
 62
     0
 10
73.769
 20
26.8911
 30
0.0
 11
73.769
 21
12.8916
 31
0.0
  0
LINE
  8
0
 62
     0
 10
73.769
 20
12.8916
 30
0.0
 11
59.7697
 21
12.8916
 31
0.0
  0
LINE
  8
0
 62
     0
 10
59.7697
 20
12.8916
 30
0.0
 11
59.7697
 21
26.8911
 31
0.0
  0
LINE
  8
0
 62
     0
 10
2.61965
 20
45.9412
 30
0.0
 11
16.6192
 21
45.9412
 31
0.0
  0
LINE
  8
0
 62
     0
 10
16.6192
 20
45.9412
 30
0.0
 11
16.6192
 21
31.9416
 31
0.0
  0
LINE
  8
0
 62
     0
 10
16.6192
 20
31.9416
 30
0.0
 11
2.61965
 21
31.9416
 31
0.0
  0
LINE
  8
0
 62
     0
 10
2.61965
 20
31.9416
 30
0.0
 11
2.61965
 21
45.9412
 31
0.0
  0
LINE
  8
0
 62
     0
 10
21.6697
 20
45.9412
 30
0.0
 11
35.669
 21
45.9412
 31
0.0
  0
LINE
  8
0
 62
     0
 10
35.669
 20
45.9412
 30
0.0
 11
35.669
 21
31.9416
 31
0.0
  0
LINE
  8
0
 62
     0
 10
35.669
 20
31.9416
 30
0.0
 11
21.6697
 21
31.9416
 31
0.0
  0
LINE
  8
0
 62
     0
 10
21.6697
 20
31.9416
 30
0.0
 11
21.6697
 21
45.9412
 31
0.0
  0
LINE
  8
0
 62
     0
 10
40.7197
 20
45.9412
 30
0.0
 11
54.719
 21
45.9412
 31
0.0
  0
LINE
  8
0
 62
     0
 10
54.719
 20
45.9412
 30
0.0
 11
54.719
 21
31.9416
 31
0.0
  0
LINE
  8
0
 62
     0
 10
54.719
 20
31.9416
 30
0.0
 11
40.7197
 21
31.9416
 31
0.0
  0
LINE
  8
0
 62
     0
 10
40.7197
 20
31.9416
 30
0.0
 11
40.7197
 21
45.9412
 31
0.0
  0
LINE
  8
0
 62
     0
 10
59.7697
 20
45.9412
 30
0.0
 11
73.769
 21
45.9412
 31
0.0
  0
LINE
  8
0
 62
     0
 10
73.769
 20
45.9412
 30
0.0
 11
73.769
 21
31.9416
 31
0.0
  0
LINE
  8
0
 62
     0
 10
73.769
 20
31.9416
 30
0.0
 11
59.7697
 21
31.9416
 31
0.0
  0
LINE
  8
0
 62
     0
 10
59.7697
 20
31.9416
 30
0.0
 11
59.7697
 21
45.9412
 31
0.0
  0
LINE
  8
0
 62
     0
 10
2.61965
 20
64.9912
 30
0.0
 11
16.6192
 21
64.9912
 31
0.0
  0
LINE
  8
0
 62
     0
 10
16.6192
 20
64.9912
 30
0.0
 11
16.6192
 21
50.9916
 31
0.0
  0
LINE
  8
0
 62
     0
 10
16.6192
 20
50.9916
 30
0.0
 11
2.61965
 21
50.9916
 31
0.0
  0
LINE
  8
0
 62
     0
 10
2.61965
 20
50.9916
 30
0.0
 11
2.61965
 21
64.9912
 31
0.0
  0
LINE
  8
0
 62
     0
 10
21.6697
 20
64.9912
 30
0.0
 11
35.669
 21
64.9912
 31
0.0
  0
LINE
  8
0
 62
     0
 10
35.669
 20
64.9912
 30
0.0
 11
35.669
 21
50.9916
 31
0.0
  0
LINE
  8
0
 62
     0
 10
35.669
 20
50.9916
 30
0.0
 11
21.6697
 21
50.9916
 31
0.0
  0
LINE
  8
0
 62
     0
 10
21.6697
 20
50.9916
 30
0.0
 11
21.6697
 21
64.9912
 31
0.0
  0
LINE
  8
0
 62
     0
 10
40.7197
 20
64.9912
 30
0.0
 11
54.719
 21
64.9912
 31
0.0
  0
LINE
  8
0
 62
     0
 10
54.719
 20
64.9912
 30
0.0
 11
54.719
 21
50.9916
 31
0.0
  0
LINE
  8
0
 62
     0
 10
54.719
 20
50.9916
 30
0.0
 11
40.7197
 21
50.9916
 31
0.0
  0
LINE
  8
0
 62
     0
 10
40.7197
 20
50.9916
 30
0.0
 11
40.7197
 21
64.9912
 31
0.0
  0
LINE
  8
0
 62
     0
 10
59.7697
 20
64.9912
 30
0.0
 11
73.769
 21
64.9912
 31
0.0
  0
LINE
  8
0
 62
     0
 10
73.769
 20
64.9912
 30
0.0
 11
73.769
 21
50.9916
 31
0.0
  0
LINE
  8
0
 62
     0
 10
73.769
 20
50.9916
 30
0.0
 11
59.7697
 21
50.9916
 31
0.0
  0
LINE
  8
0
 62
     0
 10
59.7697
 20
50.9916
 30
0.0
 11
59.7697
 21
64.9912
 31
0.0
  0
ENDSEC
  0
EOF
