<?xml version="1.0"?>
<!-- Generated by SVGo -->
<svg width="86.202mm" height="87.152mm"
     viewBox="0.000 0.000 86.202 87.152"
     xmlns="http://www.w3.org/2000/svg" 
     xmlns:xlink="http://www.w3.org/1999/xlink">
<polygon points="76.202,5.001 76.594,5.016 76.984,5.062 77.369,5.139 77.747,5.245 78.115,5.381 78.471,5.545 78.814,5.737 79.140,5.955 79.449,6.198 79.737,6.465 80.004,6.753 80.247,7.062 80.465,7.388 80.657,7.731 80.821,8.087 80.957,8.455 81.063,8.833 81.140,9.218 81.186,9.608 81.202,10.001 81.202,77.152 81.186,77.544 81.140,77.934 81.063,78.319 80.957,78.697 80.821,79.065 80.657,79.421 80.465,79.764 80.247,80.090 80.004,80.399 79.737,80.687 79.449,80.954 79.140,81.197 78.814,81.415 78.471,81.607 78.115,81.771 77.747,81.907 77.369,82.013 76.984,82.090 76.594,82.136 76.201,82.152 10.001,82.152 9.608,82.136 9.218,82.090 8.833,82.013 8.455,81.907 8.087,81.771 7.731,81.607 7.388,81.415 7.062,81.197 6.753,80.954 6.465,80.687 6.198,80.399 5.955,80.090 5.737,79.764 5.545,79.421 5.381,79.065 5.245,78.697 5.139,78.319 5.062,77.934 5.016,77.544 5.000,77.151 5.001,10.001 5.016,9.608 5.062,9.218 5.139,8.833 5.245,8.455 5.381,8.087 5.545,7.731 5.737,7.388 5.955,7.062 6.198,6.753 6.465,6.465 6.753,6.198 7.062,5.955 7.388,5.737 7.731,5.545 8.087,5.381 8.455,5.245 8.833,5.139 9.218,5.062 9.608,5.016 10.001,5.000" style="fill:none;stroke-width:0.050000mm;stroke:black"/>
<polygon points="7.526,55.626 7.526,69.626 21.526,69.626 21.526,55.626" style="fill:none;stroke-width:0.050000mm;stroke:black"/>
<polygon points="26.576,55.626 26.576,69.626 40.576,69.626 40.576,55.626" style="fill:none;stroke-width:0.050000mm;stroke:black"/>
<polygon points="45.626,55.626 45.626,69.626 59.626,69.626 59.626,55.626" style="fill:none;stroke-width:0.050000mm;stroke:black"/>
<polygon points="64.676,55.626 64.676,69.626 78.676,69.626 78.676,55.626" style="fill:none;stroke-width:0.050000mm;stroke:black"/>
<polygon points="7.526,36.576 7.526,50.576 21.526,50.576 21.526,36.576" style="fill:none;stroke-width:0.050000mm;stroke:black"/>
<polygon points="26.576,36.576 26.576,50.576 40.576,50.576 40.576,36.576" style="fill:none;stroke-width:0.050000mm;stroke:black"/>
<polygon points="45.626,36.576 45.626,50.576 59.626,50.576 59.626,36.576" style="fill:none;stroke-width:0.050000mm;stroke:black"/>
<polygon points="64.676,36.576 64.676,50.576 78.676,50.576 78.676,36.576" style="fill:none;stroke-width:0.050000mm;stroke:black"/>
<polygon points="7.526,17.526 7.526,31.526 21.526,31.526 21.526,17.526" style="fill:none;stroke-width:0.050000mm;stroke:black"/>
<polygon points="26.576,17.526 26.576,31.526 40.576,31.526 40.576,17.526" style="fill:none;stroke-width:0.050000mm;stroke:black"/>
<polygon points="45.626,17.526 45.626,31.526 59.626,31.526 59.626,17.526" style="fill:none;stroke-width:0.050000mm;stroke:black"/>
<polygon points="64.676,17.526 64.676,31.526 78.676,31.526 78.676,17.526" style="fill:none;stroke-width:0.050000mm;stroke:black"/>
</svg>
