<?xml version="1.0" encoding="utf-8"?>
<!-- Generator: Fusion 360, Shaper Origin Export Add-In, Version 1.7.0  -->
<svg xmlns="http://www.w3.org/2000/svg" xmlns:xlink="http://www.w3.org/1999/xlink" xmlns:shaper="http://www.shapertools.com/namespaces/shaper" shaper:fusionaddin="version:1.7.0" width="7.6200215cm" height="7.7150719cm" version="1.1" x="0cm" y="0cm" viewBox="0 0 7.6200215 7.7150719" enable-background="new 0 0 7.6200215 7.7150719" xml:space="preserve"><path d="M0.0095085,7.75159 L7.62953,7.75159 7.62953,0.0365181 0.0095085,0.0365181 0.0095085,7.75159z" transform="matrix(1,0,0,-1,-0.0095085,7.75159)" stroke="rgb(100,100,100)" stroke-width="0.0010cm" stroke-linecap="round" stroke-linejoin="round" fill="none" /><path d="M0.261965,2.68911 L1.66192,2.68911 1.66192,1.28916 0.261965,1.28916 0.261965,2.68911z" transform="matrix(1,0,0,-1,-0.0095085,7.75159)" stroke="rgb(100,100,100)" stroke-width="0.0010cm" stroke-linecap="round" stroke-linejoin="round" fill="none" /><path d="M2.16697,2.68911 L3.5669,2.68911 3.5669,1.28916 2.16697,1.28916 2.16697,2.68911z" transform="matrix(1,0,0,-1,-0.0095085,7.75159)" stroke="rgb(100,100,100)" stroke-width="0.0010cm" stroke-linecap="round" stroke-linejoin="round" fill="none" /><path d="M4.07197,2.68911 L5.4719,2.68911 5.4719,1.28916 4.07197,1.28916 4.07197,2.68911z" transform="matrix(1,0,0,-1,-0.0095085,7.75159)" stroke="rgb(100,100,100)" stroke-width="0.0010cm" stroke-linecap="round" stroke-linejoin="round" fill="none" /><path d="M5.97697,2.68911 L7.3769,2.68911 7.3769,1.28916 5.97697,1.28916 5.97697,2.68911z" transform="matrix(1,0,0,-1,-0.0095085,7.75159)" stroke="rgb(100,100,100)" stroke-width="0.0010cm" stroke-linecap="round" stroke-linejoin="round" fill="none" /><path d="M0.261965,4.59412 L1.66192,4.59412 1.66192,3.19416 0.261965,3.19416 0.261965,4.59412z" transform="matrix(1,0,0,-1,-0.0095085,7.75159)" stroke="rgb(100,100,100)" stroke-width="0.0010cm" stroke-linecap="round" stroke-linejoin="round" fill="none" /><path d="M2.16697,4.59412 L3.5669,4.59412 3.5669,3.19416 2.16697,3.19416 2.16697,4.59412z" transform="matrix(1,0,0,-1,-0.0095085,7.75159)" stroke="rgb(100,100,100)" stroke-width="0.0010cm" stroke-linecap="round" stroke-linejoin="round" fill="none" /><path d="M4.07197,4.59412 L5.4719,4.59412 5.4719,3.19416 4.07197,3.19416 4.07197,4.59412z" transform="matrix(1,0,0,-1,-0.0095085,7.75159)" stroke="rgb(100,100,100)" stroke-width="0.0010cm" stroke-linecap="round" stroke-linejoin="round" fill="none" /><path d="M5.97697,4.59412 L7.3769,4.59412 7.3769,3.19416 5.97697,3.19416 5.97697,4.59412z" transform="matrix(1,0,0,-1,-0.0095085,7.75159)" stroke="rgb(100,100,100)" stroke-width="0.0010cm" stroke-linecap="round" stroke-linejoin="round" fill="none" /><path d="M0.261965,6.49912 L1.66192,6.49912 1.66192,5.09916 0.261965,5.09916 0.261965,6.49912z" transform="matrix(1,0,0,-1,-0.0095085,7.75159)" stroke="rgb(100,100,100)" stroke-width="0.0010cm" stroke-linecap="round" stroke-linejoin="round" fill="none" /><path d="M2.16697,6.49912 L3.5669,6.49912 3.5669,5.09916 2.16697,5.09916 2.16697,6.49912z" transform="matrix(1,0,0,-1,-0.0095085,7.75159)" stroke="rgb(100,100,100)" stroke-width="0.0010cm" stroke-linecap="round" stroke-linejoin="round" fill="none" /><path d="M4.07197,6.49912 L5.4719,6.49912 5.4719,5.09916 4.07197,5.09916 4.07197,6.49912z" transform="matrix(1,0,0,-1,-0.0095085,7.75159)" stroke="rgb(100,100,100)" stroke-width="0.0010cm" stroke-linecap="round" stroke-linejoin="round" fill="none" /><path d="M5.97697,6.49912 L7.3769,6.49912 7.3769,5.09916 5.97697,5.09916 5.97697,6.49912z" transform="matrix(1,0,0,-1,-0.0095085,7.75159)" stroke="rgb(100,100,100)" stroke-width="0.0010cm" stroke-linecap="round" stroke-linejoin="round" fill="none" /><path d="M0.2345085,0.3365181 a0.075,0.075 0 1,1 0.15,0 a0.075,0.075 0 1,1 -0.15,0z" transform="matrix(1,0,0,-1,-0.0095085,7.75159)" stroke="rgb(100,100,100)" stroke-width="0.0010cm" stroke-linecap="round" stroke-linejoin="round" fill="none" /><path d="M7.25453,0.3365181 a0.075,0.075 0 1,1 0.15,0 a0.075,0.075 0 1,1 -0.15,0z" transform="matrix(1,0,0,-1,-0.0095085,7.75159)" stroke="rgb(100,100,100)" stroke-width="0.0010cm" stroke-linecap="round" stroke-linejoin="round" fill="none" /><path d="M0.2345085,7.45159 a0.075,0.075 0 1,1 0.15,0 a0.075,0.075 0 1,1 -0.15,0z" transform="matrix(1,0,0,-1,-0.0095085,7.75159)" stroke="rgb(100,100,100)" stroke-width="0.0010cm" stroke-linecap="round" stroke-linejoin="round" fill="none" /><path d="M7.25453,7.45159 a0.075,0.075 0 1,1 0.15,0 a0.075,0.075 0 1,1 -0.15,0z" transform="matrix(1,0,0,-1,-0.0095085,7.75159)" stroke="rgb(100,100,100)" stroke-width="0.0010cm" stroke-linecap="round" stroke-linejoin="round" fill="none" /></svg>