%TF.GenerationSoftware,KiCad,Pcbnew,7.0.9*%
%TF.CreationDate,2023-11-20T17:00:57-07:00*%
%TF.ProjectId,blindscontrol,626c696e-6473-4636-9f6e-74726f6c2e6b,rev?*%
%TF.SameCoordinates,Original*%
%TF.FileFunction,Legend,Bot*%
%TF.FilePolarity,Positive*%
%FSLAX46Y46*%
G04 Gerber Fmt 4.6, Leading zero omitted, Abs format (unit mm)*
G04 Created by KiCad (PCBNEW 7.0.9) date 2023-11-20 17:00:57*
%MOMM*%
%LPD*%
G01*
G04 APERTURE LIST*
%ADD10C,0.150000*%
%ADD11C,0.120000*%
%ADD12C,1.700000*%
%ADD13C,4.000000*%
%ADD14C,2.200000*%
%ADD15R,2.000000X2.000000*%
%ADD16O,2.000000X2.000000*%
%ADD17O,1.800000X1.800000*%
%ADD18O,1.500000X1.500000*%
%ADD19O,1.700000X1.700000*%
%ADD20R,1.700000X1.700000*%
%ADD21C,1.600000*%
%ADD22O,1.600000X1.600000*%
%ADD23C,3.650000*%
%ADD24R,2.170000X2.170000*%
%ADD25C,2.170000*%
G04 APERTURE END LIST*
D10*
X223992887Y-224517009D02*
X223850030Y-224564628D01*
X223850030Y-224564628D02*
X223802411Y-224612247D01*
X223802411Y-224612247D02*
X223754792Y-224707485D01*
X223754792Y-224707485D02*
X223754792Y-224850342D01*
X223754792Y-224850342D02*
X223802411Y-224945580D01*
X223802411Y-224945580D02*
X223850030Y-224993200D01*
X223850030Y-224993200D02*
X223945268Y-225040819D01*
X223945268Y-225040819D02*
X224326220Y-225040819D01*
X224326220Y-225040819D02*
X224326220Y-224040819D01*
X224326220Y-224040819D02*
X223992887Y-224040819D01*
X223992887Y-224040819D02*
X223897649Y-224088438D01*
X223897649Y-224088438D02*
X223850030Y-224136057D01*
X223850030Y-224136057D02*
X223802411Y-224231295D01*
X223802411Y-224231295D02*
X223802411Y-224326533D01*
X223802411Y-224326533D02*
X223850030Y-224421771D01*
X223850030Y-224421771D02*
X223897649Y-224469390D01*
X223897649Y-224469390D02*
X223992887Y-224517009D01*
X223992887Y-224517009D02*
X224326220Y-224517009D01*
X223183363Y-225040819D02*
X223278601Y-224993200D01*
X223278601Y-224993200D02*
X223326220Y-224897961D01*
X223326220Y-224897961D02*
X223326220Y-224040819D01*
X222802410Y-225040819D02*
X222802410Y-224374152D01*
X222802410Y-224040819D02*
X222850029Y-224088438D01*
X222850029Y-224088438D02*
X222802410Y-224136057D01*
X222802410Y-224136057D02*
X222754791Y-224088438D01*
X222754791Y-224088438D02*
X222802410Y-224040819D01*
X222802410Y-224040819D02*
X222802410Y-224136057D01*
X222326220Y-224374152D02*
X222326220Y-225040819D01*
X222326220Y-224469390D02*
X222278601Y-224421771D01*
X222278601Y-224421771D02*
X222183363Y-224374152D01*
X222183363Y-224374152D02*
X222040506Y-224374152D01*
X222040506Y-224374152D02*
X221945268Y-224421771D01*
X221945268Y-224421771D02*
X221897649Y-224517009D01*
X221897649Y-224517009D02*
X221897649Y-225040819D01*
X220992887Y-225040819D02*
X220992887Y-224040819D01*
X220992887Y-224993200D02*
X221088125Y-225040819D01*
X221088125Y-225040819D02*
X221278601Y-225040819D01*
X221278601Y-225040819D02*
X221373839Y-224993200D01*
X221373839Y-224993200D02*
X221421458Y-224945580D01*
X221421458Y-224945580D02*
X221469077Y-224850342D01*
X221469077Y-224850342D02*
X221469077Y-224564628D01*
X221469077Y-224564628D02*
X221421458Y-224469390D01*
X221421458Y-224469390D02*
X221373839Y-224421771D01*
X221373839Y-224421771D02*
X221278601Y-224374152D01*
X221278601Y-224374152D02*
X221088125Y-224374152D01*
X221088125Y-224374152D02*
X220992887Y-224421771D01*
X220564315Y-224993200D02*
X220469077Y-225040819D01*
X220469077Y-225040819D02*
X220278601Y-225040819D01*
X220278601Y-225040819D02*
X220183363Y-224993200D01*
X220183363Y-224993200D02*
X220135744Y-224897961D01*
X220135744Y-224897961D02*
X220135744Y-224850342D01*
X220135744Y-224850342D02*
X220183363Y-224755104D01*
X220183363Y-224755104D02*
X220278601Y-224707485D01*
X220278601Y-224707485D02*
X220421458Y-224707485D01*
X220421458Y-224707485D02*
X220516696Y-224659866D01*
X220516696Y-224659866D02*
X220564315Y-224564628D01*
X220564315Y-224564628D02*
X220564315Y-224517009D01*
X220564315Y-224517009D02*
X220516696Y-224421771D01*
X220516696Y-224421771D02*
X220421458Y-224374152D01*
X220421458Y-224374152D02*
X220278601Y-224374152D01*
X220278601Y-224374152D02*
X220183363Y-224421771D01*
X218373839Y-224945580D02*
X218421458Y-224993200D01*
X218421458Y-224993200D02*
X218564315Y-225040819D01*
X218564315Y-225040819D02*
X218659553Y-225040819D01*
X218659553Y-225040819D02*
X218802410Y-224993200D01*
X218802410Y-224993200D02*
X218897648Y-224897961D01*
X218897648Y-224897961D02*
X218945267Y-224802723D01*
X218945267Y-224802723D02*
X218992886Y-224612247D01*
X218992886Y-224612247D02*
X218992886Y-224469390D01*
X218992886Y-224469390D02*
X218945267Y-224278914D01*
X218945267Y-224278914D02*
X218897648Y-224183676D01*
X218897648Y-224183676D02*
X218802410Y-224088438D01*
X218802410Y-224088438D02*
X218659553Y-224040819D01*
X218659553Y-224040819D02*
X218564315Y-224040819D01*
X218564315Y-224040819D02*
X218421458Y-224088438D01*
X218421458Y-224088438D02*
X218373839Y-224136057D01*
X217802410Y-225040819D02*
X217897648Y-224993200D01*
X217897648Y-224993200D02*
X217945267Y-224945580D01*
X217945267Y-224945580D02*
X217992886Y-224850342D01*
X217992886Y-224850342D02*
X217992886Y-224564628D01*
X217992886Y-224564628D02*
X217945267Y-224469390D01*
X217945267Y-224469390D02*
X217897648Y-224421771D01*
X217897648Y-224421771D02*
X217802410Y-224374152D01*
X217802410Y-224374152D02*
X217659553Y-224374152D01*
X217659553Y-224374152D02*
X217564315Y-224421771D01*
X217564315Y-224421771D02*
X217516696Y-224469390D01*
X217516696Y-224469390D02*
X217469077Y-224564628D01*
X217469077Y-224564628D02*
X217469077Y-224850342D01*
X217469077Y-224850342D02*
X217516696Y-224945580D01*
X217516696Y-224945580D02*
X217564315Y-224993200D01*
X217564315Y-224993200D02*
X217659553Y-225040819D01*
X217659553Y-225040819D02*
X217802410Y-225040819D01*
X217040505Y-224374152D02*
X217040505Y-225040819D01*
X217040505Y-224469390D02*
X216992886Y-224421771D01*
X216992886Y-224421771D02*
X216897648Y-224374152D01*
X216897648Y-224374152D02*
X216754791Y-224374152D01*
X216754791Y-224374152D02*
X216659553Y-224421771D01*
X216659553Y-224421771D02*
X216611934Y-224517009D01*
X216611934Y-224517009D02*
X216611934Y-225040819D01*
X216278600Y-224374152D02*
X215897648Y-224374152D01*
X216135743Y-224040819D02*
X216135743Y-224897961D01*
X216135743Y-224897961D02*
X216088124Y-224993200D01*
X216088124Y-224993200D02*
X215992886Y-225040819D01*
X215992886Y-225040819D02*
X215897648Y-225040819D01*
X215564314Y-225040819D02*
X215564314Y-224374152D01*
X215564314Y-224564628D02*
X215516695Y-224469390D01*
X215516695Y-224469390D02*
X215469076Y-224421771D01*
X215469076Y-224421771D02*
X215373838Y-224374152D01*
X215373838Y-224374152D02*
X215278600Y-224374152D01*
X214802409Y-225040819D02*
X214897647Y-224993200D01*
X214897647Y-224993200D02*
X214945266Y-224945580D01*
X214945266Y-224945580D02*
X214992885Y-224850342D01*
X214992885Y-224850342D02*
X214992885Y-224564628D01*
X214992885Y-224564628D02*
X214945266Y-224469390D01*
X214945266Y-224469390D02*
X214897647Y-224421771D01*
X214897647Y-224421771D02*
X214802409Y-224374152D01*
X214802409Y-224374152D02*
X214659552Y-224374152D01*
X214659552Y-224374152D02*
X214564314Y-224421771D01*
X214564314Y-224421771D02*
X214516695Y-224469390D01*
X214516695Y-224469390D02*
X214469076Y-224564628D01*
X214469076Y-224564628D02*
X214469076Y-224850342D01*
X214469076Y-224850342D02*
X214516695Y-224945580D01*
X214516695Y-224945580D02*
X214564314Y-224993200D01*
X214564314Y-224993200D02*
X214659552Y-225040819D01*
X214659552Y-225040819D02*
X214802409Y-225040819D01*
X213897647Y-225040819D02*
X213992885Y-224993200D01*
X213992885Y-224993200D02*
X214040504Y-224897961D01*
X214040504Y-224897961D02*
X214040504Y-224040819D01*
X213373837Y-225040819D02*
X213469075Y-224993200D01*
X213469075Y-224993200D02*
X213516694Y-224897961D01*
X213516694Y-224897961D02*
X213516694Y-224040819D01*
X212611932Y-224993200D02*
X212707170Y-225040819D01*
X212707170Y-225040819D02*
X212897646Y-225040819D01*
X212897646Y-225040819D02*
X212992884Y-224993200D01*
X212992884Y-224993200D02*
X213040503Y-224897961D01*
X213040503Y-224897961D02*
X213040503Y-224517009D01*
X213040503Y-224517009D02*
X212992884Y-224421771D01*
X212992884Y-224421771D02*
X212897646Y-224374152D01*
X212897646Y-224374152D02*
X212707170Y-224374152D01*
X212707170Y-224374152D02*
X212611932Y-224421771D01*
X212611932Y-224421771D02*
X212564313Y-224517009D01*
X212564313Y-224517009D02*
X212564313Y-224612247D01*
X212564313Y-224612247D02*
X213040503Y-224707485D01*
X212135741Y-225040819D02*
X212135741Y-224374152D01*
X212135741Y-224564628D02*
X212088122Y-224469390D01*
X212088122Y-224469390D02*
X212040503Y-224421771D01*
X212040503Y-224421771D02*
X211945265Y-224374152D01*
X211945265Y-224374152D02*
X211850027Y-224374152D01*
X210897645Y-224374152D02*
X210516693Y-224374152D01*
X210754788Y-225040819D02*
X210754788Y-224183676D01*
X210754788Y-224183676D02*
X210707169Y-224088438D01*
X210707169Y-224088438D02*
X210611931Y-224040819D01*
X210611931Y-224040819D02*
X210516693Y-224040819D01*
X210040502Y-225040819D02*
X210135740Y-224993200D01*
X210135740Y-224993200D02*
X210183359Y-224945580D01*
X210183359Y-224945580D02*
X210230978Y-224850342D01*
X210230978Y-224850342D02*
X210230978Y-224564628D01*
X210230978Y-224564628D02*
X210183359Y-224469390D01*
X210183359Y-224469390D02*
X210135740Y-224421771D01*
X210135740Y-224421771D02*
X210040502Y-224374152D01*
X210040502Y-224374152D02*
X209897645Y-224374152D01*
X209897645Y-224374152D02*
X209802407Y-224421771D01*
X209802407Y-224421771D02*
X209754788Y-224469390D01*
X209754788Y-224469390D02*
X209707169Y-224564628D01*
X209707169Y-224564628D02*
X209707169Y-224850342D01*
X209707169Y-224850342D02*
X209754788Y-224945580D01*
X209754788Y-224945580D02*
X209802407Y-224993200D01*
X209802407Y-224993200D02*
X209897645Y-225040819D01*
X209897645Y-225040819D02*
X210040502Y-225040819D01*
X209278597Y-225040819D02*
X209278597Y-224374152D01*
X209278597Y-224564628D02*
X209230978Y-224469390D01*
X209230978Y-224469390D02*
X209183359Y-224421771D01*
X209183359Y-224421771D02*
X209088121Y-224374152D01*
X209088121Y-224374152D02*
X208992883Y-224374152D01*
X207897644Y-225040819D02*
X207897644Y-224040819D01*
X207897644Y-224517009D02*
X207326216Y-224517009D01*
X207326216Y-225040819D02*
X207326216Y-224040819D01*
X206897644Y-224755104D02*
X206421454Y-224755104D01*
X206992882Y-225040819D02*
X206659549Y-224040819D01*
X206659549Y-224040819D02*
X206326216Y-225040819D01*
X205373834Y-224040819D02*
X205040501Y-225040819D01*
X205040501Y-225040819D02*
X204707168Y-224040819D01*
X203850025Y-225040819D02*
X204421453Y-225040819D01*
X204135739Y-225040819D02*
X204135739Y-224040819D01*
X204135739Y-224040819D02*
X204230977Y-224183676D01*
X204230977Y-224183676D02*
X204326215Y-224278914D01*
X204326215Y-224278914D02*
X204421453Y-224326533D01*
X202326215Y-224517009D02*
X202183358Y-224564628D01*
X202183358Y-224564628D02*
X202135739Y-224612247D01*
X202135739Y-224612247D02*
X202088120Y-224707485D01*
X202088120Y-224707485D02*
X202088120Y-224850342D01*
X202088120Y-224850342D02*
X202135739Y-224945580D01*
X202135739Y-224945580D02*
X202183358Y-224993200D01*
X202183358Y-224993200D02*
X202278596Y-225040819D01*
X202278596Y-225040819D02*
X202659548Y-225040819D01*
X202659548Y-225040819D02*
X202659548Y-224040819D01*
X202659548Y-224040819D02*
X202326215Y-224040819D01*
X202326215Y-224040819D02*
X202230977Y-224088438D01*
X202230977Y-224088438D02*
X202183358Y-224136057D01*
X202183358Y-224136057D02*
X202135739Y-224231295D01*
X202135739Y-224231295D02*
X202135739Y-224326533D01*
X202135739Y-224326533D02*
X202183358Y-224421771D01*
X202183358Y-224421771D02*
X202230977Y-224469390D01*
X202230977Y-224469390D02*
X202326215Y-224517009D01*
X202326215Y-224517009D02*
X202659548Y-224517009D01*
X201754786Y-224374152D02*
X201516691Y-225040819D01*
X201278596Y-224374152D02*
X201516691Y-225040819D01*
X201516691Y-225040819D02*
X201611929Y-225278914D01*
X201611929Y-225278914D02*
X201659548Y-225326533D01*
X201659548Y-225326533D02*
X201754786Y-225374152D01*
X200135738Y-225040819D02*
X200135738Y-224040819D01*
X200135738Y-224040819D02*
X199564310Y-225040819D01*
X199564310Y-225040819D02*
X199564310Y-224040819D01*
X198707167Y-224993200D02*
X198802405Y-225040819D01*
X198802405Y-225040819D02*
X198992881Y-225040819D01*
X198992881Y-225040819D02*
X199088119Y-224993200D01*
X199088119Y-224993200D02*
X199135738Y-224897961D01*
X199135738Y-224897961D02*
X199135738Y-224517009D01*
X199135738Y-224517009D02*
X199088119Y-224421771D01*
X199088119Y-224421771D02*
X198992881Y-224374152D01*
X198992881Y-224374152D02*
X198802405Y-224374152D01*
X198802405Y-224374152D02*
X198707167Y-224421771D01*
X198707167Y-224421771D02*
X198659548Y-224517009D01*
X198659548Y-224517009D02*
X198659548Y-224612247D01*
X198659548Y-224612247D02*
X199135738Y-224707485D01*
X198230976Y-224374152D02*
X198230976Y-225374152D01*
X198230976Y-224421771D02*
X198135738Y-224374152D01*
X198135738Y-224374152D02*
X197945262Y-224374152D01*
X197945262Y-224374152D02*
X197850024Y-224421771D01*
X197850024Y-224421771D02*
X197802405Y-224469390D01*
X197802405Y-224469390D02*
X197754786Y-224564628D01*
X197754786Y-224564628D02*
X197754786Y-224850342D01*
X197754786Y-224850342D02*
X197802405Y-224945580D01*
X197802405Y-224945580D02*
X197850024Y-224993200D01*
X197850024Y-224993200D02*
X197945262Y-225040819D01*
X197945262Y-225040819D02*
X198135738Y-225040819D01*
X198135738Y-225040819D02*
X198230976Y-224993200D01*
X197469071Y-224374152D02*
X197088119Y-224374152D01*
X197326214Y-224040819D02*
X197326214Y-224897961D01*
X197326214Y-224897961D02*
X197278595Y-224993200D01*
X197278595Y-224993200D02*
X197183357Y-225040819D01*
X197183357Y-225040819D02*
X197088119Y-225040819D01*
X196326214Y-224374152D02*
X196326214Y-225040819D01*
X196754785Y-224374152D02*
X196754785Y-224897961D01*
X196754785Y-224897961D02*
X196707166Y-224993200D01*
X196707166Y-224993200D02*
X196611928Y-225040819D01*
X196611928Y-225040819D02*
X196469071Y-225040819D01*
X196469071Y-225040819D02*
X196373833Y-224993200D01*
X196373833Y-224993200D02*
X196326214Y-224945580D01*
X195850023Y-224374152D02*
X195850023Y-225040819D01*
X195850023Y-224469390D02*
X195802404Y-224421771D01*
X195802404Y-224421771D02*
X195707166Y-224374152D01*
X195707166Y-224374152D02*
X195564309Y-224374152D01*
X195564309Y-224374152D02*
X195469071Y-224421771D01*
X195469071Y-224421771D02*
X195421452Y-224517009D01*
X195421452Y-224517009D02*
X195421452Y-225040819D01*
X194564309Y-224993200D02*
X194659547Y-225040819D01*
X194659547Y-225040819D02*
X194850023Y-225040819D01*
X194850023Y-225040819D02*
X194945261Y-224993200D01*
X194945261Y-224993200D02*
X194992880Y-224897961D01*
X194992880Y-224897961D02*
X194992880Y-224517009D01*
X194992880Y-224517009D02*
X194945261Y-224421771D01*
X194945261Y-224421771D02*
X194850023Y-224374152D01*
X194850023Y-224374152D02*
X194659547Y-224374152D01*
X194659547Y-224374152D02*
X194564309Y-224421771D01*
X194564309Y-224421771D02*
X194516690Y-224517009D01*
X194516690Y-224517009D02*
X194516690Y-224612247D01*
X194516690Y-224612247D02*
X194992880Y-224707485D01*
X232814714Y-222030009D02*
X232671857Y-222077628D01*
X232671857Y-222077628D02*
X232624238Y-222125247D01*
X232624238Y-222125247D02*
X232576619Y-222220485D01*
X232576619Y-222220485D02*
X232576619Y-222363342D01*
X232576619Y-222363342D02*
X232624238Y-222458580D01*
X232624238Y-222458580D02*
X232671857Y-222506200D01*
X232671857Y-222506200D02*
X232767095Y-222553819D01*
X232767095Y-222553819D02*
X233148047Y-222553819D01*
X233148047Y-222553819D02*
X233148047Y-221553819D01*
X233148047Y-221553819D02*
X232814714Y-221553819D01*
X232814714Y-221553819D02*
X232719476Y-221601438D01*
X232719476Y-221601438D02*
X232671857Y-221649057D01*
X232671857Y-221649057D02*
X232624238Y-221744295D01*
X232624238Y-221744295D02*
X232624238Y-221839533D01*
X232624238Y-221839533D02*
X232671857Y-221934771D01*
X232671857Y-221934771D02*
X232719476Y-221982390D01*
X232719476Y-221982390D02*
X232814714Y-222030009D01*
X232814714Y-222030009D02*
X233148047Y-222030009D01*
X232290904Y-221553819D02*
X231719476Y-221553819D01*
X232005190Y-222553819D02*
X232005190Y-221553819D01*
X230862333Y-222553819D02*
X231433761Y-222553819D01*
X231148047Y-222553819D02*
X231148047Y-221553819D01*
X231148047Y-221553819D02*
X231243285Y-221696676D01*
X231243285Y-221696676D02*
X231338523Y-221791914D01*
X231338523Y-221791914D02*
X231433761Y-221839533D01*
X221805428Y-198513700D02*
X220662571Y-198513700D01*
X243395428Y-212103700D02*
X242252571Y-212103700D01*
X202100428Y-212103700D02*
X200957571Y-212103700D01*
X201528999Y-212675128D02*
X201528999Y-211532271D01*
X221805428Y-212103700D02*
X220662571Y-212103700D01*
X221233999Y-212675128D02*
X221233999Y-211532271D01*
X202100428Y-198513700D02*
X200957571Y-198513700D01*
X243395428Y-198513700D02*
X242252571Y-198513700D01*
X242823999Y-199085128D02*
X242823999Y-197942271D01*
D11*
%TO.C,BT1*%
X202929000Y-189999000D02*
X261129000Y-189999000D01*
X202929000Y-220699000D02*
X202929000Y-189999000D01*
X222504000Y-195859000D02*
X240284000Y-195859000D01*
X222504000Y-200939000D02*
X222504000Y-195859000D01*
X222504000Y-210719000D02*
X222504000Y-213259000D01*
X222504000Y-213259000D02*
X223774000Y-213259000D01*
X223774000Y-209449000D02*
X223774000Y-210719000D01*
X223774000Y-210719000D02*
X222504000Y-210719000D01*
X223774000Y-213259000D02*
X223774000Y-214529000D01*
X223774000Y-214529000D02*
X241554000Y-214529000D01*
X240284000Y-195859000D02*
X240284000Y-197129000D01*
X240284000Y-197129000D02*
X241554000Y-197129000D01*
X240284000Y-199669000D02*
X240284000Y-200939000D01*
X240284000Y-200939000D02*
X222504000Y-200939000D01*
X241554000Y-197129000D02*
X241554000Y-199669000D01*
X241554000Y-199669000D02*
X240284000Y-199669000D01*
X241554000Y-209449000D02*
X223774000Y-209449000D01*
X241554000Y-214529000D02*
X241554000Y-209449000D01*
X261129000Y-189999000D02*
X261129000Y-220699000D01*
X261129000Y-220699000D02*
X202929000Y-220699000D01*
%TD*%
%LPC*%
D12*
%TO.C,MX6*%
X217551000Y-156845000D03*
D13*
X222631000Y-156845000D03*
D12*
X227711000Y-156845000D03*
D14*
X225171000Y-151765000D03*
X218821000Y-154305000D03*
%TD*%
D15*
%TO.C,D11*%
X251206000Y-166243000D03*
D16*
X251206000Y-171323000D03*
%TD*%
D15*
%TO.C,D8*%
X270256000Y-147193000D03*
D16*
X270256000Y-152273000D03*
%TD*%
D12*
%TO.C,MX12*%
X255651000Y-175895000D03*
D13*
X260731000Y-175895000D03*
D12*
X265811000Y-175895000D03*
D14*
X263271000Y-170815000D03*
X256921000Y-173355000D03*
%TD*%
D12*
%TO.C,MX8*%
X255651000Y-156845000D03*
D13*
X260731000Y-156845000D03*
D12*
X265811000Y-156845000D03*
D14*
X263271000Y-151765000D03*
X256921000Y-154305000D03*
%TD*%
D12*
%TO.C,MX11*%
X236601000Y-175895000D03*
D13*
X241681000Y-175895000D03*
D12*
X246761000Y-175895000D03*
D14*
X244221000Y-170815000D03*
X237871000Y-173355000D03*
%TD*%
D15*
%TO.C,D12*%
X270256000Y-166370000D03*
D16*
X270256000Y-171450000D03*
%TD*%
D12*
%TO.C,MX5*%
X198501000Y-156845000D03*
D13*
X203581000Y-156845000D03*
D12*
X208661000Y-156845000D03*
D14*
X206121000Y-151765000D03*
X199771000Y-154305000D03*
%TD*%
D15*
%TO.C,D1*%
X213106000Y-127000000D03*
D16*
X213106000Y-132080000D03*
%TD*%
D15*
%TO.C,SW1*%
X200279000Y-104267000D03*
D16*
X200279000Y-109347000D03*
%TD*%
D15*
%TO.C,D2*%
X232156000Y-127000000D03*
D16*
X232156000Y-132080000D03*
%TD*%
D15*
%TO.C,D3*%
X251206000Y-127000000D03*
D16*
X251206000Y-132080000D03*
%TD*%
D15*
%TO.C,D6*%
X232156000Y-147193000D03*
D16*
X232156000Y-152273000D03*
%TD*%
D17*
%TO.C,U1*%
X208292000Y-109278000D03*
D18*
X211322000Y-108978000D03*
X211322000Y-104128000D03*
D17*
X208292000Y-103828000D03*
D19*
X208162000Y-115443000D03*
X210702000Y-115443000D03*
D20*
X213242000Y-115443000D03*
D19*
X215782000Y-115443000D03*
X218322000Y-115443000D03*
X220862000Y-115443000D03*
X223402000Y-115443000D03*
D20*
X225942000Y-115443000D03*
D19*
X228482000Y-115443000D03*
X231022000Y-115443000D03*
X233562000Y-115443000D03*
X236102000Y-115443000D03*
D20*
X238642000Y-115443000D03*
D19*
X241182000Y-115443000D03*
X243722000Y-115443000D03*
X246262000Y-115443000D03*
X248802000Y-115443000D03*
D20*
X251342000Y-115443000D03*
D19*
X253882000Y-115443000D03*
X256422000Y-115443000D03*
X256422000Y-97663000D03*
X253882000Y-97663000D03*
D20*
X251342000Y-97663000D03*
D19*
X248802000Y-97663000D03*
X246262000Y-97663000D03*
X243722000Y-97663000D03*
X241182000Y-97663000D03*
D20*
X238642000Y-97663000D03*
D19*
X236102000Y-97663000D03*
X233562000Y-97663000D03*
X231022000Y-97663000D03*
X228482000Y-97663000D03*
D20*
X225942000Y-97663000D03*
D19*
X223402000Y-97663000D03*
X220862000Y-97663000D03*
X218322000Y-97663000D03*
X215782000Y-97663000D03*
D20*
X213242000Y-97663000D03*
D19*
X210702000Y-97663000D03*
X208162000Y-97663000D03*
X256192000Y-109093000D03*
D20*
X256192000Y-106553000D03*
D19*
X256192000Y-104013000D03*
%TD*%
D15*
%TO.C,D13*%
X263652000Y-100457000D03*
D16*
X268732000Y-100457000D03*
%TD*%
D12*
%TO.C,MX2*%
X217551000Y-137795000D03*
D13*
X222631000Y-137795000D03*
D12*
X227711000Y-137795000D03*
D14*
X225171000Y-132715000D03*
X218821000Y-135255000D03*
%TD*%
D21*
%TO.C,R1*%
X268097000Y-107061000D03*
D22*
X268097000Y-119761000D03*
%TD*%
D12*
%TO.C,MX1*%
X198501000Y-137795000D03*
D13*
X203581000Y-137795000D03*
D12*
X208661000Y-137795000D03*
D14*
X206121000Y-132715000D03*
X199771000Y-135255000D03*
%TD*%
D12*
%TO.C,MX3*%
X236601000Y-137795000D03*
D13*
X241681000Y-137795000D03*
D12*
X246761000Y-137795000D03*
D14*
X244221000Y-132715000D03*
X237871000Y-135255000D03*
%TD*%
D15*
%TO.C,D4*%
X270256000Y-127000000D03*
D16*
X270256000Y-132080000D03*
%TD*%
D12*
%TO.C,MX4*%
X255651000Y-137795000D03*
D13*
X260731000Y-137795000D03*
D12*
X265811000Y-137795000D03*
D14*
X263271000Y-132715000D03*
X256921000Y-135255000D03*
%TD*%
D12*
%TO.C,MX10*%
X217551000Y-175895000D03*
D13*
X222631000Y-175895000D03*
D12*
X227711000Y-175895000D03*
D14*
X225171000Y-170815000D03*
X218821000Y-173355000D03*
%TD*%
D12*
%TO.C,MX9*%
X198501000Y-175895000D03*
D13*
X203581000Y-175895000D03*
D12*
X208661000Y-175895000D03*
D14*
X206121000Y-170815000D03*
X199771000Y-173355000D03*
%TD*%
D15*
%TO.C,D10*%
X232156000Y-166370000D03*
D16*
X232156000Y-171450000D03*
%TD*%
D15*
%TO.C,D7*%
X251206000Y-147193000D03*
D16*
X251206000Y-152273000D03*
%TD*%
D15*
%TO.C,D5*%
X213106000Y-147193000D03*
D16*
X213106000Y-152273000D03*
%TD*%
D15*
%TO.C,D9*%
X213106000Y-166243000D03*
D16*
X213106000Y-171323000D03*
%TD*%
D12*
%TO.C,MX7*%
X236601000Y-156845000D03*
D13*
X241681000Y-156845000D03*
D12*
X246761000Y-156845000D03*
D14*
X244221000Y-151765000D03*
X237871000Y-154305000D03*
%TD*%
D23*
%TO.C,BT1*%
X232029000Y-205359000D03*
D24*
X205869000Y-211989000D03*
D25*
X205869000Y-198399000D03*
%TD*%
%LPD*%
M02*
