%TF.GenerationSoftware,KiCad,Pcbnew,7.0.9*%
%TF.CreationDate,2023-11-20T05:39:13-07:00*%
%TF.ProjectId,blindscontrol,626c696e-6473-4636-9f6e-74726f6c2e6b,rev?*%
%TF.SameCoordinates,Original*%
%TF.FileFunction,Copper,L2,Bot*%
%TF.FilePolarity,Positive*%
%FSLAX46Y46*%
G04 Gerber Fmt 4.6, Leading zero omitted, Abs format (unit mm)*
G04 Created by KiCad (PCBNEW 7.0.9) date 2023-11-20 05:39:13*
%MOMM*%
%LPD*%
G01*
G04 APERTURE LIST*
%TA.AperFunction,ComponentPad*%
%ADD10C,1.600000*%
%TD*%
%TA.AperFunction,ComponentPad*%
%ADD11O,1.600000X1.600000*%
%TD*%
%TA.AperFunction,ComponentPad*%
%ADD12R,2.000000X2.000000*%
%TD*%
%TA.AperFunction,ComponentPad*%
%ADD13O,2.000000X2.000000*%
%TD*%
%TA.AperFunction,ComponentPad*%
%ADD14R,2.170000X2.170000*%
%TD*%
%TA.AperFunction,ComponentPad*%
%ADD15C,2.170000*%
%TD*%
%TA.AperFunction,ComponentPad*%
%ADD16O,1.700000X1.700000*%
%TD*%
%TA.AperFunction,ComponentPad*%
%ADD17R,1.700000X1.700000*%
%TD*%
%TA.AperFunction,ComponentPad*%
%ADD18C,2.200000*%
%TD*%
%TA.AperFunction,Conductor*%
%ADD19C,0.250000*%
%TD*%
G04 APERTURE END LIST*
D10*
%TO.P,R1,1*%
%TO.N,Net-(D13-A)*%
X268097000Y-107061000D03*
D11*
%TO.P,R1,2*%
%TO.N,Net-(U1-3V3)*%
X268097000Y-119761000D03*
%TD*%
D12*
%TO.P,D13,1,K*%
%TO.N,Net-(D13-K)*%
X263652000Y-100457000D03*
D13*
%TO.P,D13,2,A*%
%TO.N,Net-(D13-A)*%
X268732000Y-100457000D03*
%TD*%
D12*
%TO.P,SW1,1,A*%
%TO.N,Net-(SW1-A)*%
X200279000Y-104267000D03*
D13*
%TO.P,SW1,2,B*%
%TO.N,Net-(BT1-+)*%
X200279000Y-109347000D03*
%TD*%
D12*
%TO.P,D12,1,K*%
%TO.N,COL3*%
X270256000Y-166370000D03*
D13*
%TO.P,D12,2,A*%
%TO.N,Net-(D12-A)*%
X270256000Y-171450000D03*
%TD*%
D12*
%TO.P,D11,1,K*%
%TO.N,COL3*%
X251206000Y-166243000D03*
D13*
%TO.P,D11,2,A*%
%TO.N,Net-(D11-A)*%
X251206000Y-171323000D03*
%TD*%
D12*
%TO.P,D10,1,K*%
%TO.N,COL3*%
X232156000Y-166370000D03*
D13*
%TO.P,D10,2,A*%
%TO.N,Net-(D10-A)*%
X232156000Y-171450000D03*
%TD*%
D12*
%TO.P,D9,1,K*%
%TO.N,COL3*%
X213106000Y-166243000D03*
D13*
%TO.P,D9,2,A*%
%TO.N,Net-(D9-A)*%
X213106000Y-171323000D03*
%TD*%
D12*
%TO.P,D8,1,K*%
%TO.N,COL2*%
X270256000Y-147193000D03*
D13*
%TO.P,D8,2,A*%
%TO.N,Net-(D8-A)*%
X270256000Y-152273000D03*
%TD*%
D12*
%TO.P,D7,1,K*%
%TO.N,COL2*%
X251206000Y-147193000D03*
D13*
%TO.P,D7,2,A*%
%TO.N,Net-(D7-A)*%
X251206000Y-152273000D03*
%TD*%
D12*
%TO.P,D6,1,K*%
%TO.N,COL2*%
X232156000Y-147193000D03*
D13*
%TO.P,D6,2,A*%
%TO.N,Net-(D6-A)*%
X232156000Y-152273000D03*
%TD*%
%TO.P,D5,2,A*%
%TO.N,Net-(D5-A)*%
X213106000Y-152273000D03*
D12*
%TO.P,D5,1,K*%
%TO.N,COL2*%
X213106000Y-147193000D03*
%TD*%
%TO.P,D4,1,K*%
%TO.N,COL1*%
X270256000Y-127000000D03*
D13*
%TO.P,D4,2,A*%
%TO.N,Net-(D4-A)*%
X270256000Y-132080000D03*
%TD*%
D12*
%TO.P,D3,1,K*%
%TO.N,COL1*%
X251206000Y-127000000D03*
D13*
%TO.P,D3,2,A*%
%TO.N,Net-(D3-A)*%
X251206000Y-132080000D03*
%TD*%
D12*
%TO.P,D2,1,K*%
%TO.N,COL1*%
X232156000Y-127000000D03*
D13*
%TO.P,D2,2,A*%
%TO.N,Net-(D2-A)*%
X232156000Y-132080000D03*
%TD*%
D12*
%TO.P,D1,1,K*%
%TO.N,COL1*%
X213106000Y-127000000D03*
D13*
%TO.P,D1,2,A*%
%TO.N,Net-(D1-A)*%
X213106000Y-132080000D03*
%TD*%
D14*
%TO.P,BT1,1,+*%
%TO.N,Net-(BT1-+)*%
X205869000Y-211989000D03*
D15*
%TO.P,BT1,2,-*%
%TO.N,Net-(BT1--)*%
X205869000Y-198399000D03*
%TD*%
D16*
%TO.P,U1,1,GPIO0*%
%TO.N,ROW1*%
X208162000Y-115443000D03*
%TO.P,U1,2,GPIO1*%
%TO.N,ROW2*%
X210702000Y-115443000D03*
D17*
%TO.P,U1,3,GND*%
%TO.N,unconnected-(U1-GND-Pad3)*%
X213242000Y-115443000D03*
D16*
%TO.P,U1,4,GPIO2*%
%TO.N,ROW3*%
X215782000Y-115443000D03*
%TO.P,U1,5,GPIO3*%
%TO.N,ROW4*%
X218322000Y-115443000D03*
%TO.P,U1,6,GPIO4*%
%TO.N,unconnected-(U1-GPIO4-Pad6)*%
X220862000Y-115443000D03*
%TO.P,U1,7,GPIO5*%
%TO.N,unconnected-(U1-GPIO5-Pad7)*%
X223402000Y-115443000D03*
D17*
%TO.P,U1,8,GND*%
%TO.N,unconnected-(U1-GND-Pad8)*%
X225942000Y-115443000D03*
D16*
%TO.P,U1,9,GPIO6*%
%TO.N,COL3*%
X228482000Y-115443000D03*
%TO.P,U1,10,GPIO7*%
%TO.N,COL2*%
X231022000Y-115443000D03*
%TO.P,U1,11,GPIO8*%
%TO.N,COL1*%
X233562000Y-115443000D03*
%TO.P,U1,12,GPIO9*%
%TO.N,unconnected-(U1-GPIO9-Pad12)*%
X236102000Y-115443000D03*
D17*
%TO.P,U1,13,GND*%
%TO.N,unconnected-(U1-GND-Pad13)*%
X238642000Y-115443000D03*
D16*
%TO.P,U1,14,GPIO10*%
%TO.N,unconnected-(U1-GPIO10-Pad14)*%
X241182000Y-115443000D03*
%TO.P,U1,15,GPIO11*%
%TO.N,unconnected-(U1-GPIO11-Pad15)*%
X243722000Y-115443000D03*
%TO.P,U1,16,GPIO12*%
%TO.N,unconnected-(U1-GPIO12-Pad16)*%
X246262000Y-115443000D03*
%TO.P,U1,17,GPIO13*%
%TO.N,unconnected-(U1-GPIO13-Pad17)*%
X248802000Y-115443000D03*
D17*
%TO.P,U1,18,GND*%
%TO.N,unconnected-(U1-GND-Pad18)*%
X251342000Y-115443000D03*
D16*
%TO.P,U1,19,GPIO14*%
%TO.N,unconnected-(U1-GPIO14-Pad19)*%
X253882000Y-115443000D03*
%TO.P,U1,20,GPIO15*%
%TO.N,unconnected-(U1-GPIO15-Pad20)*%
X256422000Y-115443000D03*
%TO.P,U1,21,GPIO16*%
%TO.N,unconnected-(U1-GPIO16-Pad21)*%
X256422000Y-97663000D03*
%TO.P,U1,22,GPIO17*%
%TO.N,unconnected-(U1-GPIO17-Pad22)*%
X253882000Y-97663000D03*
D17*
%TO.P,U1,23,GND*%
%TO.N,unconnected-(U1-GND-Pad23)*%
X251342000Y-97663000D03*
D16*
%TO.P,U1,24,GPIO18*%
%TO.N,unconnected-(U1-GPIO18-Pad24)*%
X248802000Y-97663000D03*
%TO.P,U1,25,GPIO19*%
%TO.N,unconnected-(U1-GPIO19-Pad25)*%
X246262000Y-97663000D03*
%TO.P,U1,26,GPIO20*%
%TO.N,unconnected-(U1-GPIO20-Pad26)*%
X243722000Y-97663000D03*
%TO.P,U1,27,GPIO21*%
%TO.N,unconnected-(U1-GPIO21-Pad27)*%
X241182000Y-97663000D03*
D17*
%TO.P,U1,28,GND*%
%TO.N,Net-(D13-K)*%
X238642000Y-97663000D03*
D16*
%TO.P,U1,29,GPIO22*%
%TO.N,unconnected-(U1-GPIO22-Pad29)*%
X236102000Y-97663000D03*
%TO.P,U1,30,RUN*%
%TO.N,unconnected-(U1-RUN-Pad30)*%
X233562000Y-97663000D03*
%TO.P,U1,31,GPIO26_ADC0*%
%TO.N,unconnected-(U1-GPIO26_ADC0-Pad31)*%
X231022000Y-97663000D03*
%TO.P,U1,32,GPIO27_ADC1*%
%TO.N,unconnected-(U1-GPIO27_ADC1-Pad32)*%
X228482000Y-97663000D03*
D17*
%TO.P,U1,33,AGND*%
%TO.N,unconnected-(U1-AGND-Pad33)*%
X225942000Y-97663000D03*
D16*
%TO.P,U1,34,GPIO28_ADC2*%
%TO.N,unconnected-(U1-GPIO28_ADC2-Pad34)*%
X223402000Y-97663000D03*
%TO.P,U1,35,ADC_VREF*%
%TO.N,unconnected-(U1-ADC_VREF-Pad35)*%
X220862000Y-97663000D03*
%TO.P,U1,36,3V3*%
%TO.N,Net-(U1-3V3)*%
X218322000Y-97663000D03*
%TO.P,U1,37,3V3_EN*%
%TO.N,unconnected-(U1-3V3_EN-Pad37)*%
X215782000Y-97663000D03*
D17*
%TO.P,U1,38,GND*%
%TO.N,Net-(BT1--)*%
X213242000Y-97663000D03*
D16*
%TO.P,U1,39,VSYS*%
%TO.N,Net-(SW1-A)*%
X210702000Y-97663000D03*
%TO.P,U1,40,VBUS*%
%TO.N,unconnected-(U1-VBUS-Pad40)*%
X208162000Y-97663000D03*
%TO.P,U1,41,SWCLK*%
%TO.N,unconnected-(U1-SWCLK-Pad41)*%
X256192000Y-109093000D03*
D17*
%TO.P,U1,42,GND*%
%TO.N,unconnected-(U1-GND-Pad42)*%
X256192000Y-106553000D03*
D16*
%TO.P,U1,43,SWDIO*%
%TO.N,unconnected-(U1-SWDIO-Pad43)*%
X256192000Y-104013000D03*
%TD*%
D18*
%TO.P,MX1,2,ROW*%
%TO.N,ROW1*%
X199771000Y-135255000D03*
%TO.P,MX1,1,COL*%
%TO.N,Net-(D1-A)*%
X206121000Y-132715000D03*
%TD*%
%TO.P,MX6,1,COL*%
%TO.N,Net-(D6-A)*%
X225171000Y-151765000D03*
%TO.P,MX6,2,ROW*%
%TO.N,ROW2*%
X218821000Y-154305000D03*
%TD*%
%TO.P,MX12,1,COL*%
%TO.N,Net-(D12-A)*%
X263271000Y-170815000D03*
%TO.P,MX12,2,ROW*%
%TO.N,ROW4*%
X256921000Y-173355000D03*
%TD*%
%TO.P,MX8,1,COL*%
%TO.N,Net-(D8-A)*%
X263271000Y-151765000D03*
%TO.P,MX8,2,ROW*%
%TO.N,ROW4*%
X256921000Y-154305000D03*
%TD*%
%TO.P,MX11,1,COL*%
%TO.N,Net-(D11-A)*%
X244221000Y-170815000D03*
%TO.P,MX11,2,ROW*%
%TO.N,ROW3*%
X237871000Y-173355000D03*
%TD*%
%TO.P,MX5,1,COL*%
%TO.N,Net-(D5-A)*%
X206121000Y-151765000D03*
%TO.P,MX5,2,ROW*%
%TO.N,ROW1*%
X199771000Y-154305000D03*
%TD*%
%TO.P,MX2,1,COL*%
%TO.N,Net-(D2-A)*%
X225171000Y-132715000D03*
%TO.P,MX2,2,ROW*%
%TO.N,ROW2*%
X218821000Y-135255000D03*
%TD*%
%TO.P,MX3,1,COL*%
%TO.N,Net-(D3-A)*%
X244221000Y-132715000D03*
%TO.P,MX3,2,ROW*%
%TO.N,ROW3*%
X237871000Y-135255000D03*
%TD*%
%TO.P,MX4,1,COL*%
%TO.N,Net-(D4-A)*%
X263271000Y-132715000D03*
%TO.P,MX4,2,ROW*%
%TO.N,ROW4*%
X256921000Y-135255000D03*
%TD*%
%TO.P,MX10,1,COL*%
%TO.N,Net-(D10-A)*%
X225171000Y-170815000D03*
%TO.P,MX10,2,ROW*%
%TO.N,ROW2*%
X218821000Y-173355000D03*
%TD*%
%TO.P,MX9,1,COL*%
%TO.N,Net-(D9-A)*%
X206121000Y-170815000D03*
%TO.P,MX9,2,ROW*%
%TO.N,ROW1*%
X199771000Y-173355000D03*
%TD*%
%TO.P,MX7,1,COL*%
%TO.N,Net-(D7-A)*%
X244221000Y-151765000D03*
%TO.P,MX7,2,ROW*%
%TO.N,ROW3*%
X237871000Y-154305000D03*
%TD*%
D19*
%TO.N,*%
X259842000Y-186817000D02*
X252476000Y-194183000D01*
X241046000Y-190627000D02*
X243459000Y-190627000D01*
X252476000Y-194183000D02*
X252476000Y-186817000D01*
X235712000Y-186563000D02*
X233045000Y-186563000D01*
X230124000Y-192151000D02*
X228600000Y-193675000D01*
X228600000Y-193675000D02*
X226314000Y-193675000D01*
X250698000Y-194183000D02*
X250698000Y-190500000D01*
X223647000Y-186436000D02*
X216281000Y-193802000D01*
X244348000Y-194183000D02*
X244348000Y-186817000D01*
X214503000Y-190119000D02*
X210185000Y-190119000D01*
X230124000Y-186436000D02*
X230124000Y-192151000D01*
X223647000Y-193929000D02*
X223647000Y-186436000D01*
X226314000Y-193675000D02*
X226187000Y-193802000D01*
X226187000Y-193802000D02*
X224790000Y-192405000D01*
X216281000Y-193802000D02*
X216281000Y-186436000D01*
X239649000Y-188214000D02*
X239649000Y-189230000D01*
X214503000Y-193802000D02*
X210185000Y-193802000D01*
X241046000Y-186817000D02*
X239649000Y-188214000D01*
X235712000Y-186563000D02*
X238760000Y-186563000D01*
X214503000Y-190119000D02*
X214503000Y-186436000D01*
X239649000Y-189230000D02*
X241046000Y-190627000D01*
X250698000Y-190500000D02*
X246380000Y-190500000D01*
X224790000Y-192405000D02*
X224790000Y-186436000D01*
X250698000Y-190500000D02*
X250698000Y-186817000D01*
X238760000Y-186563000D02*
X239014000Y-186817000D01*
X235712000Y-194056000D02*
X235712000Y-186563000D01*
X250698000Y-194183000D02*
X246380000Y-194183000D01*
X214503000Y-186436000D02*
X210058000Y-186436000D01*
X250698000Y-186817000D02*
X246253000Y-186817000D01*
X259842000Y-194310000D02*
X259842000Y-186817000D01*
X244348000Y-186817000D02*
X241046000Y-186817000D01*
X233045000Y-186563000D02*
X232537000Y-187071000D01*
X214503000Y-193802000D02*
X214503000Y-190119000D01*
%TO.N,Net-(U1-3V3)*%
X268097000Y-119761000D02*
X268097000Y-116840000D01*
X268097000Y-116840000D02*
X263017000Y-111760000D01*
X263017000Y-111760000D02*
X232419000Y-111760000D01*
X232419000Y-111760000D02*
X218322000Y-97663000D01*
%TO.N,Net-(D13-K)*%
X263652000Y-100457000D02*
X246198000Y-100457000D01*
X246198000Y-100457000D02*
X243817000Y-102838000D01*
%TO.N,Net-(BT1-+)*%
X205869000Y-211989000D02*
X203456000Y-211989000D01*
X203456000Y-211989000D02*
X203329000Y-211862000D01*
%TO.N,ROW4*%
X256921000Y-135255000D02*
X246634000Y-124968000D01*
X246634000Y-124968000D02*
X221488000Y-124968000D01*
X221488000Y-124968000D02*
X218322000Y-121802000D01*
X218322000Y-121802000D02*
X218322000Y-115443000D01*
%TO.N,ROW3*%
X237871000Y-135255000D02*
X220836255Y-135255000D01*
X220836255Y-135255000D02*
X215782000Y-130200745D01*
X215782000Y-130200745D02*
X215782000Y-115443000D01*
%TO.N,ROW2*%
X218821000Y-135255000D02*
X210702000Y-127136000D01*
X210702000Y-127136000D02*
X210702000Y-115443000D01*
%TO.N,ROW1*%
X199771000Y-135255000D02*
X199771000Y-123834000D01*
X199771000Y-123834000D02*
X208162000Y-115443000D01*
%TO.N,Net-(D5-A)*%
X206121000Y-151765000D02*
X212598000Y-151765000D01*
X212598000Y-151765000D02*
X213106000Y-152273000D01*
%TO.N,Net-(D9-A)*%
X213106000Y-171323000D02*
X206629000Y-171323000D01*
X206629000Y-171323000D02*
X206121000Y-170815000D01*
%TO.N,Net-(D10-A)*%
X232156000Y-171450000D02*
X225806000Y-171450000D01*
X225806000Y-171450000D02*
X225171000Y-170815000D01*
%TO.N,Net-(D11-A)*%
X251206000Y-171323000D02*
X244729000Y-171323000D01*
X244729000Y-171323000D02*
X244221000Y-170815000D01*
%TO.N,Net-(D12-A)*%
X270256000Y-171450000D02*
X263906000Y-171450000D01*
X263906000Y-171450000D02*
X263271000Y-170815000D01*
%TO.N,Net-(D8-A)*%
X270256000Y-152273000D02*
X263779000Y-152273000D01*
X263779000Y-152273000D02*
X263271000Y-151765000D01*
%TO.N,Net-(D4-A)*%
X263271000Y-132715000D02*
X269621000Y-132715000D01*
X269621000Y-132715000D02*
X270256000Y-132080000D01*
%TO.N,Net-(D3-A)*%
X244221000Y-132715000D02*
X250571000Y-132715000D01*
X250571000Y-132715000D02*
X251206000Y-132080000D01*
%TO.N,Net-(D2-A)*%
X225171000Y-132715000D02*
X231521000Y-132715000D01*
X231521000Y-132715000D02*
X232156000Y-132080000D01*
%TO.N,Net-(D1-A)*%
X206121000Y-132715000D02*
X212471000Y-132715000D01*
X212471000Y-132715000D02*
X213106000Y-132080000D01*
%TO.N,ROW4*%
X256921000Y-173355000D02*
X256921000Y-135255000D01*
%TO.N,ROW3*%
X237871000Y-173355000D02*
X237871000Y-135255000D01*
%TO.N,ROW2*%
X218821000Y-173355000D02*
X218821000Y-135255000D01*
%TO.N,ROW1*%
X199771000Y-173355000D02*
X199771000Y-135255000D01*
%TO.N,Net-(BT1-+)*%
X192024000Y-117602000D02*
X192024000Y-209042000D01*
X194844000Y-211862000D02*
X203329000Y-211862000D01*
X200279000Y-109347000D02*
X192024000Y-117602000D01*
X192024000Y-209042000D02*
X194844000Y-211862000D01*
%TO.N,Net-(SW1-A)*%
X200279000Y-104267000D02*
X204098000Y-104267000D01*
X204098000Y-104267000D02*
X210702000Y-97663000D01*
%TO.N,Net-(D13-K)*%
X243817000Y-102838000D02*
X238642000Y-97663000D01*
%TD*%
M02*
