%TF.GenerationSoftware,KiCad,Pcbnew,7.0.9*%
%TF.CreationDate,2023-11-20T05:39:13-07:00*%
%TF.ProjectId,blindscontrol,626c696e-6473-4636-9f6e-74726f6c2e6b,rev?*%
%TF.SameCoordinates,Original*%
%TF.FileFunction,Legend,Bot*%
%TF.FilePolarity,Positive*%
%FSLAX46Y46*%
G04 Gerber Fmt 4.6, Leading zero omitted, Abs format (unit mm)*
G04 Created by KiCad (PCBNEW 7.0.9) date 2023-11-20 05:39:13*
%MOMM*%
%LPD*%
G01*
G04 APERTURE LIST*
%ADD10C,0.150000*%
%ADD11C,0.120000*%
%ADD12C,1.600000*%
%ADD13O,1.600000X1.600000*%
%ADD14R,2.000000X2.000000*%
%ADD15O,2.000000X2.000000*%
%ADD16C,3.650000*%
%ADD17R,2.170000X2.170000*%
%ADD18C,2.170000*%
%ADD19O,1.800000X1.800000*%
%ADD20O,1.500000X1.500000*%
%ADD21O,1.700000X1.700000*%
%ADD22R,1.700000X1.700000*%
%ADD23C,2.200000*%
%ADD24C,1.700000*%
%ADD25C,4.000000*%
G04 APERTURE END LIST*
D10*
X269458887Y-224517009D02*
X269316030Y-224564628D01*
X269316030Y-224564628D02*
X269268411Y-224612247D01*
X269268411Y-224612247D02*
X269220792Y-224707485D01*
X269220792Y-224707485D02*
X269220792Y-224850342D01*
X269220792Y-224850342D02*
X269268411Y-224945580D01*
X269268411Y-224945580D02*
X269316030Y-224993200D01*
X269316030Y-224993200D02*
X269411268Y-225040819D01*
X269411268Y-225040819D02*
X269792220Y-225040819D01*
X269792220Y-225040819D02*
X269792220Y-224040819D01*
X269792220Y-224040819D02*
X269458887Y-224040819D01*
X269458887Y-224040819D02*
X269363649Y-224088438D01*
X269363649Y-224088438D02*
X269316030Y-224136057D01*
X269316030Y-224136057D02*
X269268411Y-224231295D01*
X269268411Y-224231295D02*
X269268411Y-224326533D01*
X269268411Y-224326533D02*
X269316030Y-224421771D01*
X269316030Y-224421771D02*
X269363649Y-224469390D01*
X269363649Y-224469390D02*
X269458887Y-224517009D01*
X269458887Y-224517009D02*
X269792220Y-224517009D01*
X268649363Y-225040819D02*
X268744601Y-224993200D01*
X268744601Y-224993200D02*
X268792220Y-224897961D01*
X268792220Y-224897961D02*
X268792220Y-224040819D01*
X268268410Y-225040819D02*
X268268410Y-224374152D01*
X268268410Y-224040819D02*
X268316029Y-224088438D01*
X268316029Y-224088438D02*
X268268410Y-224136057D01*
X268268410Y-224136057D02*
X268220791Y-224088438D01*
X268220791Y-224088438D02*
X268268410Y-224040819D01*
X268268410Y-224040819D02*
X268268410Y-224136057D01*
X267792220Y-224374152D02*
X267792220Y-225040819D01*
X267792220Y-224469390D02*
X267744601Y-224421771D01*
X267744601Y-224421771D02*
X267649363Y-224374152D01*
X267649363Y-224374152D02*
X267506506Y-224374152D01*
X267506506Y-224374152D02*
X267411268Y-224421771D01*
X267411268Y-224421771D02*
X267363649Y-224517009D01*
X267363649Y-224517009D02*
X267363649Y-225040819D01*
X266458887Y-225040819D02*
X266458887Y-224040819D01*
X266458887Y-224993200D02*
X266554125Y-225040819D01*
X266554125Y-225040819D02*
X266744601Y-225040819D01*
X266744601Y-225040819D02*
X266839839Y-224993200D01*
X266839839Y-224993200D02*
X266887458Y-224945580D01*
X266887458Y-224945580D02*
X266935077Y-224850342D01*
X266935077Y-224850342D02*
X266935077Y-224564628D01*
X266935077Y-224564628D02*
X266887458Y-224469390D01*
X266887458Y-224469390D02*
X266839839Y-224421771D01*
X266839839Y-224421771D02*
X266744601Y-224374152D01*
X266744601Y-224374152D02*
X266554125Y-224374152D01*
X266554125Y-224374152D02*
X266458887Y-224421771D01*
X266030315Y-224993200D02*
X265935077Y-225040819D01*
X265935077Y-225040819D02*
X265744601Y-225040819D01*
X265744601Y-225040819D02*
X265649363Y-224993200D01*
X265649363Y-224993200D02*
X265601744Y-224897961D01*
X265601744Y-224897961D02*
X265601744Y-224850342D01*
X265601744Y-224850342D02*
X265649363Y-224755104D01*
X265649363Y-224755104D02*
X265744601Y-224707485D01*
X265744601Y-224707485D02*
X265887458Y-224707485D01*
X265887458Y-224707485D02*
X265982696Y-224659866D01*
X265982696Y-224659866D02*
X266030315Y-224564628D01*
X266030315Y-224564628D02*
X266030315Y-224517009D01*
X266030315Y-224517009D02*
X265982696Y-224421771D01*
X265982696Y-224421771D02*
X265887458Y-224374152D01*
X265887458Y-224374152D02*
X265744601Y-224374152D01*
X265744601Y-224374152D02*
X265649363Y-224421771D01*
X263839839Y-224945580D02*
X263887458Y-224993200D01*
X263887458Y-224993200D02*
X264030315Y-225040819D01*
X264030315Y-225040819D02*
X264125553Y-225040819D01*
X264125553Y-225040819D02*
X264268410Y-224993200D01*
X264268410Y-224993200D02*
X264363648Y-224897961D01*
X264363648Y-224897961D02*
X264411267Y-224802723D01*
X264411267Y-224802723D02*
X264458886Y-224612247D01*
X264458886Y-224612247D02*
X264458886Y-224469390D01*
X264458886Y-224469390D02*
X264411267Y-224278914D01*
X264411267Y-224278914D02*
X264363648Y-224183676D01*
X264363648Y-224183676D02*
X264268410Y-224088438D01*
X264268410Y-224088438D02*
X264125553Y-224040819D01*
X264125553Y-224040819D02*
X264030315Y-224040819D01*
X264030315Y-224040819D02*
X263887458Y-224088438D01*
X263887458Y-224088438D02*
X263839839Y-224136057D01*
X263268410Y-225040819D02*
X263363648Y-224993200D01*
X263363648Y-224993200D02*
X263411267Y-224945580D01*
X263411267Y-224945580D02*
X263458886Y-224850342D01*
X263458886Y-224850342D02*
X263458886Y-224564628D01*
X263458886Y-224564628D02*
X263411267Y-224469390D01*
X263411267Y-224469390D02*
X263363648Y-224421771D01*
X263363648Y-224421771D02*
X263268410Y-224374152D01*
X263268410Y-224374152D02*
X263125553Y-224374152D01*
X263125553Y-224374152D02*
X263030315Y-224421771D01*
X263030315Y-224421771D02*
X262982696Y-224469390D01*
X262982696Y-224469390D02*
X262935077Y-224564628D01*
X262935077Y-224564628D02*
X262935077Y-224850342D01*
X262935077Y-224850342D02*
X262982696Y-224945580D01*
X262982696Y-224945580D02*
X263030315Y-224993200D01*
X263030315Y-224993200D02*
X263125553Y-225040819D01*
X263125553Y-225040819D02*
X263268410Y-225040819D01*
X262506505Y-224374152D02*
X262506505Y-225040819D01*
X262506505Y-224469390D02*
X262458886Y-224421771D01*
X262458886Y-224421771D02*
X262363648Y-224374152D01*
X262363648Y-224374152D02*
X262220791Y-224374152D01*
X262220791Y-224374152D02*
X262125553Y-224421771D01*
X262125553Y-224421771D02*
X262077934Y-224517009D01*
X262077934Y-224517009D02*
X262077934Y-225040819D01*
X261744600Y-224374152D02*
X261363648Y-224374152D01*
X261601743Y-224040819D02*
X261601743Y-224897961D01*
X261601743Y-224897961D02*
X261554124Y-224993200D01*
X261554124Y-224993200D02*
X261458886Y-225040819D01*
X261458886Y-225040819D02*
X261363648Y-225040819D01*
X261030314Y-225040819D02*
X261030314Y-224374152D01*
X261030314Y-224564628D02*
X260982695Y-224469390D01*
X260982695Y-224469390D02*
X260935076Y-224421771D01*
X260935076Y-224421771D02*
X260839838Y-224374152D01*
X260839838Y-224374152D02*
X260744600Y-224374152D01*
X260268409Y-225040819D02*
X260363647Y-224993200D01*
X260363647Y-224993200D02*
X260411266Y-224945580D01*
X260411266Y-224945580D02*
X260458885Y-224850342D01*
X260458885Y-224850342D02*
X260458885Y-224564628D01*
X260458885Y-224564628D02*
X260411266Y-224469390D01*
X260411266Y-224469390D02*
X260363647Y-224421771D01*
X260363647Y-224421771D02*
X260268409Y-224374152D01*
X260268409Y-224374152D02*
X260125552Y-224374152D01*
X260125552Y-224374152D02*
X260030314Y-224421771D01*
X260030314Y-224421771D02*
X259982695Y-224469390D01*
X259982695Y-224469390D02*
X259935076Y-224564628D01*
X259935076Y-224564628D02*
X259935076Y-224850342D01*
X259935076Y-224850342D02*
X259982695Y-224945580D01*
X259982695Y-224945580D02*
X260030314Y-224993200D01*
X260030314Y-224993200D02*
X260125552Y-225040819D01*
X260125552Y-225040819D02*
X260268409Y-225040819D01*
X259363647Y-225040819D02*
X259458885Y-224993200D01*
X259458885Y-224993200D02*
X259506504Y-224897961D01*
X259506504Y-224897961D02*
X259506504Y-224040819D01*
X258839837Y-225040819D02*
X258935075Y-224993200D01*
X258935075Y-224993200D02*
X258982694Y-224897961D01*
X258982694Y-224897961D02*
X258982694Y-224040819D01*
X258077932Y-224993200D02*
X258173170Y-225040819D01*
X258173170Y-225040819D02*
X258363646Y-225040819D01*
X258363646Y-225040819D02*
X258458884Y-224993200D01*
X258458884Y-224993200D02*
X258506503Y-224897961D01*
X258506503Y-224897961D02*
X258506503Y-224517009D01*
X258506503Y-224517009D02*
X258458884Y-224421771D01*
X258458884Y-224421771D02*
X258363646Y-224374152D01*
X258363646Y-224374152D02*
X258173170Y-224374152D01*
X258173170Y-224374152D02*
X258077932Y-224421771D01*
X258077932Y-224421771D02*
X258030313Y-224517009D01*
X258030313Y-224517009D02*
X258030313Y-224612247D01*
X258030313Y-224612247D02*
X258506503Y-224707485D01*
X257601741Y-225040819D02*
X257601741Y-224374152D01*
X257601741Y-224564628D02*
X257554122Y-224469390D01*
X257554122Y-224469390D02*
X257506503Y-224421771D01*
X257506503Y-224421771D02*
X257411265Y-224374152D01*
X257411265Y-224374152D02*
X257316027Y-224374152D01*
X256363645Y-224374152D02*
X255982693Y-224374152D01*
X256220788Y-225040819D02*
X256220788Y-224183676D01*
X256220788Y-224183676D02*
X256173169Y-224088438D01*
X256173169Y-224088438D02*
X256077931Y-224040819D01*
X256077931Y-224040819D02*
X255982693Y-224040819D01*
X255506502Y-225040819D02*
X255601740Y-224993200D01*
X255601740Y-224993200D02*
X255649359Y-224945580D01*
X255649359Y-224945580D02*
X255696978Y-224850342D01*
X255696978Y-224850342D02*
X255696978Y-224564628D01*
X255696978Y-224564628D02*
X255649359Y-224469390D01*
X255649359Y-224469390D02*
X255601740Y-224421771D01*
X255601740Y-224421771D02*
X255506502Y-224374152D01*
X255506502Y-224374152D02*
X255363645Y-224374152D01*
X255363645Y-224374152D02*
X255268407Y-224421771D01*
X255268407Y-224421771D02*
X255220788Y-224469390D01*
X255220788Y-224469390D02*
X255173169Y-224564628D01*
X255173169Y-224564628D02*
X255173169Y-224850342D01*
X255173169Y-224850342D02*
X255220788Y-224945580D01*
X255220788Y-224945580D02*
X255268407Y-224993200D01*
X255268407Y-224993200D02*
X255363645Y-225040819D01*
X255363645Y-225040819D02*
X255506502Y-225040819D01*
X254744597Y-225040819D02*
X254744597Y-224374152D01*
X254744597Y-224564628D02*
X254696978Y-224469390D01*
X254696978Y-224469390D02*
X254649359Y-224421771D01*
X254649359Y-224421771D02*
X254554121Y-224374152D01*
X254554121Y-224374152D02*
X254458883Y-224374152D01*
X253363644Y-225040819D02*
X253363644Y-224040819D01*
X253363644Y-224517009D02*
X252792216Y-224517009D01*
X252792216Y-225040819D02*
X252792216Y-224040819D01*
X252363644Y-224755104D02*
X251887454Y-224755104D01*
X252458882Y-225040819D02*
X252125549Y-224040819D01*
X252125549Y-224040819D02*
X251792216Y-225040819D01*
X250839834Y-224040819D02*
X250506501Y-225040819D01*
X250506501Y-225040819D02*
X250173168Y-224040819D01*
X249316025Y-225040819D02*
X249887453Y-225040819D01*
X249601739Y-225040819D02*
X249601739Y-224040819D01*
X249601739Y-224040819D02*
X249696977Y-224183676D01*
X249696977Y-224183676D02*
X249792215Y-224278914D01*
X249792215Y-224278914D02*
X249887453Y-224326533D01*
X247792215Y-224517009D02*
X247649358Y-224564628D01*
X247649358Y-224564628D02*
X247601739Y-224612247D01*
X247601739Y-224612247D02*
X247554120Y-224707485D01*
X247554120Y-224707485D02*
X247554120Y-224850342D01*
X247554120Y-224850342D02*
X247601739Y-224945580D01*
X247601739Y-224945580D02*
X247649358Y-224993200D01*
X247649358Y-224993200D02*
X247744596Y-225040819D01*
X247744596Y-225040819D02*
X248125548Y-225040819D01*
X248125548Y-225040819D02*
X248125548Y-224040819D01*
X248125548Y-224040819D02*
X247792215Y-224040819D01*
X247792215Y-224040819D02*
X247696977Y-224088438D01*
X247696977Y-224088438D02*
X247649358Y-224136057D01*
X247649358Y-224136057D02*
X247601739Y-224231295D01*
X247601739Y-224231295D02*
X247601739Y-224326533D01*
X247601739Y-224326533D02*
X247649358Y-224421771D01*
X247649358Y-224421771D02*
X247696977Y-224469390D01*
X247696977Y-224469390D02*
X247792215Y-224517009D01*
X247792215Y-224517009D02*
X248125548Y-224517009D01*
X247220786Y-224374152D02*
X246982691Y-225040819D01*
X246744596Y-224374152D02*
X246982691Y-225040819D01*
X246982691Y-225040819D02*
X247077929Y-225278914D01*
X247077929Y-225278914D02*
X247125548Y-225326533D01*
X247125548Y-225326533D02*
X247220786Y-225374152D01*
X245601738Y-225040819D02*
X245601738Y-224040819D01*
X245601738Y-224040819D02*
X245030310Y-225040819D01*
X245030310Y-225040819D02*
X245030310Y-224040819D01*
X244173167Y-224993200D02*
X244268405Y-225040819D01*
X244268405Y-225040819D02*
X244458881Y-225040819D01*
X244458881Y-225040819D02*
X244554119Y-224993200D01*
X244554119Y-224993200D02*
X244601738Y-224897961D01*
X244601738Y-224897961D02*
X244601738Y-224517009D01*
X244601738Y-224517009D02*
X244554119Y-224421771D01*
X244554119Y-224421771D02*
X244458881Y-224374152D01*
X244458881Y-224374152D02*
X244268405Y-224374152D01*
X244268405Y-224374152D02*
X244173167Y-224421771D01*
X244173167Y-224421771D02*
X244125548Y-224517009D01*
X244125548Y-224517009D02*
X244125548Y-224612247D01*
X244125548Y-224612247D02*
X244601738Y-224707485D01*
X243696976Y-224374152D02*
X243696976Y-225374152D01*
X243696976Y-224421771D02*
X243601738Y-224374152D01*
X243601738Y-224374152D02*
X243411262Y-224374152D01*
X243411262Y-224374152D02*
X243316024Y-224421771D01*
X243316024Y-224421771D02*
X243268405Y-224469390D01*
X243268405Y-224469390D02*
X243220786Y-224564628D01*
X243220786Y-224564628D02*
X243220786Y-224850342D01*
X243220786Y-224850342D02*
X243268405Y-224945580D01*
X243268405Y-224945580D02*
X243316024Y-224993200D01*
X243316024Y-224993200D02*
X243411262Y-225040819D01*
X243411262Y-225040819D02*
X243601738Y-225040819D01*
X243601738Y-225040819D02*
X243696976Y-224993200D01*
X242935071Y-224374152D02*
X242554119Y-224374152D01*
X242792214Y-224040819D02*
X242792214Y-224897961D01*
X242792214Y-224897961D02*
X242744595Y-224993200D01*
X242744595Y-224993200D02*
X242649357Y-225040819D01*
X242649357Y-225040819D02*
X242554119Y-225040819D01*
X241792214Y-224374152D02*
X241792214Y-225040819D01*
X242220785Y-224374152D02*
X242220785Y-224897961D01*
X242220785Y-224897961D02*
X242173166Y-224993200D01*
X242173166Y-224993200D02*
X242077928Y-225040819D01*
X242077928Y-225040819D02*
X241935071Y-225040819D01*
X241935071Y-225040819D02*
X241839833Y-224993200D01*
X241839833Y-224993200D02*
X241792214Y-224945580D01*
X241316023Y-224374152D02*
X241316023Y-225040819D01*
X241316023Y-224469390D02*
X241268404Y-224421771D01*
X241268404Y-224421771D02*
X241173166Y-224374152D01*
X241173166Y-224374152D02*
X241030309Y-224374152D01*
X241030309Y-224374152D02*
X240935071Y-224421771D01*
X240935071Y-224421771D02*
X240887452Y-224517009D01*
X240887452Y-224517009D02*
X240887452Y-225040819D01*
X240030309Y-224993200D02*
X240125547Y-225040819D01*
X240125547Y-225040819D02*
X240316023Y-225040819D01*
X240316023Y-225040819D02*
X240411261Y-224993200D01*
X240411261Y-224993200D02*
X240458880Y-224897961D01*
X240458880Y-224897961D02*
X240458880Y-224517009D01*
X240458880Y-224517009D02*
X240411261Y-224421771D01*
X240411261Y-224421771D02*
X240316023Y-224374152D01*
X240316023Y-224374152D02*
X240125547Y-224374152D01*
X240125547Y-224374152D02*
X240030309Y-224421771D01*
X240030309Y-224421771D02*
X239982690Y-224517009D01*
X239982690Y-224517009D02*
X239982690Y-224612247D01*
X239982690Y-224612247D02*
X240458880Y-224707485D01*
X232814714Y-222030009D02*
X232671857Y-222077628D01*
X232671857Y-222077628D02*
X232624238Y-222125247D01*
X232624238Y-222125247D02*
X232576619Y-222220485D01*
X232576619Y-222220485D02*
X232576619Y-222363342D01*
X232576619Y-222363342D02*
X232624238Y-222458580D01*
X232624238Y-222458580D02*
X232671857Y-222506200D01*
X232671857Y-222506200D02*
X232767095Y-222553819D01*
X232767095Y-222553819D02*
X233148047Y-222553819D01*
X233148047Y-222553819D02*
X233148047Y-221553819D01*
X233148047Y-221553819D02*
X232814714Y-221553819D01*
X232814714Y-221553819D02*
X232719476Y-221601438D01*
X232719476Y-221601438D02*
X232671857Y-221649057D01*
X232671857Y-221649057D02*
X232624238Y-221744295D01*
X232624238Y-221744295D02*
X232624238Y-221839533D01*
X232624238Y-221839533D02*
X232671857Y-221934771D01*
X232671857Y-221934771D02*
X232719476Y-221982390D01*
X232719476Y-221982390D02*
X232814714Y-222030009D01*
X232814714Y-222030009D02*
X233148047Y-222030009D01*
X232290904Y-221553819D02*
X231719476Y-221553819D01*
X232005190Y-222553819D02*
X232005190Y-221553819D01*
X230862333Y-222553819D02*
X231433761Y-222553819D01*
X231148047Y-222553819D02*
X231148047Y-221553819D01*
X231148047Y-221553819D02*
X231243285Y-221696676D01*
X231243285Y-221696676D02*
X231338523Y-221791914D01*
X231338523Y-221791914D02*
X231433761Y-221839533D01*
X202100428Y-198513700D02*
X200957571Y-198513700D01*
X243395428Y-212103700D02*
X242252571Y-212103700D01*
X221805428Y-212103700D02*
X220662571Y-212103700D01*
X221233999Y-212675128D02*
X221233999Y-211532271D01*
X221805428Y-198513700D02*
X220662571Y-198513700D01*
X202100428Y-212103700D02*
X200957571Y-212103700D01*
X201528999Y-212675128D02*
X201528999Y-211532271D01*
X243395428Y-198513700D02*
X242252571Y-198513700D01*
X242823999Y-199085128D02*
X242823999Y-197942271D01*
D11*
%TO.C,BT1*%
X202929000Y-220699000D02*
X202929000Y-189999000D01*
X222504000Y-200939000D02*
X222504000Y-195859000D01*
X241554000Y-209449000D02*
X223774000Y-209449000D01*
X240284000Y-200939000D02*
X222504000Y-200939000D01*
X222504000Y-213259000D02*
X223774000Y-213259000D01*
X240284000Y-197129000D02*
X241554000Y-197129000D01*
X241554000Y-199669000D02*
X240284000Y-199669000D01*
X241554000Y-214529000D02*
X241554000Y-209449000D01*
X223774000Y-210719000D02*
X222504000Y-210719000D01*
X223774000Y-213259000D02*
X223774000Y-214529000D01*
X241554000Y-197129000D02*
X241554000Y-199669000D01*
X240284000Y-199669000D02*
X240284000Y-200939000D01*
X222504000Y-210719000D02*
X222504000Y-213259000D01*
X202929000Y-189999000D02*
X261129000Y-189999000D01*
X223774000Y-214529000D02*
X241554000Y-214529000D01*
X223774000Y-209449000D02*
X223774000Y-210719000D01*
X240284000Y-195859000D02*
X240284000Y-197129000D01*
X222504000Y-195859000D02*
X240284000Y-195859000D01*
X261129000Y-220699000D02*
X202929000Y-220699000D01*
X261129000Y-189999000D02*
X261129000Y-220699000D01*
%TD*%
%LPC*%
D12*
%TO.C,R1*%
X268097000Y-107061000D03*
D13*
X268097000Y-119761000D03*
%TD*%
D14*
%TO.C,D13*%
X263652000Y-100457000D03*
D15*
X268732000Y-100457000D03*
%TD*%
D14*
%TO.C,SW1*%
X200279000Y-104267000D03*
D15*
X200279000Y-109347000D03*
%TD*%
D14*
%TO.C,D12*%
X270256000Y-166370000D03*
D15*
X270256000Y-171450000D03*
%TD*%
D14*
%TO.C,D11*%
X251206000Y-166243000D03*
D15*
X251206000Y-171323000D03*
%TD*%
D14*
%TO.C,D10*%
X232156000Y-166370000D03*
D15*
X232156000Y-171450000D03*
%TD*%
D14*
%TO.C,D9*%
X213106000Y-166243000D03*
D15*
X213106000Y-171323000D03*
%TD*%
D14*
%TO.C,D8*%
X270256000Y-147193000D03*
D15*
X270256000Y-152273000D03*
%TD*%
D14*
%TO.C,D7*%
X251206000Y-147193000D03*
D15*
X251206000Y-152273000D03*
%TD*%
D14*
%TO.C,D6*%
X232156000Y-147193000D03*
D15*
X232156000Y-152273000D03*
%TD*%
%TO.C,D5*%
X213106000Y-152273000D03*
D14*
X213106000Y-147193000D03*
%TD*%
%TO.C,D4*%
X270256000Y-127000000D03*
D15*
X270256000Y-132080000D03*
%TD*%
D14*
%TO.C,D3*%
X251206000Y-127000000D03*
D15*
X251206000Y-132080000D03*
%TD*%
D14*
%TO.C,D2*%
X232156000Y-127000000D03*
D15*
X232156000Y-132080000D03*
%TD*%
D14*
%TO.C,D1*%
X213106000Y-127000000D03*
D15*
X213106000Y-132080000D03*
%TD*%
D16*
%TO.C,BT1*%
X232029000Y-205359000D03*
D17*
X205869000Y-211989000D03*
D18*
X205869000Y-198399000D03*
%TD*%
D19*
%TO.C,U1*%
X208292000Y-103828000D03*
X208292000Y-109278000D03*
D20*
X211322000Y-108978000D03*
X211322000Y-104128000D03*
D21*
X208162000Y-115443000D03*
X210702000Y-115443000D03*
D22*
X213242000Y-115443000D03*
D21*
X215782000Y-115443000D03*
X218322000Y-115443000D03*
X220862000Y-115443000D03*
X223402000Y-115443000D03*
D22*
X225942000Y-115443000D03*
D21*
X228482000Y-115443000D03*
X231022000Y-115443000D03*
X233562000Y-115443000D03*
X236102000Y-115443000D03*
D22*
X238642000Y-115443000D03*
D21*
X241182000Y-115443000D03*
X243722000Y-115443000D03*
X246262000Y-115443000D03*
X248802000Y-115443000D03*
D22*
X251342000Y-115443000D03*
D21*
X253882000Y-115443000D03*
X256422000Y-115443000D03*
X256422000Y-97663000D03*
X253882000Y-97663000D03*
D22*
X251342000Y-97663000D03*
D21*
X248802000Y-97663000D03*
X246262000Y-97663000D03*
X243722000Y-97663000D03*
X241182000Y-97663000D03*
D22*
X238642000Y-97663000D03*
D21*
X236102000Y-97663000D03*
X233562000Y-97663000D03*
X231022000Y-97663000D03*
X228482000Y-97663000D03*
D22*
X225942000Y-97663000D03*
D21*
X223402000Y-97663000D03*
X220862000Y-97663000D03*
X218322000Y-97663000D03*
X215782000Y-97663000D03*
D22*
X213242000Y-97663000D03*
D21*
X210702000Y-97663000D03*
X208162000Y-97663000D03*
X256192000Y-109093000D03*
D22*
X256192000Y-106553000D03*
D21*
X256192000Y-104013000D03*
%TD*%
D23*
%TO.C,MX1*%
X199771000Y-135255000D03*
X206121000Y-132715000D03*
D24*
X208661000Y-137795000D03*
X198501000Y-137795000D03*
D25*
X203581000Y-137795000D03*
%TD*%
%TO.C,MX6*%
X222631000Y-156845000D03*
D24*
X217551000Y-156845000D03*
X227711000Y-156845000D03*
D23*
X225171000Y-151765000D03*
X218821000Y-154305000D03*
%TD*%
D25*
%TO.C,MX12*%
X260731000Y-175895000D03*
D24*
X255651000Y-175895000D03*
X265811000Y-175895000D03*
D23*
X263271000Y-170815000D03*
X256921000Y-173355000D03*
%TD*%
D25*
%TO.C,MX8*%
X260731000Y-156845000D03*
D24*
X255651000Y-156845000D03*
X265811000Y-156845000D03*
D23*
X263271000Y-151765000D03*
X256921000Y-154305000D03*
%TD*%
D25*
%TO.C,MX11*%
X241681000Y-175895000D03*
D24*
X236601000Y-175895000D03*
X246761000Y-175895000D03*
D23*
X244221000Y-170815000D03*
X237871000Y-173355000D03*
%TD*%
D25*
%TO.C,MX5*%
X203581000Y-156845000D03*
D24*
X198501000Y-156845000D03*
X208661000Y-156845000D03*
D23*
X206121000Y-151765000D03*
X199771000Y-154305000D03*
%TD*%
D25*
%TO.C,MX2*%
X222631000Y-137795000D03*
D24*
X217551000Y-137795000D03*
X227711000Y-137795000D03*
D23*
X225171000Y-132715000D03*
X218821000Y-135255000D03*
%TD*%
D25*
%TO.C,MX3*%
X241681000Y-137795000D03*
D24*
X236601000Y-137795000D03*
X246761000Y-137795000D03*
D23*
X244221000Y-132715000D03*
X237871000Y-135255000D03*
%TD*%
D25*
%TO.C,MX4*%
X260731000Y-137795000D03*
D24*
X255651000Y-137795000D03*
X265811000Y-137795000D03*
D23*
X263271000Y-132715000D03*
X256921000Y-135255000D03*
%TD*%
D25*
%TO.C,MX10*%
X222631000Y-175895000D03*
D24*
X217551000Y-175895000D03*
X227711000Y-175895000D03*
D23*
X225171000Y-170815000D03*
X218821000Y-173355000D03*
%TD*%
D25*
%TO.C,MX9*%
X203581000Y-175895000D03*
D24*
X198501000Y-175895000D03*
X208661000Y-175895000D03*
D23*
X206121000Y-170815000D03*
X199771000Y-173355000D03*
%TD*%
D25*
%TO.C,MX7*%
X241681000Y-156845000D03*
D24*
X236601000Y-156845000D03*
X246761000Y-156845000D03*
D23*
X244221000Y-151765000D03*
X237871000Y-154305000D03*
%TD*%
%LPD*%
M02*
