M48
; DRILL file {KiCad 7.0.9} date Mon 20 Nov 2023 05:40:07 AM MST
; FORMAT={-:-/ absolute / inch / decimal}
; #@! TF.CreationDate,2023-11-20T05:40:07-07:00
; #@! TF.GenerationSoftware,Kicad,Pcbnew,7.0.9
; #@! TF.FileFunction,Plated,1,2,PTH
FMAT,2
INCH
; #@! TA.AperFunction,Plated,PTH,ComponentDrill
T1C0.0315
; #@! TA.AperFunction,Plated,PTH,ComponentDrill
T2C0.0394
; #@! TA.AperFunction,Plated,PTH,ComponentDrill
T3C0.0402
; #@! TA.AperFunction,Plated,PTH,ComponentDrill
T4C0.0461
; #@! TA.AperFunction,Plated,PTH,ComponentDrill
T5C0.0591
%
G90
G05
T1
X10.555Y-4.215
X10.555Y-4.715
T2
X7.885Y-4.105
X7.885Y-4.305
X8.39Y-5.0
X8.39Y-5.2
X8.39Y-5.795
X8.39Y-5.995
X8.39Y-6.545
X8.39Y-6.745
X9.14Y-5.0
X9.14Y-5.2
X9.14Y-5.795
X9.14Y-5.995
X9.14Y-6.55
X9.14Y-6.75
X9.89Y-5.0
X9.89Y-5.2
X9.89Y-5.795
X9.89Y-5.995
X9.89Y-6.545
X9.89Y-6.745
X10.38Y-3.955
X10.58Y-3.955
X10.64Y-5.0
X10.64Y-5.2
X10.64Y-5.795
X10.64Y-5.995
X10.64Y-6.55
X10.64Y-6.75
T3
X8.1954Y-3.845
X8.1954Y-4.545
X8.2954Y-3.845
X8.2954Y-4.545
X8.3954Y-3.845
X8.3954Y-4.545
X8.4954Y-3.845
X8.4954Y-4.545
X8.5954Y-3.845
X8.5954Y-4.545
X8.6954Y-3.845
X8.6954Y-4.545
X8.7954Y-3.845
X8.7954Y-4.545
X8.8954Y-3.845
X8.8954Y-4.545
X8.9954Y-3.845
X8.9954Y-4.545
X9.0954Y-3.845
X9.0954Y-4.545
X9.1954Y-3.845
X9.1954Y-4.545
X9.2954Y-3.845
X9.2954Y-4.545
X9.3954Y-3.845
X9.3954Y-4.545
X9.4954Y-3.845
X9.4954Y-4.545
X9.5954Y-3.845
X9.5954Y-4.545
X9.6954Y-3.845
X9.6954Y-4.545
X9.7954Y-3.845
X9.7954Y-4.545
X9.8954Y-3.845
X9.8954Y-4.545
X9.9954Y-3.845
X9.9954Y-4.545
X10.0863Y-4.095
X10.0863Y-4.195
X10.0863Y-4.295
X10.0954Y-3.845
X10.0954Y-4.545
T4
X8.1051Y-7.811
X8.1051Y-8.346
T5
X7.865Y-5.325
X7.865Y-6.075
X7.865Y-6.825
X8.115Y-5.225
X8.115Y-5.975
X8.115Y-6.725
X8.615Y-5.325
X8.615Y-6.075
X8.615Y-6.825
X8.865Y-5.225
X8.865Y-5.975
X8.865Y-6.725
X9.365Y-5.325
X9.365Y-6.075
X9.365Y-6.825
X9.615Y-5.225
X9.615Y-5.975
X9.615Y-6.725
X10.115Y-5.325
X10.115Y-6.075
X10.115Y-6.825
X10.365Y-5.225
X10.365Y-5.975
X10.365Y-6.725
T0
M30
