%TF.GenerationSoftware,KiCad,Pcbnew,7.0.9*%
%TF.CreationDate,2023-11-20T05:39:13-07:00*%
%TF.ProjectId,blindscontrol,626c696e-6473-4636-9f6e-74726f6c2e6b,rev?*%
%TF.SameCoordinates,Original*%
%TF.FileFunction,Soldermask,Bot*%
%TF.FilePolarity,Negative*%
%FSLAX46Y46*%
G04 Gerber Fmt 4.6, Leading zero omitted, Abs format (unit mm)*
G04 Created by KiCad (PCBNEW 7.0.9) date 2023-11-20 05:39:13*
%MOMM*%
%LPD*%
G01*
G04 APERTURE LIST*
%ADD10C,1.600000*%
%ADD11O,1.600000X1.600000*%
%ADD12R,2.000000X2.000000*%
%ADD13O,2.000000X2.000000*%
%ADD14C,3.650000*%
%ADD15R,2.170000X2.170000*%
%ADD16C,2.170000*%
%ADD17O,1.800000X1.800000*%
%ADD18O,1.500000X1.500000*%
%ADD19O,1.700000X1.700000*%
%ADD20R,1.700000X1.700000*%
%ADD21C,2.200000*%
%ADD22C,1.700000*%
%ADD23C,4.000000*%
G04 APERTURE END LIST*
D10*
%TO.C,R1*%
X268097000Y-107061000D03*
D11*
X268097000Y-119761000D03*
%TD*%
D12*
%TO.C,D13*%
X263652000Y-100457000D03*
D13*
X268732000Y-100457000D03*
%TD*%
D12*
%TO.C,SW1*%
X200279000Y-104267000D03*
D13*
X200279000Y-109347000D03*
%TD*%
D12*
%TO.C,D12*%
X270256000Y-166370000D03*
D13*
X270256000Y-171450000D03*
%TD*%
D12*
%TO.C,D11*%
X251206000Y-166243000D03*
D13*
X251206000Y-171323000D03*
%TD*%
D12*
%TO.C,D10*%
X232156000Y-166370000D03*
D13*
X232156000Y-171450000D03*
%TD*%
D12*
%TO.C,D9*%
X213106000Y-166243000D03*
D13*
X213106000Y-171323000D03*
%TD*%
D12*
%TO.C,D8*%
X270256000Y-147193000D03*
D13*
X270256000Y-152273000D03*
%TD*%
D12*
%TO.C,D7*%
X251206000Y-147193000D03*
D13*
X251206000Y-152273000D03*
%TD*%
D12*
%TO.C,D6*%
X232156000Y-147193000D03*
D13*
X232156000Y-152273000D03*
%TD*%
%TO.C,D5*%
X213106000Y-152273000D03*
D12*
X213106000Y-147193000D03*
%TD*%
%TO.C,D4*%
X270256000Y-127000000D03*
D13*
X270256000Y-132080000D03*
%TD*%
D12*
%TO.C,D3*%
X251206000Y-127000000D03*
D13*
X251206000Y-132080000D03*
%TD*%
D12*
%TO.C,D2*%
X232156000Y-127000000D03*
D13*
X232156000Y-132080000D03*
%TD*%
D12*
%TO.C,D1*%
X213106000Y-127000000D03*
D13*
X213106000Y-132080000D03*
%TD*%
D14*
%TO.C,BT1*%
X232029000Y-205359000D03*
D15*
X205869000Y-211989000D03*
D16*
X205869000Y-198399000D03*
%TD*%
D17*
%TO.C,U1*%
X208292000Y-103828000D03*
X208292000Y-109278000D03*
D18*
X211322000Y-108978000D03*
X211322000Y-104128000D03*
D19*
X208162000Y-115443000D03*
X210702000Y-115443000D03*
D20*
X213242000Y-115443000D03*
D19*
X215782000Y-115443000D03*
X218322000Y-115443000D03*
X220862000Y-115443000D03*
X223402000Y-115443000D03*
D20*
X225942000Y-115443000D03*
D19*
X228482000Y-115443000D03*
X231022000Y-115443000D03*
X233562000Y-115443000D03*
X236102000Y-115443000D03*
D20*
X238642000Y-115443000D03*
D19*
X241182000Y-115443000D03*
X243722000Y-115443000D03*
X246262000Y-115443000D03*
X248802000Y-115443000D03*
D20*
X251342000Y-115443000D03*
D19*
X253882000Y-115443000D03*
X256422000Y-115443000D03*
X256422000Y-97663000D03*
X253882000Y-97663000D03*
D20*
X251342000Y-97663000D03*
D19*
X248802000Y-97663000D03*
X246262000Y-97663000D03*
X243722000Y-97663000D03*
X241182000Y-97663000D03*
D20*
X238642000Y-97663000D03*
D19*
X236102000Y-97663000D03*
X233562000Y-97663000D03*
X231022000Y-97663000D03*
X228482000Y-97663000D03*
D20*
X225942000Y-97663000D03*
D19*
X223402000Y-97663000D03*
X220862000Y-97663000D03*
X218322000Y-97663000D03*
X215782000Y-97663000D03*
D20*
X213242000Y-97663000D03*
D19*
X210702000Y-97663000D03*
X208162000Y-97663000D03*
X256192000Y-109093000D03*
D20*
X256192000Y-106553000D03*
D19*
X256192000Y-104013000D03*
%TD*%
D21*
%TO.C,MX1*%
X199771000Y-135255000D03*
X206121000Y-132715000D03*
D22*
X208661000Y-137795000D03*
X198501000Y-137795000D03*
D23*
X203581000Y-137795000D03*
%TD*%
%TO.C,MX6*%
X222631000Y-156845000D03*
D22*
X217551000Y-156845000D03*
X227711000Y-156845000D03*
D21*
X225171000Y-151765000D03*
X218821000Y-154305000D03*
%TD*%
D23*
%TO.C,MX12*%
X260731000Y-175895000D03*
D22*
X255651000Y-175895000D03*
X265811000Y-175895000D03*
D21*
X263271000Y-170815000D03*
X256921000Y-173355000D03*
%TD*%
D23*
%TO.C,MX8*%
X260731000Y-156845000D03*
D22*
X255651000Y-156845000D03*
X265811000Y-156845000D03*
D21*
X263271000Y-151765000D03*
X256921000Y-154305000D03*
%TD*%
D23*
%TO.C,MX11*%
X241681000Y-175895000D03*
D22*
X236601000Y-175895000D03*
X246761000Y-175895000D03*
D21*
X244221000Y-170815000D03*
X237871000Y-173355000D03*
%TD*%
D23*
%TO.C,MX5*%
X203581000Y-156845000D03*
D22*
X198501000Y-156845000D03*
X208661000Y-156845000D03*
D21*
X206121000Y-151765000D03*
X199771000Y-154305000D03*
%TD*%
D23*
%TO.C,MX2*%
X222631000Y-137795000D03*
D22*
X217551000Y-137795000D03*
X227711000Y-137795000D03*
D21*
X225171000Y-132715000D03*
X218821000Y-135255000D03*
%TD*%
D23*
%TO.C,MX3*%
X241681000Y-137795000D03*
D22*
X236601000Y-137795000D03*
X246761000Y-137795000D03*
D21*
X244221000Y-132715000D03*
X237871000Y-135255000D03*
%TD*%
D23*
%TO.C,MX4*%
X260731000Y-137795000D03*
D22*
X255651000Y-137795000D03*
X265811000Y-137795000D03*
D21*
X263271000Y-132715000D03*
X256921000Y-135255000D03*
%TD*%
D23*
%TO.C,MX10*%
X222631000Y-175895000D03*
D22*
X217551000Y-175895000D03*
X227711000Y-175895000D03*
D21*
X225171000Y-170815000D03*
X218821000Y-173355000D03*
%TD*%
D23*
%TO.C,MX9*%
X203581000Y-175895000D03*
D22*
X198501000Y-175895000D03*
X208661000Y-175895000D03*
D21*
X206121000Y-170815000D03*
X199771000Y-173355000D03*
%TD*%
D23*
%TO.C,MX7*%
X241681000Y-156845000D03*
D22*
X236601000Y-156845000D03*
X246761000Y-156845000D03*
D21*
X244221000Y-151765000D03*
X237871000Y-154305000D03*
%TD*%
M02*
