M48
; DRILL file {KiCad 7.0.9} date Mon 20 Nov 2023 05:00:58 PM MST
; FORMAT={-:-/ absolute / inch / decimal}
; #@! TF.CreationDate,2023-11-20T17:00:58-07:00
; #@! TF.GenerationSoftware,Kicad,Pcbnew,7.0.9
; #@! TF.FileFunction,NonPlated,1,2,NPTH
FMAT,2
INCH
; #@! TA.AperFunction,NonPlated,NPTH,ComponentDrill
T1C0.0591
; #@! TA.AperFunction,NonPlated,NPTH,ComponentDrill
T2C0.0669
; #@! TA.AperFunction,NonPlated,NPTH,ComponentDrill
T3C0.0709
; #@! TA.AperFunction,NonPlated,NPTH,ComponentDrill
T4C0.1437
; #@! TA.AperFunction,NonPlated,NPTH,ComponentDrill
T5C0.1575
%
G90
G05
T1
X8.3198Y-4.0995
X8.3198Y-4.2905
T2
X7.815Y-5.425
X7.815Y-6.175
X7.815Y-6.925
X8.215Y-5.425
X8.215Y-6.175
X8.215Y-6.925
X8.565Y-5.425
X8.565Y-6.175
X8.565Y-6.925
X8.965Y-5.425
X8.965Y-6.175
X8.965Y-6.925
X9.315Y-5.425
X9.315Y-6.175
X9.315Y-6.925
X9.715Y-5.425
X9.715Y-6.175
X9.715Y-6.925
X10.065Y-5.425
X10.065Y-6.175
X10.065Y-6.925
X10.465Y-5.425
X10.465Y-6.175
X10.465Y-6.925
T3
X8.2005Y-4.0877
X8.2005Y-4.3023
T4
X9.135Y-8.085
T5
X8.015Y-5.425
X8.015Y-6.175
X8.015Y-6.925
X8.765Y-5.425
X8.765Y-6.175
X8.765Y-6.925
X9.515Y-5.425
X9.515Y-6.175
X9.515Y-6.925
X10.265Y-5.425
X10.265Y-6.175
X10.265Y-6.925
T0
M30
