%TF.GenerationSoftware,KiCad,Pcbnew,7.0.9*%
%TF.CreationDate,2023-11-20T17:00:56-07:00*%
%TF.ProjectId,blindscontrol,626c696e-6473-4636-9f6e-74726f6c2e6b,rev?*%
%TF.SameCoordinates,Original*%
%TF.FileFunction,Copper,L2,Bot*%
%TF.FilePolarity,Positive*%
%FSLAX46Y46*%
G04 Gerber Fmt 4.6, Leading zero omitted, Abs format (unit mm)*
G04 Created by KiCad (PCBNEW 7.0.9) date 2023-11-20 17:00:56*
%MOMM*%
%LPD*%
G01*
G04 APERTURE LIST*
%TA.AperFunction,ComponentPad*%
%ADD10C,2.200000*%
%TD*%
%TA.AperFunction,ComponentPad*%
%ADD11R,2.000000X2.000000*%
%TD*%
%TA.AperFunction,ComponentPad*%
%ADD12O,2.000000X2.000000*%
%TD*%
%TA.AperFunction,ComponentPad*%
%ADD13O,1.700000X1.700000*%
%TD*%
%TA.AperFunction,ComponentPad*%
%ADD14R,1.700000X1.700000*%
%TD*%
%TA.AperFunction,ComponentPad*%
%ADD15C,1.600000*%
%TD*%
%TA.AperFunction,ComponentPad*%
%ADD16O,1.600000X1.600000*%
%TD*%
%TA.AperFunction,ComponentPad*%
%ADD17R,2.170000X2.170000*%
%TD*%
%TA.AperFunction,ComponentPad*%
%ADD18C,2.170000*%
%TD*%
%TA.AperFunction,Conductor*%
%ADD19C,0.250000*%
%TD*%
G04 APERTURE END LIST*
D10*
%TO.P,MX6,1,COL*%
%TO.N,Net-(D6-A)*%
X225171000Y-151765000D03*
%TO.P,MX6,2,ROW*%
%TO.N,ROW2*%
X218821000Y-154305000D03*
%TD*%
D11*
%TO.P,D11,1,K*%
%TO.N,COL3*%
X251206000Y-166243000D03*
D12*
%TO.P,D11,2,A*%
%TO.N,Net-(D11-A)*%
X251206000Y-171323000D03*
%TD*%
D11*
%TO.P,D8,1,K*%
%TO.N,COL2*%
X270256000Y-147193000D03*
D12*
%TO.P,D8,2,A*%
%TO.N,Net-(D8-A)*%
X270256000Y-152273000D03*
%TD*%
D10*
%TO.P,MX12,1,COL*%
%TO.N,Net-(D12-A)*%
X263271000Y-170815000D03*
%TO.P,MX12,2,ROW*%
%TO.N,ROW4*%
X256921000Y-173355000D03*
%TD*%
%TO.P,MX8,1,COL*%
%TO.N,Net-(D8-A)*%
X263271000Y-151765000D03*
%TO.P,MX8,2,ROW*%
%TO.N,ROW4*%
X256921000Y-154305000D03*
%TD*%
%TO.P,MX11,1,COL*%
%TO.N,Net-(D11-A)*%
X244221000Y-170815000D03*
%TO.P,MX11,2,ROW*%
%TO.N,ROW3*%
X237871000Y-173355000D03*
%TD*%
D11*
%TO.P,D12,1,K*%
%TO.N,COL3*%
X270256000Y-166370000D03*
D12*
%TO.P,D12,2,A*%
%TO.N,Net-(D12-A)*%
X270256000Y-171450000D03*
%TD*%
D10*
%TO.P,MX5,1,COL*%
%TO.N,Net-(D5-A)*%
X206121000Y-151765000D03*
%TO.P,MX5,2,ROW*%
%TO.N,ROW1*%
X199771000Y-154305000D03*
%TD*%
D11*
%TO.P,D1,1,K*%
%TO.N,COL1*%
X213106000Y-127000000D03*
D12*
%TO.P,D1,2,A*%
%TO.N,Net-(D1-A)*%
X213106000Y-132080000D03*
%TD*%
D11*
%TO.P,SW1,1,A*%
%TO.N,Net-(SW1-A)*%
X200279000Y-104267000D03*
D12*
%TO.P,SW1,2,B*%
%TO.N,Net-(BT1-+)*%
X200279000Y-109347000D03*
%TD*%
D11*
%TO.P,D2,1,K*%
%TO.N,COL1*%
X232156000Y-127000000D03*
D12*
%TO.P,D2,2,A*%
%TO.N,Net-(D2-A)*%
X232156000Y-132080000D03*
%TD*%
D11*
%TO.P,D3,1,K*%
%TO.N,COL1*%
X251206000Y-127000000D03*
D12*
%TO.P,D3,2,A*%
%TO.N,Net-(D3-A)*%
X251206000Y-132080000D03*
%TD*%
D11*
%TO.P,D6,1,K*%
%TO.N,COL2*%
X232156000Y-147193000D03*
D12*
%TO.P,D6,2,A*%
%TO.N,Net-(D6-A)*%
X232156000Y-152273000D03*
%TD*%
D13*
%TO.P,U1,1,GPIO0*%
%TO.N,ROW1*%
X208162000Y-115443000D03*
%TO.P,U1,2,GPIO1*%
%TO.N,ROW2*%
X210702000Y-115443000D03*
D14*
%TO.P,U1,3,GND*%
%TO.N,unconnected-(U1-GND-Pad3)*%
X213242000Y-115443000D03*
D13*
%TO.P,U1,4,GPIO2*%
%TO.N,ROW3*%
X215782000Y-115443000D03*
%TO.P,U1,5,GPIO3*%
%TO.N,ROW4*%
X218322000Y-115443000D03*
%TO.P,U1,6,GPIO4*%
%TO.N,unconnected-(U1-GPIO4-Pad6)*%
X220862000Y-115443000D03*
%TO.P,U1,7,GPIO5*%
%TO.N,unconnected-(U1-GPIO5-Pad7)*%
X223402000Y-115443000D03*
D14*
%TO.P,U1,8,GND*%
%TO.N,unconnected-(U1-GND-Pad8)*%
X225942000Y-115443000D03*
D13*
%TO.P,U1,9,GPIO6*%
%TO.N,COL3*%
X228482000Y-115443000D03*
%TO.P,U1,10,GPIO7*%
%TO.N,COL2*%
X231022000Y-115443000D03*
%TO.P,U1,11,GPIO8*%
%TO.N,COL1*%
X233562000Y-115443000D03*
%TO.P,U1,12,GPIO9*%
%TO.N,unconnected-(U1-GPIO9-Pad12)*%
X236102000Y-115443000D03*
D14*
%TO.P,U1,13,GND*%
%TO.N,GND*%
X238642000Y-115443000D03*
D13*
%TO.P,U1,14,GPIO10*%
%TO.N,unconnected-(U1-GPIO10-Pad14)*%
X241182000Y-115443000D03*
%TO.P,U1,15,GPIO11*%
%TO.N,unconnected-(U1-GPIO11-Pad15)*%
X243722000Y-115443000D03*
%TO.P,U1,16,GPIO12*%
%TO.N,unconnected-(U1-GPIO12-Pad16)*%
X246262000Y-115443000D03*
%TO.P,U1,17,GPIO13*%
%TO.N,unconnected-(U1-GPIO13-Pad17)*%
X248802000Y-115443000D03*
D14*
%TO.P,U1,18,GND*%
%TO.N,unconnected-(U1-GND-Pad18)*%
X251342000Y-115443000D03*
D13*
%TO.P,U1,19,GPIO14*%
%TO.N,unconnected-(U1-GPIO14-Pad19)*%
X253882000Y-115443000D03*
%TO.P,U1,20,GPIO15*%
%TO.N,unconnected-(U1-GPIO15-Pad20)*%
X256422000Y-115443000D03*
%TO.P,U1,21,GPIO16*%
%TO.N,unconnected-(U1-GPIO16-Pad21)*%
X256422000Y-97663000D03*
%TO.P,U1,22,GPIO17*%
%TO.N,unconnected-(U1-GPIO17-Pad22)*%
X253882000Y-97663000D03*
D14*
%TO.P,U1,23,GND*%
%TO.N,unconnected-(U1-GND-Pad23)*%
X251342000Y-97663000D03*
D13*
%TO.P,U1,24,GPIO18*%
%TO.N,unconnected-(U1-GPIO18-Pad24)*%
X248802000Y-97663000D03*
%TO.P,U1,25,GPIO19*%
%TO.N,unconnected-(U1-GPIO19-Pad25)*%
X246262000Y-97663000D03*
%TO.P,U1,26,GPIO20*%
%TO.N,unconnected-(U1-GPIO20-Pad26)*%
X243722000Y-97663000D03*
%TO.P,U1,27,GPIO21*%
%TO.N,unconnected-(U1-GPIO21-Pad27)*%
X241182000Y-97663000D03*
D14*
%TO.P,U1,28,GND*%
%TO.N,Net-(D13-K)*%
X238642000Y-97663000D03*
D13*
%TO.P,U1,29,GPIO22*%
%TO.N,unconnected-(U1-GPIO22-Pad29)*%
X236102000Y-97663000D03*
%TO.P,U1,30,RUN*%
%TO.N,unconnected-(U1-RUN-Pad30)*%
X233562000Y-97663000D03*
%TO.P,U1,31,GPIO26_ADC0*%
%TO.N,unconnected-(U1-GPIO26_ADC0-Pad31)*%
X231022000Y-97663000D03*
%TO.P,U1,32,GPIO27_ADC1*%
%TO.N,unconnected-(U1-GPIO27_ADC1-Pad32)*%
X228482000Y-97663000D03*
D14*
%TO.P,U1,33,AGND*%
%TO.N,unconnected-(U1-AGND-Pad33)*%
X225942000Y-97663000D03*
D13*
%TO.P,U1,34,GPIO28_ADC2*%
%TO.N,unconnected-(U1-GPIO28_ADC2-Pad34)*%
X223402000Y-97663000D03*
%TO.P,U1,35,ADC_VREF*%
%TO.N,unconnected-(U1-ADC_VREF-Pad35)*%
X220862000Y-97663000D03*
%TO.P,U1,36,3V3*%
%TO.N,Net-(U1-3V3)*%
X218322000Y-97663000D03*
%TO.P,U1,37,3V3_EN*%
%TO.N,unconnected-(U1-3V3_EN-Pad37)*%
X215782000Y-97663000D03*
D14*
%TO.P,U1,38,GND*%
%TO.N,Net-(BT1--)*%
X213242000Y-97663000D03*
D13*
%TO.P,U1,39,VSYS*%
%TO.N,Net-(SW1-A)*%
X210702000Y-97663000D03*
%TO.P,U1,40,VBUS*%
%TO.N,unconnected-(U1-VBUS-Pad40)*%
X208162000Y-97663000D03*
%TO.P,U1,41,SWCLK*%
%TO.N,unconnected-(U1-SWCLK-Pad41)*%
X256192000Y-109093000D03*
D14*
%TO.P,U1,42,GND*%
%TO.N,unconnected-(U1-GND-Pad42)*%
X256192000Y-106553000D03*
D13*
%TO.P,U1,43,SWDIO*%
%TO.N,unconnected-(U1-SWDIO-Pad43)*%
X256192000Y-104013000D03*
%TD*%
D11*
%TO.P,D13,1,K*%
%TO.N,Net-(D13-K)*%
X263652000Y-100457000D03*
D12*
%TO.P,D13,2,A*%
%TO.N,Net-(D13-A)*%
X268732000Y-100457000D03*
%TD*%
D10*
%TO.P,MX2,1,COL*%
%TO.N,Net-(D2-A)*%
X225171000Y-132715000D03*
%TO.P,MX2,2,ROW*%
%TO.N,ROW2*%
X218821000Y-135255000D03*
%TD*%
D15*
%TO.P,R1,1*%
%TO.N,Net-(D13-A)*%
X268097000Y-107061000D03*
D16*
%TO.P,R1,2*%
%TO.N,Net-(U1-3V3)*%
X268097000Y-119761000D03*
%TD*%
D10*
%TO.P,MX1,1,COL*%
%TO.N,Net-(D1-A)*%
X206121000Y-132715000D03*
%TO.P,MX1,2,ROW*%
%TO.N,ROW1*%
X199771000Y-135255000D03*
%TD*%
%TO.P,MX3,1,COL*%
%TO.N,Net-(D3-A)*%
X244221000Y-132715000D03*
%TO.P,MX3,2,ROW*%
%TO.N,ROW3*%
X237871000Y-135255000D03*
%TD*%
D11*
%TO.P,D4,1,K*%
%TO.N,COL1*%
X270256000Y-127000000D03*
D12*
%TO.P,D4,2,A*%
%TO.N,Net-(D4-A)*%
X270256000Y-132080000D03*
%TD*%
D10*
%TO.P,MX4,1,COL*%
%TO.N,Net-(D4-A)*%
X263271000Y-132715000D03*
%TO.P,MX4,2,ROW*%
%TO.N,ROW4*%
X256921000Y-135255000D03*
%TD*%
%TO.P,MX10,1,COL*%
%TO.N,Net-(D10-A)*%
X225171000Y-170815000D03*
%TO.P,MX10,2,ROW*%
%TO.N,ROW2*%
X218821000Y-173355000D03*
%TD*%
%TO.P,MX9,1,COL*%
%TO.N,Net-(D9-A)*%
X206121000Y-170815000D03*
%TO.P,MX9,2,ROW*%
%TO.N,ROW1*%
X199771000Y-173355000D03*
%TD*%
D11*
%TO.P,D10,1,K*%
%TO.N,COL3*%
X232156000Y-166370000D03*
D12*
%TO.P,D10,2,A*%
%TO.N,Net-(D10-A)*%
X232156000Y-171450000D03*
%TD*%
D11*
%TO.P,D7,1,K*%
%TO.N,COL2*%
X251206000Y-147193000D03*
D12*
%TO.P,D7,2,A*%
%TO.N,Net-(D7-A)*%
X251206000Y-152273000D03*
%TD*%
D11*
%TO.P,D5,1,K*%
%TO.N,COL2*%
X213106000Y-147193000D03*
D12*
%TO.P,D5,2,A*%
%TO.N,Net-(D5-A)*%
X213106000Y-152273000D03*
%TD*%
D11*
%TO.P,D9,1,K*%
%TO.N,COL3*%
X213106000Y-166243000D03*
D12*
%TO.P,D9,2,A*%
%TO.N,Net-(D9-A)*%
X213106000Y-171323000D03*
%TD*%
D10*
%TO.P,MX7,1,COL*%
%TO.N,Net-(D7-A)*%
X244221000Y-151765000D03*
%TO.P,MX7,2,ROW*%
%TO.N,ROW3*%
X237871000Y-154305000D03*
%TD*%
D17*
%TO.P,BT1,1,+*%
%TO.N,Net-(BT1-+)*%
X205869000Y-211989000D03*
D18*
%TO.P,BT1,2,-*%
%TO.N,Net-(BT1--)*%
X205869000Y-198399000D03*
%TD*%
D19*
%TO.N,*%
X241046000Y-186817000D02*
X239649000Y-188214000D01*
X214503000Y-190119000D02*
X214503000Y-186436000D01*
X259842000Y-186817000D02*
X252476000Y-194183000D01*
X235712000Y-194056000D02*
X235712000Y-186563000D01*
X250698000Y-194183000D02*
X250698000Y-190500000D01*
X214503000Y-193802000D02*
X210185000Y-193802000D01*
X244348000Y-194183000D02*
X244348000Y-186817000D01*
X239649000Y-189230000D02*
X241046000Y-190627000D01*
X259842000Y-194310000D02*
X259842000Y-186817000D01*
X239649000Y-188214000D02*
X239649000Y-189230000D01*
X214503000Y-190119000D02*
X210185000Y-190119000D01*
X230124000Y-186436000D02*
X230124000Y-192151000D01*
X226314000Y-193675000D02*
X226187000Y-193802000D01*
X223647000Y-186436000D02*
X216281000Y-193802000D01*
X228600000Y-193675000D02*
X226314000Y-193675000D01*
X238760000Y-186563000D02*
X239014000Y-186817000D01*
X226187000Y-193802000D02*
X224790000Y-192405000D01*
X233045000Y-186563000D02*
X232537000Y-187071000D01*
X252476000Y-194183000D02*
X252476000Y-186817000D01*
X224790000Y-192405000D02*
X224790000Y-186436000D01*
X250698000Y-186817000D02*
X246253000Y-186817000D01*
X216281000Y-193802000D02*
X216281000Y-186436000D01*
X223647000Y-193929000D02*
X223647000Y-186436000D01*
X250698000Y-190500000D02*
X246380000Y-190500000D01*
X230124000Y-192151000D02*
X228600000Y-193675000D01*
X214503000Y-193802000D02*
X214503000Y-190119000D01*
X250698000Y-194183000D02*
X246380000Y-194183000D01*
X214503000Y-186436000D02*
X210058000Y-186436000D01*
X244348000Y-186817000D02*
X241046000Y-186817000D01*
X235712000Y-186563000D02*
X233045000Y-186563000D01*
X250698000Y-190500000D02*
X250698000Y-186817000D01*
X235712000Y-186563000D02*
X238760000Y-186563000D01*
X241046000Y-190627000D02*
X243459000Y-190627000D01*
%TO.N,Net-(BT1-+)*%
X192024000Y-209042000D02*
X194844000Y-211862000D01*
X194844000Y-211862000D02*
X203329000Y-211862000D01*
X205869000Y-211989000D02*
X203456000Y-211989000D01*
X200279000Y-109347000D02*
X192024000Y-117602000D01*
X192024000Y-117602000D02*
X192024000Y-209042000D01*
X203456000Y-211989000D02*
X203329000Y-211862000D01*
%TO.N,Net-(D1-A)*%
X212471000Y-132715000D02*
X213106000Y-132080000D01*
X206121000Y-132715000D02*
X212471000Y-132715000D01*
%TO.N,Net-(D2-A)*%
X231521000Y-132715000D02*
X232156000Y-132080000D01*
X225171000Y-132715000D02*
X231521000Y-132715000D01*
%TO.N,Net-(D3-A)*%
X250571000Y-132715000D02*
X251206000Y-132080000D01*
X244221000Y-132715000D02*
X250571000Y-132715000D01*
%TO.N,Net-(D4-A)*%
X263271000Y-132715000D02*
X269621000Y-132715000D01*
X269621000Y-132715000D02*
X270256000Y-132080000D01*
%TO.N,Net-(D5-A)*%
X206121000Y-151765000D02*
X212598000Y-151765000D01*
X212598000Y-151765000D02*
X213106000Y-152273000D01*
%TO.N,Net-(D8-A)*%
X263779000Y-152273000D02*
X263271000Y-151765000D01*
X270256000Y-152273000D02*
X263779000Y-152273000D01*
%TO.N,Net-(D9-A)*%
X213106000Y-171323000D02*
X206629000Y-171323000D01*
X206629000Y-171323000D02*
X206121000Y-170815000D01*
%TO.N,Net-(D10-A)*%
X232156000Y-171450000D02*
X225806000Y-171450000D01*
X225806000Y-171450000D02*
X225171000Y-170815000D01*
%TO.N,Net-(D11-A)*%
X244729000Y-171323000D02*
X244221000Y-170815000D01*
X251206000Y-171323000D02*
X244729000Y-171323000D01*
%TO.N,Net-(D12-A)*%
X270256000Y-171450000D02*
X263906000Y-171450000D01*
X263906000Y-171450000D02*
X263271000Y-170815000D01*
%TO.N,ROW1*%
X199771000Y-173355000D02*
X199771000Y-135255000D01*
X199771000Y-135255000D02*
X199771000Y-123834000D01*
X199771000Y-123834000D02*
X208162000Y-115443000D01*
%TO.N,ROW2*%
X218821000Y-135255000D02*
X210702000Y-127136000D01*
X218821000Y-173355000D02*
X218821000Y-135255000D01*
X210702000Y-127136000D02*
X210702000Y-115443000D01*
%TO.N,ROW3*%
X237871000Y-135255000D02*
X220836255Y-135255000D01*
X220836255Y-135255000D02*
X215782000Y-130200745D01*
X215782000Y-130200745D02*
X215782000Y-115443000D01*
X237871000Y-173355000D02*
X237871000Y-135255000D01*
%TO.N,ROW4*%
X221488000Y-124968000D02*
X218322000Y-121802000D01*
X256921000Y-135255000D02*
X246634000Y-124968000D01*
X218322000Y-121802000D02*
X218322000Y-115443000D01*
X246634000Y-124968000D02*
X221488000Y-124968000D01*
X256921000Y-173355000D02*
X256921000Y-135255000D01*
%TO.N,Net-(SW1-A)*%
X200279000Y-104267000D02*
X204098000Y-104267000D01*
X204098000Y-104267000D02*
X210702000Y-97663000D01*
%TO.N,Net-(D13-K)*%
X263652000Y-100457000D02*
X246198000Y-100457000D01*
X246198000Y-100457000D02*
X243817000Y-102838000D01*
X243817000Y-102838000D02*
X238642000Y-97663000D01*
%TO.N,Net-(U1-3V3)*%
X268097000Y-116840000D02*
X263017000Y-111760000D01*
X268097000Y-119761000D02*
X268097000Y-116840000D01*
X263017000Y-111760000D02*
X232419000Y-111760000D01*
X232419000Y-111760000D02*
X218322000Y-97663000D01*
%TD*%
%TA.AperFunction,Conductor*%
%TO.N,GND*%
G36*
X243665539Y-187462185D02*
G01*
X243711294Y-187514989D01*
X243722500Y-187566500D01*
X243722500Y-189889007D01*
X243702815Y-189956046D01*
X243650011Y-190001801D01*
X243580853Y-190011745D01*
X243567663Y-190009111D01*
X243538023Y-190001500D01*
X243538019Y-190001500D01*
X241356453Y-190001500D01*
X241289414Y-189981815D01*
X241268772Y-189965181D01*
X240310819Y-189007228D01*
X240277334Y-188945905D01*
X240274500Y-188919547D01*
X240274500Y-188524452D01*
X240294185Y-188457413D01*
X240310819Y-188436771D01*
X241268772Y-187478819D01*
X241330095Y-187445334D01*
X241356453Y-187442500D01*
X243598500Y-187442500D01*
X243665539Y-187462185D01*
G37*
%TD.AperFunction*%
%TA.AperFunction,Conductor*%
G36*
X275391399Y-122349118D02*
G01*
X275437285Y-122401809D01*
X275448618Y-122453582D01*
X275462499Y-226058253D01*
X275462402Y-226061738D01*
X275456012Y-226175524D01*
X275445599Y-226347668D01*
X275444835Y-226354315D01*
X275421722Y-226490343D01*
X275394440Y-226639217D01*
X275393032Y-226645208D01*
X275353625Y-226782001D01*
X275309744Y-226922815D01*
X275307831Y-226928099D01*
X275252609Y-227061418D01*
X275192668Y-227194600D01*
X275190394Y-227199147D01*
X275120043Y-227326439D01*
X275044781Y-227450936D01*
X275042287Y-227454739D01*
X274958571Y-227572726D01*
X274956811Y-227575086D01*
X274868088Y-227688332D01*
X274865512Y-227691409D01*
X274768980Y-227799430D01*
X274766590Y-227801957D01*
X274664957Y-227903590D01*
X274662430Y-227905980D01*
X274554409Y-228002512D01*
X274551332Y-228005088D01*
X274438086Y-228093811D01*
X274435726Y-228095571D01*
X274317739Y-228179287D01*
X274313936Y-228181781D01*
X274189439Y-228257043D01*
X274062147Y-228327394D01*
X274057600Y-228329668D01*
X273924418Y-228389609D01*
X273791099Y-228444831D01*
X273785815Y-228446744D01*
X273668231Y-228483385D01*
X273644990Y-228490627D01*
X273508208Y-228530032D01*
X273502217Y-228531440D01*
X273353343Y-228558722D01*
X273217315Y-228581835D01*
X273210668Y-228582599D01*
X273038661Y-228593003D01*
X272924742Y-228599401D01*
X272921251Y-228599498D01*
X191789786Y-228581449D01*
X191786322Y-228581351D01*
X191672580Y-228574962D01*
X191500380Y-228564542D01*
X191493734Y-228563778D01*
X191357725Y-228540668D01*
X191208843Y-228513382D01*
X191202852Y-228511974D01*
X191066032Y-228472556D01*
X190925236Y-228428680D01*
X190919962Y-228426770D01*
X190837832Y-228392750D01*
X190786625Y-228371538D01*
X190653452Y-228311601D01*
X190648905Y-228309326D01*
X190608526Y-228287009D01*
X190521616Y-228238974D01*
X190397120Y-228163713D01*
X190393327Y-228161225D01*
X190275295Y-228077476D01*
X190273015Y-228075776D01*
X190179501Y-228002512D01*
X190159724Y-227987017D01*
X190156659Y-227984452D01*
X190048620Y-227887902D01*
X190046112Y-227885530D01*
X189944468Y-227783886D01*
X189942099Y-227781381D01*
X189845542Y-227673335D01*
X189842981Y-227670274D01*
X189835533Y-227660768D01*
X189754212Y-227556970D01*
X189752533Y-227554718D01*
X189668751Y-227436641D01*
X189666294Y-227432893D01*
X189591024Y-227308382D01*
X189520661Y-227181072D01*
X189518407Y-227176567D01*
X189458461Y-227043374D01*
X189423447Y-226958846D01*
X189403227Y-226910032D01*
X189401324Y-226904779D01*
X189357451Y-226763995D01*
X189323862Y-226647406D01*
X189318025Y-226627146D01*
X189316621Y-226621176D01*
X189289334Y-226472288D01*
X189266218Y-226336255D01*
X189265458Y-226329638D01*
X189255047Y-226157598D01*
X189249467Y-226058253D01*
X189248649Y-226043683D01*
X189248600Y-226041948D01*
X190240624Y-226041948D01*
X190259674Y-226284013D01*
X190259674Y-226284016D01*
X190259675Y-226284019D01*
X190304861Y-226472228D01*
X190316362Y-226520134D01*
X190409280Y-226744459D01*
X190409283Y-226744464D01*
X190409284Y-226744466D01*
X190536156Y-226951503D01*
X190693855Y-227136145D01*
X190878497Y-227293844D01*
X191085534Y-227420716D01*
X191123504Y-227436444D01*
X191125636Y-227437391D01*
X191127466Y-227438085D01*
X191309869Y-227513639D01*
X191349605Y-227523179D01*
X191352385Y-227523914D01*
X191358284Y-227525622D01*
X191358299Y-227525628D01*
X191368361Y-227527681D01*
X191545981Y-227570325D01*
X191593062Y-227574030D01*
X191600584Y-227575090D01*
X191601863Y-227575352D01*
X191618232Y-227576011D01*
X191788052Y-227589376D01*
X191839171Y-227585352D01*
X191846531Y-227585212D01*
X191850249Y-227585362D01*
X191870855Y-227582859D01*
X192030123Y-227570325D01*
X192084006Y-227557388D01*
X192090991Y-227556130D01*
X192097025Y-227555398D01*
X192118589Y-227549151D01*
X192121251Y-227548446D01*
X192266234Y-227513639D01*
X192321321Y-227490820D01*
X192327751Y-227488566D01*
X192335798Y-227486236D01*
X192357833Y-227475779D01*
X192360580Y-227474559D01*
X192490570Y-227420716D01*
X192545029Y-227387343D01*
X192550817Y-227384208D01*
X192560385Y-227379668D01*
X192581423Y-227365146D01*
X192584184Y-227363349D01*
X192697607Y-227293844D01*
X192749499Y-227249524D01*
X192754493Y-227245684D01*
X192764969Y-227238454D01*
X192783822Y-227220344D01*
X192786427Y-227217984D01*
X192882249Y-227136145D01*
X192929437Y-227080894D01*
X192933608Y-227076472D01*
X192944251Y-227066251D01*
X192960004Y-227045286D01*
X192962375Y-227042329D01*
X193039948Y-226951503D01*
X193080279Y-226885688D01*
X193083551Y-226880876D01*
X193093589Y-226867519D01*
X193105635Y-226844567D01*
X193107618Y-226841074D01*
X193166820Y-226744466D01*
X193198127Y-226668884D01*
X193200499Y-226663817D01*
X193209113Y-226647406D01*
X193217111Y-226623446D01*
X193218613Y-226619425D01*
X193259743Y-226520130D01*
X193279961Y-226435916D01*
X193281428Y-226430795D01*
X193287833Y-226411611D01*
X193291730Y-226387631D01*
X193292638Y-226383114D01*
X193301948Y-226344334D01*
X193316429Y-226284019D01*
X193323610Y-226192768D01*
X193324216Y-226187737D01*
X193327710Y-226166242D01*
X193328365Y-226133676D01*
X193328540Y-226130119D01*
X193334059Y-226060000D01*
X271520786Y-226060000D01*
X271539612Y-226299219D01*
X271595630Y-226532553D01*
X271595630Y-226532554D01*
X271687457Y-226754245D01*
X271687459Y-226754248D01*
X271812837Y-226958846D01*
X271812841Y-226958851D01*
X271861379Y-227015681D01*
X271968682Y-227141318D01*
X272082415Y-227238454D01*
X272151148Y-227297158D01*
X272151153Y-227297162D01*
X272352776Y-227420717D01*
X272355751Y-227422540D01*
X272393380Y-227438126D01*
X272395319Y-227438988D01*
X272396975Y-227439616D01*
X272481264Y-227474529D01*
X272577447Y-227514369D01*
X272616846Y-227523827D01*
X272619599Y-227524557D01*
X272625293Y-227526205D01*
X272625307Y-227526211D01*
X272635085Y-227528206D01*
X272810778Y-227570387D01*
X272857303Y-227574048D01*
X272864833Y-227575110D01*
X272866003Y-227575349D01*
X272882026Y-227575994D01*
X273050000Y-227589214D01*
X273100535Y-227585236D01*
X273107880Y-227585096D01*
X273111465Y-227585241D01*
X273131684Y-227582785D01*
X273289222Y-227570387D01*
X273342495Y-227557597D01*
X273349453Y-227556344D01*
X273355335Y-227555630D01*
X273376545Y-227549486D01*
X273379166Y-227548793D01*
X273522553Y-227514369D01*
X273577005Y-227491814D01*
X273583416Y-227489565D01*
X273591297Y-227487283D01*
X273612963Y-227477001D01*
X273615723Y-227475776D01*
X273744249Y-227422540D01*
X273798082Y-227389550D01*
X273803867Y-227386417D01*
X273813240Y-227381970D01*
X273833950Y-227367674D01*
X273836691Y-227365890D01*
X273948849Y-227297160D01*
X274000117Y-227253373D01*
X274005146Y-227249506D01*
X274015415Y-227242418D01*
X274033983Y-227224582D01*
X274036567Y-227222242D01*
X274131318Y-227141318D01*
X274177957Y-227086709D01*
X274182119Y-227082296D01*
X274192586Y-227072243D01*
X274208094Y-227051605D01*
X274210447Y-227048668D01*
X274287160Y-226958849D01*
X274327024Y-226893797D01*
X274330297Y-226888982D01*
X274340165Y-226875851D01*
X274352007Y-226853287D01*
X274354011Y-226849758D01*
X274412540Y-226754249D01*
X274443500Y-226679502D01*
X274445857Y-226674469D01*
X274454329Y-226658329D01*
X274462194Y-226634768D01*
X274463697Y-226630743D01*
X274504369Y-226532553D01*
X274524361Y-226449280D01*
X274525818Y-226444192D01*
X274532122Y-226425310D01*
X274535957Y-226401710D01*
X274536860Y-226397217D01*
X274560387Y-226299222D01*
X274567485Y-226209022D01*
X274568098Y-226203943D01*
X274571528Y-226182840D01*
X274571528Y-226182837D01*
X274571529Y-226182831D01*
X274572173Y-226150780D01*
X274572350Y-226147214D01*
X274579214Y-226060000D01*
X274572350Y-225972788D01*
X274572173Y-225969216D01*
X274571529Y-225937169D01*
X274568094Y-225916034D01*
X274567485Y-225910971D01*
X274560387Y-225820781D01*
X274560387Y-225820780D01*
X274560387Y-225820778D01*
X274536863Y-225722793D01*
X274535954Y-225718273D01*
X274532122Y-225694690D01*
X274525831Y-225675846D01*
X274524352Y-225670682D01*
X274504371Y-225587456D01*
X274504369Y-225587447D01*
X274463699Y-225489262D01*
X274462192Y-225485225D01*
X274454329Y-225461671D01*
X274445870Y-225445554D01*
X274443489Y-225440470D01*
X274441840Y-225436490D01*
X274412540Y-225365751D01*
X274354027Y-225270267D01*
X274351998Y-225266693D01*
X274340165Y-225244149D01*
X274336501Y-225239273D01*
X274330307Y-225231031D01*
X274327016Y-225226190D01*
X274287160Y-225161151D01*
X274210476Y-225071365D01*
X274208082Y-225068379D01*
X274192586Y-225047757D01*
X274182137Y-225037721D01*
X274177957Y-225033290D01*
X274131318Y-224978682D01*
X274094671Y-224947382D01*
X274036617Y-224897799D01*
X274033933Y-224895368D01*
X274015417Y-224877583D01*
X274015411Y-224877579D01*
X274005158Y-224870501D01*
X274000111Y-224866620D01*
X273948851Y-224822841D01*
X273948850Y-224822840D01*
X273910325Y-224799232D01*
X273836712Y-224754121D01*
X273833916Y-224752302D01*
X273813244Y-224738032D01*
X273803873Y-224733585D01*
X273798058Y-224730434D01*
X273744248Y-224697459D01*
X273744249Y-224697459D01*
X273615772Y-224644242D01*
X273612921Y-224642976D01*
X273591298Y-224632717D01*
X273591299Y-224632717D01*
X273583453Y-224630445D01*
X273576973Y-224628172D01*
X273522553Y-224605630D01*
X273417234Y-224580346D01*
X273379209Y-224571217D01*
X273376447Y-224570485D01*
X273355335Y-224564370D01*
X273355329Y-224564369D01*
X273349457Y-224563655D01*
X273342466Y-224562395D01*
X273289222Y-224549613D01*
X273131697Y-224537215D01*
X273111465Y-224534758D01*
X273107879Y-224534903D01*
X273100525Y-224534761D01*
X273050000Y-224530786D01*
X272882037Y-224544004D01*
X272866002Y-224544650D01*
X272865992Y-224544652D01*
X272864816Y-224544892D01*
X272857285Y-224545952D01*
X272831470Y-224547984D01*
X272810778Y-224549613D01*
X272701935Y-224575744D01*
X272635107Y-224591788D01*
X272628908Y-224593053D01*
X272625296Y-224593791D01*
X272619571Y-224595449D01*
X272616807Y-224596180D01*
X272577443Y-224605631D01*
X272396977Y-224680383D01*
X272395315Y-224681014D01*
X272393375Y-224681875D01*
X272355749Y-224697460D01*
X272355744Y-224697463D01*
X272151153Y-224822837D01*
X272151148Y-224822841D01*
X271968682Y-224978682D01*
X271812841Y-225161148D01*
X271812837Y-225161153D01*
X271687459Y-225365751D01*
X271687457Y-225365754D01*
X271595630Y-225587445D01*
X271595630Y-225587446D01*
X271539612Y-225820780D01*
X271520786Y-226060000D01*
X193334059Y-226060000D01*
X193335480Y-226041948D01*
X193328541Y-225953779D01*
X193328364Y-225950216D01*
X193327710Y-225917654D01*
X193324216Y-225896155D01*
X193323610Y-225891130D01*
X193316429Y-225799877D01*
X193292638Y-225700781D01*
X193291730Y-225696264D01*
X193287833Y-225672285D01*
X193281433Y-225653114D01*
X193279955Y-225647953D01*
X193265852Y-225589213D01*
X193259743Y-225563766D01*
X193218622Y-225464492D01*
X193217107Y-225460436D01*
X193209113Y-225436490D01*
X193200505Y-225420089D01*
X193198123Y-225415003D01*
X193177722Y-225365751D01*
X193166820Y-225339430D01*
X193166819Y-225339428D01*
X193107641Y-225242856D01*
X193105614Y-225239289D01*
X193093589Y-225216377D01*
X193083558Y-225203029D01*
X193080263Y-225198181D01*
X193039947Y-225132391D01*
X193039946Y-225132390D01*
X192985275Y-225068379D01*
X192962394Y-225041589D01*
X192959987Y-225038585D01*
X192944250Y-225017644D01*
X192933617Y-225007431D01*
X192929419Y-225002980D01*
X192908670Y-224978686D01*
X192882249Y-224947751D01*
X192786447Y-224865928D01*
X192783807Y-224863536D01*
X192764969Y-224845442D01*
X192762427Y-224843687D01*
X192754514Y-224838225D01*
X192749466Y-224834344D01*
X192697607Y-224790052D01*
X192584200Y-224720556D01*
X192581393Y-224718729D01*
X192560387Y-224704229D01*
X192550831Y-224699694D01*
X192545016Y-224696543D01*
X192513731Y-224677373D01*
X192490570Y-224663180D01*
X192490564Y-224663177D01*
X192490562Y-224663176D01*
X192360642Y-224609362D01*
X192357790Y-224608095D01*
X192335803Y-224597662D01*
X192335791Y-224597657D01*
X192327765Y-224595332D01*
X192321290Y-224593061D01*
X192266239Y-224570259D01*
X192266240Y-224570259D01*
X192266237Y-224570258D01*
X192266234Y-224570257D01*
X192207725Y-224556210D01*
X192121312Y-224535463D01*
X192118538Y-224534729D01*
X192104924Y-224530786D01*
X192097025Y-224528498D01*
X192097022Y-224528497D01*
X192097020Y-224528497D01*
X192090994Y-224527765D01*
X192083992Y-224526504D01*
X192030129Y-224513572D01*
X192030123Y-224513571D01*
X191870869Y-224501037D01*
X191850245Y-224498533D01*
X191846521Y-224498683D01*
X191839163Y-224498542D01*
X191788052Y-224494520D01*
X191618246Y-224507883D01*
X191601867Y-224508543D01*
X191601850Y-224508545D01*
X191600568Y-224508807D01*
X191593048Y-224509865D01*
X191545990Y-224513570D01*
X191545985Y-224513570D01*
X191545981Y-224513571D01*
X191545978Y-224513571D01*
X191545976Y-224513572D01*
X191368375Y-224556210D01*
X191358292Y-224558269D01*
X191352350Y-224559990D01*
X191349585Y-224560721D01*
X191309873Y-224570256D01*
X191309867Y-224570258D01*
X191127481Y-224645803D01*
X191125659Y-224646495D01*
X191123489Y-224647458D01*
X191085536Y-224663178D01*
X190878496Y-224790052D01*
X190693855Y-224947751D01*
X190536156Y-225132392D01*
X190409280Y-225339436D01*
X190316362Y-225563761D01*
X190296149Y-225647953D01*
X190278182Y-225722793D01*
X190259674Y-225799882D01*
X190240624Y-226041948D01*
X189248600Y-226041948D01*
X189248551Y-226040206D01*
X189248551Y-122666088D01*
X189268236Y-122599049D01*
X189321040Y-122553294D01*
X189372239Y-122542088D01*
X191274196Y-122537386D01*
X191341281Y-122556905D01*
X191387167Y-122609596D01*
X191398500Y-122661386D01*
X191398500Y-208959255D01*
X191396775Y-208974872D01*
X191397061Y-208974899D01*
X191396326Y-208982665D01*
X191398500Y-209051814D01*
X191398500Y-209081343D01*
X191398501Y-209081360D01*
X191399368Y-209088231D01*
X191399826Y-209094050D01*
X191401290Y-209140624D01*
X191401291Y-209140627D01*
X191406880Y-209159867D01*
X191410824Y-209178911D01*
X191413336Y-209198791D01*
X191430490Y-209242119D01*
X191432382Y-209247647D01*
X191445381Y-209292388D01*
X191455580Y-209309634D01*
X191464138Y-209327103D01*
X191471514Y-209345732D01*
X191498898Y-209383423D01*
X191502106Y-209388307D01*
X191525827Y-209428416D01*
X191525833Y-209428424D01*
X191539990Y-209442580D01*
X191552628Y-209457376D01*
X191564405Y-209473586D01*
X191564406Y-209473587D01*
X191600309Y-209503288D01*
X191604620Y-209507210D01*
X194333598Y-212236189D01*
X194343197Y-212245788D01*
X194353022Y-212258051D01*
X194353243Y-212257869D01*
X194358214Y-212263878D01*
X194384217Y-212288295D01*
X194408635Y-212311226D01*
X194429529Y-212332120D01*
X194435011Y-212336373D01*
X194439443Y-212340157D01*
X194473418Y-212372062D01*
X194490976Y-212381714D01*
X194507235Y-212392395D01*
X194523064Y-212404673D01*
X194565838Y-212423182D01*
X194571056Y-212425738D01*
X194611908Y-212448197D01*
X194631316Y-212453180D01*
X194649717Y-212459480D01*
X194668104Y-212467437D01*
X194711488Y-212474308D01*
X194714119Y-212474725D01*
X194719839Y-212475909D01*
X194764981Y-212487500D01*
X194785016Y-212487500D01*
X194804414Y-212489026D01*
X194824194Y-212492159D01*
X194824195Y-212492160D01*
X194824195Y-212492159D01*
X194824196Y-212492160D01*
X194870584Y-212487775D01*
X194876422Y-212487500D01*
X203032549Y-212487500D01*
X203092281Y-212502835D01*
X203102970Y-212508711D01*
X203119235Y-212519395D01*
X203135064Y-212531673D01*
X203177838Y-212550182D01*
X203183056Y-212552738D01*
X203223908Y-212575197D01*
X203243316Y-212580180D01*
X203261717Y-212586480D01*
X203280104Y-212594437D01*
X203323488Y-212601308D01*
X203326119Y-212601725D01*
X203331839Y-212602909D01*
X203376981Y-212614500D01*
X203397016Y-212614500D01*
X203416414Y-212616026D01*
X203436194Y-212619159D01*
X203436195Y-212619160D01*
X203436195Y-212619159D01*
X203436196Y-212619160D01*
X203482584Y-212614775D01*
X203488422Y-212614500D01*
X204159501Y-212614500D01*
X204226540Y-212634185D01*
X204272295Y-212686989D01*
X204283501Y-212738500D01*
X204283501Y-213121876D01*
X204289908Y-213181483D01*
X204340202Y-213316328D01*
X204340206Y-213316335D01*
X204426452Y-213431544D01*
X204426455Y-213431547D01*
X204541664Y-213517793D01*
X204541671Y-213517797D01*
X204676517Y-213568091D01*
X204676516Y-213568091D01*
X204683444Y-213568835D01*
X204736127Y-213574500D01*
X207001872Y-213574499D01*
X207061483Y-213568091D01*
X207196331Y-213517796D01*
X207311546Y-213431546D01*
X207397796Y-213316331D01*
X207448091Y-213181483D01*
X207454500Y-213121873D01*
X207454499Y-210856128D01*
X207448091Y-210796517D01*
X207397796Y-210661669D01*
X207397795Y-210661668D01*
X207397793Y-210661664D01*
X207311547Y-210546455D01*
X207311544Y-210546452D01*
X207196335Y-210460206D01*
X207196328Y-210460202D01*
X207061482Y-210409908D01*
X207061483Y-210409908D01*
X207001883Y-210403501D01*
X207001881Y-210403500D01*
X207001873Y-210403500D01*
X207001864Y-210403500D01*
X204736129Y-210403500D01*
X204736123Y-210403501D01*
X204676516Y-210409908D01*
X204541671Y-210460202D01*
X204541664Y-210460206D01*
X204426455Y-210546452D01*
X204426452Y-210546455D01*
X204340206Y-210661664D01*
X204340202Y-210661671D01*
X204289908Y-210796517D01*
X204283501Y-210856116D01*
X204283501Y-210856123D01*
X204283500Y-210856135D01*
X204283500Y-211239500D01*
X204263815Y-211306539D01*
X204211011Y-211352294D01*
X204159500Y-211363500D01*
X203752450Y-211363500D01*
X203692706Y-211348158D01*
X203682021Y-211342283D01*
X203665767Y-211331606D01*
X203649935Y-211319326D01*
X203649933Y-211319325D01*
X203607168Y-211300818D01*
X203601922Y-211298248D01*
X203561093Y-211275803D01*
X203561092Y-211275802D01*
X203541693Y-211270822D01*
X203523281Y-211264518D01*
X203504898Y-211256562D01*
X203504892Y-211256560D01*
X203458874Y-211249272D01*
X203453152Y-211248087D01*
X203408021Y-211236500D01*
X203408019Y-211236500D01*
X203387984Y-211236500D01*
X203368586Y-211234973D01*
X203361162Y-211233797D01*
X203348805Y-211231840D01*
X203348804Y-211231840D01*
X203302416Y-211236225D01*
X203296578Y-211236500D01*
X195154453Y-211236500D01*
X195087414Y-211216815D01*
X195066772Y-211200181D01*
X192685819Y-208819228D01*
X192652334Y-208757905D01*
X192649500Y-208731547D01*
X192649500Y-205286399D01*
X229949698Y-205286399D01*
X229959829Y-205576475D01*
X229959830Y-205576482D01*
X230010233Y-205862332D01*
X230010234Y-205862336D01*
X230099932Y-206138398D01*
X230227171Y-206399276D01*
X230227175Y-206399284D01*
X230389490Y-206639926D01*
X230389493Y-206639929D01*
X230583717Y-206855636D01*
X230583720Y-206855639D01*
X230806064Y-207042208D01*
X230806066Y-207042209D01*
X230806073Y-207042215D01*
X231052232Y-207196033D01*
X231317404Y-207314094D01*
X231317408Y-207314095D01*
X231317410Y-207314096D01*
X231596422Y-207394102D01*
X231596423Y-207394102D01*
X231596426Y-207394103D01*
X231596429Y-207394103D01*
X231596432Y-207394104D01*
X231672209Y-207404753D01*
X231883864Y-207434499D01*
X231883865Y-207434500D01*
X231883867Y-207434500D01*
X232101478Y-207434500D01*
X232134120Y-207432217D01*
X232318559Y-207419320D01*
X232318564Y-207419319D01*
X232318566Y-207419319D01*
X232441633Y-207393159D01*
X232602482Y-207358970D01*
X232875243Y-207259693D01*
X233131533Y-207123422D01*
X233366363Y-206952808D01*
X233575163Y-206751172D01*
X233753869Y-206522439D01*
X233899002Y-206271061D01*
X234007738Y-206001931D01*
X234077959Y-205720287D01*
X234108301Y-205431611D01*
X234098170Y-205141521D01*
X234047766Y-204855665D01*
X233958069Y-204579606D01*
X233830825Y-204318716D01*
X233668510Y-204078074D01*
X233474284Y-203862365D01*
X233474282Y-203862363D01*
X233474279Y-203862360D01*
X233251935Y-203675791D01*
X233251931Y-203675788D01*
X233251927Y-203675785D01*
X233005768Y-203521967D01*
X233005765Y-203521965D01*
X232740589Y-203403903D01*
X232461577Y-203323897D01*
X232461567Y-203323895D01*
X232174136Y-203283500D01*
X232174133Y-203283500D01*
X231956524Y-203283500D01*
X231956522Y-203283500D01*
X231739437Y-203298680D01*
X231739433Y-203298680D01*
X231455520Y-203359029D01*
X231182761Y-203458305D01*
X231182756Y-203458307D01*
X230926472Y-203594575D01*
X230926465Y-203594579D01*
X230691644Y-203765185D01*
X230691637Y-203765191D01*
X230482838Y-203966826D01*
X230304131Y-204195560D01*
X230159000Y-204446934D01*
X230158994Y-204446946D01*
X230050262Y-204716067D01*
X229980041Y-204997713D01*
X229949698Y-205286399D01*
X192649500Y-205286399D01*
X192649500Y-198399000D01*
X204278597Y-198399000D01*
X204298178Y-198647797D01*
X204356434Y-198890452D01*
X204356438Y-198890464D01*
X204451940Y-199121028D01*
X204582335Y-199333812D01*
X204582338Y-199333817D01*
X204655806Y-199419837D01*
X204744415Y-199523585D01*
X204865887Y-199627331D01*
X204934182Y-199685661D01*
X204934187Y-199685664D01*
X205146971Y-199816059D01*
X205228488Y-199849824D01*
X205377538Y-199911563D01*
X205620206Y-199969822D01*
X205869000Y-199989403D01*
X206117794Y-199969822D01*
X206360462Y-199911563D01*
X206591028Y-199816059D01*
X206803815Y-199685663D01*
X206993585Y-199523585D01*
X207155663Y-199333815D01*
X207286059Y-199121028D01*
X207381563Y-198890462D01*
X207439822Y-198647794D01*
X207459403Y-198399000D01*
X207439822Y-198150206D01*
X207381563Y-197907538D01*
X207286059Y-197676972D01*
X207286059Y-197676971D01*
X207155664Y-197464187D01*
X207155661Y-197464182D01*
X207097331Y-197395887D01*
X206993585Y-197274415D01*
X206889837Y-197185806D01*
X206803817Y-197112338D01*
X206803812Y-197112335D01*
X206591028Y-196981940D01*
X206360464Y-196886438D01*
X206360466Y-196886438D01*
X206360462Y-196886437D01*
X206360458Y-196886436D01*
X206360452Y-196886434D01*
X206117797Y-196828178D01*
X205869000Y-196808597D01*
X205620202Y-196828178D01*
X205377547Y-196886434D01*
X205377535Y-196886438D01*
X205146971Y-196981940D01*
X204934187Y-197112335D01*
X204934182Y-197112338D01*
X204744415Y-197274415D01*
X204582338Y-197464182D01*
X204582335Y-197464187D01*
X204451940Y-197676971D01*
X204356438Y-197907535D01*
X204356434Y-197907547D01*
X204298178Y-198150202D01*
X204278597Y-198399000D01*
X192649500Y-198399000D01*
X192649500Y-186396415D01*
X209428773Y-186396415D01*
X209438696Y-186554137D01*
X209438696Y-186554140D01*
X209476946Y-186671858D01*
X209487533Y-186704441D01*
X209572214Y-186837877D01*
X209687418Y-186946062D01*
X209687420Y-186946063D01*
X209687422Y-186946065D01*
X209825904Y-187022195D01*
X209825908Y-187022197D01*
X209978981Y-187061500D01*
X213753500Y-187061500D01*
X213820539Y-187081185D01*
X213866294Y-187133989D01*
X213877500Y-187185500D01*
X213877500Y-189369500D01*
X213857815Y-189436539D01*
X213805011Y-189482294D01*
X213753500Y-189493500D01*
X210145640Y-189493500D01*
X210028208Y-189508336D01*
X210028206Y-189508336D01*
X209881269Y-189566513D01*
X209881260Y-189566518D01*
X209753416Y-189659402D01*
X209753415Y-189659403D01*
X209652674Y-189781178D01*
X209585387Y-189924171D01*
X209585385Y-189924174D01*
X209568681Y-190011745D01*
X209555773Y-190079412D01*
X209555773Y-190079414D01*
X209555773Y-190079415D01*
X209565696Y-190237137D01*
X209565696Y-190237140D01*
X209614533Y-190387441D01*
X209699214Y-190520877D01*
X209814418Y-190629062D01*
X209814420Y-190629063D01*
X209814422Y-190629065D01*
X209952904Y-190705195D01*
X209952908Y-190705197D01*
X210105981Y-190744500D01*
X213753500Y-190744500D01*
X213820539Y-190764185D01*
X213866294Y-190816989D01*
X213877500Y-190868500D01*
X213877500Y-193052500D01*
X213857815Y-193119539D01*
X213805011Y-193165294D01*
X213753500Y-193176500D01*
X210145640Y-193176500D01*
X210028208Y-193191336D01*
X210028206Y-193191336D01*
X209881269Y-193249513D01*
X209881260Y-193249518D01*
X209753416Y-193342402D01*
X209753415Y-193342403D01*
X209652674Y-193464178D01*
X209585387Y-193607171D01*
X209585385Y-193607174D01*
X209566551Y-193705910D01*
X209555773Y-193762412D01*
X209555773Y-193762414D01*
X209555773Y-193762415D01*
X209565696Y-193920137D01*
X209565696Y-193920140D01*
X209600155Y-194026192D01*
X209614533Y-194070441D01*
X209699214Y-194203877D01*
X209814418Y-194312062D01*
X209814420Y-194312063D01*
X209814422Y-194312065D01*
X209947480Y-194385213D01*
X209952908Y-194388197D01*
X210105981Y-194427500D01*
X214432153Y-194427500D01*
X214455385Y-194429696D01*
X214456989Y-194430001D01*
X214463412Y-194431227D01*
X214520724Y-194427621D01*
X214524597Y-194427500D01*
X214542342Y-194427500D01*
X214542350Y-194427500D01*
X214559990Y-194425271D01*
X214563807Y-194424910D01*
X214621138Y-194421304D01*
X214628905Y-194418780D01*
X214651680Y-194413688D01*
X214659792Y-194412664D01*
X214713195Y-194391519D01*
X214716835Y-194390209D01*
X214771441Y-194372467D01*
X214778337Y-194368090D01*
X214799133Y-194357494D01*
X214806732Y-194354486D01*
X214853191Y-194320730D01*
X214856390Y-194318555D01*
X214904877Y-194287786D01*
X214910466Y-194281833D01*
X214927979Y-194266394D01*
X214934587Y-194261594D01*
X214971190Y-194217347D01*
X214973736Y-194214457D01*
X215013062Y-194172582D01*
X215016998Y-194165421D01*
X215030119Y-194146114D01*
X215035324Y-194139823D01*
X215055725Y-194096468D01*
X215059769Y-194087874D01*
X215061528Y-194084419D01*
X215089197Y-194034092D01*
X215091227Y-194026181D01*
X215099135Y-194004218D01*
X215102614Y-193996826D01*
X215113377Y-193940401D01*
X215114210Y-193936670D01*
X215128500Y-193881019D01*
X215128500Y-193872844D01*
X215130697Y-193849606D01*
X215132227Y-193841588D01*
X215128621Y-193784275D01*
X215128556Y-193782195D01*
X215650840Y-193782195D01*
X215655225Y-193828583D01*
X215655500Y-193834421D01*
X215655500Y-193841355D01*
X215659202Y-193870655D01*
X215665713Y-193939535D01*
X215667414Y-193947146D01*
X215667136Y-193947207D01*
X215668120Y-193951305D01*
X215668395Y-193951235D01*
X215670335Y-193958792D01*
X215695810Y-194023133D01*
X215719246Y-194088229D01*
X215722791Y-194095186D01*
X215722537Y-194095315D01*
X215724503Y-194099029D01*
X215724753Y-194098892D01*
X215728512Y-194105729D01*
X215728513Y-194105731D01*
X215728514Y-194105732D01*
X215749484Y-194134595D01*
X215769180Y-194161704D01*
X215808077Y-194218940D01*
X215813237Y-194224793D01*
X215813023Y-194224981D01*
X215815860Y-194228099D01*
X215816069Y-194227904D01*
X215821404Y-194233586D01*
X215874710Y-194277683D01*
X215926622Y-194323450D01*
X215933073Y-194327834D01*
X215932911Y-194328071D01*
X215936434Y-194330385D01*
X215936588Y-194330143D01*
X215943175Y-194334322D01*
X215943177Y-194334324D01*
X216005778Y-194363782D01*
X216067435Y-194395198D01*
X216067441Y-194395199D01*
X216074777Y-194397841D01*
X216074679Y-194398111D01*
X216078666Y-194399475D01*
X216078755Y-194399203D01*
X216086174Y-194401614D01*
X216154145Y-194414580D01*
X216165399Y-194417095D01*
X216221667Y-194429673D01*
X216221671Y-194429672D01*
X216221672Y-194429673D01*
X216229439Y-194430408D01*
X216229411Y-194430694D01*
X216233609Y-194431024D01*
X216233628Y-194430737D01*
X216241411Y-194431226D01*
X216241412Y-194431227D01*
X216241413Y-194431226D01*
X216241414Y-194431227D01*
X216310472Y-194426882D01*
X216345049Y-194425795D01*
X216379627Y-194424709D01*
X216379628Y-194424708D01*
X216387335Y-194423488D01*
X216387380Y-194423773D01*
X216391528Y-194423048D01*
X216391474Y-194422765D01*
X216399131Y-194421304D01*
X216399138Y-194421304D01*
X216411500Y-194417287D01*
X216464939Y-194399923D01*
X216505308Y-194388195D01*
X216531390Y-194380618D01*
X216531392Y-194380616D01*
X216538548Y-194377520D01*
X216538662Y-194377785D01*
X216542506Y-194376049D01*
X216542383Y-194375788D01*
X216549437Y-194372468D01*
X216549441Y-194372467D01*
X216607847Y-194335400D01*
X216667420Y-194300170D01*
X216673582Y-194295390D01*
X216673759Y-194295619D01*
X216677050Y-194292982D01*
X216676865Y-194292759D01*
X216682879Y-194287784D01*
X216730241Y-194237348D01*
X222809819Y-188157771D01*
X222871142Y-188124286D01*
X222940834Y-188129270D01*
X222996767Y-188171142D01*
X223021184Y-188236606D01*
X223021500Y-188245452D01*
X223021500Y-193968359D01*
X223036336Y-194085791D01*
X223036336Y-194085793D01*
X223094513Y-194232730D01*
X223094518Y-194232739D01*
X223187402Y-194360583D01*
X223187403Y-194360584D01*
X223187405Y-194360585D01*
X223187406Y-194360587D01*
X223268289Y-194427499D01*
X223309178Y-194461325D01*
X223364982Y-194487584D01*
X223452174Y-194528614D01*
X223607412Y-194558227D01*
X223765138Y-194548304D01*
X223915441Y-194499467D01*
X224048877Y-194414786D01*
X224157062Y-194299582D01*
X224157288Y-194299172D01*
X224198177Y-194224793D01*
X224233197Y-194161092D01*
X224272500Y-194008019D01*
X224272500Y-193071452D01*
X224292185Y-193004413D01*
X224344989Y-192958658D01*
X224414147Y-192948714D01*
X224477703Y-192977739D01*
X224484179Y-192983769D01*
X225107580Y-193607171D01*
X225694606Y-194194197D01*
X225709480Y-194212175D01*
X225714076Y-194218938D01*
X225714077Y-194218939D01*
X225714078Y-194218940D01*
X225757138Y-194256902D01*
X225759962Y-194259553D01*
X225766799Y-194266390D01*
X225772530Y-194272121D01*
X225786556Y-194283001D01*
X225789547Y-194285475D01*
X225809054Y-194302672D01*
X225832622Y-194323450D01*
X225839898Y-194327157D01*
X225859606Y-194339664D01*
X225866064Y-194344673D01*
X225900859Y-194359730D01*
X225918752Y-194367473D01*
X225922277Y-194369132D01*
X225973435Y-194395198D01*
X225973438Y-194395199D01*
X225977800Y-194396173D01*
X225981398Y-194396977D01*
X226003608Y-194404193D01*
X226011104Y-194407437D01*
X226011106Y-194407437D01*
X226011108Y-194407438D01*
X226044102Y-194412663D01*
X226067824Y-194416420D01*
X226071637Y-194417148D01*
X226127667Y-194429673D01*
X226135835Y-194429416D01*
X226159124Y-194430881D01*
X226167196Y-194432160D01*
X226167197Y-194432159D01*
X226167199Y-194432160D01*
X226215196Y-194427622D01*
X226224358Y-194426755D01*
X226228224Y-194426512D01*
X226285627Y-194424709D01*
X226293467Y-194422430D01*
X226316400Y-194418055D01*
X226324533Y-194417287D01*
X226378554Y-194397837D01*
X226382248Y-194396638D01*
X226408466Y-194389021D01*
X226437390Y-194380618D01*
X226444427Y-194376455D01*
X226465532Y-194366524D01*
X226473228Y-194363754D01*
X226520733Y-194331468D01*
X226523983Y-194329405D01*
X226540585Y-194319588D01*
X226543668Y-194317765D01*
X226606784Y-194300500D01*
X228517257Y-194300500D01*
X228532877Y-194302224D01*
X228532904Y-194301939D01*
X228540660Y-194302671D01*
X228540667Y-194302673D01*
X228609814Y-194300500D01*
X228639350Y-194300500D01*
X228646228Y-194299630D01*
X228652041Y-194299172D01*
X228698627Y-194297709D01*
X228717869Y-194292117D01*
X228736912Y-194288174D01*
X228756792Y-194285664D01*
X228800122Y-194268507D01*
X228805646Y-194266617D01*
X228809396Y-194265527D01*
X228850390Y-194253618D01*
X228867629Y-194243422D01*
X228885103Y-194234862D01*
X228903727Y-194227488D01*
X228903727Y-194227487D01*
X228903732Y-194227486D01*
X228941449Y-194200082D01*
X228946305Y-194196892D01*
X228986420Y-194173170D01*
X229000589Y-194158999D01*
X229015379Y-194146368D01*
X229031587Y-194134594D01*
X229061299Y-194098676D01*
X229065212Y-194094376D01*
X230507787Y-192651802D01*
X230520042Y-192641986D01*
X230519859Y-192641764D01*
X230525866Y-192636792D01*
X230525877Y-192636786D01*
X230556775Y-192603882D01*
X230573227Y-192586364D01*
X230583671Y-192575918D01*
X230594120Y-192565471D01*
X230598379Y-192559978D01*
X230602152Y-192555561D01*
X230634062Y-192521582D01*
X230643713Y-192504024D01*
X230654396Y-192487761D01*
X230666673Y-192471936D01*
X230685185Y-192429153D01*
X230687738Y-192423941D01*
X230710197Y-192383092D01*
X230715180Y-192363680D01*
X230721481Y-192345280D01*
X230729437Y-192326896D01*
X230736729Y-192280852D01*
X230737906Y-192275171D01*
X230749500Y-192230019D01*
X230749500Y-192209983D01*
X230751027Y-192190582D01*
X230754160Y-192170804D01*
X230749775Y-192124415D01*
X230749500Y-192118577D01*
X230749500Y-187051196D01*
X231906840Y-187051196D01*
X231921713Y-187208533D01*
X231921714Y-187208535D01*
X231921715Y-187208540D01*
X231975243Y-187357222D01*
X231975247Y-187357230D01*
X232064073Y-187487934D01*
X232064076Y-187487938D01*
X232064078Y-187487940D01*
X232064081Y-187487943D01*
X232182618Y-187592447D01*
X232182619Y-187592447D01*
X232182622Y-187592450D01*
X232323435Y-187664198D01*
X232477667Y-187698673D01*
X232635627Y-187693709D01*
X232787390Y-187649618D01*
X232923420Y-187569170D01*
X233094367Y-187398223D01*
X233267772Y-187224819D01*
X233329095Y-187191334D01*
X233355453Y-187188500D01*
X234962500Y-187188500D01*
X235029539Y-187208185D01*
X235075294Y-187260989D01*
X235086500Y-187312500D01*
X235086500Y-194095359D01*
X235101336Y-194212791D01*
X235101336Y-194212793D01*
X235159513Y-194359730D01*
X235159518Y-194359739D01*
X235252402Y-194487583D01*
X235252403Y-194487584D01*
X235252405Y-194487585D01*
X235252406Y-194487587D01*
X235323531Y-194546426D01*
X235374178Y-194588325D01*
X235429982Y-194614584D01*
X235517174Y-194655614D01*
X235672412Y-194685227D01*
X235830138Y-194675304D01*
X235980441Y-194626467D01*
X236113877Y-194541786D01*
X236222062Y-194426582D01*
X236224161Y-194422765D01*
X236264520Y-194349350D01*
X236298197Y-194288092D01*
X236337500Y-194135019D01*
X236337500Y-187312500D01*
X236357185Y-187245461D01*
X236409989Y-187199706D01*
X236461500Y-187188500D01*
X238449547Y-187188500D01*
X238516586Y-187208185D01*
X238537223Y-187224814D01*
X238573398Y-187260989D01*
X238599533Y-187287124D01*
X238693058Y-187359669D01*
X238693061Y-187359671D01*
X238693064Y-187359673D01*
X238838104Y-187422437D01*
X238994196Y-187447160D01*
X239151533Y-187432287D01*
X239246150Y-187398222D01*
X239315893Y-187394035D01*
X239376830Y-187428218D01*
X239409612Y-187489920D01*
X239403832Y-187559550D01*
X239375834Y-187602573D01*
X239265208Y-187713199D01*
X239252951Y-187723020D01*
X239253134Y-187723241D01*
X239247123Y-187728213D01*
X239199772Y-187778636D01*
X239178889Y-187799519D01*
X239178877Y-187799532D01*
X239174621Y-187805017D01*
X239170837Y-187809447D01*
X239138937Y-187843418D01*
X239138936Y-187843420D01*
X239129284Y-187860976D01*
X239118610Y-187877226D01*
X239106329Y-187893061D01*
X239106324Y-187893068D01*
X239087815Y-187935838D01*
X239085245Y-187941084D01*
X239062803Y-187981906D01*
X239057822Y-188001307D01*
X239051521Y-188019710D01*
X239043562Y-188038102D01*
X239043561Y-188038105D01*
X239036271Y-188084127D01*
X239035087Y-188089846D01*
X239023501Y-188134972D01*
X239023500Y-188134982D01*
X239023500Y-188155016D01*
X239021973Y-188174415D01*
X239018840Y-188194194D01*
X239018840Y-188194195D01*
X239023225Y-188240583D01*
X239023500Y-188246421D01*
X239023500Y-189147255D01*
X239021775Y-189162872D01*
X239022061Y-189162899D01*
X239021326Y-189170665D01*
X239023500Y-189239814D01*
X239023500Y-189269343D01*
X239023501Y-189269360D01*
X239024368Y-189276231D01*
X239024826Y-189282050D01*
X239026290Y-189328624D01*
X239026291Y-189328627D01*
X239031880Y-189347867D01*
X239035824Y-189366911D01*
X239036152Y-189369500D01*
X239038336Y-189386791D01*
X239055490Y-189430119D01*
X239057382Y-189435647D01*
X239070381Y-189480388D01*
X239080580Y-189497634D01*
X239089138Y-189515103D01*
X239096514Y-189533732D01*
X239123898Y-189571423D01*
X239127106Y-189576307D01*
X239150827Y-189616416D01*
X239150833Y-189616424D01*
X239164990Y-189630580D01*
X239177628Y-189645376D01*
X239189405Y-189661586D01*
X239189406Y-189661587D01*
X239225309Y-189691288D01*
X239229620Y-189695210D01*
X240239604Y-190705195D01*
X240545197Y-191010788D01*
X240555022Y-191023051D01*
X240555243Y-191022869D01*
X240560214Y-191028878D01*
X240586217Y-191053295D01*
X240610635Y-191076226D01*
X240631529Y-191097120D01*
X240637011Y-191101373D01*
X240641443Y-191105157D01*
X240675418Y-191137062D01*
X240692976Y-191146714D01*
X240709235Y-191157395D01*
X240725064Y-191169673D01*
X240767838Y-191188182D01*
X240773056Y-191190738D01*
X240813908Y-191213197D01*
X240833316Y-191218180D01*
X240851717Y-191224480D01*
X240870104Y-191232437D01*
X240913488Y-191239308D01*
X240916119Y-191239725D01*
X240921839Y-191240909D01*
X240966981Y-191252500D01*
X240987016Y-191252500D01*
X241006414Y-191254026D01*
X241026194Y-191257159D01*
X241026195Y-191257160D01*
X241026195Y-191257159D01*
X241026196Y-191257160D01*
X241072584Y-191252775D01*
X241078422Y-191252500D01*
X243498348Y-191252500D01*
X243498350Y-191252500D01*
X243582960Y-191241811D01*
X243651935Y-191252937D01*
X243703948Y-191299590D01*
X243722500Y-191364833D01*
X243722500Y-194222359D01*
X243737336Y-194339791D01*
X243737336Y-194339793D01*
X243795513Y-194486730D01*
X243795518Y-194486739D01*
X243888402Y-194614583D01*
X243888403Y-194614584D01*
X243888405Y-194614585D01*
X243888406Y-194614587D01*
X243953921Y-194668785D01*
X244010178Y-194715325D01*
X244065982Y-194741584D01*
X244153174Y-194782614D01*
X244308412Y-194812227D01*
X244466138Y-194802304D01*
X244616441Y-194753467D01*
X244749877Y-194668786D01*
X244858062Y-194553582D01*
X244864382Y-194542087D01*
X244900540Y-194476315D01*
X244934197Y-194415092D01*
X244973500Y-194262019D01*
X244973500Y-186887844D01*
X244975697Y-186864606D01*
X244977227Y-186856586D01*
X244977227Y-186856582D01*
X244975939Y-186836121D01*
X244973621Y-186799275D01*
X244973500Y-186795403D01*
X244973500Y-186777650D01*
X244973470Y-186777415D01*
X245623773Y-186777415D01*
X245633696Y-186935137D01*
X245633696Y-186935140D01*
X245661984Y-187022198D01*
X245682533Y-187085441D01*
X245767214Y-187218877D01*
X245882418Y-187327062D01*
X245882420Y-187327063D01*
X245882422Y-187327065D01*
X246004242Y-187394035D01*
X246020908Y-187403197D01*
X246173981Y-187442500D01*
X249948500Y-187442500D01*
X250015539Y-187462185D01*
X250061294Y-187514989D01*
X250072500Y-187566500D01*
X250072500Y-189750500D01*
X250052815Y-189817539D01*
X250000011Y-189863294D01*
X249948500Y-189874500D01*
X246340640Y-189874500D01*
X246223208Y-189889336D01*
X246223206Y-189889336D01*
X246076269Y-189947513D01*
X246076260Y-189947518D01*
X245948416Y-190040402D01*
X245948415Y-190040403D01*
X245847674Y-190162178D01*
X245780387Y-190305171D01*
X245780385Y-190305174D01*
X245764693Y-190387441D01*
X245750773Y-190460412D01*
X245750773Y-190460414D01*
X245750773Y-190460415D01*
X245760696Y-190618137D01*
X245760696Y-190618140D01*
X245788984Y-190705198D01*
X245809533Y-190768441D01*
X245894214Y-190901877D01*
X246009418Y-191010062D01*
X246009420Y-191010063D01*
X246009422Y-191010065D01*
X246147904Y-191086195D01*
X246147908Y-191086197D01*
X246300981Y-191125500D01*
X249948500Y-191125500D01*
X250015539Y-191145185D01*
X250061294Y-191197989D01*
X250072500Y-191249500D01*
X250072500Y-193433500D01*
X250052815Y-193500539D01*
X250000011Y-193546294D01*
X249948500Y-193557500D01*
X246340640Y-193557500D01*
X246223208Y-193572336D01*
X246223206Y-193572336D01*
X246076269Y-193630513D01*
X246076260Y-193630518D01*
X245948416Y-193723402D01*
X245948415Y-193723403D01*
X245847674Y-193845178D01*
X245780387Y-193988171D01*
X245780385Y-193988174D01*
X245771626Y-194034094D01*
X245750773Y-194143412D01*
X245750773Y-194143414D01*
X245750773Y-194143415D01*
X245755740Y-194222359D01*
X245759722Y-194285664D01*
X245760696Y-194301137D01*
X245760696Y-194301140D01*
X245802699Y-194430408D01*
X245809533Y-194451441D01*
X245894214Y-194584877D01*
X246009418Y-194693062D01*
X246009420Y-194693063D01*
X246009422Y-194693065D01*
X246147904Y-194769195D01*
X246147908Y-194769197D01*
X246300981Y-194808500D01*
X250627153Y-194808500D01*
X250650385Y-194810696D01*
X250651989Y-194811001D01*
X250658412Y-194812227D01*
X250715724Y-194808621D01*
X250719597Y-194808500D01*
X250737342Y-194808500D01*
X250737350Y-194808500D01*
X250754990Y-194806271D01*
X250758807Y-194805910D01*
X250816138Y-194802304D01*
X250823905Y-194799780D01*
X250846680Y-194794688D01*
X250854792Y-194793664D01*
X250908195Y-194772519D01*
X250911835Y-194771209D01*
X250966441Y-194753467D01*
X250973337Y-194749090D01*
X250994133Y-194738494D01*
X251001732Y-194735486D01*
X251048191Y-194701730D01*
X251051390Y-194699555D01*
X251099877Y-194668786D01*
X251105466Y-194662833D01*
X251122979Y-194647394D01*
X251129587Y-194642594D01*
X251166190Y-194598347D01*
X251168736Y-194595457D01*
X251208062Y-194553582D01*
X251211998Y-194546421D01*
X251225119Y-194527114D01*
X251230324Y-194520823D01*
X251245965Y-194487583D01*
X251254769Y-194468874D01*
X251256528Y-194465419D01*
X251284197Y-194415092D01*
X251286227Y-194407181D01*
X251294135Y-194385218D01*
X251297614Y-194377826D01*
X251297673Y-194377520D01*
X251303938Y-194344672D01*
X251308377Y-194321401D01*
X251309210Y-194317670D01*
X251323500Y-194262019D01*
X251323500Y-194253844D01*
X251325697Y-194230606D01*
X251327227Y-194222588D01*
X251323621Y-194165275D01*
X251323556Y-194163195D01*
X251845840Y-194163195D01*
X251850225Y-194209583D01*
X251850500Y-194215421D01*
X251850500Y-194222355D01*
X251854202Y-194251655D01*
X251860713Y-194320535D01*
X251862414Y-194328146D01*
X251862136Y-194328207D01*
X251863120Y-194332305D01*
X251863395Y-194332235D01*
X251865335Y-194339792D01*
X251890810Y-194404133D01*
X251914246Y-194469229D01*
X251917791Y-194476186D01*
X251917537Y-194476315D01*
X251919503Y-194480029D01*
X251919753Y-194479892D01*
X251923512Y-194486729D01*
X251964180Y-194542704D01*
X252003077Y-194599940D01*
X252008237Y-194605793D01*
X252008023Y-194605981D01*
X252010860Y-194609099D01*
X252011069Y-194608904D01*
X252016404Y-194614586D01*
X252069710Y-194658683D01*
X252121622Y-194704450D01*
X252128073Y-194708834D01*
X252127911Y-194709071D01*
X252131434Y-194711385D01*
X252131588Y-194711143D01*
X252138175Y-194715322D01*
X252138177Y-194715324D01*
X252200778Y-194744782D01*
X252262435Y-194776198D01*
X252262441Y-194776199D01*
X252269777Y-194778841D01*
X252269679Y-194779111D01*
X252273666Y-194780475D01*
X252273755Y-194780203D01*
X252281174Y-194782614D01*
X252349145Y-194795580D01*
X252351727Y-194796157D01*
X252416667Y-194810673D01*
X252416671Y-194810672D01*
X252416672Y-194810673D01*
X252424439Y-194811408D01*
X252424411Y-194811694D01*
X252428609Y-194812024D01*
X252428628Y-194811737D01*
X252436411Y-194812226D01*
X252436412Y-194812227D01*
X252436413Y-194812226D01*
X252436414Y-194812227D01*
X252505472Y-194807882D01*
X252540049Y-194806795D01*
X252574627Y-194805709D01*
X252574628Y-194805708D01*
X252582335Y-194804488D01*
X252582380Y-194804773D01*
X252586528Y-194804048D01*
X252586474Y-194803765D01*
X252594131Y-194802304D01*
X252594138Y-194802304D01*
X252602973Y-194799432D01*
X252659939Y-194780923D01*
X252700308Y-194769195D01*
X252726390Y-194761618D01*
X252726392Y-194761616D01*
X252733548Y-194758520D01*
X252733662Y-194758785D01*
X252737506Y-194757049D01*
X252737383Y-194756788D01*
X252744437Y-194753468D01*
X252744441Y-194753467D01*
X252802847Y-194716400D01*
X252862420Y-194681170D01*
X252868582Y-194676390D01*
X252868759Y-194676619D01*
X252872050Y-194673982D01*
X252871865Y-194673759D01*
X252877879Y-194668784D01*
X252925241Y-194618348D01*
X259004819Y-188538771D01*
X259066142Y-188505286D01*
X259135834Y-188510270D01*
X259191767Y-188552142D01*
X259216184Y-188617606D01*
X259216500Y-188626452D01*
X259216500Y-194349359D01*
X259231336Y-194466791D01*
X259231336Y-194466793D01*
X259289513Y-194613730D01*
X259289518Y-194613739D01*
X259382402Y-194741583D01*
X259382403Y-194741584D01*
X259382405Y-194741585D01*
X259382406Y-194741587D01*
X259463289Y-194808499D01*
X259504178Y-194842325D01*
X259571909Y-194874196D01*
X259647174Y-194909614D01*
X259802412Y-194939227D01*
X259960138Y-194929304D01*
X260110441Y-194880467D01*
X260243877Y-194795786D01*
X260352062Y-194680582D01*
X260355691Y-194673982D01*
X260404676Y-194584876D01*
X260428197Y-194542092D01*
X260467500Y-194389019D01*
X260467500Y-186875983D01*
X260469027Y-186856582D01*
X260472160Y-186836804D01*
X260467775Y-186790415D01*
X260467500Y-186784577D01*
X260467500Y-186777656D01*
X260467500Y-186777650D01*
X260464212Y-186751630D01*
X260463797Y-186748343D01*
X260457287Y-186679468D01*
X260455586Y-186671858D01*
X260455866Y-186671795D01*
X260454881Y-186667690D01*
X260454603Y-186667762D01*
X260452663Y-186660205D01*
X260427189Y-186595866D01*
X260403754Y-186530772D01*
X260400208Y-186523812D01*
X260400464Y-186523681D01*
X260398497Y-186519966D01*
X260398244Y-186520106D01*
X260394489Y-186513276D01*
X260394486Y-186513268D01*
X260353819Y-186457295D01*
X260314924Y-186400062D01*
X260314923Y-186400061D01*
X260309763Y-186394208D01*
X260309977Y-186394018D01*
X260307140Y-186390900D01*
X260306932Y-186391097D01*
X260301596Y-186385414D01*
X260248289Y-186341316D01*
X260196383Y-186295553D01*
X260189928Y-186291167D01*
X260190088Y-186290931D01*
X260186565Y-186288617D01*
X260186413Y-186288858D01*
X260179825Y-186284677D01*
X260117207Y-186255211D01*
X260055562Y-186223801D01*
X260048230Y-186221162D01*
X260048326Y-186220893D01*
X260044333Y-186219526D01*
X260044246Y-186219796D01*
X260036827Y-186217385D01*
X259968824Y-186204413D01*
X259901339Y-186189329D01*
X259901336Y-186189328D01*
X259901333Y-186189328D01*
X259901329Y-186189328D01*
X259893572Y-186188595D01*
X259893598Y-186188311D01*
X259889388Y-186187980D01*
X259889371Y-186188263D01*
X259881591Y-186187773D01*
X259881588Y-186187773D01*
X259881584Y-186187773D01*
X259881580Y-186187773D01*
X259812514Y-186192118D01*
X259743373Y-186194290D01*
X259735669Y-186195511D01*
X259735624Y-186195230D01*
X259731473Y-186195955D01*
X259731527Y-186196233D01*
X259723864Y-186197695D01*
X259658060Y-186219076D01*
X259591609Y-186238381D01*
X259584453Y-186241478D01*
X259584341Y-186241219D01*
X259580498Y-186242954D01*
X259580619Y-186243210D01*
X259573562Y-186246531D01*
X259573559Y-186246533D01*
X259515152Y-186283599D01*
X259489967Y-186298493D01*
X259455576Y-186318831D01*
X259449415Y-186323611D01*
X259449241Y-186323387D01*
X259445952Y-186326021D01*
X259446134Y-186326241D01*
X259440123Y-186331214D01*
X259392758Y-186381651D01*
X253313181Y-192461227D01*
X253251858Y-192494712D01*
X253182166Y-192489728D01*
X253126233Y-192447856D01*
X253101816Y-192382392D01*
X253101500Y-192373546D01*
X253101500Y-186777651D01*
X253101499Y-186777640D01*
X253096488Y-186737978D01*
X253086664Y-186660208D01*
X253028486Y-186513268D01*
X253028483Y-186513264D01*
X253028481Y-186513260D01*
X252935597Y-186385416D01*
X252935596Y-186385415D01*
X252927891Y-186379041D01*
X252855110Y-186318831D01*
X252813821Y-186284674D01*
X252670828Y-186217387D01*
X252670825Y-186217385D01*
X252579050Y-186199879D01*
X252515588Y-186187773D01*
X252515584Y-186187773D01*
X252357862Y-186197696D01*
X252357859Y-186197696D01*
X252207558Y-186246533D01*
X252074123Y-186331214D01*
X251965937Y-186446419D01*
X251965934Y-186446422D01*
X251889804Y-186584904D01*
X251889801Y-186584912D01*
X251850500Y-186737978D01*
X251850500Y-194124016D01*
X251848973Y-194143415D01*
X251845840Y-194163194D01*
X251845840Y-194163195D01*
X251323556Y-194163195D01*
X251323500Y-194161403D01*
X251323500Y-190570844D01*
X251325697Y-190547606D01*
X251327227Y-190539588D01*
X251323621Y-190482275D01*
X251323500Y-190478403D01*
X251323500Y-186887844D01*
X251325697Y-186864606D01*
X251327227Y-186856586D01*
X251327227Y-186856582D01*
X251325939Y-186836121D01*
X251323621Y-186799275D01*
X251323500Y-186795403D01*
X251323500Y-186777650D01*
X251321270Y-186760002D01*
X251320910Y-186756191D01*
X251317304Y-186698862D01*
X251314779Y-186691092D01*
X251309687Y-186668314D01*
X251308664Y-186660208D01*
X251287520Y-186606806D01*
X251286211Y-186603170D01*
X251268467Y-186548559D01*
X251264089Y-186541661D01*
X251253495Y-186520868D01*
X251250486Y-186513268D01*
X251216736Y-186466815D01*
X251214545Y-186463592D01*
X251193596Y-186430581D01*
X251183786Y-186415123D01*
X251177833Y-186409533D01*
X251162398Y-186392025D01*
X251157594Y-186385413D01*
X251157591Y-186385411D01*
X251157591Y-186385410D01*
X251113361Y-186348820D01*
X251110438Y-186346243D01*
X251068585Y-186306940D01*
X251068577Y-186306934D01*
X251061415Y-186302997D01*
X251042114Y-186289880D01*
X251035824Y-186284676D01*
X250983878Y-186260232D01*
X250980417Y-186258469D01*
X250930092Y-186230803D01*
X250930089Y-186230802D01*
X250930085Y-186230800D01*
X250922174Y-186228769D01*
X250900222Y-186220866D01*
X250892825Y-186217385D01*
X250892821Y-186217384D01*
X250836444Y-186206630D01*
X250832644Y-186205780D01*
X250777023Y-186191500D01*
X250777019Y-186191500D01*
X250768847Y-186191500D01*
X250745615Y-186189304D01*
X250737588Y-186187773D01*
X250737586Y-186187773D01*
X250729799Y-186188263D01*
X250680275Y-186191378D01*
X250676403Y-186191500D01*
X246213640Y-186191500D01*
X246096208Y-186206336D01*
X246096206Y-186206336D01*
X245949269Y-186264513D01*
X245949260Y-186264518D01*
X245821416Y-186357402D01*
X245821415Y-186357403D01*
X245720674Y-186479178D01*
X245653387Y-186622171D01*
X245653385Y-186622174D01*
X245638757Y-186698861D01*
X245623773Y-186777412D01*
X245623773Y-186777414D01*
X245623773Y-186777415D01*
X244973470Y-186777415D01*
X244971270Y-186760002D01*
X244970910Y-186756191D01*
X244967304Y-186698862D01*
X244964779Y-186691092D01*
X244959687Y-186668314D01*
X244958664Y-186660208D01*
X244937520Y-186606806D01*
X244936211Y-186603170D01*
X244918467Y-186548559D01*
X244914089Y-186541661D01*
X244903495Y-186520868D01*
X244900486Y-186513268D01*
X244866736Y-186466815D01*
X244864545Y-186463592D01*
X244843596Y-186430581D01*
X244833786Y-186415123D01*
X244827833Y-186409533D01*
X244812398Y-186392025D01*
X244807594Y-186385413D01*
X244807591Y-186385411D01*
X244807591Y-186385410D01*
X244763361Y-186348820D01*
X244760438Y-186346243D01*
X244718585Y-186306940D01*
X244718577Y-186306934D01*
X244711415Y-186302997D01*
X244692114Y-186289880D01*
X244685824Y-186284676D01*
X244633878Y-186260232D01*
X244630417Y-186258469D01*
X244580092Y-186230803D01*
X244580089Y-186230802D01*
X244580085Y-186230800D01*
X244572174Y-186228769D01*
X244550222Y-186220866D01*
X244542825Y-186217385D01*
X244542821Y-186217384D01*
X244486444Y-186206630D01*
X244482644Y-186205780D01*
X244427023Y-186191500D01*
X244427019Y-186191500D01*
X244418847Y-186191500D01*
X244395615Y-186189304D01*
X244387588Y-186187773D01*
X244387586Y-186187773D01*
X244379799Y-186188263D01*
X244330275Y-186191378D01*
X244326403Y-186191500D01*
X241128737Y-186191500D01*
X241113120Y-186189776D01*
X241113093Y-186190062D01*
X241105331Y-186189327D01*
X241036203Y-186191500D01*
X241006650Y-186191500D01*
X241005929Y-186191590D01*
X240999757Y-186192369D01*
X240993945Y-186192826D01*
X240947378Y-186194290D01*
X240947367Y-186194292D01*
X240928134Y-186199879D01*
X240909094Y-186203822D01*
X240889217Y-186206334D01*
X240889210Y-186206335D01*
X240889208Y-186206336D01*
X240889206Y-186206336D01*
X240889205Y-186206337D01*
X240845868Y-186223494D01*
X240840342Y-186225386D01*
X240795611Y-186238382D01*
X240795608Y-186238383D01*
X240778363Y-186248581D01*
X240760901Y-186257135D01*
X240742272Y-186264511D01*
X240742267Y-186264513D01*
X240704564Y-186291906D01*
X240699682Y-186295112D01*
X240659580Y-186318828D01*
X240645408Y-186333000D01*
X240630623Y-186345628D01*
X240626230Y-186348820D01*
X240614418Y-186357403D01*
X240614412Y-186357407D01*
X240584709Y-186393310D01*
X240580777Y-186397631D01*
X239806915Y-187171492D01*
X239745592Y-187204977D01*
X239675900Y-187199993D01*
X239619967Y-187158121D01*
X239595550Y-187092657D01*
X239606506Y-187038606D01*
X239604554Y-187037904D01*
X239607193Y-187030571D01*
X239607197Y-187030564D01*
X239641672Y-186876332D01*
X239636709Y-186718373D01*
X239592618Y-186566610D01*
X239581940Y-186548555D01*
X239512171Y-186430581D01*
X239512170Y-186430579D01*
X239512168Y-186430577D01*
X239512165Y-186430573D01*
X239260803Y-186179212D01*
X239250980Y-186166950D01*
X239250759Y-186167134D01*
X239245786Y-186161123D01*
X239234757Y-186150766D01*
X239195364Y-186113773D01*
X239179768Y-186098177D01*
X239174475Y-186092883D01*
X239168986Y-186088625D01*
X239164561Y-186084847D01*
X239130582Y-186052938D01*
X239130580Y-186052936D01*
X239130577Y-186052935D01*
X239113029Y-186043288D01*
X239096763Y-186032604D01*
X239080933Y-186020325D01*
X239038168Y-186001818D01*
X239032922Y-185999248D01*
X238992093Y-185976803D01*
X238992092Y-185976802D01*
X238972693Y-185971822D01*
X238954281Y-185965518D01*
X238935898Y-185957562D01*
X238935892Y-185957560D01*
X238889874Y-185950272D01*
X238884152Y-185949087D01*
X238839021Y-185937500D01*
X238839019Y-185937500D01*
X238818984Y-185937500D01*
X238799586Y-185935973D01*
X238785695Y-185933773D01*
X238779805Y-185932840D01*
X238779804Y-185932840D01*
X238733416Y-185937225D01*
X238727578Y-185937500D01*
X235782847Y-185937500D01*
X235759615Y-185935304D01*
X235751588Y-185933773D01*
X235751586Y-185933773D01*
X235742633Y-185934336D01*
X235694275Y-185937378D01*
X235690403Y-185937500D01*
X233127737Y-185937500D01*
X233112120Y-185935776D01*
X233112093Y-185936062D01*
X233104331Y-185935327D01*
X233035203Y-185937500D01*
X233005650Y-185937500D01*
X233004929Y-185937590D01*
X232998757Y-185938369D01*
X232992945Y-185938826D01*
X232946372Y-185940290D01*
X232946369Y-185940291D01*
X232927126Y-185945881D01*
X232908083Y-185949825D01*
X232888204Y-185952336D01*
X232888203Y-185952337D01*
X232844878Y-185969490D01*
X232839352Y-185971382D01*
X232794608Y-185984383D01*
X232794604Y-185984385D01*
X232777365Y-185994580D01*
X232759898Y-186003137D01*
X232741269Y-186010512D01*
X232741267Y-186010513D01*
X232703564Y-186037906D01*
X232698682Y-186041112D01*
X232658580Y-186064828D01*
X232644408Y-186079000D01*
X232629623Y-186091628D01*
X232613412Y-186103407D01*
X232583709Y-186139310D01*
X232579777Y-186143631D01*
X232066885Y-186656522D01*
X231994327Y-186750063D01*
X231994326Y-186750065D01*
X231931562Y-186895100D01*
X231931561Y-186895105D01*
X231906840Y-187051192D01*
X231906840Y-187051193D01*
X231906840Y-187051196D01*
X230749500Y-187051196D01*
X230749500Y-186396651D01*
X230749499Y-186396640D01*
X230746407Y-186372167D01*
X230734664Y-186279208D01*
X230676486Y-186132268D01*
X230676483Y-186132264D01*
X230676481Y-186132260D01*
X230583597Y-186004416D01*
X230583596Y-186004415D01*
X230582051Y-186003137D01*
X230516130Y-185948602D01*
X230461821Y-185903674D01*
X230318828Y-185836387D01*
X230318825Y-185836385D01*
X230238923Y-185821143D01*
X230163588Y-185806773D01*
X230163584Y-185806773D01*
X230005862Y-185816696D01*
X230005859Y-185816696D01*
X229855558Y-185865533D01*
X229722123Y-185950214D01*
X229613937Y-186065419D01*
X229613934Y-186065422D01*
X229537804Y-186203904D01*
X229537801Y-186203912D01*
X229498500Y-186356978D01*
X229498500Y-191840547D01*
X229478815Y-191907586D01*
X229462181Y-191928228D01*
X228377228Y-193013181D01*
X228315905Y-193046666D01*
X228289547Y-193049500D01*
X226396739Y-193049500D01*
X226381122Y-193047776D01*
X226381095Y-193048062D01*
X226373329Y-193047327D01*
X226372263Y-193047361D01*
X226371450Y-193047149D01*
X226365562Y-193046593D01*
X226365651Y-193045643D01*
X226304639Y-193029788D01*
X226280694Y-193011103D01*
X225451819Y-192182228D01*
X225418334Y-192120905D01*
X225415500Y-192094547D01*
X225415500Y-186396651D01*
X225415499Y-186396640D01*
X225412407Y-186372167D01*
X225400664Y-186279208D01*
X225342486Y-186132268D01*
X225342483Y-186132264D01*
X225342481Y-186132260D01*
X225249597Y-186004416D01*
X225249596Y-186004415D01*
X225248051Y-186003137D01*
X225182130Y-185948602D01*
X225127821Y-185903674D01*
X224984828Y-185836387D01*
X224984825Y-185836385D01*
X224904923Y-185821143D01*
X224829588Y-185806773D01*
X224829584Y-185806773D01*
X224671862Y-185816696D01*
X224671859Y-185816696D01*
X224521558Y-185865533D01*
X224388123Y-185950214D01*
X224388122Y-185950214D01*
X224311334Y-186031985D01*
X224251093Y-186067379D01*
X224181279Y-186064585D01*
X224124058Y-186024491D01*
X224120721Y-186019966D01*
X224114763Y-186013208D01*
X224114977Y-186013018D01*
X224112140Y-186009900D01*
X224111932Y-186010097D01*
X224106596Y-186004414D01*
X224053289Y-185960316D01*
X224001383Y-185914553D01*
X223994928Y-185910167D01*
X223995088Y-185909931D01*
X223991565Y-185907617D01*
X223991413Y-185907858D01*
X223984825Y-185903677D01*
X223922207Y-185874211D01*
X223860562Y-185842801D01*
X223853230Y-185840162D01*
X223853326Y-185839893D01*
X223849333Y-185838526D01*
X223849246Y-185838796D01*
X223841827Y-185836385D01*
X223773824Y-185823413D01*
X223706339Y-185808329D01*
X223706336Y-185808328D01*
X223706333Y-185808328D01*
X223706329Y-185808328D01*
X223698572Y-185807595D01*
X223698598Y-185807311D01*
X223694388Y-185806980D01*
X223694371Y-185807263D01*
X223686591Y-185806773D01*
X223686588Y-185806773D01*
X223686584Y-185806773D01*
X223686580Y-185806773D01*
X223617514Y-185811118D01*
X223548373Y-185813290D01*
X223540669Y-185814511D01*
X223540624Y-185814230D01*
X223536473Y-185814955D01*
X223536527Y-185815233D01*
X223528864Y-185816695D01*
X223463060Y-185838076D01*
X223396609Y-185857381D01*
X223389453Y-185860478D01*
X223389341Y-185860219D01*
X223385498Y-185861954D01*
X223385619Y-185862210D01*
X223378562Y-185865531D01*
X223378559Y-185865533D01*
X223320152Y-185902599D01*
X223294967Y-185917493D01*
X223260576Y-185937831D01*
X223254415Y-185942611D01*
X223254241Y-185942387D01*
X223250952Y-185945021D01*
X223251134Y-185945241D01*
X223245123Y-185950214D01*
X223197758Y-186000651D01*
X217118181Y-192080227D01*
X217056858Y-192113712D01*
X216987166Y-192108728D01*
X216931233Y-192066856D01*
X216906816Y-192001392D01*
X216906500Y-191992546D01*
X216906500Y-186396651D01*
X216906499Y-186396640D01*
X216903407Y-186372167D01*
X216891664Y-186279208D01*
X216833486Y-186132268D01*
X216833483Y-186132264D01*
X216833481Y-186132260D01*
X216740597Y-186004416D01*
X216740596Y-186004415D01*
X216739051Y-186003137D01*
X216673130Y-185948602D01*
X216618821Y-185903674D01*
X216475828Y-185836387D01*
X216475825Y-185836385D01*
X216395923Y-185821143D01*
X216320588Y-185806773D01*
X216320584Y-185806773D01*
X216162862Y-185816696D01*
X216162859Y-185816696D01*
X216012558Y-185865533D01*
X215879123Y-185950214D01*
X215770937Y-186065419D01*
X215770934Y-186065422D01*
X215694804Y-186203904D01*
X215694801Y-186203912D01*
X215655500Y-186356978D01*
X215655500Y-193743016D01*
X215653973Y-193762415D01*
X215650840Y-193782194D01*
X215650840Y-193782195D01*
X215128556Y-193782195D01*
X215128500Y-193780403D01*
X215128500Y-190189844D01*
X215130697Y-190166606D01*
X215132227Y-190158588D01*
X215128621Y-190101275D01*
X215128500Y-190097403D01*
X215128500Y-186506844D01*
X215130697Y-186483606D01*
X215132227Y-186475588D01*
X215128621Y-186418275D01*
X215128500Y-186414403D01*
X215128500Y-186396650D01*
X215126270Y-186379002D01*
X215125910Y-186375191D01*
X215122304Y-186317862D01*
X215119779Y-186310092D01*
X215114687Y-186287314D01*
X215113664Y-186279208D01*
X215092520Y-186225806D01*
X215091211Y-186222170D01*
X215073467Y-186167559D01*
X215069089Y-186160661D01*
X215058495Y-186139868D01*
X215055486Y-186132268D01*
X215021736Y-186085815D01*
X215019545Y-186082592D01*
X214988786Y-186034123D01*
X214982833Y-186028533D01*
X214967398Y-186011025D01*
X214962594Y-186004413D01*
X214962591Y-186004411D01*
X214962591Y-186004410D01*
X214918361Y-185967820D01*
X214915438Y-185965243D01*
X214873585Y-185925940D01*
X214873577Y-185925934D01*
X214866415Y-185921997D01*
X214847114Y-185908880D01*
X214840824Y-185903676D01*
X214788878Y-185879232D01*
X214785417Y-185877469D01*
X214735092Y-185849803D01*
X214735089Y-185849802D01*
X214735085Y-185849800D01*
X214727174Y-185847769D01*
X214705222Y-185839866D01*
X214697825Y-185836385D01*
X214697821Y-185836384D01*
X214641444Y-185825630D01*
X214637644Y-185824780D01*
X214582023Y-185810500D01*
X214582019Y-185810500D01*
X214573847Y-185810500D01*
X214550615Y-185808304D01*
X214542588Y-185806773D01*
X214542586Y-185806773D01*
X214534799Y-185807263D01*
X214485275Y-185810378D01*
X214481403Y-185810500D01*
X210018640Y-185810500D01*
X209901208Y-185825336D01*
X209901206Y-185825336D01*
X209754269Y-185883513D01*
X209754260Y-185883518D01*
X209626416Y-185976402D01*
X209626415Y-185976403D01*
X209525674Y-186098178D01*
X209458387Y-186241171D01*
X209458385Y-186241174D01*
X209443757Y-186317861D01*
X209428773Y-186396412D01*
X209428773Y-186396414D01*
X209428773Y-186396415D01*
X192649500Y-186396415D01*
X192649500Y-122657680D01*
X192669185Y-122590641D01*
X192721989Y-122544886D01*
X192773187Y-122533681D01*
X199904690Y-122516050D01*
X199971776Y-122535569D01*
X200017662Y-122588260D01*
X200027776Y-122657394D01*
X199998908Y-122721021D01*
X199992676Y-122727731D01*
X199387208Y-123333199D01*
X199374951Y-123343020D01*
X199375134Y-123343241D01*
X199369123Y-123348213D01*
X199321772Y-123398636D01*
X199300889Y-123419519D01*
X199300877Y-123419532D01*
X199296621Y-123425017D01*
X199292837Y-123429447D01*
X199260937Y-123463418D01*
X199260936Y-123463420D01*
X199251284Y-123480976D01*
X199240610Y-123497226D01*
X199228329Y-123513061D01*
X199228324Y-123513068D01*
X199209815Y-123555838D01*
X199207245Y-123561084D01*
X199184803Y-123601906D01*
X199179822Y-123621307D01*
X199173521Y-123639710D01*
X199165562Y-123658102D01*
X199165561Y-123658105D01*
X199158271Y-123704127D01*
X199157087Y-123709846D01*
X199145501Y-123754972D01*
X199145500Y-123754982D01*
X199145500Y-123775016D01*
X199143973Y-123794415D01*
X199140840Y-123814194D01*
X199140840Y-123814195D01*
X199145225Y-123860583D01*
X199145500Y-123866421D01*
X199145500Y-133698866D01*
X199125815Y-133765905D01*
X199073011Y-133811660D01*
X199068955Y-133813426D01*
X199042142Y-133824532D01*
X199042141Y-133824533D01*
X198827346Y-133956160D01*
X198827343Y-133956161D01*
X198635776Y-134119776D01*
X198472161Y-134311343D01*
X198472160Y-134311346D01*
X198340533Y-134526140D01*
X198244126Y-134758889D01*
X198185317Y-135003848D01*
X198165551Y-135255000D01*
X198185317Y-135506151D01*
X198244126Y-135751110D01*
X198340533Y-135983859D01*
X198472160Y-136198653D01*
X198472161Y-136198656D01*
X198472164Y-136198659D01*
X198635776Y-136390224D01*
X198747526Y-136485668D01*
X198785719Y-136544174D01*
X198786218Y-136614041D01*
X198748864Y-136673088D01*
X198685517Y-136702566D01*
X198643527Y-136701716D01*
X198606086Y-136694500D01*
X198606085Y-136694500D01*
X198448575Y-136694500D01*
X198291782Y-136709472D01*
X198291778Y-136709473D01*
X198090127Y-136768683D01*
X197903313Y-136864991D01*
X197738116Y-136994905D01*
X197738112Y-136994909D01*
X197600478Y-137153746D01*
X197495398Y-137335750D01*
X197426656Y-137534365D01*
X197426656Y-137534367D01*
X197400020Y-137719631D01*
X197396746Y-137742401D01*
X197406745Y-137952327D01*
X197456296Y-138156578D01*
X197456298Y-138156582D01*
X197543598Y-138347743D01*
X197543601Y-138347748D01*
X197543602Y-138347750D01*
X197543604Y-138347753D01*
X197665514Y-138518952D01*
X197665515Y-138518953D01*
X197665520Y-138518959D01*
X197817620Y-138663985D01*
X197912578Y-138725011D01*
X197994428Y-138777613D01*
X198189543Y-138855725D01*
X198231186Y-138863751D01*
X198395914Y-138895500D01*
X198395915Y-138895500D01*
X198553419Y-138895500D01*
X198553425Y-138895500D01*
X198710218Y-138880528D01*
X198911875Y-138821316D01*
X198964681Y-138794092D01*
X199033286Y-138780869D01*
X199098151Y-138806837D01*
X199138680Y-138863751D01*
X199145500Y-138904308D01*
X199145500Y-152748866D01*
X199125815Y-152815905D01*
X199073011Y-152861660D01*
X199068955Y-152863426D01*
X199042142Y-152874532D01*
X199042141Y-152874533D01*
X198827346Y-153006160D01*
X198827343Y-153006161D01*
X198635776Y-153169776D01*
X198472161Y-153361343D01*
X198472160Y-153361346D01*
X198340533Y-153576140D01*
X198244126Y-153808889D01*
X198185317Y-154053848D01*
X198165551Y-154305000D01*
X198185317Y-154556151D01*
X198244126Y-154801110D01*
X198340533Y-155033859D01*
X198472160Y-155248653D01*
X198472161Y-155248656D01*
X198472164Y-155248659D01*
X198635776Y-155440224D01*
X198747526Y-155535668D01*
X198785719Y-155594174D01*
X198786218Y-155664041D01*
X198748864Y-155723088D01*
X198685517Y-155752566D01*
X198643527Y-155751716D01*
X198606086Y-155744500D01*
X198606085Y-155744500D01*
X198448575Y-155744500D01*
X198291782Y-155759472D01*
X198291778Y-155759473D01*
X198090127Y-155818683D01*
X197903313Y-155914991D01*
X197738116Y-156044905D01*
X197738112Y-156044909D01*
X197600478Y-156203746D01*
X197495398Y-156385750D01*
X197426656Y-156584365D01*
X197426656Y-156584367D01*
X197400020Y-156769631D01*
X197396746Y-156792401D01*
X197406745Y-157002327D01*
X197456296Y-157206578D01*
X197456298Y-157206582D01*
X197543598Y-157397743D01*
X197543601Y-157397748D01*
X197543602Y-157397750D01*
X197543604Y-157397753D01*
X197665514Y-157568952D01*
X197665515Y-157568953D01*
X197665520Y-157568959D01*
X197817620Y-157713985D01*
X197912578Y-157775011D01*
X197994428Y-157827613D01*
X198189543Y-157905725D01*
X198231186Y-157913751D01*
X198395914Y-157945500D01*
X198395915Y-157945500D01*
X198553419Y-157945500D01*
X198553425Y-157945500D01*
X198710218Y-157930528D01*
X198911875Y-157871316D01*
X198964681Y-157844092D01*
X199033286Y-157830869D01*
X199098151Y-157856837D01*
X199138680Y-157913751D01*
X199145500Y-157954308D01*
X199145500Y-171798866D01*
X199125815Y-171865905D01*
X199073011Y-171911660D01*
X199068955Y-171913426D01*
X199042142Y-171924532D01*
X199042141Y-171924533D01*
X198827346Y-172056160D01*
X198827343Y-172056161D01*
X198635776Y-172219776D01*
X198472161Y-172411343D01*
X198472160Y-172411346D01*
X198340533Y-172626140D01*
X198244126Y-172858889D01*
X198185317Y-173103848D01*
X198165551Y-173355000D01*
X198185317Y-173606151D01*
X198244126Y-173851110D01*
X198340533Y-174083859D01*
X198472160Y-174298653D01*
X198472161Y-174298656D01*
X198472164Y-174298659D01*
X198635776Y-174490224D01*
X198747526Y-174585668D01*
X198785719Y-174644174D01*
X198786218Y-174714041D01*
X198748864Y-174773088D01*
X198685517Y-174802566D01*
X198643527Y-174801716D01*
X198606086Y-174794500D01*
X198606085Y-174794500D01*
X198448575Y-174794500D01*
X198291782Y-174809472D01*
X198291778Y-174809473D01*
X198090127Y-174868683D01*
X197903313Y-174964991D01*
X197738116Y-175094905D01*
X197738112Y-175094909D01*
X197600478Y-175253746D01*
X197495398Y-175435750D01*
X197426656Y-175634365D01*
X197426656Y-175634367D01*
X197400020Y-175819631D01*
X197396746Y-175842401D01*
X197406745Y-176052327D01*
X197456296Y-176256578D01*
X197456298Y-176256582D01*
X197543598Y-176447743D01*
X197543601Y-176447748D01*
X197543602Y-176447750D01*
X197543604Y-176447753D01*
X197665514Y-176618952D01*
X197665515Y-176618953D01*
X197665520Y-176618959D01*
X197817620Y-176763985D01*
X197912578Y-176825011D01*
X197994428Y-176877613D01*
X198189543Y-176955725D01*
X198292729Y-176975612D01*
X198395914Y-176995500D01*
X198395915Y-176995500D01*
X198553419Y-176995500D01*
X198553425Y-176995500D01*
X198710218Y-176980528D01*
X198911875Y-176921316D01*
X199098682Y-176825011D01*
X199263886Y-176695092D01*
X199401519Y-176536256D01*
X199506604Y-176354244D01*
X199575344Y-176155633D01*
X199601980Y-175970373D01*
X201326723Y-175970373D01*
X201356881Y-176270160D01*
X201356882Y-176270162D01*
X201426728Y-176563252D01*
X201426733Y-176563266D01*
X201535020Y-176844427D01*
X201535024Y-176844436D01*
X201679825Y-177108665D01*
X201679829Y-177108671D01*
X201858551Y-177351234D01*
X201858554Y-177351238D01*
X201858561Y-177351245D01*
X202068019Y-177567823D01*
X202304478Y-177754553D01*
X202304480Y-177754554D01*
X202304485Y-177754558D01*
X202563730Y-177908109D01*
X202841128Y-178025736D01*
X203131729Y-178105340D01*
X203430347Y-178145500D01*
X203430351Y-178145500D01*
X203656252Y-178145500D01*
X203820164Y-178134526D01*
X203881634Y-178130412D01*
X204176903Y-178070396D01*
X204461537Y-177971560D01*
X204730459Y-177835668D01*
X204978869Y-177665144D01*
X205202333Y-177463032D01*
X205396865Y-177232939D01*
X205558993Y-176978970D01*
X205685823Y-176705658D01*
X205775093Y-176417879D01*
X205825209Y-176120770D01*
X205834516Y-175842401D01*
X207556746Y-175842401D01*
X207566745Y-176052327D01*
X207616296Y-176256578D01*
X207616298Y-176256582D01*
X207703598Y-176447743D01*
X207703601Y-176447748D01*
X207703602Y-176447750D01*
X207703604Y-176447753D01*
X207825514Y-176618952D01*
X207825515Y-176618953D01*
X207825520Y-176618959D01*
X207977620Y-176763985D01*
X208072578Y-176825011D01*
X208154428Y-176877613D01*
X208349543Y-176955725D01*
X208452729Y-176975612D01*
X208555914Y-176995500D01*
X208555915Y-176995500D01*
X208713419Y-176995500D01*
X208713425Y-176995500D01*
X208870218Y-176980528D01*
X209071875Y-176921316D01*
X209258682Y-176825011D01*
X209423886Y-176695092D01*
X209561519Y-176536256D01*
X209666604Y-176354244D01*
X209735344Y-176155633D01*
X209765254Y-175947602D01*
X209755254Y-175737670D01*
X209705704Y-175533424D01*
X209699500Y-175519839D01*
X209618401Y-175342256D01*
X209618398Y-175342251D01*
X209618397Y-175342250D01*
X209618396Y-175342247D01*
X209496486Y-175171048D01*
X209496484Y-175171046D01*
X209496479Y-175171040D01*
X209344379Y-175026014D01*
X209167574Y-174912388D01*
X208972455Y-174834274D01*
X208766086Y-174794500D01*
X208766085Y-174794500D01*
X208608575Y-174794500D01*
X208451782Y-174809472D01*
X208451778Y-174809473D01*
X208250127Y-174868683D01*
X208063313Y-174964991D01*
X207898116Y-175094905D01*
X207898112Y-175094909D01*
X207760478Y-175253746D01*
X207655398Y-175435750D01*
X207586656Y-175634365D01*
X207586656Y-175634367D01*
X207560020Y-175819631D01*
X207556746Y-175842401D01*
X205834516Y-175842401D01*
X205835277Y-175819631D01*
X205805118Y-175519838D01*
X205735269Y-175226739D01*
X205626977Y-174945566D01*
X205482175Y-174681335D01*
X205303446Y-174438762D01*
X205093980Y-174222176D01*
X204970742Y-174124856D01*
X204857521Y-174035446D01*
X204857517Y-174035443D01*
X204857515Y-174035442D01*
X204598270Y-173881891D01*
X204320872Y-173764264D01*
X204320863Y-173764261D01*
X204030272Y-173684660D01*
X203955616Y-173674620D01*
X203731653Y-173644500D01*
X203505756Y-173644500D01*
X203505748Y-173644500D01*
X203280368Y-173659587D01*
X203280359Y-173659589D01*
X202985094Y-173719604D01*
X202700464Y-173818439D01*
X202700459Y-173818441D01*
X202431546Y-173954328D01*
X202183125Y-174124860D01*
X201959665Y-174326969D01*
X201765132Y-174557064D01*
X201603006Y-174811030D01*
X201603005Y-174811032D01*
X201519091Y-174991864D01*
X201476177Y-175084342D01*
X201472899Y-175094909D01*
X201386907Y-175372118D01*
X201342672Y-175634365D01*
X201336791Y-175669230D01*
X201331002Y-175842398D01*
X201326723Y-175970373D01*
X199601980Y-175970373D01*
X199605254Y-175947602D01*
X199595254Y-175737670D01*
X199545704Y-175533424D01*
X199539500Y-175519839D01*
X199458401Y-175342256D01*
X199458398Y-175342251D01*
X199458397Y-175342250D01*
X199458396Y-175342247D01*
X199336486Y-175171048D01*
X199285215Y-175122161D01*
X199250281Y-175061654D01*
X199253605Y-174991864D01*
X199294132Y-174934949D01*
X199358997Y-174908981D01*
X199399732Y-174911845D01*
X199519852Y-174940683D01*
X199771000Y-174960449D01*
X200022148Y-174940683D01*
X200267111Y-174881873D01*
X200499859Y-174785466D01*
X200714659Y-174653836D01*
X200906224Y-174490224D01*
X201069836Y-174298659D01*
X201201466Y-174083859D01*
X201297873Y-173851111D01*
X201356683Y-173606148D01*
X201376449Y-173355000D01*
X201356683Y-173103852D01*
X201297873Y-172858889D01*
X201285421Y-172828827D01*
X201201466Y-172626140D01*
X201069839Y-172411346D01*
X201069838Y-172411343D01*
X201010505Y-172341873D01*
X200906224Y-172219776D01*
X200760347Y-172095185D01*
X200714656Y-172056161D01*
X200714653Y-172056160D01*
X200499858Y-171924533D01*
X200499857Y-171924532D01*
X200473045Y-171913426D01*
X200418642Y-171869584D01*
X200396579Y-171803289D01*
X200396500Y-171798866D01*
X200396500Y-170815000D01*
X204515551Y-170815000D01*
X204535317Y-171066151D01*
X204594126Y-171311110D01*
X204690533Y-171543859D01*
X204822160Y-171758653D01*
X204822161Y-171758656D01*
X204867620Y-171811881D01*
X204985776Y-171950224D01*
X205090429Y-172039606D01*
X205177343Y-172113838D01*
X205177346Y-172113839D01*
X205392140Y-172245466D01*
X205624889Y-172341873D01*
X205869852Y-172400683D01*
X206121000Y-172420449D01*
X206372148Y-172400683D01*
X206617111Y-172341873D01*
X206849859Y-172245466D01*
X207064659Y-172113836D01*
X207223457Y-171978209D01*
X207287218Y-171949639D01*
X207303988Y-171948500D01*
X211660850Y-171948500D01*
X211727889Y-171968185D01*
X211773644Y-172020989D01*
X211774405Y-172022689D01*
X211781824Y-172039603D01*
X211917833Y-172247782D01*
X211917836Y-172247785D01*
X212086256Y-172430738D01*
X212282491Y-172583474D01*
X212501190Y-172701828D01*
X212736386Y-172782571D01*
X212981665Y-172823500D01*
X213230335Y-172823500D01*
X213475614Y-172782571D01*
X213710810Y-172701828D01*
X213929509Y-172583474D01*
X214125744Y-172430738D01*
X214294164Y-172247785D01*
X214430173Y-172039607D01*
X214530063Y-171811881D01*
X214591108Y-171570821D01*
X214601119Y-171450005D01*
X214611643Y-171323005D01*
X214611643Y-171322994D01*
X214591109Y-171075187D01*
X214591107Y-171075175D01*
X214530063Y-170834118D01*
X214430173Y-170606393D01*
X214294166Y-170398217D01*
X214272557Y-170374744D01*
X214125744Y-170215262D01*
X213929509Y-170062526D01*
X213929507Y-170062525D01*
X213929506Y-170062524D01*
X213710811Y-169944172D01*
X213710802Y-169944169D01*
X213475616Y-169863429D01*
X213230335Y-169822500D01*
X212981665Y-169822500D01*
X212736383Y-169863429D01*
X212501197Y-169944169D01*
X212501188Y-169944172D01*
X212282493Y-170062524D01*
X212086257Y-170215261D01*
X211917833Y-170398217D01*
X211781824Y-170606396D01*
X211774405Y-170623311D01*
X211729449Y-170676797D01*
X211662713Y-170697486D01*
X211660850Y-170697500D01*
X207831826Y-170697500D01*
X207764787Y-170677815D01*
X207719032Y-170625011D01*
X207708208Y-170583228D01*
X207706683Y-170563855D01*
X207706683Y-170563852D01*
X207647873Y-170318889D01*
X207551466Y-170086140D01*
X207419839Y-169871346D01*
X207419838Y-169871343D01*
X207378122Y-169822500D01*
X207256224Y-169679776D01*
X207129571Y-169571604D01*
X207064656Y-169516161D01*
X207064653Y-169516160D01*
X206849859Y-169384533D01*
X206617110Y-169288126D01*
X206372151Y-169229317D01*
X206121000Y-169209551D01*
X205869848Y-169229317D01*
X205624889Y-169288126D01*
X205392140Y-169384533D01*
X205177346Y-169516160D01*
X205177343Y-169516161D01*
X204985776Y-169679776D01*
X204822161Y-169871343D01*
X204822160Y-169871346D01*
X204690533Y-170086140D01*
X204594126Y-170318889D01*
X204535317Y-170563848D01*
X204515551Y-170815000D01*
X200396500Y-170815000D01*
X200396500Y-167290870D01*
X211605500Y-167290870D01*
X211605501Y-167290876D01*
X211611908Y-167350483D01*
X211662202Y-167485328D01*
X211662206Y-167485335D01*
X211748452Y-167600544D01*
X211748455Y-167600547D01*
X211863664Y-167686793D01*
X211863671Y-167686797D01*
X211998517Y-167737091D01*
X211998516Y-167737091D01*
X212005444Y-167737835D01*
X212058127Y-167743500D01*
X214153872Y-167743499D01*
X214213483Y-167737091D01*
X214348331Y-167686796D01*
X214463546Y-167600546D01*
X214549796Y-167485331D01*
X214600091Y-167350483D01*
X214606500Y-167290873D01*
X214606499Y-165195128D01*
X214600091Y-165135517D01*
X214549796Y-165000669D01*
X214549795Y-165000668D01*
X214549793Y-165000664D01*
X214463547Y-164885455D01*
X214463544Y-164885452D01*
X214348335Y-164799206D01*
X214348328Y-164799202D01*
X214213482Y-164748908D01*
X214213483Y-164748908D01*
X214153883Y-164742501D01*
X214153881Y-164742500D01*
X214153873Y-164742500D01*
X214153864Y-164742500D01*
X212058129Y-164742500D01*
X212058123Y-164742501D01*
X211998516Y-164748908D01*
X211863671Y-164799202D01*
X211863664Y-164799206D01*
X211748455Y-164885452D01*
X211748452Y-164885455D01*
X211662206Y-165000664D01*
X211662202Y-165000671D01*
X211611908Y-165135517D01*
X211605501Y-165195116D01*
X211605501Y-165195123D01*
X211605500Y-165195135D01*
X211605500Y-167290870D01*
X200396500Y-167290870D01*
X200396500Y-156920373D01*
X201326723Y-156920373D01*
X201356881Y-157220160D01*
X201356882Y-157220162D01*
X201426728Y-157513252D01*
X201426733Y-157513266D01*
X201535020Y-157794427D01*
X201535024Y-157794436D01*
X201679825Y-158058665D01*
X201679829Y-158058671D01*
X201858551Y-158301234D01*
X201858554Y-158301238D01*
X201858561Y-158301245D01*
X202068019Y-158517823D01*
X202304478Y-158704553D01*
X202304480Y-158704554D01*
X202304485Y-158704558D01*
X202563730Y-158858109D01*
X202841128Y-158975736D01*
X203131729Y-159055340D01*
X203430347Y-159095500D01*
X203430351Y-159095500D01*
X203656252Y-159095500D01*
X203820164Y-159084526D01*
X203881634Y-159080412D01*
X204176903Y-159020396D01*
X204461537Y-158921560D01*
X204730459Y-158785668D01*
X204978869Y-158615144D01*
X205202333Y-158413032D01*
X205396865Y-158182939D01*
X205558993Y-157928970D01*
X205685823Y-157655658D01*
X205775093Y-157367879D01*
X205825209Y-157070770D01*
X205834516Y-156792401D01*
X207556746Y-156792401D01*
X207566745Y-157002327D01*
X207616296Y-157206578D01*
X207616298Y-157206582D01*
X207703598Y-157397743D01*
X207703601Y-157397748D01*
X207703602Y-157397750D01*
X207703604Y-157397753D01*
X207825514Y-157568952D01*
X207825515Y-157568953D01*
X207825520Y-157568959D01*
X207977620Y-157713985D01*
X208072578Y-157775011D01*
X208154428Y-157827613D01*
X208349543Y-157905725D01*
X208391186Y-157913751D01*
X208555914Y-157945500D01*
X208555915Y-157945500D01*
X208713419Y-157945500D01*
X208713425Y-157945500D01*
X208870218Y-157930528D01*
X209071875Y-157871316D01*
X209258682Y-157775011D01*
X209423886Y-157645092D01*
X209561519Y-157486256D01*
X209666604Y-157304244D01*
X209735344Y-157105633D01*
X209765254Y-156897602D01*
X209755254Y-156687670D01*
X209705704Y-156483424D01*
X209699500Y-156469839D01*
X209618401Y-156292256D01*
X209618398Y-156292251D01*
X209618397Y-156292250D01*
X209618396Y-156292247D01*
X209496486Y-156121048D01*
X209496484Y-156121046D01*
X209496479Y-156121040D01*
X209344379Y-155976014D01*
X209167574Y-155862388D01*
X208972455Y-155784274D01*
X208766086Y-155744500D01*
X208766085Y-155744500D01*
X208608575Y-155744500D01*
X208451782Y-155759472D01*
X208451778Y-155759473D01*
X208250127Y-155818683D01*
X208063313Y-155914991D01*
X207898116Y-156044905D01*
X207898112Y-156044909D01*
X207760478Y-156203746D01*
X207655398Y-156385750D01*
X207586656Y-156584365D01*
X207586656Y-156584367D01*
X207560020Y-156769631D01*
X207556746Y-156792401D01*
X205834516Y-156792401D01*
X205835277Y-156769631D01*
X205805118Y-156469838D01*
X205735269Y-156176739D01*
X205626977Y-155895566D01*
X205482175Y-155631335D01*
X205303446Y-155388762D01*
X205093980Y-155172176D01*
X204970742Y-155074856D01*
X204857521Y-154985446D01*
X204857517Y-154985443D01*
X204857515Y-154985442D01*
X204598270Y-154831891D01*
X204320872Y-154714264D01*
X204320863Y-154714261D01*
X204030272Y-154634660D01*
X203955616Y-154624620D01*
X203731653Y-154594500D01*
X203505756Y-154594500D01*
X203505748Y-154594500D01*
X203280368Y-154609587D01*
X203280359Y-154609589D01*
X202985094Y-154669604D01*
X202700464Y-154768439D01*
X202700459Y-154768441D01*
X202431546Y-154904328D01*
X202183125Y-155074860D01*
X201959665Y-155276969D01*
X201765132Y-155507064D01*
X201603006Y-155761030D01*
X201603005Y-155761032D01*
X201503244Y-155976014D01*
X201476177Y-156034342D01*
X201472899Y-156044909D01*
X201386907Y-156322118D01*
X201342672Y-156584365D01*
X201336791Y-156619230D01*
X201331002Y-156792398D01*
X201326723Y-156920373D01*
X200396500Y-156920373D01*
X200396500Y-155861132D01*
X200416185Y-155794093D01*
X200468989Y-155748338D01*
X200473027Y-155746579D01*
X200499859Y-155735466D01*
X200714659Y-155603836D01*
X200906224Y-155440224D01*
X201069836Y-155248659D01*
X201201466Y-155033859D01*
X201297873Y-154801111D01*
X201356683Y-154556148D01*
X201376449Y-154305000D01*
X201356683Y-154053852D01*
X201297873Y-153808889D01*
X201201466Y-153576140D01*
X201069839Y-153361346D01*
X201069838Y-153361343D01*
X201010505Y-153291873D01*
X200906224Y-153169776D01*
X200779571Y-153061604D01*
X200714656Y-153006161D01*
X200714653Y-153006160D01*
X200499858Y-152874533D01*
X200499857Y-152874532D01*
X200473045Y-152863426D01*
X200418642Y-152819584D01*
X200396579Y-152753289D01*
X200396500Y-152748866D01*
X200396500Y-151765000D01*
X204515551Y-151765000D01*
X204535317Y-152016151D01*
X204594126Y-152261110D01*
X204690533Y-152493859D01*
X204822160Y-152708653D01*
X204822161Y-152708656D01*
X204867620Y-152761881D01*
X204985776Y-152900224D01*
X205090429Y-152989606D01*
X205177343Y-153063838D01*
X205177346Y-153063839D01*
X205392140Y-153195466D01*
X205624889Y-153291873D01*
X205869852Y-153350683D01*
X206121000Y-153370449D01*
X206372148Y-153350683D01*
X206617111Y-153291873D01*
X206849859Y-153195466D01*
X207064659Y-153063836D01*
X207256224Y-152900224D01*
X207419836Y-152708659D01*
X207551466Y-152493859D01*
X207562572Y-152467048D01*
X207606412Y-152412644D01*
X207672706Y-152390579D01*
X207677133Y-152390500D01*
X211495943Y-152390500D01*
X211562982Y-152410185D01*
X211608737Y-152462989D01*
X211619519Y-152504259D01*
X211620890Y-152520813D01*
X211620892Y-152520824D01*
X211681936Y-152761881D01*
X211781826Y-152989606D01*
X211917833Y-153197782D01*
X211917836Y-153197785D01*
X212086256Y-153380738D01*
X212282491Y-153533474D01*
X212501190Y-153651828D01*
X212736386Y-153732571D01*
X212981665Y-153773500D01*
X213230335Y-153773500D01*
X213475614Y-153732571D01*
X213710810Y-153651828D01*
X213929509Y-153533474D01*
X214125744Y-153380738D01*
X214294164Y-153197785D01*
X214430173Y-152989607D01*
X214530063Y-152761881D01*
X214591108Y-152520821D01*
X214591109Y-152520812D01*
X214611643Y-152273005D01*
X214611643Y-152272994D01*
X214591109Y-152025187D01*
X214591107Y-152025175D01*
X214530063Y-151784118D01*
X214430173Y-151556393D01*
X214294166Y-151348217D01*
X214221139Y-151268889D01*
X214125744Y-151165262D01*
X213929509Y-151012526D01*
X213929507Y-151012525D01*
X213929506Y-151012524D01*
X213710811Y-150894172D01*
X213710802Y-150894169D01*
X213475616Y-150813429D01*
X213230335Y-150772500D01*
X212981665Y-150772500D01*
X212736383Y-150813429D01*
X212501197Y-150894169D01*
X212501188Y-150894172D01*
X212282492Y-151012525D01*
X212282491Y-151012526D01*
X212152947Y-151113354D01*
X212087956Y-151138996D01*
X212076787Y-151139500D01*
X207677133Y-151139500D01*
X207610094Y-151119815D01*
X207564339Y-151067011D01*
X207562572Y-151062952D01*
X207551467Y-151036143D01*
X207551466Y-151036141D01*
X207419839Y-150821346D01*
X207419838Y-150821343D01*
X207378122Y-150772500D01*
X207256224Y-150629776D01*
X207129571Y-150521604D01*
X207064656Y-150466161D01*
X207064653Y-150466160D01*
X206849859Y-150334533D01*
X206617110Y-150238126D01*
X206372151Y-150179317D01*
X206121000Y-150159551D01*
X205869848Y-150179317D01*
X205624889Y-150238126D01*
X205392140Y-150334533D01*
X205177346Y-150466160D01*
X205177343Y-150466161D01*
X204985776Y-150629776D01*
X204822161Y-150821343D01*
X204822160Y-150821346D01*
X204690533Y-151036140D01*
X204594126Y-151268889D01*
X204535317Y-151513848D01*
X204515551Y-151765000D01*
X200396500Y-151765000D01*
X200396500Y-148240870D01*
X211605500Y-148240870D01*
X211605501Y-148240876D01*
X211611908Y-148300483D01*
X211662202Y-148435328D01*
X211662206Y-148435335D01*
X211748452Y-148550544D01*
X211748455Y-148550547D01*
X211863664Y-148636793D01*
X211863671Y-148636797D01*
X211998517Y-148687091D01*
X211998516Y-148687091D01*
X212005444Y-148687835D01*
X212058127Y-148693500D01*
X214153872Y-148693499D01*
X214213483Y-148687091D01*
X214348331Y-148636796D01*
X214463546Y-148550546D01*
X214549796Y-148435331D01*
X214600091Y-148300483D01*
X214606500Y-148240873D01*
X214606499Y-146145128D01*
X214600091Y-146085517D01*
X214549796Y-145950669D01*
X214549795Y-145950668D01*
X214549793Y-145950664D01*
X214463547Y-145835455D01*
X214463544Y-145835452D01*
X214348335Y-145749206D01*
X214348328Y-145749202D01*
X214213482Y-145698908D01*
X214213483Y-145698908D01*
X214153883Y-145692501D01*
X214153881Y-145692500D01*
X214153873Y-145692500D01*
X214153864Y-145692500D01*
X212058129Y-145692500D01*
X212058123Y-145692501D01*
X211998516Y-145698908D01*
X211863671Y-145749202D01*
X211863664Y-145749206D01*
X211748455Y-145835452D01*
X211748452Y-145835455D01*
X211662206Y-145950664D01*
X211662202Y-145950671D01*
X211611908Y-146085517D01*
X211605501Y-146145116D01*
X211605501Y-146145123D01*
X211605500Y-146145135D01*
X211605500Y-148240870D01*
X200396500Y-148240870D01*
X200396500Y-137870373D01*
X201326723Y-137870373D01*
X201356881Y-138170160D01*
X201356882Y-138170162D01*
X201426728Y-138463252D01*
X201426733Y-138463266D01*
X201535020Y-138744427D01*
X201535024Y-138744436D01*
X201679825Y-139008665D01*
X201679829Y-139008671D01*
X201858551Y-139251234D01*
X201858554Y-139251238D01*
X201858561Y-139251245D01*
X202068019Y-139467823D01*
X202304478Y-139654553D01*
X202304480Y-139654554D01*
X202304485Y-139654558D01*
X202563730Y-139808109D01*
X202841128Y-139925736D01*
X203131729Y-140005340D01*
X203430347Y-140045500D01*
X203430351Y-140045500D01*
X203656252Y-140045500D01*
X203820164Y-140034526D01*
X203881634Y-140030412D01*
X204176903Y-139970396D01*
X204461537Y-139871560D01*
X204730459Y-139735668D01*
X204978869Y-139565144D01*
X205202333Y-139363032D01*
X205396865Y-139132939D01*
X205558993Y-138878970D01*
X205685823Y-138605658D01*
X205775093Y-138317879D01*
X205825209Y-138020770D01*
X205834516Y-137742401D01*
X207556746Y-137742401D01*
X207566745Y-137952327D01*
X207616296Y-138156578D01*
X207616298Y-138156582D01*
X207703598Y-138347743D01*
X207703601Y-138347748D01*
X207703602Y-138347750D01*
X207703604Y-138347753D01*
X207825514Y-138518952D01*
X207825515Y-138518953D01*
X207825520Y-138518959D01*
X207977620Y-138663985D01*
X208072578Y-138725011D01*
X208154428Y-138777613D01*
X208349543Y-138855725D01*
X208391186Y-138863751D01*
X208555914Y-138895500D01*
X208555915Y-138895500D01*
X208713419Y-138895500D01*
X208713425Y-138895500D01*
X208870218Y-138880528D01*
X209071875Y-138821316D01*
X209258682Y-138725011D01*
X209423886Y-138595092D01*
X209561519Y-138436256D01*
X209666604Y-138254244D01*
X209735344Y-138055633D01*
X209765254Y-137847602D01*
X209755254Y-137637670D01*
X209705704Y-137433424D01*
X209699500Y-137419839D01*
X209618401Y-137242256D01*
X209618398Y-137242251D01*
X209618397Y-137242250D01*
X209618396Y-137242247D01*
X209496486Y-137071048D01*
X209496484Y-137071046D01*
X209496479Y-137071040D01*
X209344379Y-136926014D01*
X209167574Y-136812388D01*
X208972455Y-136734274D01*
X208766086Y-136694500D01*
X208766085Y-136694500D01*
X208608575Y-136694500D01*
X208451782Y-136709472D01*
X208451778Y-136709473D01*
X208250127Y-136768683D01*
X208063313Y-136864991D01*
X207898116Y-136994905D01*
X207898112Y-136994909D01*
X207760478Y-137153746D01*
X207655398Y-137335750D01*
X207586656Y-137534365D01*
X207586656Y-137534367D01*
X207560020Y-137719631D01*
X207556746Y-137742401D01*
X205834516Y-137742401D01*
X205835277Y-137719631D01*
X205805118Y-137419838D01*
X205735269Y-137126739D01*
X205626977Y-136845566D01*
X205482175Y-136581335D01*
X205303446Y-136338762D01*
X205093980Y-136122176D01*
X204970742Y-136024856D01*
X204857521Y-135935446D01*
X204857517Y-135935443D01*
X204857515Y-135935442D01*
X204598270Y-135781891D01*
X204320872Y-135664264D01*
X204320863Y-135664261D01*
X204030272Y-135584660D01*
X203955616Y-135574620D01*
X203731653Y-135544500D01*
X203505756Y-135544500D01*
X203505748Y-135544500D01*
X203280368Y-135559587D01*
X203280359Y-135559589D01*
X202985094Y-135619604D01*
X202700464Y-135718439D01*
X202700459Y-135718441D01*
X202431546Y-135854328D01*
X202183125Y-136024860D01*
X201959665Y-136226969D01*
X201765132Y-136457064D01*
X201603006Y-136711030D01*
X201603005Y-136711032D01*
X201503244Y-136926014D01*
X201476177Y-136984342D01*
X201472899Y-136994909D01*
X201386907Y-137272118D01*
X201342672Y-137534365D01*
X201336791Y-137569230D01*
X201331002Y-137742398D01*
X201326723Y-137870373D01*
X200396500Y-137870373D01*
X200396500Y-136811132D01*
X200416185Y-136744093D01*
X200468989Y-136698338D01*
X200473027Y-136696579D01*
X200499859Y-136685466D01*
X200714659Y-136553836D01*
X200906224Y-136390224D01*
X201069836Y-136198659D01*
X201201466Y-135983859D01*
X201297873Y-135751111D01*
X201356683Y-135506148D01*
X201376449Y-135255000D01*
X201356683Y-135003852D01*
X201297873Y-134758889D01*
X201256194Y-134658266D01*
X201201466Y-134526140D01*
X201069839Y-134311346D01*
X201069838Y-134311343D01*
X200928165Y-134145466D01*
X200906224Y-134119776D01*
X200779571Y-134011604D01*
X200714656Y-133956161D01*
X200714653Y-133956160D01*
X200499858Y-133824533D01*
X200499857Y-133824532D01*
X200473045Y-133813426D01*
X200418642Y-133769584D01*
X200396579Y-133703289D01*
X200396500Y-133698866D01*
X200396500Y-124144451D01*
X200416185Y-124077412D01*
X200432814Y-124056775D01*
X201942477Y-122547112D01*
X202003796Y-122513630D01*
X202029837Y-122510797D01*
X209952194Y-122491211D01*
X210019281Y-122510730D01*
X210065167Y-122563421D01*
X210076500Y-122615211D01*
X210076500Y-127053255D01*
X210074775Y-127068872D01*
X210075061Y-127068899D01*
X210074326Y-127076665D01*
X210076500Y-127145814D01*
X210076500Y-127175343D01*
X210076501Y-127175360D01*
X210077368Y-127182231D01*
X210077826Y-127188050D01*
X210079290Y-127234624D01*
X210079291Y-127234627D01*
X210084880Y-127253867D01*
X210088824Y-127272911D01*
X210091336Y-127292791D01*
X210108490Y-127336119D01*
X210110382Y-127341647D01*
X210123381Y-127386388D01*
X210133580Y-127403634D01*
X210142138Y-127421103D01*
X210149514Y-127439732D01*
X210176898Y-127477423D01*
X210180106Y-127482307D01*
X210203827Y-127522416D01*
X210203833Y-127522424D01*
X210217990Y-127536580D01*
X210230628Y-127551376D01*
X210242405Y-127567586D01*
X210242406Y-127567587D01*
X210278309Y-127597288D01*
X210282620Y-127601210D01*
X212571702Y-129890292D01*
X213050636Y-130369226D01*
X213084121Y-130430549D01*
X213079137Y-130500241D01*
X213037265Y-130556174D01*
X212983364Y-130579216D01*
X212736383Y-130620429D01*
X212501197Y-130701169D01*
X212501188Y-130701172D01*
X212282493Y-130819524D01*
X212086257Y-130972261D01*
X211917833Y-131155217D01*
X211781826Y-131363393D01*
X211681936Y-131591118D01*
X211620892Y-131832175D01*
X211620890Y-131832186D01*
X211608996Y-131975740D01*
X211583843Y-132040925D01*
X211527441Y-132082163D01*
X211485420Y-132089500D01*
X207677133Y-132089500D01*
X207610094Y-132069815D01*
X207564339Y-132017011D01*
X207562572Y-132012952D01*
X207551467Y-131986143D01*
X207551466Y-131986141D01*
X207419839Y-131771346D01*
X207419838Y-131771343D01*
X207382875Y-131728066D01*
X207256224Y-131579776D01*
X207129571Y-131471604D01*
X207064656Y-131416161D01*
X207064653Y-131416160D01*
X206849859Y-131284533D01*
X206617110Y-131188126D01*
X206372151Y-131129317D01*
X206121000Y-131109551D01*
X205869848Y-131129317D01*
X205624889Y-131188126D01*
X205392140Y-131284533D01*
X205177346Y-131416160D01*
X205177343Y-131416161D01*
X204985776Y-131579776D01*
X204822161Y-131771343D01*
X204822160Y-131771346D01*
X204690533Y-131986140D01*
X204594126Y-132218889D01*
X204535317Y-132463848D01*
X204515551Y-132715000D01*
X204535317Y-132966151D01*
X204594126Y-133211110D01*
X204690533Y-133443859D01*
X204822160Y-133658653D01*
X204822161Y-133658656D01*
X204868022Y-133712352D01*
X204985776Y-133850224D01*
X205109811Y-133956160D01*
X205177343Y-134013838D01*
X205177346Y-134013839D01*
X205392140Y-134145466D01*
X205624889Y-134241873D01*
X205869852Y-134300683D01*
X206121000Y-134320449D01*
X206372148Y-134300683D01*
X206617111Y-134241873D01*
X206849859Y-134145466D01*
X207064659Y-134013836D01*
X207256224Y-133850224D01*
X207419836Y-133658659D01*
X207551466Y-133443859D01*
X207562572Y-133417048D01*
X207606412Y-133362644D01*
X207672706Y-133340579D01*
X207677133Y-133340500D01*
X212251138Y-133340500D01*
X212310154Y-133355444D01*
X212501190Y-133458828D01*
X212736386Y-133539571D01*
X212981665Y-133580500D01*
X213230335Y-133580500D01*
X213475614Y-133539571D01*
X213710810Y-133458828D01*
X213929509Y-133340474D01*
X214125744Y-133187738D01*
X214294164Y-133004785D01*
X214430173Y-132796607D01*
X214530063Y-132568881D01*
X214591108Y-132327821D01*
X214600135Y-132218889D01*
X214601012Y-132208301D01*
X214626165Y-132143116D01*
X214682567Y-132101878D01*
X214752310Y-132097680D01*
X214812269Y-132130860D01*
X217278352Y-134596943D01*
X217311837Y-134658266D01*
X217306853Y-134727958D01*
X217305233Y-134732075D01*
X217294126Y-134758889D01*
X217235317Y-135003848D01*
X217215551Y-135255000D01*
X217235317Y-135506151D01*
X217294126Y-135751110D01*
X217390533Y-135983859D01*
X217522160Y-136198653D01*
X217522161Y-136198656D01*
X217522164Y-136198659D01*
X217685776Y-136390224D01*
X217797526Y-136485668D01*
X217835719Y-136544174D01*
X217836218Y-136614041D01*
X217798864Y-136673088D01*
X217735517Y-136702566D01*
X217693527Y-136701716D01*
X217656086Y-136694500D01*
X217656085Y-136694500D01*
X217498575Y-136694500D01*
X217341782Y-136709472D01*
X217341778Y-136709473D01*
X217140127Y-136768683D01*
X216953313Y-136864991D01*
X216788116Y-136994905D01*
X216788112Y-136994909D01*
X216650478Y-137153746D01*
X216545398Y-137335750D01*
X216476656Y-137534365D01*
X216476656Y-137534367D01*
X216450020Y-137719631D01*
X216446746Y-137742401D01*
X216456745Y-137952327D01*
X216506296Y-138156578D01*
X216506298Y-138156582D01*
X216593598Y-138347743D01*
X216593601Y-138347748D01*
X216593602Y-138347750D01*
X216593604Y-138347753D01*
X216715514Y-138518952D01*
X216715515Y-138518953D01*
X216715520Y-138518959D01*
X216867620Y-138663985D01*
X216962578Y-138725011D01*
X217044428Y-138777613D01*
X217239543Y-138855725D01*
X217281186Y-138863751D01*
X217445914Y-138895500D01*
X217445915Y-138895500D01*
X217603419Y-138895500D01*
X217603425Y-138895500D01*
X217760218Y-138880528D01*
X217961875Y-138821316D01*
X218014681Y-138794092D01*
X218083286Y-138780869D01*
X218148151Y-138806837D01*
X218188680Y-138863751D01*
X218195500Y-138904308D01*
X218195500Y-152748866D01*
X218175815Y-152815905D01*
X218123011Y-152861660D01*
X218118955Y-152863426D01*
X218092142Y-152874532D01*
X218092141Y-152874533D01*
X217877346Y-153006160D01*
X217877343Y-153006161D01*
X217685776Y-153169776D01*
X217522161Y-153361343D01*
X217522160Y-153361346D01*
X217390533Y-153576140D01*
X217294126Y-153808889D01*
X217235317Y-154053848D01*
X217215551Y-154305000D01*
X217235317Y-154556151D01*
X217294126Y-154801110D01*
X217390533Y-155033859D01*
X217522160Y-155248653D01*
X217522161Y-155248656D01*
X217522164Y-155248659D01*
X217685776Y-155440224D01*
X217797526Y-155535668D01*
X217835719Y-155594174D01*
X217836218Y-155664041D01*
X217798864Y-155723088D01*
X217735517Y-155752566D01*
X217693527Y-155751716D01*
X217656086Y-155744500D01*
X217656085Y-155744500D01*
X217498575Y-155744500D01*
X217341782Y-155759472D01*
X217341778Y-155759473D01*
X217140127Y-155818683D01*
X216953313Y-155914991D01*
X216788116Y-156044905D01*
X216788112Y-156044909D01*
X216650478Y-156203746D01*
X216545398Y-156385750D01*
X216476656Y-156584365D01*
X216476656Y-156584367D01*
X216450020Y-156769631D01*
X216446746Y-156792401D01*
X216456745Y-157002327D01*
X216506296Y-157206578D01*
X216506298Y-157206582D01*
X216593598Y-157397743D01*
X216593601Y-157397748D01*
X216593602Y-157397750D01*
X216593604Y-157397753D01*
X216715514Y-157568952D01*
X216715515Y-157568953D01*
X216715520Y-157568959D01*
X216867620Y-157713985D01*
X216962578Y-157775011D01*
X217044428Y-157827613D01*
X217239543Y-157905725D01*
X217281186Y-157913751D01*
X217445914Y-157945500D01*
X217445915Y-157945500D01*
X217603419Y-157945500D01*
X217603425Y-157945500D01*
X217760218Y-157930528D01*
X217961875Y-157871316D01*
X218014681Y-157844092D01*
X218083286Y-157830869D01*
X218148151Y-157856837D01*
X218188680Y-157913751D01*
X218195500Y-157954308D01*
X218195500Y-171798866D01*
X218175815Y-171865905D01*
X218123011Y-171911660D01*
X218118955Y-171913426D01*
X218092142Y-171924532D01*
X218092141Y-171924533D01*
X217877346Y-172056160D01*
X217877343Y-172056161D01*
X217685776Y-172219776D01*
X217522161Y-172411343D01*
X217522160Y-172411346D01*
X217390533Y-172626140D01*
X217294126Y-172858889D01*
X217235317Y-173103848D01*
X217215551Y-173355000D01*
X217235317Y-173606151D01*
X217294126Y-173851110D01*
X217390533Y-174083859D01*
X217522160Y-174298653D01*
X217522161Y-174298656D01*
X217522164Y-174298659D01*
X217685776Y-174490224D01*
X217797526Y-174585668D01*
X217835719Y-174644174D01*
X217836218Y-174714041D01*
X217798864Y-174773088D01*
X217735517Y-174802566D01*
X217693527Y-174801716D01*
X217656086Y-174794500D01*
X217656085Y-174794500D01*
X217498575Y-174794500D01*
X217341782Y-174809472D01*
X217341778Y-174809473D01*
X217140127Y-174868683D01*
X216953313Y-174964991D01*
X216788116Y-175094905D01*
X216788112Y-175094909D01*
X216650478Y-175253746D01*
X216545398Y-175435750D01*
X216476656Y-175634365D01*
X216476656Y-175634367D01*
X216450020Y-175819631D01*
X216446746Y-175842401D01*
X216456745Y-176052327D01*
X216506296Y-176256578D01*
X216506298Y-176256582D01*
X216593598Y-176447743D01*
X216593601Y-176447748D01*
X216593602Y-176447750D01*
X216593604Y-176447753D01*
X216715514Y-176618952D01*
X216715515Y-176618953D01*
X216715520Y-176618959D01*
X216867620Y-176763985D01*
X216962578Y-176825011D01*
X217044428Y-176877613D01*
X217239543Y-176955725D01*
X217342729Y-176975612D01*
X217445914Y-176995500D01*
X217445915Y-176995500D01*
X217603419Y-176995500D01*
X217603425Y-176995500D01*
X217760218Y-176980528D01*
X217961875Y-176921316D01*
X218148682Y-176825011D01*
X218313886Y-176695092D01*
X218451519Y-176536256D01*
X218556604Y-176354244D01*
X218625344Y-176155633D01*
X218651980Y-175970373D01*
X220376723Y-175970373D01*
X220406881Y-176270160D01*
X220406882Y-176270162D01*
X220476728Y-176563252D01*
X220476733Y-176563266D01*
X220585020Y-176844427D01*
X220585024Y-176844436D01*
X220729825Y-177108665D01*
X220729829Y-177108671D01*
X220908551Y-177351234D01*
X220908554Y-177351238D01*
X220908561Y-177351245D01*
X221118019Y-177567823D01*
X221354478Y-177754553D01*
X221354480Y-177754554D01*
X221354485Y-177754558D01*
X221613730Y-177908109D01*
X221891128Y-178025736D01*
X222181729Y-178105340D01*
X222480347Y-178145500D01*
X222480351Y-178145500D01*
X222706252Y-178145500D01*
X222870164Y-178134526D01*
X222931634Y-178130412D01*
X223226903Y-178070396D01*
X223511537Y-177971560D01*
X223780459Y-177835668D01*
X224028869Y-177665144D01*
X224252333Y-177463032D01*
X224446865Y-177232939D01*
X224608993Y-176978970D01*
X224735823Y-176705658D01*
X224825093Y-176417879D01*
X224875209Y-176120770D01*
X224884516Y-175842401D01*
X226606746Y-175842401D01*
X226616745Y-176052327D01*
X226666296Y-176256578D01*
X226666298Y-176256582D01*
X226753598Y-176447743D01*
X226753601Y-176447748D01*
X226753602Y-176447750D01*
X226753604Y-176447753D01*
X226875514Y-176618952D01*
X226875515Y-176618953D01*
X226875520Y-176618959D01*
X227027620Y-176763985D01*
X227122578Y-176825011D01*
X227204428Y-176877613D01*
X227399543Y-176955725D01*
X227502729Y-176975612D01*
X227605914Y-176995500D01*
X227605915Y-176995500D01*
X227763419Y-176995500D01*
X227763425Y-176995500D01*
X227920218Y-176980528D01*
X228121875Y-176921316D01*
X228308682Y-176825011D01*
X228473886Y-176695092D01*
X228611519Y-176536256D01*
X228716604Y-176354244D01*
X228785344Y-176155633D01*
X228815254Y-175947602D01*
X228805254Y-175737670D01*
X228755704Y-175533424D01*
X228749500Y-175519839D01*
X228668401Y-175342256D01*
X228668398Y-175342251D01*
X228668397Y-175342250D01*
X228668396Y-175342247D01*
X228546486Y-175171048D01*
X228546484Y-175171046D01*
X228546479Y-175171040D01*
X228394379Y-175026014D01*
X228217574Y-174912388D01*
X228022455Y-174834274D01*
X227816086Y-174794500D01*
X227816085Y-174794500D01*
X227658575Y-174794500D01*
X227501782Y-174809472D01*
X227501778Y-174809473D01*
X227300127Y-174868683D01*
X227113313Y-174964991D01*
X226948116Y-175094905D01*
X226948112Y-175094909D01*
X226810478Y-175253746D01*
X226705398Y-175435750D01*
X226636656Y-175634365D01*
X226636656Y-175634367D01*
X226610020Y-175819631D01*
X226606746Y-175842401D01*
X224884516Y-175842401D01*
X224885277Y-175819631D01*
X224855118Y-175519838D01*
X224785269Y-175226739D01*
X224676977Y-174945566D01*
X224532175Y-174681335D01*
X224353446Y-174438762D01*
X224143980Y-174222176D01*
X224020742Y-174124856D01*
X223907521Y-174035446D01*
X223907517Y-174035443D01*
X223907515Y-174035442D01*
X223648270Y-173881891D01*
X223370872Y-173764264D01*
X223370863Y-173764261D01*
X223080272Y-173684660D01*
X223005616Y-173674620D01*
X222781653Y-173644500D01*
X222555756Y-173644500D01*
X222555748Y-173644500D01*
X222330368Y-173659587D01*
X222330359Y-173659589D01*
X222035094Y-173719604D01*
X221750464Y-173818439D01*
X221750459Y-173818441D01*
X221481546Y-173954328D01*
X221233125Y-174124860D01*
X221009665Y-174326969D01*
X220815132Y-174557064D01*
X220653006Y-174811030D01*
X220653005Y-174811032D01*
X220569091Y-174991864D01*
X220526177Y-175084342D01*
X220522899Y-175094909D01*
X220436907Y-175372118D01*
X220392672Y-175634365D01*
X220386791Y-175669230D01*
X220381002Y-175842398D01*
X220376723Y-175970373D01*
X218651980Y-175970373D01*
X218655254Y-175947602D01*
X218645254Y-175737670D01*
X218595704Y-175533424D01*
X218589500Y-175519839D01*
X218508401Y-175342256D01*
X218508398Y-175342251D01*
X218508397Y-175342250D01*
X218508396Y-175342247D01*
X218386486Y-175171048D01*
X218335215Y-175122161D01*
X218300281Y-175061654D01*
X218303605Y-174991864D01*
X218344132Y-174934949D01*
X218408997Y-174908981D01*
X218449732Y-174911845D01*
X218569852Y-174940683D01*
X218821000Y-174960449D01*
X219072148Y-174940683D01*
X219317111Y-174881873D01*
X219549859Y-174785466D01*
X219764659Y-174653836D01*
X219956224Y-174490224D01*
X220119836Y-174298659D01*
X220251466Y-174083859D01*
X220347873Y-173851111D01*
X220406683Y-173606148D01*
X220426449Y-173355000D01*
X220406683Y-173103852D01*
X220347873Y-172858889D01*
X220335421Y-172828827D01*
X220251466Y-172626140D01*
X220119839Y-172411346D01*
X220119838Y-172411343D01*
X220060505Y-172341873D01*
X219956224Y-172219776D01*
X219810347Y-172095185D01*
X219764656Y-172056161D01*
X219764653Y-172056160D01*
X219549858Y-171924533D01*
X219549857Y-171924532D01*
X219523045Y-171913426D01*
X219468642Y-171869584D01*
X219446579Y-171803289D01*
X219446500Y-171798866D01*
X219446500Y-170815000D01*
X223565551Y-170815000D01*
X223585317Y-171066151D01*
X223644126Y-171311110D01*
X223740533Y-171543859D01*
X223872160Y-171758653D01*
X223872161Y-171758656D01*
X223917620Y-171811881D01*
X224035776Y-171950224D01*
X224140429Y-172039606D01*
X224227343Y-172113838D01*
X224227346Y-172113839D01*
X224442140Y-172245466D01*
X224674889Y-172341873D01*
X224919852Y-172400683D01*
X225171000Y-172420449D01*
X225422148Y-172400683D01*
X225667111Y-172341873D01*
X225899859Y-172245466D01*
X226114659Y-172113836D01*
X226124758Y-172105211D01*
X226188519Y-172076640D01*
X226205291Y-172075500D01*
X230710850Y-172075500D01*
X230777889Y-172095185D01*
X230823644Y-172147989D01*
X230824405Y-172149689D01*
X230831824Y-172166603D01*
X230967833Y-172374782D01*
X230967836Y-172374785D01*
X231136256Y-172557738D01*
X231332491Y-172710474D01*
X231551190Y-172828828D01*
X231786386Y-172909571D01*
X232031665Y-172950500D01*
X232280335Y-172950500D01*
X232525614Y-172909571D01*
X232760810Y-172828828D01*
X232979509Y-172710474D01*
X233175744Y-172557738D01*
X233344164Y-172374785D01*
X233480173Y-172166607D01*
X233580063Y-171938881D01*
X233641108Y-171697821D01*
X233641109Y-171697812D01*
X233661643Y-171450005D01*
X233661643Y-171449994D01*
X233641109Y-171202187D01*
X233641107Y-171202175D01*
X233580063Y-170961118D01*
X233480173Y-170733393D01*
X233344166Y-170525217D01*
X233322557Y-170501744D01*
X233175744Y-170342262D01*
X232979509Y-170189526D01*
X232979507Y-170189525D01*
X232979506Y-170189524D01*
X232760811Y-170071172D01*
X232760802Y-170071169D01*
X232525616Y-169990429D01*
X232280335Y-169949500D01*
X232031665Y-169949500D01*
X231786383Y-169990429D01*
X231551197Y-170071169D01*
X231551188Y-170071172D01*
X231332493Y-170189524D01*
X231136257Y-170342261D01*
X230967833Y-170525217D01*
X230831824Y-170733396D01*
X230824405Y-170750311D01*
X230779449Y-170803797D01*
X230712713Y-170824486D01*
X230710850Y-170824500D01*
X226891821Y-170824500D01*
X226824782Y-170804815D01*
X226779027Y-170752011D01*
X226768203Y-170710229D01*
X226761496Y-170625011D01*
X226756683Y-170563852D01*
X226697873Y-170318889D01*
X226601466Y-170086140D01*
X226469839Y-169871346D01*
X226469838Y-169871343D01*
X226428122Y-169822500D01*
X226306224Y-169679776D01*
X226179571Y-169571604D01*
X226114656Y-169516161D01*
X226114653Y-169516160D01*
X225899859Y-169384533D01*
X225667110Y-169288126D01*
X225422151Y-169229317D01*
X225171000Y-169209551D01*
X224919848Y-169229317D01*
X224674889Y-169288126D01*
X224442140Y-169384533D01*
X224227346Y-169516160D01*
X224227343Y-169516161D01*
X224035776Y-169679776D01*
X223872161Y-169871343D01*
X223872160Y-169871346D01*
X223740533Y-170086140D01*
X223644126Y-170318889D01*
X223585317Y-170563848D01*
X223565551Y-170815000D01*
X219446500Y-170815000D01*
X219446500Y-167417870D01*
X230655500Y-167417870D01*
X230655501Y-167417876D01*
X230661908Y-167477483D01*
X230712202Y-167612328D01*
X230712206Y-167612335D01*
X230798452Y-167727544D01*
X230798455Y-167727547D01*
X230913664Y-167813793D01*
X230913671Y-167813797D01*
X231048517Y-167864091D01*
X231048516Y-167864091D01*
X231055444Y-167864835D01*
X231108127Y-167870500D01*
X233203872Y-167870499D01*
X233263483Y-167864091D01*
X233398331Y-167813796D01*
X233513546Y-167727546D01*
X233599796Y-167612331D01*
X233650091Y-167477483D01*
X233656500Y-167417873D01*
X233656499Y-165322128D01*
X233650091Y-165262517D01*
X233599796Y-165127669D01*
X233599795Y-165127668D01*
X233599793Y-165127664D01*
X233513547Y-165012455D01*
X233513544Y-165012452D01*
X233398335Y-164926206D01*
X233398328Y-164926202D01*
X233263482Y-164875908D01*
X233263483Y-164875908D01*
X233203883Y-164869501D01*
X233203881Y-164869500D01*
X233203873Y-164869500D01*
X233203864Y-164869500D01*
X231108129Y-164869500D01*
X231108123Y-164869501D01*
X231048516Y-164875908D01*
X230913671Y-164926202D01*
X230913664Y-164926206D01*
X230798455Y-165012452D01*
X230798452Y-165012455D01*
X230712206Y-165127664D01*
X230712202Y-165127671D01*
X230661908Y-165262517D01*
X230655501Y-165322116D01*
X230655501Y-165322123D01*
X230655500Y-165322135D01*
X230655500Y-167417870D01*
X219446500Y-167417870D01*
X219446500Y-156920373D01*
X220376723Y-156920373D01*
X220406881Y-157220160D01*
X220406882Y-157220162D01*
X220476728Y-157513252D01*
X220476733Y-157513266D01*
X220585020Y-157794427D01*
X220585024Y-157794436D01*
X220729825Y-158058665D01*
X220729829Y-158058671D01*
X220908551Y-158301234D01*
X220908554Y-158301238D01*
X220908561Y-158301245D01*
X221118019Y-158517823D01*
X221354478Y-158704553D01*
X221354480Y-158704554D01*
X221354485Y-158704558D01*
X221613730Y-158858109D01*
X221891128Y-158975736D01*
X222181729Y-159055340D01*
X222480347Y-159095500D01*
X222480351Y-159095500D01*
X222706252Y-159095500D01*
X222870164Y-159084526D01*
X222931634Y-159080412D01*
X223226903Y-159020396D01*
X223511537Y-158921560D01*
X223780459Y-158785668D01*
X224028869Y-158615144D01*
X224252333Y-158413032D01*
X224446865Y-158182939D01*
X224608993Y-157928970D01*
X224735823Y-157655658D01*
X224825093Y-157367879D01*
X224875209Y-157070770D01*
X224884516Y-156792401D01*
X226606746Y-156792401D01*
X226616745Y-157002327D01*
X226666296Y-157206578D01*
X226666298Y-157206582D01*
X226753598Y-157397743D01*
X226753601Y-157397748D01*
X226753602Y-157397750D01*
X226753604Y-157397753D01*
X226875514Y-157568952D01*
X226875515Y-157568953D01*
X226875520Y-157568959D01*
X227027620Y-157713985D01*
X227122578Y-157775011D01*
X227204428Y-157827613D01*
X227399543Y-157905725D01*
X227441186Y-157913751D01*
X227605914Y-157945500D01*
X227605915Y-157945500D01*
X227763419Y-157945500D01*
X227763425Y-157945500D01*
X227920218Y-157930528D01*
X228121875Y-157871316D01*
X228308682Y-157775011D01*
X228473886Y-157645092D01*
X228611519Y-157486256D01*
X228716604Y-157304244D01*
X228785344Y-157105633D01*
X228815254Y-156897602D01*
X228805254Y-156687670D01*
X228755704Y-156483424D01*
X228749500Y-156469839D01*
X228668401Y-156292256D01*
X228668398Y-156292251D01*
X228668397Y-156292250D01*
X228668396Y-156292247D01*
X228546486Y-156121048D01*
X228546484Y-156121046D01*
X228546479Y-156121040D01*
X228394379Y-155976014D01*
X228217574Y-155862388D01*
X228022455Y-155784274D01*
X227816086Y-155744500D01*
X227816085Y-155744500D01*
X227658575Y-155744500D01*
X227501782Y-155759472D01*
X227501778Y-155759473D01*
X227300127Y-155818683D01*
X227113313Y-155914991D01*
X226948116Y-156044905D01*
X226948112Y-156044909D01*
X226810478Y-156203746D01*
X226705398Y-156385750D01*
X226636656Y-156584365D01*
X226636656Y-156584367D01*
X226610020Y-156769631D01*
X226606746Y-156792401D01*
X224884516Y-156792401D01*
X224885277Y-156769631D01*
X224855118Y-156469838D01*
X224785269Y-156176739D01*
X224676977Y-155895566D01*
X224532175Y-155631335D01*
X224353446Y-155388762D01*
X224143980Y-155172176D01*
X224020742Y-155074856D01*
X223907521Y-154985446D01*
X223907517Y-154985443D01*
X223907515Y-154985442D01*
X223648270Y-154831891D01*
X223370872Y-154714264D01*
X223370863Y-154714261D01*
X223080272Y-154634660D01*
X223005616Y-154624620D01*
X222781653Y-154594500D01*
X222555756Y-154594500D01*
X222555748Y-154594500D01*
X222330368Y-154609587D01*
X222330359Y-154609589D01*
X222035094Y-154669604D01*
X221750464Y-154768439D01*
X221750459Y-154768441D01*
X221481546Y-154904328D01*
X221233125Y-155074860D01*
X221009665Y-155276969D01*
X220815132Y-155507064D01*
X220653006Y-155761030D01*
X220653005Y-155761032D01*
X220553244Y-155976014D01*
X220526177Y-156034342D01*
X220522899Y-156044909D01*
X220436907Y-156322118D01*
X220392672Y-156584365D01*
X220386791Y-156619230D01*
X220381002Y-156792398D01*
X220376723Y-156920373D01*
X219446500Y-156920373D01*
X219446500Y-155861132D01*
X219466185Y-155794093D01*
X219518989Y-155748338D01*
X219523027Y-155746579D01*
X219549859Y-155735466D01*
X219764659Y-155603836D01*
X219956224Y-155440224D01*
X220119836Y-155248659D01*
X220251466Y-155033859D01*
X220347873Y-154801111D01*
X220406683Y-154556148D01*
X220426449Y-154305000D01*
X220406683Y-154053852D01*
X220347873Y-153808889D01*
X220251466Y-153576140D01*
X220119839Y-153361346D01*
X220119838Y-153361343D01*
X220060505Y-153291873D01*
X219956224Y-153169776D01*
X219829571Y-153061604D01*
X219764656Y-153006161D01*
X219764653Y-153006160D01*
X219549858Y-152874533D01*
X219549857Y-152874532D01*
X219523045Y-152863426D01*
X219468642Y-152819584D01*
X219446579Y-152753289D01*
X219446500Y-152748866D01*
X219446500Y-151765000D01*
X223565551Y-151765000D01*
X223585317Y-152016151D01*
X223644126Y-152261110D01*
X223740533Y-152493859D01*
X223872160Y-152708653D01*
X223872161Y-152708656D01*
X223917620Y-152761881D01*
X224035776Y-152900224D01*
X224140429Y-152989606D01*
X224227343Y-153063838D01*
X224227346Y-153063839D01*
X224442140Y-153195466D01*
X224674889Y-153291873D01*
X224919852Y-153350683D01*
X225171000Y-153370449D01*
X225422148Y-153350683D01*
X225667111Y-153291873D01*
X225899859Y-153195466D01*
X226114659Y-153063836D01*
X226306224Y-152900224D01*
X226469836Y-152708659D01*
X226601466Y-152493859D01*
X226692946Y-152273005D01*
X230650357Y-152273005D01*
X230670890Y-152520812D01*
X230670892Y-152520824D01*
X230731936Y-152761881D01*
X230831826Y-152989606D01*
X230967833Y-153197782D01*
X230967836Y-153197785D01*
X231136256Y-153380738D01*
X231332491Y-153533474D01*
X231551190Y-153651828D01*
X231786386Y-153732571D01*
X232031665Y-153773500D01*
X232280335Y-153773500D01*
X232525614Y-153732571D01*
X232760810Y-153651828D01*
X232979509Y-153533474D01*
X233175744Y-153380738D01*
X233344164Y-153197785D01*
X233480173Y-152989607D01*
X233580063Y-152761881D01*
X233641108Y-152520821D01*
X233641109Y-152520812D01*
X233661643Y-152273005D01*
X233661643Y-152272994D01*
X233641109Y-152025187D01*
X233641107Y-152025175D01*
X233580063Y-151784118D01*
X233480173Y-151556393D01*
X233344166Y-151348217D01*
X233271139Y-151268889D01*
X233175744Y-151165262D01*
X232979509Y-151012526D01*
X232979507Y-151012525D01*
X232979506Y-151012524D01*
X232760811Y-150894172D01*
X232760802Y-150894169D01*
X232525616Y-150813429D01*
X232280335Y-150772500D01*
X232031665Y-150772500D01*
X231786383Y-150813429D01*
X231551197Y-150894169D01*
X231551188Y-150894172D01*
X231332493Y-151012524D01*
X231136257Y-151165261D01*
X230967833Y-151348217D01*
X230831826Y-151556393D01*
X230731936Y-151784118D01*
X230670892Y-152025175D01*
X230670890Y-152025187D01*
X230650357Y-152272994D01*
X230650357Y-152273005D01*
X226692946Y-152273005D01*
X226697873Y-152261111D01*
X226756683Y-152016148D01*
X226776449Y-151765000D01*
X226756683Y-151513852D01*
X226697873Y-151268889D01*
X226601466Y-151036140D01*
X226469839Y-150821346D01*
X226469838Y-150821343D01*
X226428122Y-150772500D01*
X226306224Y-150629776D01*
X226179571Y-150521604D01*
X226114656Y-150466161D01*
X226114653Y-150466160D01*
X225899859Y-150334533D01*
X225667110Y-150238126D01*
X225422151Y-150179317D01*
X225171000Y-150159551D01*
X224919848Y-150179317D01*
X224674889Y-150238126D01*
X224442140Y-150334533D01*
X224227346Y-150466160D01*
X224227343Y-150466161D01*
X224035776Y-150629776D01*
X223872161Y-150821343D01*
X223872160Y-150821346D01*
X223740533Y-151036140D01*
X223644126Y-151268889D01*
X223585317Y-151513848D01*
X223565551Y-151765000D01*
X219446500Y-151765000D01*
X219446500Y-148240870D01*
X230655500Y-148240870D01*
X230655501Y-148240876D01*
X230661908Y-148300483D01*
X230712202Y-148435328D01*
X230712206Y-148435335D01*
X230798452Y-148550544D01*
X230798455Y-148550547D01*
X230913664Y-148636793D01*
X230913671Y-148636797D01*
X231048517Y-148687091D01*
X231048516Y-148687091D01*
X231055444Y-148687835D01*
X231108127Y-148693500D01*
X233203872Y-148693499D01*
X233263483Y-148687091D01*
X233398331Y-148636796D01*
X233513546Y-148550546D01*
X233599796Y-148435331D01*
X233650091Y-148300483D01*
X233656500Y-148240873D01*
X233656499Y-146145128D01*
X233650091Y-146085517D01*
X233599796Y-145950669D01*
X233599795Y-145950668D01*
X233599793Y-145950664D01*
X233513547Y-145835455D01*
X233513544Y-145835452D01*
X233398335Y-145749206D01*
X233398328Y-145749202D01*
X233263482Y-145698908D01*
X233263483Y-145698908D01*
X233203883Y-145692501D01*
X233203881Y-145692500D01*
X233203873Y-145692500D01*
X233203864Y-145692500D01*
X231108129Y-145692500D01*
X231108123Y-145692501D01*
X231048516Y-145698908D01*
X230913671Y-145749202D01*
X230913664Y-145749206D01*
X230798455Y-145835452D01*
X230798452Y-145835455D01*
X230712206Y-145950664D01*
X230712202Y-145950671D01*
X230661908Y-146085517D01*
X230655501Y-146145116D01*
X230655501Y-146145123D01*
X230655500Y-146145135D01*
X230655500Y-148240870D01*
X219446500Y-148240870D01*
X219446500Y-136811132D01*
X219466185Y-136744093D01*
X219518989Y-136698338D01*
X219523027Y-136696579D01*
X219549859Y-136685466D01*
X219764659Y-136553836D01*
X219956224Y-136390224D01*
X220119836Y-136198659D01*
X220251466Y-135983859D01*
X220262572Y-135957048D01*
X220311816Y-135838161D01*
X220355656Y-135783757D01*
X220421951Y-135761692D01*
X220489650Y-135778971D01*
X220502366Y-135787625D01*
X220515319Y-135797673D01*
X220533469Y-135805527D01*
X220558088Y-135816182D01*
X220563332Y-135818750D01*
X220604163Y-135841197D01*
X220616778Y-135844435D01*
X220623560Y-135846177D01*
X220641974Y-135852481D01*
X220660359Y-135860438D01*
X220706412Y-135867732D01*
X220712081Y-135868906D01*
X220757236Y-135880500D01*
X220777271Y-135880500D01*
X220796668Y-135882026D01*
X220816451Y-135885160D01*
X220862839Y-135880775D01*
X220868677Y-135880500D01*
X221070779Y-135880500D01*
X221137818Y-135900185D01*
X221183573Y-135952989D01*
X221193517Y-136022147D01*
X221164492Y-136085703D01*
X221153957Y-136096465D01*
X221009665Y-136226969D01*
X220815132Y-136457064D01*
X220653006Y-136711030D01*
X220653005Y-136711032D01*
X220553244Y-136926014D01*
X220526177Y-136984342D01*
X220522899Y-136994909D01*
X220436907Y-137272118D01*
X220392672Y-137534365D01*
X220386791Y-137569230D01*
X220381002Y-137742398D01*
X220376723Y-137870373D01*
X220406881Y-138170160D01*
X220406882Y-138170162D01*
X220476728Y-138463252D01*
X220476733Y-138463266D01*
X220585020Y-138744427D01*
X220585024Y-138744436D01*
X220729825Y-139008665D01*
X220729829Y-139008671D01*
X220908551Y-139251234D01*
X220908554Y-139251238D01*
X220908561Y-139251245D01*
X221118019Y-139467823D01*
X221354478Y-139654553D01*
X221354480Y-139654554D01*
X221354485Y-139654558D01*
X221613730Y-139808109D01*
X221891128Y-139925736D01*
X222181729Y-140005340D01*
X222480347Y-140045500D01*
X222480351Y-140045500D01*
X222706252Y-140045500D01*
X222870164Y-140034526D01*
X222931634Y-140030412D01*
X223226903Y-139970396D01*
X223511537Y-139871560D01*
X223780459Y-139735668D01*
X224028869Y-139565144D01*
X224252333Y-139363032D01*
X224446865Y-139132939D01*
X224608993Y-138878970D01*
X224735823Y-138605658D01*
X224825093Y-138317879D01*
X224875209Y-138020770D01*
X224884516Y-137742401D01*
X226606746Y-137742401D01*
X226616745Y-137952327D01*
X226666296Y-138156578D01*
X226666298Y-138156582D01*
X226753598Y-138347743D01*
X226753601Y-138347748D01*
X226753602Y-138347750D01*
X226753604Y-138347753D01*
X226875514Y-138518952D01*
X226875515Y-138518953D01*
X226875520Y-138518959D01*
X227027620Y-138663985D01*
X227122578Y-138725011D01*
X227204428Y-138777613D01*
X227399543Y-138855725D01*
X227441186Y-138863751D01*
X227605914Y-138895500D01*
X227605915Y-138895500D01*
X227763419Y-138895500D01*
X227763425Y-138895500D01*
X227920218Y-138880528D01*
X228121875Y-138821316D01*
X228308682Y-138725011D01*
X228473886Y-138595092D01*
X228611519Y-138436256D01*
X228716604Y-138254244D01*
X228785344Y-138055633D01*
X228815254Y-137847602D01*
X228805254Y-137637670D01*
X228755704Y-137433424D01*
X228749500Y-137419839D01*
X228668401Y-137242256D01*
X228668398Y-137242251D01*
X228668397Y-137242250D01*
X228668396Y-137242247D01*
X228546486Y-137071048D01*
X228546484Y-137071046D01*
X228546479Y-137071040D01*
X228394379Y-136926014D01*
X228217574Y-136812388D01*
X228022455Y-136734274D01*
X227816086Y-136694500D01*
X227816085Y-136694500D01*
X227658575Y-136694500D01*
X227501782Y-136709472D01*
X227501778Y-136709473D01*
X227300127Y-136768683D01*
X227113313Y-136864991D01*
X226948116Y-136994905D01*
X226948112Y-136994909D01*
X226810478Y-137153746D01*
X226705398Y-137335750D01*
X226636656Y-137534365D01*
X226636656Y-137534367D01*
X226610020Y-137719631D01*
X226606746Y-137742401D01*
X224884516Y-137742401D01*
X224885277Y-137719631D01*
X224855118Y-137419838D01*
X224785269Y-137126739D01*
X224676977Y-136845566D01*
X224532175Y-136581335D01*
X224353446Y-136338762D01*
X224143980Y-136122176D01*
X224118196Y-136101814D01*
X224077783Y-136044820D01*
X224074600Y-135975023D01*
X224109657Y-135914584D01*
X224171824Y-135882694D01*
X224195045Y-135880500D01*
X236314867Y-135880500D01*
X236381906Y-135900185D01*
X236427661Y-135952989D01*
X236429428Y-135957048D01*
X236440532Y-135983856D01*
X236440533Y-135983858D01*
X236572160Y-136198653D01*
X236572161Y-136198656D01*
X236572164Y-136198659D01*
X236735776Y-136390224D01*
X236847526Y-136485668D01*
X236885719Y-136544174D01*
X236886218Y-136614041D01*
X236848864Y-136673088D01*
X236785517Y-136702566D01*
X236743527Y-136701716D01*
X236706086Y-136694500D01*
X236706085Y-136694500D01*
X236548575Y-136694500D01*
X236391782Y-136709472D01*
X236391778Y-136709473D01*
X236190127Y-136768683D01*
X236003313Y-136864991D01*
X235838116Y-136994905D01*
X235838112Y-136994909D01*
X235700478Y-137153746D01*
X235595398Y-137335750D01*
X235526656Y-137534365D01*
X235526656Y-137534367D01*
X235500020Y-137719631D01*
X235496746Y-137742401D01*
X235506745Y-137952327D01*
X235556296Y-138156578D01*
X235556298Y-138156582D01*
X235643598Y-138347743D01*
X235643601Y-138347748D01*
X235643602Y-138347750D01*
X235643604Y-138347753D01*
X235765514Y-138518952D01*
X235765515Y-138518953D01*
X235765520Y-138518959D01*
X235917620Y-138663985D01*
X236012578Y-138725011D01*
X236094428Y-138777613D01*
X236289543Y-138855725D01*
X236331186Y-138863751D01*
X236495914Y-138895500D01*
X236495915Y-138895500D01*
X236653419Y-138895500D01*
X236653425Y-138895500D01*
X236810218Y-138880528D01*
X237011875Y-138821316D01*
X237064681Y-138794092D01*
X237133286Y-138780869D01*
X237198151Y-138806837D01*
X237238680Y-138863751D01*
X237245500Y-138904308D01*
X237245500Y-152748866D01*
X237225815Y-152815905D01*
X237173011Y-152861660D01*
X237168955Y-152863426D01*
X237142142Y-152874532D01*
X237142141Y-152874533D01*
X236927346Y-153006160D01*
X236927343Y-153006161D01*
X236735776Y-153169776D01*
X236572161Y-153361343D01*
X236572160Y-153361346D01*
X236440533Y-153576140D01*
X236344126Y-153808889D01*
X236285317Y-154053848D01*
X236265551Y-154305000D01*
X236285317Y-154556151D01*
X236344126Y-154801110D01*
X236440533Y-155033859D01*
X236572160Y-155248653D01*
X236572161Y-155248656D01*
X236572164Y-155248659D01*
X236735776Y-155440224D01*
X236847526Y-155535668D01*
X236885719Y-155594174D01*
X236886218Y-155664041D01*
X236848864Y-155723088D01*
X236785517Y-155752566D01*
X236743527Y-155751716D01*
X236706086Y-155744500D01*
X236706085Y-155744500D01*
X236548575Y-155744500D01*
X236391782Y-155759472D01*
X236391778Y-155759473D01*
X236190127Y-155818683D01*
X236003313Y-155914991D01*
X235838116Y-156044905D01*
X235838112Y-156044909D01*
X235700478Y-156203746D01*
X235595398Y-156385750D01*
X235526656Y-156584365D01*
X235526656Y-156584367D01*
X235500020Y-156769631D01*
X235496746Y-156792401D01*
X235506745Y-157002327D01*
X235556296Y-157206578D01*
X235556298Y-157206582D01*
X235643598Y-157397743D01*
X235643601Y-157397748D01*
X235643602Y-157397750D01*
X235643604Y-157397753D01*
X235765514Y-157568952D01*
X235765515Y-157568953D01*
X235765520Y-157568959D01*
X235917620Y-157713985D01*
X236012578Y-157775011D01*
X236094428Y-157827613D01*
X236289543Y-157905725D01*
X236331186Y-157913751D01*
X236495914Y-157945500D01*
X236495915Y-157945500D01*
X236653419Y-157945500D01*
X236653425Y-157945500D01*
X236810218Y-157930528D01*
X237011875Y-157871316D01*
X237064681Y-157844092D01*
X237133286Y-157830869D01*
X237198151Y-157856837D01*
X237238680Y-157913751D01*
X237245500Y-157954308D01*
X237245500Y-171798866D01*
X237225815Y-171865905D01*
X237173011Y-171911660D01*
X237168955Y-171913426D01*
X237142142Y-171924532D01*
X237142141Y-171924533D01*
X236927346Y-172056160D01*
X236927343Y-172056161D01*
X236735776Y-172219776D01*
X236572161Y-172411343D01*
X236572160Y-172411346D01*
X236440533Y-172626140D01*
X236344126Y-172858889D01*
X236285317Y-173103848D01*
X236265551Y-173355000D01*
X236285317Y-173606151D01*
X236344126Y-173851110D01*
X236440533Y-174083859D01*
X236572160Y-174298653D01*
X236572161Y-174298656D01*
X236572164Y-174298659D01*
X236735776Y-174490224D01*
X236847526Y-174585668D01*
X236885719Y-174644174D01*
X236886218Y-174714041D01*
X236848864Y-174773088D01*
X236785517Y-174802566D01*
X236743527Y-174801716D01*
X236706086Y-174794500D01*
X236706085Y-174794500D01*
X236548575Y-174794500D01*
X236391782Y-174809472D01*
X236391778Y-174809473D01*
X236190127Y-174868683D01*
X236003313Y-174964991D01*
X235838116Y-175094905D01*
X235838112Y-175094909D01*
X235700478Y-175253746D01*
X235595398Y-175435750D01*
X235526656Y-175634365D01*
X235526656Y-175634367D01*
X235500020Y-175819631D01*
X235496746Y-175842401D01*
X235506745Y-176052327D01*
X235556296Y-176256578D01*
X235556298Y-176256582D01*
X235643598Y-176447743D01*
X235643601Y-176447748D01*
X235643602Y-176447750D01*
X235643604Y-176447753D01*
X235765514Y-176618952D01*
X235765515Y-176618953D01*
X235765520Y-176618959D01*
X235917620Y-176763985D01*
X236012578Y-176825011D01*
X236094428Y-176877613D01*
X236289543Y-176955725D01*
X236392729Y-176975612D01*
X236495914Y-176995500D01*
X236495915Y-176995500D01*
X236653419Y-176995500D01*
X236653425Y-176995500D01*
X236810218Y-176980528D01*
X237011875Y-176921316D01*
X237198682Y-176825011D01*
X237363886Y-176695092D01*
X237501519Y-176536256D01*
X237606604Y-176354244D01*
X237675344Y-176155633D01*
X237701980Y-175970373D01*
X239426723Y-175970373D01*
X239456881Y-176270160D01*
X239456882Y-176270162D01*
X239526728Y-176563252D01*
X239526733Y-176563266D01*
X239635020Y-176844427D01*
X239635024Y-176844436D01*
X239779825Y-177108665D01*
X239779829Y-177108671D01*
X239958551Y-177351234D01*
X239958554Y-177351238D01*
X239958561Y-177351245D01*
X240168019Y-177567823D01*
X240404478Y-177754553D01*
X240404480Y-177754554D01*
X240404485Y-177754558D01*
X240663730Y-177908109D01*
X240941128Y-178025736D01*
X241231729Y-178105340D01*
X241530347Y-178145500D01*
X241530351Y-178145500D01*
X241756252Y-178145500D01*
X241920164Y-178134526D01*
X241981634Y-178130412D01*
X242276903Y-178070396D01*
X242561537Y-177971560D01*
X242830459Y-177835668D01*
X243078869Y-177665144D01*
X243302333Y-177463032D01*
X243496865Y-177232939D01*
X243658993Y-176978970D01*
X243785823Y-176705658D01*
X243875093Y-176417879D01*
X243925209Y-176120770D01*
X243934516Y-175842401D01*
X245656746Y-175842401D01*
X245666745Y-176052327D01*
X245716296Y-176256578D01*
X245716298Y-176256582D01*
X245803598Y-176447743D01*
X245803601Y-176447748D01*
X245803602Y-176447750D01*
X245803604Y-176447753D01*
X245925514Y-176618952D01*
X245925515Y-176618953D01*
X245925520Y-176618959D01*
X246077620Y-176763985D01*
X246172578Y-176825011D01*
X246254428Y-176877613D01*
X246449543Y-176955725D01*
X246552729Y-176975612D01*
X246655914Y-176995500D01*
X246655915Y-176995500D01*
X246813419Y-176995500D01*
X246813425Y-176995500D01*
X246970218Y-176980528D01*
X247171875Y-176921316D01*
X247358682Y-176825011D01*
X247523886Y-176695092D01*
X247661519Y-176536256D01*
X247766604Y-176354244D01*
X247835344Y-176155633D01*
X247865254Y-175947602D01*
X247855254Y-175737670D01*
X247805704Y-175533424D01*
X247799500Y-175519839D01*
X247718401Y-175342256D01*
X247718398Y-175342251D01*
X247718397Y-175342250D01*
X247718396Y-175342247D01*
X247596486Y-175171048D01*
X247596484Y-175171046D01*
X247596479Y-175171040D01*
X247444379Y-175026014D01*
X247267574Y-174912388D01*
X247072455Y-174834274D01*
X246866086Y-174794500D01*
X246866085Y-174794500D01*
X246708575Y-174794500D01*
X246551782Y-174809472D01*
X246551778Y-174809473D01*
X246350127Y-174868683D01*
X246163313Y-174964991D01*
X245998116Y-175094905D01*
X245998112Y-175094909D01*
X245860478Y-175253746D01*
X245755398Y-175435750D01*
X245686656Y-175634365D01*
X245686656Y-175634367D01*
X245660020Y-175819631D01*
X245656746Y-175842401D01*
X243934516Y-175842401D01*
X243935277Y-175819631D01*
X243905118Y-175519838D01*
X243835269Y-175226739D01*
X243726977Y-174945566D01*
X243582175Y-174681335D01*
X243403446Y-174438762D01*
X243193980Y-174222176D01*
X243070742Y-174124856D01*
X242957521Y-174035446D01*
X242957517Y-174035443D01*
X242957515Y-174035442D01*
X242698270Y-173881891D01*
X242420872Y-173764264D01*
X242420863Y-173764261D01*
X242130272Y-173684660D01*
X242055616Y-173674620D01*
X241831653Y-173644500D01*
X241605756Y-173644500D01*
X241605748Y-173644500D01*
X241380368Y-173659587D01*
X241380359Y-173659589D01*
X241085094Y-173719604D01*
X240800464Y-173818439D01*
X240800459Y-173818441D01*
X240531546Y-173954328D01*
X240283125Y-174124860D01*
X240059665Y-174326969D01*
X239865132Y-174557064D01*
X239703006Y-174811030D01*
X239703005Y-174811032D01*
X239619091Y-174991864D01*
X239576177Y-175084342D01*
X239572899Y-175094909D01*
X239486907Y-175372118D01*
X239442672Y-175634365D01*
X239436791Y-175669230D01*
X239431002Y-175842398D01*
X239426723Y-175970373D01*
X237701980Y-175970373D01*
X237705254Y-175947602D01*
X237695254Y-175737670D01*
X237645704Y-175533424D01*
X237639500Y-175519839D01*
X237558401Y-175342256D01*
X237558398Y-175342251D01*
X237558397Y-175342250D01*
X237558396Y-175342247D01*
X237436486Y-175171048D01*
X237385215Y-175122161D01*
X237350281Y-175061654D01*
X237353605Y-174991864D01*
X237394132Y-174934949D01*
X237458997Y-174908981D01*
X237499732Y-174911845D01*
X237619852Y-174940683D01*
X237871000Y-174960449D01*
X238122148Y-174940683D01*
X238367111Y-174881873D01*
X238599859Y-174785466D01*
X238814659Y-174653836D01*
X239006224Y-174490224D01*
X239169836Y-174298659D01*
X239301466Y-174083859D01*
X239397873Y-173851111D01*
X239456683Y-173606148D01*
X239476449Y-173355000D01*
X239456683Y-173103852D01*
X239397873Y-172858889D01*
X239385421Y-172828827D01*
X239301466Y-172626140D01*
X239169839Y-172411346D01*
X239169838Y-172411343D01*
X239110505Y-172341873D01*
X239006224Y-172219776D01*
X238860347Y-172095185D01*
X238814656Y-172056161D01*
X238814653Y-172056160D01*
X238599858Y-171924533D01*
X238599857Y-171924532D01*
X238573045Y-171913426D01*
X238518642Y-171869584D01*
X238496579Y-171803289D01*
X238496500Y-171798866D01*
X238496500Y-170815000D01*
X242615551Y-170815000D01*
X242635317Y-171066151D01*
X242694126Y-171311110D01*
X242790533Y-171543859D01*
X242922160Y-171758653D01*
X242922161Y-171758656D01*
X242967620Y-171811881D01*
X243085776Y-171950224D01*
X243190429Y-172039606D01*
X243277343Y-172113838D01*
X243277346Y-172113839D01*
X243492140Y-172245466D01*
X243724889Y-172341873D01*
X243969852Y-172400683D01*
X244221000Y-172420449D01*
X244472148Y-172400683D01*
X244717111Y-172341873D01*
X244949859Y-172245466D01*
X245164659Y-172113836D01*
X245323457Y-171978209D01*
X245387218Y-171949639D01*
X245403988Y-171948500D01*
X249760850Y-171948500D01*
X249827889Y-171968185D01*
X249873644Y-172020989D01*
X249874405Y-172022689D01*
X249881824Y-172039603D01*
X250017833Y-172247782D01*
X250017836Y-172247785D01*
X250186256Y-172430738D01*
X250382491Y-172583474D01*
X250601190Y-172701828D01*
X250836386Y-172782571D01*
X251081665Y-172823500D01*
X251330335Y-172823500D01*
X251575614Y-172782571D01*
X251810810Y-172701828D01*
X252029509Y-172583474D01*
X252225744Y-172430738D01*
X252394164Y-172247785D01*
X252530173Y-172039607D01*
X252630063Y-171811881D01*
X252691108Y-171570821D01*
X252701119Y-171450005D01*
X252711643Y-171323005D01*
X252711643Y-171322994D01*
X252691109Y-171075187D01*
X252691107Y-171075175D01*
X252630063Y-170834118D01*
X252530173Y-170606393D01*
X252394166Y-170398217D01*
X252372557Y-170374744D01*
X252225744Y-170215262D01*
X252029509Y-170062526D01*
X252029507Y-170062525D01*
X252029506Y-170062524D01*
X251810811Y-169944172D01*
X251810802Y-169944169D01*
X251575616Y-169863429D01*
X251330335Y-169822500D01*
X251081665Y-169822500D01*
X250836383Y-169863429D01*
X250601197Y-169944169D01*
X250601188Y-169944172D01*
X250382493Y-170062524D01*
X250186257Y-170215261D01*
X250017833Y-170398217D01*
X249881824Y-170606396D01*
X249874405Y-170623311D01*
X249829449Y-170676797D01*
X249762713Y-170697486D01*
X249760850Y-170697500D01*
X245931826Y-170697500D01*
X245864787Y-170677815D01*
X245819032Y-170625011D01*
X245808208Y-170583228D01*
X245806683Y-170563855D01*
X245806683Y-170563852D01*
X245747873Y-170318889D01*
X245651466Y-170086140D01*
X245519839Y-169871346D01*
X245519838Y-169871343D01*
X245478122Y-169822500D01*
X245356224Y-169679776D01*
X245229571Y-169571604D01*
X245164656Y-169516161D01*
X245164653Y-169516160D01*
X244949859Y-169384533D01*
X244717110Y-169288126D01*
X244472151Y-169229317D01*
X244221000Y-169209551D01*
X243969848Y-169229317D01*
X243724889Y-169288126D01*
X243492140Y-169384533D01*
X243277346Y-169516160D01*
X243277343Y-169516161D01*
X243085776Y-169679776D01*
X242922161Y-169871343D01*
X242922160Y-169871346D01*
X242790533Y-170086140D01*
X242694126Y-170318889D01*
X242635317Y-170563848D01*
X242615551Y-170815000D01*
X238496500Y-170815000D01*
X238496500Y-167290870D01*
X249705500Y-167290870D01*
X249705501Y-167290876D01*
X249711908Y-167350483D01*
X249762202Y-167485328D01*
X249762206Y-167485335D01*
X249848452Y-167600544D01*
X249848455Y-167600547D01*
X249963664Y-167686793D01*
X249963671Y-167686797D01*
X250098517Y-167737091D01*
X250098516Y-167737091D01*
X250105444Y-167737835D01*
X250158127Y-167743500D01*
X252253872Y-167743499D01*
X252313483Y-167737091D01*
X252448331Y-167686796D01*
X252563546Y-167600546D01*
X252649796Y-167485331D01*
X252700091Y-167350483D01*
X252706500Y-167290873D01*
X252706499Y-165195128D01*
X252700091Y-165135517D01*
X252649796Y-165000669D01*
X252649795Y-165000668D01*
X252649793Y-165000664D01*
X252563547Y-164885455D01*
X252563544Y-164885452D01*
X252448335Y-164799206D01*
X252448328Y-164799202D01*
X252313482Y-164748908D01*
X252313483Y-164748908D01*
X252253883Y-164742501D01*
X252253881Y-164742500D01*
X252253873Y-164742500D01*
X252253864Y-164742500D01*
X250158129Y-164742500D01*
X250158123Y-164742501D01*
X250098516Y-164748908D01*
X249963671Y-164799202D01*
X249963664Y-164799206D01*
X249848455Y-164885452D01*
X249848452Y-164885455D01*
X249762206Y-165000664D01*
X249762202Y-165000671D01*
X249711908Y-165135517D01*
X249705501Y-165195116D01*
X249705501Y-165195123D01*
X249705500Y-165195135D01*
X249705500Y-167290870D01*
X238496500Y-167290870D01*
X238496500Y-156920373D01*
X239426723Y-156920373D01*
X239456881Y-157220160D01*
X239456882Y-157220162D01*
X239526728Y-157513252D01*
X239526733Y-157513266D01*
X239635020Y-157794427D01*
X239635024Y-157794436D01*
X239779825Y-158058665D01*
X239779829Y-158058671D01*
X239958551Y-158301234D01*
X239958554Y-158301238D01*
X239958561Y-158301245D01*
X240168019Y-158517823D01*
X240404478Y-158704553D01*
X240404480Y-158704554D01*
X240404485Y-158704558D01*
X240663730Y-158858109D01*
X240941128Y-158975736D01*
X241231729Y-159055340D01*
X241530347Y-159095500D01*
X241530351Y-159095500D01*
X241756252Y-159095500D01*
X241920164Y-159084526D01*
X241981634Y-159080412D01*
X242276903Y-159020396D01*
X242561537Y-158921560D01*
X242830459Y-158785668D01*
X243078869Y-158615144D01*
X243302333Y-158413032D01*
X243496865Y-158182939D01*
X243658993Y-157928970D01*
X243785823Y-157655658D01*
X243875093Y-157367879D01*
X243925209Y-157070770D01*
X243934516Y-156792401D01*
X245656746Y-156792401D01*
X245666745Y-157002327D01*
X245716296Y-157206578D01*
X245716298Y-157206582D01*
X245803598Y-157397743D01*
X245803601Y-157397748D01*
X245803602Y-157397750D01*
X245803604Y-157397753D01*
X245925514Y-157568952D01*
X245925515Y-157568953D01*
X245925520Y-157568959D01*
X246077620Y-157713985D01*
X246172578Y-157775011D01*
X246254428Y-157827613D01*
X246449543Y-157905725D01*
X246491186Y-157913751D01*
X246655914Y-157945500D01*
X246655915Y-157945500D01*
X246813419Y-157945500D01*
X246813425Y-157945500D01*
X246970218Y-157930528D01*
X247171875Y-157871316D01*
X247358682Y-157775011D01*
X247523886Y-157645092D01*
X247661519Y-157486256D01*
X247766604Y-157304244D01*
X247835344Y-157105633D01*
X247865254Y-156897602D01*
X247855254Y-156687670D01*
X247805704Y-156483424D01*
X247799500Y-156469839D01*
X247718401Y-156292256D01*
X247718398Y-156292251D01*
X247718397Y-156292250D01*
X247718396Y-156292247D01*
X247596486Y-156121048D01*
X247596484Y-156121046D01*
X247596479Y-156121040D01*
X247444379Y-155976014D01*
X247267574Y-155862388D01*
X247072455Y-155784274D01*
X246866086Y-155744500D01*
X246866085Y-155744500D01*
X246708575Y-155744500D01*
X246551782Y-155759472D01*
X246551778Y-155759473D01*
X246350127Y-155818683D01*
X246163313Y-155914991D01*
X245998116Y-156044905D01*
X245998112Y-156044909D01*
X245860478Y-156203746D01*
X245755398Y-156385750D01*
X245686656Y-156584365D01*
X245686656Y-156584367D01*
X245660020Y-156769631D01*
X245656746Y-156792401D01*
X243934516Y-156792401D01*
X243935277Y-156769631D01*
X243905118Y-156469838D01*
X243835269Y-156176739D01*
X243726977Y-155895566D01*
X243582175Y-155631335D01*
X243403446Y-155388762D01*
X243193980Y-155172176D01*
X243070742Y-155074856D01*
X242957521Y-154985446D01*
X242957517Y-154985443D01*
X242957515Y-154985442D01*
X242698270Y-154831891D01*
X242420872Y-154714264D01*
X242420863Y-154714261D01*
X242130272Y-154634660D01*
X242055616Y-154624620D01*
X241831653Y-154594500D01*
X241605756Y-154594500D01*
X241605748Y-154594500D01*
X241380368Y-154609587D01*
X241380359Y-154609589D01*
X241085094Y-154669604D01*
X240800464Y-154768439D01*
X240800459Y-154768441D01*
X240531546Y-154904328D01*
X240283125Y-155074860D01*
X240059665Y-155276969D01*
X239865132Y-155507064D01*
X239703006Y-155761030D01*
X239703005Y-155761032D01*
X239603244Y-155976014D01*
X239576177Y-156034342D01*
X239572899Y-156044909D01*
X239486907Y-156322118D01*
X239442672Y-156584365D01*
X239436791Y-156619230D01*
X239431002Y-156792398D01*
X239426723Y-156920373D01*
X238496500Y-156920373D01*
X238496500Y-155861132D01*
X238516185Y-155794093D01*
X238568989Y-155748338D01*
X238573027Y-155746579D01*
X238599859Y-155735466D01*
X238814659Y-155603836D01*
X239006224Y-155440224D01*
X239169836Y-155248659D01*
X239301466Y-155033859D01*
X239397873Y-154801111D01*
X239456683Y-154556148D01*
X239476449Y-154305000D01*
X239456683Y-154053852D01*
X239397873Y-153808889D01*
X239301466Y-153576140D01*
X239169839Y-153361346D01*
X239169838Y-153361343D01*
X239110505Y-153291873D01*
X239006224Y-153169776D01*
X238879571Y-153061604D01*
X238814656Y-153006161D01*
X238814653Y-153006160D01*
X238599858Y-152874533D01*
X238599857Y-152874532D01*
X238573045Y-152863426D01*
X238518642Y-152819584D01*
X238496579Y-152753289D01*
X238496500Y-152748866D01*
X238496500Y-151765000D01*
X242615551Y-151765000D01*
X242635317Y-152016151D01*
X242694126Y-152261110D01*
X242790533Y-152493859D01*
X242922160Y-152708653D01*
X242922161Y-152708656D01*
X242967620Y-152761881D01*
X243085776Y-152900224D01*
X243190429Y-152989606D01*
X243277343Y-153063838D01*
X243277346Y-153063839D01*
X243492140Y-153195466D01*
X243724889Y-153291873D01*
X243969852Y-153350683D01*
X244221000Y-153370449D01*
X244472148Y-153350683D01*
X244717111Y-153291873D01*
X244949859Y-153195466D01*
X245164659Y-153063836D01*
X245356224Y-152900224D01*
X245519836Y-152708659D01*
X245651466Y-152493859D01*
X245742946Y-152273005D01*
X249700357Y-152273005D01*
X249720890Y-152520812D01*
X249720892Y-152520824D01*
X249781936Y-152761881D01*
X249881826Y-152989606D01*
X250017833Y-153197782D01*
X250017836Y-153197785D01*
X250186256Y-153380738D01*
X250382491Y-153533474D01*
X250601190Y-153651828D01*
X250836386Y-153732571D01*
X251081665Y-153773500D01*
X251330335Y-153773500D01*
X251575614Y-153732571D01*
X251810810Y-153651828D01*
X252029509Y-153533474D01*
X252225744Y-153380738D01*
X252394164Y-153197785D01*
X252530173Y-152989607D01*
X252630063Y-152761881D01*
X252691108Y-152520821D01*
X252691109Y-152520812D01*
X252711643Y-152273005D01*
X252711643Y-152272994D01*
X252691109Y-152025187D01*
X252691107Y-152025175D01*
X252630063Y-151784118D01*
X252530173Y-151556393D01*
X252394166Y-151348217D01*
X252321139Y-151268889D01*
X252225744Y-151165262D01*
X252029509Y-151012526D01*
X252029507Y-151012525D01*
X252029506Y-151012524D01*
X251810811Y-150894172D01*
X251810802Y-150894169D01*
X251575616Y-150813429D01*
X251330335Y-150772500D01*
X251081665Y-150772500D01*
X250836383Y-150813429D01*
X250601197Y-150894169D01*
X250601188Y-150894172D01*
X250382493Y-151012524D01*
X250186257Y-151165261D01*
X250017833Y-151348217D01*
X249881826Y-151556393D01*
X249781936Y-151784118D01*
X249720892Y-152025175D01*
X249720890Y-152025187D01*
X249700357Y-152272994D01*
X249700357Y-152273005D01*
X245742946Y-152273005D01*
X245747873Y-152261111D01*
X245806683Y-152016148D01*
X245826449Y-151765000D01*
X245806683Y-151513852D01*
X245747873Y-151268889D01*
X245651466Y-151036140D01*
X245519839Y-150821346D01*
X245519838Y-150821343D01*
X245478122Y-150772500D01*
X245356224Y-150629776D01*
X245229571Y-150521604D01*
X245164656Y-150466161D01*
X245164653Y-150466160D01*
X244949859Y-150334533D01*
X244717110Y-150238126D01*
X244472151Y-150179317D01*
X244221000Y-150159551D01*
X243969848Y-150179317D01*
X243724889Y-150238126D01*
X243492140Y-150334533D01*
X243277346Y-150466160D01*
X243277343Y-150466161D01*
X243085776Y-150629776D01*
X242922161Y-150821343D01*
X242922160Y-150821346D01*
X242790533Y-151036140D01*
X242694126Y-151268889D01*
X242635317Y-151513848D01*
X242615551Y-151765000D01*
X238496500Y-151765000D01*
X238496500Y-148240870D01*
X249705500Y-148240870D01*
X249705501Y-148240876D01*
X249711908Y-148300483D01*
X249762202Y-148435328D01*
X249762206Y-148435335D01*
X249848452Y-148550544D01*
X249848455Y-148550547D01*
X249963664Y-148636793D01*
X249963671Y-148636797D01*
X250098517Y-148687091D01*
X250098516Y-148687091D01*
X250105444Y-148687835D01*
X250158127Y-148693500D01*
X252253872Y-148693499D01*
X252313483Y-148687091D01*
X252448331Y-148636796D01*
X252563546Y-148550546D01*
X252649796Y-148435331D01*
X252700091Y-148300483D01*
X252706500Y-148240873D01*
X252706499Y-146145128D01*
X252700091Y-146085517D01*
X252649796Y-145950669D01*
X252649795Y-145950668D01*
X252649793Y-145950664D01*
X252563547Y-145835455D01*
X252563544Y-145835452D01*
X252448335Y-145749206D01*
X252448328Y-145749202D01*
X252313482Y-145698908D01*
X252313483Y-145698908D01*
X252253883Y-145692501D01*
X252253881Y-145692500D01*
X252253873Y-145692500D01*
X252253864Y-145692500D01*
X250158129Y-145692500D01*
X250158123Y-145692501D01*
X250098516Y-145698908D01*
X249963671Y-145749202D01*
X249963664Y-145749206D01*
X249848455Y-145835452D01*
X249848452Y-145835455D01*
X249762206Y-145950664D01*
X249762202Y-145950671D01*
X249711908Y-146085517D01*
X249705501Y-146145116D01*
X249705501Y-146145123D01*
X249705500Y-146145135D01*
X249705500Y-148240870D01*
X238496500Y-148240870D01*
X238496500Y-137870373D01*
X239426723Y-137870373D01*
X239456881Y-138170160D01*
X239456882Y-138170162D01*
X239526728Y-138463252D01*
X239526733Y-138463266D01*
X239635020Y-138744427D01*
X239635024Y-138744436D01*
X239779825Y-139008665D01*
X239779829Y-139008671D01*
X239958551Y-139251234D01*
X239958554Y-139251238D01*
X239958561Y-139251245D01*
X240168019Y-139467823D01*
X240404478Y-139654553D01*
X240404480Y-139654554D01*
X240404485Y-139654558D01*
X240663730Y-139808109D01*
X240941128Y-139925736D01*
X241231729Y-140005340D01*
X241530347Y-140045500D01*
X241530351Y-140045500D01*
X241756252Y-140045500D01*
X241920164Y-140034526D01*
X241981634Y-140030412D01*
X242276903Y-139970396D01*
X242561537Y-139871560D01*
X242830459Y-139735668D01*
X243078869Y-139565144D01*
X243302333Y-139363032D01*
X243496865Y-139132939D01*
X243658993Y-138878970D01*
X243785823Y-138605658D01*
X243875093Y-138317879D01*
X243925209Y-138020770D01*
X243934516Y-137742401D01*
X245656746Y-137742401D01*
X245666745Y-137952327D01*
X245716296Y-138156578D01*
X245716298Y-138156582D01*
X245803598Y-138347743D01*
X245803601Y-138347748D01*
X245803602Y-138347750D01*
X245803604Y-138347753D01*
X245925514Y-138518952D01*
X245925515Y-138518953D01*
X245925520Y-138518959D01*
X246077620Y-138663985D01*
X246172578Y-138725011D01*
X246254428Y-138777613D01*
X246449543Y-138855725D01*
X246491186Y-138863751D01*
X246655914Y-138895500D01*
X246655915Y-138895500D01*
X246813419Y-138895500D01*
X246813425Y-138895500D01*
X246970218Y-138880528D01*
X247171875Y-138821316D01*
X247358682Y-138725011D01*
X247523886Y-138595092D01*
X247661519Y-138436256D01*
X247766604Y-138254244D01*
X247835344Y-138055633D01*
X247865254Y-137847602D01*
X247855254Y-137637670D01*
X247805704Y-137433424D01*
X247799500Y-137419839D01*
X247718401Y-137242256D01*
X247718398Y-137242251D01*
X247718397Y-137242250D01*
X247718396Y-137242247D01*
X247596486Y-137071048D01*
X247596484Y-137071046D01*
X247596479Y-137071040D01*
X247444379Y-136926014D01*
X247267574Y-136812388D01*
X247072455Y-136734274D01*
X246866086Y-136694500D01*
X246866085Y-136694500D01*
X246708575Y-136694500D01*
X246551782Y-136709472D01*
X246551778Y-136709473D01*
X246350127Y-136768683D01*
X246163313Y-136864991D01*
X245998116Y-136994905D01*
X245998112Y-136994909D01*
X245860478Y-137153746D01*
X245755398Y-137335750D01*
X245686656Y-137534365D01*
X245686656Y-137534367D01*
X245660020Y-137719631D01*
X245656746Y-137742401D01*
X243934516Y-137742401D01*
X243935277Y-137719631D01*
X243905118Y-137419838D01*
X243835269Y-137126739D01*
X243726977Y-136845566D01*
X243582175Y-136581335D01*
X243403446Y-136338762D01*
X243193980Y-136122176D01*
X243070742Y-136024856D01*
X242957521Y-135935446D01*
X242957517Y-135935443D01*
X242957515Y-135935442D01*
X242698270Y-135781891D01*
X242420872Y-135664264D01*
X242420863Y-135664261D01*
X242130272Y-135584660D01*
X242055616Y-135574620D01*
X241831653Y-135544500D01*
X241605756Y-135544500D01*
X241605748Y-135544500D01*
X241380368Y-135559587D01*
X241380359Y-135559589D01*
X241085094Y-135619604D01*
X240800464Y-135718439D01*
X240800459Y-135718441D01*
X240531546Y-135854328D01*
X240283125Y-136024860D01*
X240059665Y-136226969D01*
X239865132Y-136457064D01*
X239703006Y-136711030D01*
X239703005Y-136711032D01*
X239603244Y-136926014D01*
X239576177Y-136984342D01*
X239572899Y-136994909D01*
X239486907Y-137272118D01*
X239442672Y-137534365D01*
X239436791Y-137569230D01*
X239431002Y-137742398D01*
X239426723Y-137870373D01*
X238496500Y-137870373D01*
X238496500Y-136811132D01*
X238516185Y-136744093D01*
X238568989Y-136698338D01*
X238573027Y-136696579D01*
X238599859Y-136685466D01*
X238814659Y-136553836D01*
X239006224Y-136390224D01*
X239169836Y-136198659D01*
X239301466Y-135983859D01*
X239397873Y-135751111D01*
X239456683Y-135506148D01*
X239476449Y-135255000D01*
X239456683Y-135003852D01*
X239397873Y-134758889D01*
X239356194Y-134658266D01*
X239301466Y-134526140D01*
X239169839Y-134311346D01*
X239169838Y-134311343D01*
X239028165Y-134145466D01*
X239006224Y-134119776D01*
X238879571Y-134011604D01*
X238814656Y-133956161D01*
X238814653Y-133956160D01*
X238599859Y-133824533D01*
X238367110Y-133728126D01*
X238122151Y-133669317D01*
X237871000Y-133649551D01*
X237619848Y-133669317D01*
X237374889Y-133728126D01*
X237142140Y-133824533D01*
X236927346Y-133956160D01*
X236927343Y-133956161D01*
X236735776Y-134119776D01*
X236572161Y-134311343D01*
X236572160Y-134311346D01*
X236440533Y-134526141D01*
X236440532Y-134526143D01*
X236429428Y-134552952D01*
X236385588Y-134607356D01*
X236319294Y-134629421D01*
X236314867Y-134629500D01*
X221146707Y-134629500D01*
X221079668Y-134609815D01*
X221059026Y-134593181D01*
X219180845Y-132715000D01*
X223565551Y-132715000D01*
X223585317Y-132966151D01*
X223644126Y-133211110D01*
X223740533Y-133443859D01*
X223872160Y-133658653D01*
X223872161Y-133658656D01*
X223918022Y-133712352D01*
X224035776Y-133850224D01*
X224159811Y-133956160D01*
X224227343Y-134013838D01*
X224227346Y-134013839D01*
X224442140Y-134145466D01*
X224674889Y-134241873D01*
X224919852Y-134300683D01*
X225171000Y-134320449D01*
X225422148Y-134300683D01*
X225667111Y-134241873D01*
X225899859Y-134145466D01*
X226114659Y-134013836D01*
X226306224Y-133850224D01*
X226469836Y-133658659D01*
X226601466Y-133443859D01*
X226612572Y-133417048D01*
X226656412Y-133362644D01*
X226722706Y-133340579D01*
X226727133Y-133340500D01*
X231301138Y-133340500D01*
X231360154Y-133355444D01*
X231551190Y-133458828D01*
X231786386Y-133539571D01*
X232031665Y-133580500D01*
X232280335Y-133580500D01*
X232525614Y-133539571D01*
X232760810Y-133458828D01*
X232979509Y-133340474D01*
X233175744Y-133187738D01*
X233344164Y-133004785D01*
X233480173Y-132796607D01*
X233580063Y-132568881D01*
X233641108Y-132327821D01*
X233641109Y-132327812D01*
X233661643Y-132080005D01*
X233661643Y-132079994D01*
X233641109Y-131832187D01*
X233641107Y-131832175D01*
X233580063Y-131591118D01*
X233480173Y-131363393D01*
X233344166Y-131155217D01*
X233302127Y-131109551D01*
X233175744Y-130972262D01*
X232979509Y-130819526D01*
X232979507Y-130819525D01*
X232979506Y-130819524D01*
X232760811Y-130701172D01*
X232760802Y-130701169D01*
X232525616Y-130620429D01*
X232280335Y-130579500D01*
X232031665Y-130579500D01*
X231786383Y-130620429D01*
X231551197Y-130701169D01*
X231551188Y-130701172D01*
X231332493Y-130819524D01*
X231136257Y-130972261D01*
X230967833Y-131155217D01*
X230831826Y-131363393D01*
X230731936Y-131591118D01*
X230670892Y-131832175D01*
X230670890Y-131832186D01*
X230658996Y-131975740D01*
X230633843Y-132040925D01*
X230577441Y-132082163D01*
X230535420Y-132089500D01*
X226727133Y-132089500D01*
X226660094Y-132069815D01*
X226614339Y-132017011D01*
X226612572Y-132012952D01*
X226601467Y-131986143D01*
X226601466Y-131986141D01*
X226469839Y-131771346D01*
X226469838Y-131771343D01*
X226432875Y-131728066D01*
X226306224Y-131579776D01*
X226179571Y-131471604D01*
X226114656Y-131416161D01*
X226114653Y-131416160D01*
X225899859Y-131284533D01*
X225667110Y-131188126D01*
X225422151Y-131129317D01*
X225171000Y-131109551D01*
X224919848Y-131129317D01*
X224674889Y-131188126D01*
X224442140Y-131284533D01*
X224227346Y-131416160D01*
X224227343Y-131416161D01*
X224035776Y-131579776D01*
X223872161Y-131771343D01*
X223872160Y-131771346D01*
X223740533Y-131986140D01*
X223644126Y-132218889D01*
X223585317Y-132463848D01*
X223565551Y-132715000D01*
X219180845Y-132715000D01*
X216443819Y-129977973D01*
X216410334Y-129916650D01*
X216407500Y-129890292D01*
X216407500Y-122598946D01*
X216427185Y-122531907D01*
X216479989Y-122486152D01*
X216531188Y-122474947D01*
X218054923Y-122471180D01*
X218122008Y-122490698D01*
X218142907Y-122507497D01*
X219692179Y-124056770D01*
X220987197Y-125351788D01*
X220997022Y-125364051D01*
X220997243Y-125363869D01*
X221002214Y-125369878D01*
X221028217Y-125394295D01*
X221052635Y-125417226D01*
X221073529Y-125438120D01*
X221079011Y-125442373D01*
X221083443Y-125446157D01*
X221117418Y-125478062D01*
X221134976Y-125487714D01*
X221151235Y-125498395D01*
X221167064Y-125510673D01*
X221209838Y-125529182D01*
X221215056Y-125531738D01*
X221255908Y-125554197D01*
X221275316Y-125559180D01*
X221293717Y-125565480D01*
X221312104Y-125573437D01*
X221355488Y-125580308D01*
X221358119Y-125580725D01*
X221363839Y-125581909D01*
X221408981Y-125593500D01*
X221429016Y-125593500D01*
X221448414Y-125595026D01*
X221468194Y-125598159D01*
X221468195Y-125598160D01*
X221468195Y-125598159D01*
X221468196Y-125598160D01*
X221514584Y-125593775D01*
X221520422Y-125593500D01*
X230594841Y-125593500D01*
X230661880Y-125613185D01*
X230707635Y-125665989D01*
X230717579Y-125735147D01*
X230711023Y-125760833D01*
X230661908Y-125892516D01*
X230655501Y-125952116D01*
X230655501Y-125952123D01*
X230655500Y-125952135D01*
X230655500Y-128047870D01*
X230655501Y-128047876D01*
X230661908Y-128107483D01*
X230712202Y-128242328D01*
X230712206Y-128242335D01*
X230798452Y-128357544D01*
X230798455Y-128357547D01*
X230913664Y-128443793D01*
X230913671Y-128443797D01*
X231048517Y-128494091D01*
X231048516Y-128494091D01*
X231055444Y-128494835D01*
X231108127Y-128500500D01*
X233203872Y-128500499D01*
X233263483Y-128494091D01*
X233398331Y-128443796D01*
X233513546Y-128357546D01*
X233599796Y-128242331D01*
X233650091Y-128107483D01*
X233656500Y-128047873D01*
X233656499Y-125952128D01*
X233650091Y-125892517D01*
X233650091Y-125892516D01*
X233600977Y-125760833D01*
X233595993Y-125691141D01*
X233629479Y-125629818D01*
X233690802Y-125596334D01*
X233717159Y-125593500D01*
X246323548Y-125593500D01*
X246390587Y-125613185D01*
X246411229Y-125629819D01*
X251150636Y-130369226D01*
X251184121Y-130430549D01*
X251179137Y-130500241D01*
X251137265Y-130556174D01*
X251083364Y-130579216D01*
X250836383Y-130620429D01*
X250601197Y-130701169D01*
X250601188Y-130701172D01*
X250382493Y-130819524D01*
X250186257Y-130972261D01*
X250017833Y-131155217D01*
X249881826Y-131363393D01*
X249781936Y-131591118D01*
X249720892Y-131832175D01*
X249720890Y-131832186D01*
X249708996Y-131975740D01*
X249683843Y-132040925D01*
X249627441Y-132082163D01*
X249585420Y-132089500D01*
X245777133Y-132089500D01*
X245710094Y-132069815D01*
X245664339Y-132017011D01*
X245662572Y-132012952D01*
X245651467Y-131986143D01*
X245651466Y-131986141D01*
X245519839Y-131771346D01*
X245519838Y-131771343D01*
X245482875Y-131728066D01*
X245356224Y-131579776D01*
X245229571Y-131471604D01*
X245164656Y-131416161D01*
X245164653Y-131416160D01*
X244949859Y-131284533D01*
X244717110Y-131188126D01*
X244472151Y-131129317D01*
X244221000Y-131109551D01*
X243969848Y-131129317D01*
X243724889Y-131188126D01*
X243492140Y-131284533D01*
X243277346Y-131416160D01*
X243277343Y-131416161D01*
X243085776Y-131579776D01*
X242922161Y-131771343D01*
X242922160Y-131771346D01*
X242790533Y-131986140D01*
X242694126Y-132218889D01*
X242635317Y-132463848D01*
X242615551Y-132715000D01*
X242635317Y-132966151D01*
X242694126Y-133211110D01*
X242790533Y-133443859D01*
X242922160Y-133658653D01*
X242922161Y-133658656D01*
X242968022Y-133712352D01*
X243085776Y-133850224D01*
X243209811Y-133956160D01*
X243277343Y-134013838D01*
X243277346Y-134013839D01*
X243492140Y-134145466D01*
X243724889Y-134241873D01*
X243969852Y-134300683D01*
X244221000Y-134320449D01*
X244472148Y-134300683D01*
X244717111Y-134241873D01*
X244949859Y-134145466D01*
X245164659Y-134013836D01*
X245356224Y-133850224D01*
X245519836Y-133658659D01*
X245651466Y-133443859D01*
X245662572Y-133417048D01*
X245706412Y-133362644D01*
X245772706Y-133340579D01*
X245777133Y-133340500D01*
X250351138Y-133340500D01*
X250410154Y-133355444D01*
X250601190Y-133458828D01*
X250836386Y-133539571D01*
X251081665Y-133580500D01*
X251330335Y-133580500D01*
X251575614Y-133539571D01*
X251810810Y-133458828D01*
X252029509Y-133340474D01*
X252225744Y-133187738D01*
X252394164Y-133004785D01*
X252530173Y-132796607D01*
X252630063Y-132568881D01*
X252691108Y-132327821D01*
X252700135Y-132218889D01*
X252701012Y-132208301D01*
X252726165Y-132143116D01*
X252782567Y-132101878D01*
X252852310Y-132097680D01*
X252912269Y-132130860D01*
X255378352Y-134596943D01*
X255411837Y-134658266D01*
X255406853Y-134727958D01*
X255405233Y-134732075D01*
X255394126Y-134758889D01*
X255335317Y-135003848D01*
X255315551Y-135255000D01*
X255335317Y-135506151D01*
X255394126Y-135751110D01*
X255490533Y-135983859D01*
X255622160Y-136198653D01*
X255622161Y-136198656D01*
X255622164Y-136198659D01*
X255785776Y-136390224D01*
X255897526Y-136485668D01*
X255935719Y-136544174D01*
X255936218Y-136614041D01*
X255898864Y-136673088D01*
X255835517Y-136702566D01*
X255793527Y-136701716D01*
X255756086Y-136694500D01*
X255756085Y-136694500D01*
X255598575Y-136694500D01*
X255441782Y-136709472D01*
X255441778Y-136709473D01*
X255240127Y-136768683D01*
X255053313Y-136864991D01*
X254888116Y-136994905D01*
X254888112Y-136994909D01*
X254750478Y-137153746D01*
X254645398Y-137335750D01*
X254576656Y-137534365D01*
X254576656Y-137534367D01*
X254550020Y-137719631D01*
X254546746Y-137742401D01*
X254556745Y-137952327D01*
X254606296Y-138156578D01*
X254606298Y-138156582D01*
X254693598Y-138347743D01*
X254693601Y-138347748D01*
X254693602Y-138347750D01*
X254693604Y-138347753D01*
X254815514Y-138518952D01*
X254815515Y-138518953D01*
X254815520Y-138518959D01*
X254967620Y-138663985D01*
X255062578Y-138725011D01*
X255144428Y-138777613D01*
X255339543Y-138855725D01*
X255381186Y-138863751D01*
X255545914Y-138895500D01*
X255545915Y-138895500D01*
X255703419Y-138895500D01*
X255703425Y-138895500D01*
X255860218Y-138880528D01*
X256061875Y-138821316D01*
X256114681Y-138794092D01*
X256183286Y-138780869D01*
X256248151Y-138806837D01*
X256288680Y-138863751D01*
X256295500Y-138904308D01*
X256295500Y-152748866D01*
X256275815Y-152815905D01*
X256223011Y-152861660D01*
X256218955Y-152863426D01*
X256192142Y-152874532D01*
X256192141Y-152874533D01*
X255977346Y-153006160D01*
X255977343Y-153006161D01*
X255785776Y-153169776D01*
X255622161Y-153361343D01*
X255622160Y-153361346D01*
X255490533Y-153576140D01*
X255394126Y-153808889D01*
X255335317Y-154053848D01*
X255315551Y-154305000D01*
X255335317Y-154556151D01*
X255394126Y-154801110D01*
X255490533Y-155033859D01*
X255622160Y-155248653D01*
X255622161Y-155248656D01*
X255622164Y-155248659D01*
X255785776Y-155440224D01*
X255897526Y-155535668D01*
X255935719Y-155594174D01*
X255936218Y-155664041D01*
X255898864Y-155723088D01*
X255835517Y-155752566D01*
X255793527Y-155751716D01*
X255756086Y-155744500D01*
X255756085Y-155744500D01*
X255598575Y-155744500D01*
X255441782Y-155759472D01*
X255441778Y-155759473D01*
X255240127Y-155818683D01*
X255053313Y-155914991D01*
X254888116Y-156044905D01*
X254888112Y-156044909D01*
X254750478Y-156203746D01*
X254645398Y-156385750D01*
X254576656Y-156584365D01*
X254576656Y-156584367D01*
X254550020Y-156769631D01*
X254546746Y-156792401D01*
X254556745Y-157002327D01*
X254606296Y-157206578D01*
X254606298Y-157206582D01*
X254693598Y-157397743D01*
X254693601Y-157397748D01*
X254693602Y-157397750D01*
X254693604Y-157397753D01*
X254815514Y-157568952D01*
X254815515Y-157568953D01*
X254815520Y-157568959D01*
X254967620Y-157713985D01*
X255062578Y-157775011D01*
X255144428Y-157827613D01*
X255339543Y-157905725D01*
X255381186Y-157913751D01*
X255545914Y-157945500D01*
X255545915Y-157945500D01*
X255703419Y-157945500D01*
X255703425Y-157945500D01*
X255860218Y-157930528D01*
X256061875Y-157871316D01*
X256114681Y-157844092D01*
X256183286Y-157830869D01*
X256248151Y-157856837D01*
X256288680Y-157913751D01*
X256295500Y-157954308D01*
X256295500Y-171798866D01*
X256275815Y-171865905D01*
X256223011Y-171911660D01*
X256218955Y-171913426D01*
X256192142Y-171924532D01*
X256192141Y-171924533D01*
X255977346Y-172056160D01*
X255977343Y-172056161D01*
X255785776Y-172219776D01*
X255622161Y-172411343D01*
X255622160Y-172411346D01*
X255490533Y-172626140D01*
X255394126Y-172858889D01*
X255335317Y-173103848D01*
X255315551Y-173355000D01*
X255335317Y-173606151D01*
X255394126Y-173851110D01*
X255490533Y-174083859D01*
X255622160Y-174298653D01*
X255622161Y-174298656D01*
X255622164Y-174298659D01*
X255785776Y-174490224D01*
X255897526Y-174585668D01*
X255935719Y-174644174D01*
X255936218Y-174714041D01*
X255898864Y-174773088D01*
X255835517Y-174802566D01*
X255793527Y-174801716D01*
X255756086Y-174794500D01*
X255756085Y-174794500D01*
X255598575Y-174794500D01*
X255441782Y-174809472D01*
X255441778Y-174809473D01*
X255240127Y-174868683D01*
X255053313Y-174964991D01*
X254888116Y-175094905D01*
X254888112Y-175094909D01*
X254750478Y-175253746D01*
X254645398Y-175435750D01*
X254576656Y-175634365D01*
X254576656Y-175634367D01*
X254550020Y-175819631D01*
X254546746Y-175842401D01*
X254556745Y-176052327D01*
X254606296Y-176256578D01*
X254606298Y-176256582D01*
X254693598Y-176447743D01*
X254693601Y-176447748D01*
X254693602Y-176447750D01*
X254693604Y-176447753D01*
X254815514Y-176618952D01*
X254815515Y-176618953D01*
X254815520Y-176618959D01*
X254967620Y-176763985D01*
X255062578Y-176825011D01*
X255144428Y-176877613D01*
X255339543Y-176955725D01*
X255442729Y-176975612D01*
X255545914Y-176995500D01*
X255545915Y-176995500D01*
X255703419Y-176995500D01*
X255703425Y-176995500D01*
X255860218Y-176980528D01*
X256061875Y-176921316D01*
X256248682Y-176825011D01*
X256413886Y-176695092D01*
X256551519Y-176536256D01*
X256656604Y-176354244D01*
X256725344Y-176155633D01*
X256751980Y-175970373D01*
X258476723Y-175970373D01*
X258506881Y-176270160D01*
X258506882Y-176270162D01*
X258576728Y-176563252D01*
X258576733Y-176563266D01*
X258685020Y-176844427D01*
X258685024Y-176844436D01*
X258829825Y-177108665D01*
X258829829Y-177108671D01*
X259008551Y-177351234D01*
X259008554Y-177351238D01*
X259008561Y-177351245D01*
X259218019Y-177567823D01*
X259454478Y-177754553D01*
X259454480Y-177754554D01*
X259454485Y-177754558D01*
X259713730Y-177908109D01*
X259991128Y-178025736D01*
X260281729Y-178105340D01*
X260580347Y-178145500D01*
X260580351Y-178145500D01*
X260806252Y-178145500D01*
X260970164Y-178134526D01*
X261031634Y-178130412D01*
X261326903Y-178070396D01*
X261611537Y-177971560D01*
X261880459Y-177835668D01*
X262128869Y-177665144D01*
X262352333Y-177463032D01*
X262546865Y-177232939D01*
X262708993Y-176978970D01*
X262835823Y-176705658D01*
X262925093Y-176417879D01*
X262975209Y-176120770D01*
X262984516Y-175842401D01*
X264706746Y-175842401D01*
X264716745Y-176052327D01*
X264766296Y-176256578D01*
X264766298Y-176256582D01*
X264853598Y-176447743D01*
X264853601Y-176447748D01*
X264853602Y-176447750D01*
X264853604Y-176447753D01*
X264975514Y-176618952D01*
X264975515Y-176618953D01*
X264975520Y-176618959D01*
X265127620Y-176763985D01*
X265222578Y-176825011D01*
X265304428Y-176877613D01*
X265499543Y-176955725D01*
X265602729Y-176975612D01*
X265705914Y-176995500D01*
X265705915Y-176995500D01*
X265863419Y-176995500D01*
X265863425Y-176995500D01*
X266020218Y-176980528D01*
X266221875Y-176921316D01*
X266408682Y-176825011D01*
X266573886Y-176695092D01*
X266711519Y-176536256D01*
X266816604Y-176354244D01*
X266885344Y-176155633D01*
X266915254Y-175947602D01*
X266905254Y-175737670D01*
X266855704Y-175533424D01*
X266849500Y-175519839D01*
X266768401Y-175342256D01*
X266768398Y-175342251D01*
X266768397Y-175342250D01*
X266768396Y-175342247D01*
X266646486Y-175171048D01*
X266646484Y-175171046D01*
X266646479Y-175171040D01*
X266494379Y-175026014D01*
X266317574Y-174912388D01*
X266122455Y-174834274D01*
X265916086Y-174794500D01*
X265916085Y-174794500D01*
X265758575Y-174794500D01*
X265601782Y-174809472D01*
X265601778Y-174809473D01*
X265400127Y-174868683D01*
X265213313Y-174964991D01*
X265048116Y-175094905D01*
X265048112Y-175094909D01*
X264910478Y-175253746D01*
X264805398Y-175435750D01*
X264736656Y-175634365D01*
X264736656Y-175634367D01*
X264710020Y-175819631D01*
X264706746Y-175842401D01*
X262984516Y-175842401D01*
X262985277Y-175819631D01*
X262955118Y-175519838D01*
X262885269Y-175226739D01*
X262776977Y-174945566D01*
X262632175Y-174681335D01*
X262453446Y-174438762D01*
X262243980Y-174222176D01*
X262120742Y-174124856D01*
X262007521Y-174035446D01*
X262007517Y-174035443D01*
X262007515Y-174035442D01*
X261748270Y-173881891D01*
X261470872Y-173764264D01*
X261470863Y-173764261D01*
X261180272Y-173684660D01*
X261105616Y-173674620D01*
X260881653Y-173644500D01*
X260655756Y-173644500D01*
X260655748Y-173644500D01*
X260430368Y-173659587D01*
X260430359Y-173659589D01*
X260135094Y-173719604D01*
X259850464Y-173818439D01*
X259850459Y-173818441D01*
X259581546Y-173954328D01*
X259333125Y-174124860D01*
X259109665Y-174326969D01*
X258915132Y-174557064D01*
X258753006Y-174811030D01*
X258753005Y-174811032D01*
X258669091Y-174991864D01*
X258626177Y-175084342D01*
X258622899Y-175094909D01*
X258536907Y-175372118D01*
X258492672Y-175634365D01*
X258486791Y-175669230D01*
X258481002Y-175842398D01*
X258476723Y-175970373D01*
X256751980Y-175970373D01*
X256755254Y-175947602D01*
X256745254Y-175737670D01*
X256695704Y-175533424D01*
X256689500Y-175519839D01*
X256608401Y-175342256D01*
X256608398Y-175342251D01*
X256608397Y-175342250D01*
X256608396Y-175342247D01*
X256486486Y-175171048D01*
X256435215Y-175122161D01*
X256400281Y-175061654D01*
X256403605Y-174991864D01*
X256444132Y-174934949D01*
X256508997Y-174908981D01*
X256549732Y-174911845D01*
X256669852Y-174940683D01*
X256921000Y-174960449D01*
X257172148Y-174940683D01*
X257417111Y-174881873D01*
X257649859Y-174785466D01*
X257864659Y-174653836D01*
X258056224Y-174490224D01*
X258219836Y-174298659D01*
X258351466Y-174083859D01*
X258447873Y-173851111D01*
X258506683Y-173606148D01*
X258526449Y-173355000D01*
X258506683Y-173103852D01*
X258447873Y-172858889D01*
X258435421Y-172828827D01*
X258351466Y-172626140D01*
X258219839Y-172411346D01*
X258219838Y-172411343D01*
X258160505Y-172341873D01*
X258056224Y-172219776D01*
X257910347Y-172095185D01*
X257864656Y-172056161D01*
X257864653Y-172056160D01*
X257649858Y-171924533D01*
X257649857Y-171924532D01*
X257623045Y-171913426D01*
X257568642Y-171869584D01*
X257546579Y-171803289D01*
X257546500Y-171798866D01*
X257546500Y-170815000D01*
X261665551Y-170815000D01*
X261685317Y-171066151D01*
X261744126Y-171311110D01*
X261840533Y-171543859D01*
X261972160Y-171758653D01*
X261972161Y-171758656D01*
X262017620Y-171811881D01*
X262135776Y-171950224D01*
X262240429Y-172039606D01*
X262327343Y-172113838D01*
X262327346Y-172113839D01*
X262542140Y-172245466D01*
X262774889Y-172341873D01*
X263019852Y-172400683D01*
X263271000Y-172420449D01*
X263522148Y-172400683D01*
X263767111Y-172341873D01*
X263999859Y-172245466D01*
X264214659Y-172113836D01*
X264224758Y-172105211D01*
X264288519Y-172076640D01*
X264305291Y-172075500D01*
X268810850Y-172075500D01*
X268877889Y-172095185D01*
X268923644Y-172147989D01*
X268924405Y-172149689D01*
X268931824Y-172166603D01*
X269067833Y-172374782D01*
X269067836Y-172374785D01*
X269236256Y-172557738D01*
X269432491Y-172710474D01*
X269651190Y-172828828D01*
X269886386Y-172909571D01*
X270131665Y-172950500D01*
X270380335Y-172950500D01*
X270625614Y-172909571D01*
X270860810Y-172828828D01*
X271079509Y-172710474D01*
X271275744Y-172557738D01*
X271444164Y-172374785D01*
X271580173Y-172166607D01*
X271680063Y-171938881D01*
X271741108Y-171697821D01*
X271741109Y-171697812D01*
X271761643Y-171450005D01*
X271761643Y-171449994D01*
X271741109Y-171202187D01*
X271741107Y-171202175D01*
X271680063Y-170961118D01*
X271580173Y-170733393D01*
X271444166Y-170525217D01*
X271422557Y-170501744D01*
X271275744Y-170342262D01*
X271079509Y-170189526D01*
X271079507Y-170189525D01*
X271079506Y-170189524D01*
X270860811Y-170071172D01*
X270860802Y-170071169D01*
X270625616Y-169990429D01*
X270380335Y-169949500D01*
X270131665Y-169949500D01*
X269886383Y-169990429D01*
X269651197Y-170071169D01*
X269651188Y-170071172D01*
X269432493Y-170189524D01*
X269236257Y-170342261D01*
X269067833Y-170525217D01*
X268931824Y-170733396D01*
X268924405Y-170750311D01*
X268879449Y-170803797D01*
X268812713Y-170824486D01*
X268810850Y-170824500D01*
X264991821Y-170824500D01*
X264924782Y-170804815D01*
X264879027Y-170752011D01*
X264868203Y-170710229D01*
X264861496Y-170625011D01*
X264856683Y-170563852D01*
X264797873Y-170318889D01*
X264701466Y-170086140D01*
X264569839Y-169871346D01*
X264569838Y-169871343D01*
X264528122Y-169822500D01*
X264406224Y-169679776D01*
X264279571Y-169571604D01*
X264214656Y-169516161D01*
X264214653Y-169516160D01*
X263999859Y-169384533D01*
X263767110Y-169288126D01*
X263522151Y-169229317D01*
X263271000Y-169209551D01*
X263019848Y-169229317D01*
X262774889Y-169288126D01*
X262542140Y-169384533D01*
X262327346Y-169516160D01*
X262327343Y-169516161D01*
X262135776Y-169679776D01*
X261972161Y-169871343D01*
X261972160Y-169871346D01*
X261840533Y-170086140D01*
X261744126Y-170318889D01*
X261685317Y-170563848D01*
X261665551Y-170815000D01*
X257546500Y-170815000D01*
X257546500Y-167417870D01*
X268755500Y-167417870D01*
X268755501Y-167417876D01*
X268761908Y-167477483D01*
X268812202Y-167612328D01*
X268812206Y-167612335D01*
X268898452Y-167727544D01*
X268898455Y-167727547D01*
X269013664Y-167813793D01*
X269013671Y-167813797D01*
X269148517Y-167864091D01*
X269148516Y-167864091D01*
X269155444Y-167864835D01*
X269208127Y-167870500D01*
X271303872Y-167870499D01*
X271363483Y-167864091D01*
X271498331Y-167813796D01*
X271613546Y-167727546D01*
X271699796Y-167612331D01*
X271750091Y-167477483D01*
X271756500Y-167417873D01*
X271756499Y-165322128D01*
X271750091Y-165262517D01*
X271699796Y-165127669D01*
X271699795Y-165127668D01*
X271699793Y-165127664D01*
X271613547Y-165012455D01*
X271613544Y-165012452D01*
X271498335Y-164926206D01*
X271498328Y-164926202D01*
X271363482Y-164875908D01*
X271363483Y-164875908D01*
X271303883Y-164869501D01*
X271303881Y-164869500D01*
X271303873Y-164869500D01*
X271303864Y-164869500D01*
X269208129Y-164869500D01*
X269208123Y-164869501D01*
X269148516Y-164875908D01*
X269013671Y-164926202D01*
X269013664Y-164926206D01*
X268898455Y-165012452D01*
X268898452Y-165012455D01*
X268812206Y-165127664D01*
X268812202Y-165127671D01*
X268761908Y-165262517D01*
X268755501Y-165322116D01*
X268755501Y-165322123D01*
X268755500Y-165322135D01*
X268755500Y-167417870D01*
X257546500Y-167417870D01*
X257546500Y-156920373D01*
X258476723Y-156920373D01*
X258506881Y-157220160D01*
X258506882Y-157220162D01*
X258576728Y-157513252D01*
X258576733Y-157513266D01*
X258685020Y-157794427D01*
X258685024Y-157794436D01*
X258829825Y-158058665D01*
X258829829Y-158058671D01*
X259008551Y-158301234D01*
X259008554Y-158301238D01*
X259008561Y-158301245D01*
X259218019Y-158517823D01*
X259454478Y-158704553D01*
X259454480Y-158704554D01*
X259454485Y-158704558D01*
X259713730Y-158858109D01*
X259991128Y-158975736D01*
X260281729Y-159055340D01*
X260580347Y-159095500D01*
X260580351Y-159095500D01*
X260806252Y-159095500D01*
X260970164Y-159084526D01*
X261031634Y-159080412D01*
X261326903Y-159020396D01*
X261611537Y-158921560D01*
X261880459Y-158785668D01*
X262128869Y-158615144D01*
X262352333Y-158413032D01*
X262546865Y-158182939D01*
X262708993Y-157928970D01*
X262835823Y-157655658D01*
X262925093Y-157367879D01*
X262975209Y-157070770D01*
X262984516Y-156792401D01*
X264706746Y-156792401D01*
X264716745Y-157002327D01*
X264766296Y-157206578D01*
X264766298Y-157206582D01*
X264853598Y-157397743D01*
X264853601Y-157397748D01*
X264853602Y-157397750D01*
X264853604Y-157397753D01*
X264975514Y-157568952D01*
X264975515Y-157568953D01*
X264975520Y-157568959D01*
X265127620Y-157713985D01*
X265222578Y-157775011D01*
X265304428Y-157827613D01*
X265499543Y-157905725D01*
X265541186Y-157913751D01*
X265705914Y-157945500D01*
X265705915Y-157945500D01*
X265863419Y-157945500D01*
X265863425Y-157945500D01*
X266020218Y-157930528D01*
X266221875Y-157871316D01*
X266408682Y-157775011D01*
X266573886Y-157645092D01*
X266711519Y-157486256D01*
X266816604Y-157304244D01*
X266885344Y-157105633D01*
X266915254Y-156897602D01*
X266905254Y-156687670D01*
X266855704Y-156483424D01*
X266849500Y-156469839D01*
X266768401Y-156292256D01*
X266768398Y-156292251D01*
X266768397Y-156292250D01*
X266768396Y-156292247D01*
X266646486Y-156121048D01*
X266646484Y-156121046D01*
X266646479Y-156121040D01*
X266494379Y-155976014D01*
X266317574Y-155862388D01*
X266122455Y-155784274D01*
X265916086Y-155744500D01*
X265916085Y-155744500D01*
X265758575Y-155744500D01*
X265601782Y-155759472D01*
X265601778Y-155759473D01*
X265400127Y-155818683D01*
X265213313Y-155914991D01*
X265048116Y-156044905D01*
X265048112Y-156044909D01*
X264910478Y-156203746D01*
X264805398Y-156385750D01*
X264736656Y-156584365D01*
X264736656Y-156584367D01*
X264710020Y-156769631D01*
X264706746Y-156792401D01*
X262984516Y-156792401D01*
X262985277Y-156769631D01*
X262955118Y-156469838D01*
X262885269Y-156176739D01*
X262776977Y-155895566D01*
X262632175Y-155631335D01*
X262453446Y-155388762D01*
X262243980Y-155172176D01*
X262120742Y-155074856D01*
X262007521Y-154985446D01*
X262007517Y-154985443D01*
X262007515Y-154985442D01*
X261748270Y-154831891D01*
X261470872Y-154714264D01*
X261470863Y-154714261D01*
X261180272Y-154634660D01*
X261105616Y-154624620D01*
X260881653Y-154594500D01*
X260655756Y-154594500D01*
X260655748Y-154594500D01*
X260430368Y-154609587D01*
X260430359Y-154609589D01*
X260135094Y-154669604D01*
X259850464Y-154768439D01*
X259850459Y-154768441D01*
X259581546Y-154904328D01*
X259333125Y-155074860D01*
X259109665Y-155276969D01*
X258915132Y-155507064D01*
X258753006Y-155761030D01*
X258753005Y-155761032D01*
X258653244Y-155976014D01*
X258626177Y-156034342D01*
X258622899Y-156044909D01*
X258536907Y-156322118D01*
X258492672Y-156584365D01*
X258486791Y-156619230D01*
X258481002Y-156792398D01*
X258476723Y-156920373D01*
X257546500Y-156920373D01*
X257546500Y-155861132D01*
X257566185Y-155794093D01*
X257618989Y-155748338D01*
X257623027Y-155746579D01*
X257649859Y-155735466D01*
X257864659Y-155603836D01*
X258056224Y-155440224D01*
X258219836Y-155248659D01*
X258351466Y-155033859D01*
X258447873Y-154801111D01*
X258506683Y-154556148D01*
X258526449Y-154305000D01*
X258506683Y-154053852D01*
X258447873Y-153808889D01*
X258351466Y-153576140D01*
X258219839Y-153361346D01*
X258219838Y-153361343D01*
X258160505Y-153291873D01*
X258056224Y-153169776D01*
X257929571Y-153061604D01*
X257864656Y-153006161D01*
X257864653Y-153006160D01*
X257649858Y-152874533D01*
X257649857Y-152874532D01*
X257623045Y-152863426D01*
X257568642Y-152819584D01*
X257546579Y-152753289D01*
X257546500Y-152748866D01*
X257546500Y-151765000D01*
X261665551Y-151765000D01*
X261685317Y-152016151D01*
X261744126Y-152261110D01*
X261840533Y-152493859D01*
X261972160Y-152708653D01*
X261972161Y-152708656D01*
X262017620Y-152761881D01*
X262135776Y-152900224D01*
X262240429Y-152989606D01*
X262327343Y-153063838D01*
X262327346Y-153063839D01*
X262542140Y-153195466D01*
X262774889Y-153291873D01*
X263019852Y-153350683D01*
X263271000Y-153370449D01*
X263522148Y-153350683D01*
X263767111Y-153291873D01*
X263999859Y-153195466D01*
X264214659Y-153063836D01*
X264373457Y-152928209D01*
X264437218Y-152899639D01*
X264453988Y-152898500D01*
X268810850Y-152898500D01*
X268877889Y-152918185D01*
X268923644Y-152970989D01*
X268924405Y-152972689D01*
X268931824Y-152989603D01*
X269067833Y-153197782D01*
X269067836Y-153197785D01*
X269236256Y-153380738D01*
X269432491Y-153533474D01*
X269651190Y-153651828D01*
X269886386Y-153732571D01*
X270131665Y-153773500D01*
X270380335Y-153773500D01*
X270625614Y-153732571D01*
X270860810Y-153651828D01*
X271079509Y-153533474D01*
X271275744Y-153380738D01*
X271444164Y-153197785D01*
X271580173Y-152989607D01*
X271680063Y-152761881D01*
X271741108Y-152520821D01*
X271741109Y-152520812D01*
X271761643Y-152273005D01*
X271761643Y-152272994D01*
X271741109Y-152025187D01*
X271741107Y-152025175D01*
X271680063Y-151784118D01*
X271580173Y-151556393D01*
X271444166Y-151348217D01*
X271371139Y-151268889D01*
X271275744Y-151165262D01*
X271079509Y-151012526D01*
X271079507Y-151012525D01*
X271079506Y-151012524D01*
X270860811Y-150894172D01*
X270860802Y-150894169D01*
X270625616Y-150813429D01*
X270380335Y-150772500D01*
X270131665Y-150772500D01*
X269886383Y-150813429D01*
X269651197Y-150894169D01*
X269651188Y-150894172D01*
X269432493Y-151012524D01*
X269236257Y-151165261D01*
X269067833Y-151348217D01*
X268931824Y-151556396D01*
X268924405Y-151573311D01*
X268879449Y-151626797D01*
X268812713Y-151647486D01*
X268810850Y-151647500D01*
X264981826Y-151647500D01*
X264914787Y-151627815D01*
X264869032Y-151575011D01*
X264858208Y-151533228D01*
X264856683Y-151513855D01*
X264856683Y-151513852D01*
X264797873Y-151268889D01*
X264701466Y-151036140D01*
X264569839Y-150821346D01*
X264569838Y-150821343D01*
X264528122Y-150772500D01*
X264406224Y-150629776D01*
X264279571Y-150521604D01*
X264214656Y-150466161D01*
X264214653Y-150466160D01*
X263999859Y-150334533D01*
X263767110Y-150238126D01*
X263522151Y-150179317D01*
X263271000Y-150159551D01*
X263019848Y-150179317D01*
X262774889Y-150238126D01*
X262542140Y-150334533D01*
X262327346Y-150466160D01*
X262327343Y-150466161D01*
X262135776Y-150629776D01*
X261972161Y-150821343D01*
X261972160Y-150821346D01*
X261840533Y-151036140D01*
X261744126Y-151268889D01*
X261685317Y-151513848D01*
X261665551Y-151765000D01*
X257546500Y-151765000D01*
X257546500Y-148240870D01*
X268755500Y-148240870D01*
X268755501Y-148240876D01*
X268761908Y-148300483D01*
X268812202Y-148435328D01*
X268812206Y-148435335D01*
X268898452Y-148550544D01*
X268898455Y-148550547D01*
X269013664Y-148636793D01*
X269013671Y-148636797D01*
X269148517Y-148687091D01*
X269148516Y-148687091D01*
X269155444Y-148687835D01*
X269208127Y-148693500D01*
X271303872Y-148693499D01*
X271363483Y-148687091D01*
X271498331Y-148636796D01*
X271613546Y-148550546D01*
X271699796Y-148435331D01*
X271750091Y-148300483D01*
X271756500Y-148240873D01*
X271756499Y-146145128D01*
X271750091Y-146085517D01*
X271699796Y-145950669D01*
X271699795Y-145950668D01*
X271699793Y-145950664D01*
X271613547Y-145835455D01*
X271613544Y-145835452D01*
X271498335Y-145749206D01*
X271498328Y-145749202D01*
X271363482Y-145698908D01*
X271363483Y-145698908D01*
X271303883Y-145692501D01*
X271303881Y-145692500D01*
X271303873Y-145692500D01*
X271303864Y-145692500D01*
X269208129Y-145692500D01*
X269208123Y-145692501D01*
X269148516Y-145698908D01*
X269013671Y-145749202D01*
X269013664Y-145749206D01*
X268898455Y-145835452D01*
X268898452Y-145835455D01*
X268812206Y-145950664D01*
X268812202Y-145950671D01*
X268761908Y-146085517D01*
X268755501Y-146145116D01*
X268755501Y-146145123D01*
X268755500Y-146145135D01*
X268755500Y-148240870D01*
X257546500Y-148240870D01*
X257546500Y-137870373D01*
X258476723Y-137870373D01*
X258506881Y-138170160D01*
X258506882Y-138170162D01*
X258576728Y-138463252D01*
X258576733Y-138463266D01*
X258685020Y-138744427D01*
X258685024Y-138744436D01*
X258829825Y-139008665D01*
X258829829Y-139008671D01*
X259008551Y-139251234D01*
X259008554Y-139251238D01*
X259008561Y-139251245D01*
X259218019Y-139467823D01*
X259454478Y-139654553D01*
X259454480Y-139654554D01*
X259454485Y-139654558D01*
X259713730Y-139808109D01*
X259991128Y-139925736D01*
X260281729Y-140005340D01*
X260580347Y-140045500D01*
X260580351Y-140045500D01*
X260806252Y-140045500D01*
X260970164Y-140034526D01*
X261031634Y-140030412D01*
X261326903Y-139970396D01*
X261611537Y-139871560D01*
X261880459Y-139735668D01*
X262128869Y-139565144D01*
X262352333Y-139363032D01*
X262546865Y-139132939D01*
X262708993Y-138878970D01*
X262835823Y-138605658D01*
X262925093Y-138317879D01*
X262975209Y-138020770D01*
X262984516Y-137742401D01*
X264706746Y-137742401D01*
X264716745Y-137952327D01*
X264766296Y-138156578D01*
X264766298Y-138156582D01*
X264853598Y-138347743D01*
X264853601Y-138347748D01*
X264853602Y-138347750D01*
X264853604Y-138347753D01*
X264975514Y-138518952D01*
X264975515Y-138518953D01*
X264975520Y-138518959D01*
X265127620Y-138663985D01*
X265222578Y-138725011D01*
X265304428Y-138777613D01*
X265499543Y-138855725D01*
X265541186Y-138863751D01*
X265705914Y-138895500D01*
X265705915Y-138895500D01*
X265863419Y-138895500D01*
X265863425Y-138895500D01*
X266020218Y-138880528D01*
X266221875Y-138821316D01*
X266408682Y-138725011D01*
X266573886Y-138595092D01*
X266711519Y-138436256D01*
X266816604Y-138254244D01*
X266885344Y-138055633D01*
X266915254Y-137847602D01*
X266905254Y-137637670D01*
X266855704Y-137433424D01*
X266849500Y-137419839D01*
X266768401Y-137242256D01*
X266768398Y-137242251D01*
X266768397Y-137242250D01*
X266768396Y-137242247D01*
X266646486Y-137071048D01*
X266646484Y-137071046D01*
X266646479Y-137071040D01*
X266494379Y-136926014D01*
X266317574Y-136812388D01*
X266122455Y-136734274D01*
X265916086Y-136694500D01*
X265916085Y-136694500D01*
X265758575Y-136694500D01*
X265601782Y-136709472D01*
X265601778Y-136709473D01*
X265400127Y-136768683D01*
X265213313Y-136864991D01*
X265048116Y-136994905D01*
X265048112Y-136994909D01*
X264910478Y-137153746D01*
X264805398Y-137335750D01*
X264736656Y-137534365D01*
X264736656Y-137534367D01*
X264710020Y-137719631D01*
X264706746Y-137742401D01*
X262984516Y-137742401D01*
X262985277Y-137719631D01*
X262955118Y-137419838D01*
X262885269Y-137126739D01*
X262776977Y-136845566D01*
X262632175Y-136581335D01*
X262453446Y-136338762D01*
X262243980Y-136122176D01*
X262120742Y-136024856D01*
X262007521Y-135935446D01*
X262007517Y-135935443D01*
X262007515Y-135935442D01*
X261748270Y-135781891D01*
X261470872Y-135664264D01*
X261470863Y-135664261D01*
X261180272Y-135584660D01*
X261105616Y-135574620D01*
X260881653Y-135544500D01*
X260655756Y-135544500D01*
X260655748Y-135544500D01*
X260430368Y-135559587D01*
X260430359Y-135559589D01*
X260135094Y-135619604D01*
X259850464Y-135718439D01*
X259850459Y-135718441D01*
X259581546Y-135854328D01*
X259333125Y-136024860D01*
X259109665Y-136226969D01*
X258915132Y-136457064D01*
X258753006Y-136711030D01*
X258753005Y-136711032D01*
X258653244Y-136926014D01*
X258626177Y-136984342D01*
X258622899Y-136994909D01*
X258536907Y-137272118D01*
X258492672Y-137534365D01*
X258486791Y-137569230D01*
X258481002Y-137742398D01*
X258476723Y-137870373D01*
X257546500Y-137870373D01*
X257546500Y-136811132D01*
X257566185Y-136744093D01*
X257618989Y-136698338D01*
X257623027Y-136696579D01*
X257649859Y-136685466D01*
X257864659Y-136553836D01*
X258056224Y-136390224D01*
X258219836Y-136198659D01*
X258351466Y-135983859D01*
X258447873Y-135751111D01*
X258506683Y-135506148D01*
X258526449Y-135255000D01*
X258506683Y-135003852D01*
X258447873Y-134758889D01*
X258406194Y-134658266D01*
X258351466Y-134526140D01*
X258219839Y-134311346D01*
X258219838Y-134311343D01*
X258078165Y-134145466D01*
X258056224Y-134119776D01*
X257929571Y-134011604D01*
X257864656Y-133956161D01*
X257864653Y-133956160D01*
X257649859Y-133824533D01*
X257417110Y-133728126D01*
X257172151Y-133669317D01*
X256921000Y-133649551D01*
X256669848Y-133669317D01*
X256424887Y-133728127D01*
X256424881Y-133728129D01*
X256398072Y-133739233D01*
X256328603Y-133746700D01*
X256266124Y-133715423D01*
X256262942Y-133712352D01*
X255265590Y-132715000D01*
X261665551Y-132715000D01*
X261685317Y-132966151D01*
X261744126Y-133211110D01*
X261840533Y-133443859D01*
X261972160Y-133658653D01*
X261972161Y-133658656D01*
X262018022Y-133712352D01*
X262135776Y-133850224D01*
X262259811Y-133956160D01*
X262327343Y-134013838D01*
X262327346Y-134013839D01*
X262542140Y-134145466D01*
X262774889Y-134241873D01*
X263019852Y-134300683D01*
X263271000Y-134320449D01*
X263522148Y-134300683D01*
X263767111Y-134241873D01*
X263999859Y-134145466D01*
X264214659Y-134013836D01*
X264406224Y-133850224D01*
X264569836Y-133658659D01*
X264701466Y-133443859D01*
X264712572Y-133417048D01*
X264756412Y-133362644D01*
X264822706Y-133340579D01*
X264827133Y-133340500D01*
X269401138Y-133340500D01*
X269460154Y-133355444D01*
X269651190Y-133458828D01*
X269886386Y-133539571D01*
X270131665Y-133580500D01*
X270380335Y-133580500D01*
X270625614Y-133539571D01*
X270860810Y-133458828D01*
X271079509Y-133340474D01*
X271275744Y-133187738D01*
X271444164Y-133004785D01*
X271580173Y-132796607D01*
X271680063Y-132568881D01*
X271741108Y-132327821D01*
X271741109Y-132327812D01*
X271761643Y-132080005D01*
X271761643Y-132079994D01*
X271741109Y-131832187D01*
X271741107Y-131832175D01*
X271680063Y-131591118D01*
X271580173Y-131363393D01*
X271444166Y-131155217D01*
X271402127Y-131109551D01*
X271275744Y-130972262D01*
X271079509Y-130819526D01*
X271079507Y-130819525D01*
X271079506Y-130819524D01*
X270860811Y-130701172D01*
X270860802Y-130701169D01*
X270625616Y-130620429D01*
X270380335Y-130579500D01*
X270131665Y-130579500D01*
X269886383Y-130620429D01*
X269651197Y-130701169D01*
X269651188Y-130701172D01*
X269432493Y-130819524D01*
X269236257Y-130972261D01*
X269067833Y-131155217D01*
X268931826Y-131363393D01*
X268831936Y-131591118D01*
X268770892Y-131832175D01*
X268770890Y-131832186D01*
X268758996Y-131975740D01*
X268733843Y-132040925D01*
X268677441Y-132082163D01*
X268635420Y-132089500D01*
X264827133Y-132089500D01*
X264760094Y-132069815D01*
X264714339Y-132017011D01*
X264712572Y-132012952D01*
X264701467Y-131986143D01*
X264701466Y-131986141D01*
X264569839Y-131771346D01*
X264569838Y-131771343D01*
X264532875Y-131728066D01*
X264406224Y-131579776D01*
X264279571Y-131471604D01*
X264214656Y-131416161D01*
X264214653Y-131416160D01*
X263999859Y-131284533D01*
X263767110Y-131188126D01*
X263522151Y-131129317D01*
X263271000Y-131109551D01*
X263019848Y-131129317D01*
X262774889Y-131188126D01*
X262542140Y-131284533D01*
X262327346Y-131416160D01*
X262327343Y-131416161D01*
X262135776Y-131579776D01*
X261972161Y-131771343D01*
X261972160Y-131771346D01*
X261840533Y-131986140D01*
X261744126Y-132218889D01*
X261685317Y-132463848D01*
X261665551Y-132715000D01*
X255265590Y-132715000D01*
X251262771Y-128712180D01*
X251229286Y-128650857D01*
X251234270Y-128581165D01*
X251276142Y-128525232D01*
X251341606Y-128500815D01*
X251350452Y-128500499D01*
X252253871Y-128500499D01*
X252253872Y-128500499D01*
X252313483Y-128494091D01*
X252448331Y-128443796D01*
X252563546Y-128357546D01*
X252649796Y-128242331D01*
X252700091Y-128107483D01*
X252706500Y-128047873D01*
X252706500Y-128047870D01*
X268755500Y-128047870D01*
X268755501Y-128047876D01*
X268761908Y-128107483D01*
X268812202Y-128242328D01*
X268812206Y-128242335D01*
X268898452Y-128357544D01*
X268898455Y-128357547D01*
X269013664Y-128443793D01*
X269013671Y-128443797D01*
X269148517Y-128494091D01*
X269148516Y-128494091D01*
X269155444Y-128494835D01*
X269208127Y-128500500D01*
X271303872Y-128500499D01*
X271363483Y-128494091D01*
X271498331Y-128443796D01*
X271613546Y-128357546D01*
X271699796Y-128242331D01*
X271750091Y-128107483D01*
X271756500Y-128047873D01*
X271756499Y-125952128D01*
X271750091Y-125892517D01*
X271699796Y-125757669D01*
X271699795Y-125757668D01*
X271699793Y-125757664D01*
X271613547Y-125642455D01*
X271613544Y-125642452D01*
X271498335Y-125556206D01*
X271498328Y-125556202D01*
X271363482Y-125505908D01*
X271363483Y-125505908D01*
X271303883Y-125499501D01*
X271303881Y-125499500D01*
X271303873Y-125499500D01*
X271303864Y-125499500D01*
X269208129Y-125499500D01*
X269208123Y-125499501D01*
X269148516Y-125505908D01*
X269013671Y-125556202D01*
X269013664Y-125556206D01*
X268898455Y-125642452D01*
X268898452Y-125642455D01*
X268812206Y-125757664D01*
X268812202Y-125757671D01*
X268761908Y-125892517D01*
X268755501Y-125952116D01*
X268755501Y-125952123D01*
X268755500Y-125952135D01*
X268755500Y-128047870D01*
X252706500Y-128047870D01*
X252706499Y-125952128D01*
X252700091Y-125892517D01*
X252649796Y-125757669D01*
X252649795Y-125757668D01*
X252649793Y-125757664D01*
X252563547Y-125642455D01*
X252563544Y-125642452D01*
X252448335Y-125556206D01*
X252448328Y-125556202D01*
X252313482Y-125505908D01*
X252313483Y-125505908D01*
X252253883Y-125499501D01*
X252253881Y-125499500D01*
X252253873Y-125499500D01*
X252253864Y-125499500D01*
X250158129Y-125499500D01*
X250158123Y-125499501D01*
X250098516Y-125505908D01*
X249963671Y-125556202D01*
X249963664Y-125556206D01*
X249848455Y-125642452D01*
X249848452Y-125642455D01*
X249762206Y-125757664D01*
X249762202Y-125757671D01*
X249711908Y-125892517D01*
X249705501Y-125952116D01*
X249705501Y-125952123D01*
X249705500Y-125952135D01*
X249705500Y-126855547D01*
X249685815Y-126922586D01*
X249633011Y-126968341D01*
X249563853Y-126978285D01*
X249500297Y-126949260D01*
X249493819Y-126943228D01*
X247134803Y-124584212D01*
X247124980Y-124571950D01*
X247124759Y-124572134D01*
X247119786Y-124566123D01*
X247069364Y-124518773D01*
X247058919Y-124508328D01*
X247048475Y-124497883D01*
X247042986Y-124493625D01*
X247038561Y-124489847D01*
X247004582Y-124457938D01*
X247004580Y-124457936D01*
X247004577Y-124457935D01*
X246987029Y-124448288D01*
X246970763Y-124437604D01*
X246954933Y-124425325D01*
X246912168Y-124406818D01*
X246906922Y-124404248D01*
X246866093Y-124381803D01*
X246866092Y-124381802D01*
X246846693Y-124376822D01*
X246828281Y-124370518D01*
X246809898Y-124362562D01*
X246809892Y-124362560D01*
X246763874Y-124355272D01*
X246758152Y-124354087D01*
X246713021Y-124342500D01*
X246713019Y-124342500D01*
X246692984Y-124342500D01*
X246673586Y-124340973D01*
X246666162Y-124339797D01*
X246653805Y-124337840D01*
X246653804Y-124337840D01*
X246607416Y-124342225D01*
X246601578Y-124342500D01*
X221798453Y-124342500D01*
X221731414Y-124322815D01*
X221710772Y-124306181D01*
X220082223Y-122677632D01*
X220048738Y-122616309D01*
X220053722Y-122546617D01*
X220095594Y-122490684D01*
X220161058Y-122466267D01*
X220169562Y-122465952D01*
X275324312Y-122329599D01*
X275391399Y-122349118D01*
G37*
%TD.AperFunction*%
%TA.AperFunction,Conductor*%
G36*
X215099281Y-122498171D02*
G01*
X215145167Y-122550862D01*
X215156500Y-122602652D01*
X215156500Y-130118000D01*
X215154775Y-130133617D01*
X215155061Y-130133644D01*
X215154326Y-130141410D01*
X215156500Y-130210559D01*
X215156500Y-130240088D01*
X215156501Y-130240105D01*
X215157368Y-130246976D01*
X215157826Y-130252795D01*
X215159290Y-130299369D01*
X215159291Y-130299372D01*
X215164880Y-130318612D01*
X215168824Y-130337656D01*
X215171336Y-130357537D01*
X215188489Y-130400862D01*
X215190380Y-130406385D01*
X215192167Y-130412536D01*
X215191974Y-130482405D01*
X215154037Y-130541078D01*
X215090401Y-130569927D01*
X215021270Y-130559792D01*
X214985413Y-130534822D01*
X213162771Y-128712180D01*
X213129286Y-128650857D01*
X213134270Y-128581165D01*
X213176142Y-128525232D01*
X213241606Y-128500815D01*
X213250452Y-128500499D01*
X214153871Y-128500499D01*
X214153872Y-128500499D01*
X214213483Y-128494091D01*
X214348331Y-128443796D01*
X214463546Y-128357546D01*
X214549796Y-128242331D01*
X214600091Y-128107483D01*
X214606500Y-128047873D01*
X214606499Y-125952128D01*
X214600091Y-125892517D01*
X214549796Y-125757669D01*
X214549795Y-125757668D01*
X214549793Y-125757664D01*
X214463547Y-125642455D01*
X214463544Y-125642452D01*
X214348335Y-125556206D01*
X214348328Y-125556202D01*
X214213482Y-125505908D01*
X214213483Y-125505908D01*
X214153883Y-125499501D01*
X214153881Y-125499500D01*
X214153873Y-125499500D01*
X214153864Y-125499500D01*
X212058129Y-125499500D01*
X212058123Y-125499501D01*
X211998516Y-125505908D01*
X211863671Y-125556202D01*
X211863664Y-125556206D01*
X211748455Y-125642452D01*
X211748452Y-125642455D01*
X211662206Y-125757664D01*
X211662202Y-125757671D01*
X211611908Y-125892517D01*
X211605501Y-125952116D01*
X211605501Y-125952123D01*
X211605500Y-125952135D01*
X211605500Y-126855547D01*
X211585815Y-126922586D01*
X211533011Y-126968341D01*
X211463853Y-126978285D01*
X211400297Y-126949260D01*
X211393819Y-126943228D01*
X211363819Y-126913228D01*
X211330334Y-126851905D01*
X211327500Y-126825547D01*
X211327500Y-122611505D01*
X211347185Y-122544466D01*
X211399989Y-122498711D01*
X211451189Y-122487505D01*
X215032195Y-122478652D01*
X215099281Y-122498171D01*
G37*
%TD.AperFunction*%
%TD*%
M02*
